<?xml version="1.0" encoding="UTF-8"?>
<svg id="BOTIKA" xmlns="http://www.w3.org/2000/svg" viewBox="0 0 1524 500">
  <g id="Layer_1">
    <g id="BOTIKA-2" data-name="BOTIKA">
      <path d="M1007.1,337.77c-.41-3.71-.06-120.48-.06-124.05v-62.02c0-13.76-2.6-17.1,12.38-18.37,5.55-.47,23.64-1.47,24.6,5.9.42,3.19.06,176.47.06,186.06,0,3.26.55,12.23-.71,14.56-1.51,2.8-7.4,3.57-11.56,3.86-6.99.5-23.88,1.64-24.72-5.94h0ZM331.6,351.4c-3.59,4.78-21.38,22.8-26.65,29.01l-23.14,24.83c-1.5,1.68-2.04,2.5-3.93,4.26l-5.64,6.06c-.9.98-1.08,1.47-2.14,2.21l-.04-66.32c-9.1-.45-19.21-.05-28.43-.05h-56.95c-16.89,0-35.75,2.94-43.16-13.77-3.05-6.88-2.28-18.36-2.28-26.38v-114.3c0-11.8-1.35-46.7,2.07-55.46,6.71-17.18,26.5-14.36,42.6-14.36h171.25c16.2,0,36.86-3.23,44.54,12.41,3.57,7.26,3,16.81,3,25.43v143.16c0,8.08.58,19.67-1.43,26.98-1.83,6.66-7.57,12.55-13.93,14.57-7.34,2.33-18.6,1.73-26.72,1.73-9.67,0-19.34-.03-29.01,0ZM1257.79,343.89c-20.35,0-21.2-.55-15.26-20.61,2.9-9.81,5.78-19.61,8.85-29.37,6.17-19.65,11.72-39.37,17.84-59.01,6.06-19.46,11.72-39.1,17.74-58.72,3.01-9.8,5.97-19.5,8.85-29.37,4.11-14.08,4.67-13.73,26.74-13.73,5.39,0,13.02-.08,18.06.96,6.29,1.3,6.64,5.02,8.48,11.03l27.02,89.22c5.91,20.01,12.21,39.64,18.04,59.58,2.91,9.95,5.88,19.78,8.97,29.65,6.71,21.49,4.02,20.38-17.76,20.38-19.26,0-16.28-1.06-21.3-17.97-1.54-5.2-3.01-10.21-4.5-15.4-.79-2.75-3.64-13.51-4.63-15.1l-67.87-.06c-1.43,2.91-3.3,11.26-4.36,15.02-1.32,4.69-7.36,27.58-9.03,29.97-2.55,3.65-10.53,3.52-15.87,3.52ZM824.62,246.1c-2.99,57.88-28.73,103.34-93.84,100.28-66.99-3.15-80.12-59.91-77.64-116.27,2.62-59.76,31.38-102.9,94.01-99.77,31.34,1.57,51.13,14.94,62.37,34.31,12.59,21.7,16.6,52.4,15.1,81.45ZM589.08,228.9c.38.26-.03.1.86.46.62.25.6.21,1.21.37.68.18,1.37.34,2.13.58,23.02,7.24,32.76,30.24,31.31,54.42-1.66,27.8-17.27,44.77-38.87,52.29-13.53,4.71-25.42,4.97-40.59,4.97-7.2,0-40.8.77-44.9-.68-5.95-2.11-6.95-8.18-6.94-15.63v-159.93c0-17.04-3.74-32.69,12.82-32.68,15.19.02,30.47-.17,45.65.03,29.71.39,50.98,9.39,59,32.15,6.38,18.09,3.97,39.68-8.24,54-2.47,2.9-8.48,8.14-13.44,9.66h0ZM923.99,167.84c-.69,3.69-.17,90.35-.17,96.59l-.07,72.44c-.91,6.3-12.32,6.09-18.19,6.11-23.69.07-18.87-3.73-18.87-29.79v-120.93c0-7.07.63-17.7-.09-24.34-3.83-.42-32.05-.09-38.38-.09-8.15,0-10.57,1.11-11.83-7.47-.74-5.06-1.45-21.19,1.89-25.63,1.78-2.37,4.45-1.67,7.99-1.67h116.63c8.25,0,10.28-.52,11.31,8.11.67,5.58.72,12.73.02,18.32-1.1,8.76-2.81,8.34-11.33,8.34-12.97,0-25.94,0-38.9,0ZM1125.34,238.06c-.73,8.84-.08,20.72-.08,29.89v60.85c0,10.07,2.31,14.6-15.3,15.06-4.57.12-9.92.11-14.27-.78-5.2-1.07-7.38-2.35-7.38-8.04v-182.17c0-15.72-2.26-18.05,11.16-19.43,6.69-.69,23.09-1.1,25.27,4.25,1.14,2.82.47,83.64.53,90.86l50.22-83.47c3.71-6.22,4.28-9.73,11.09-11.13,5.68-1.16,15.28-1.12,21.09-.43,7.37.87,12.75,2.72,9.59,11.2-1.91,5.13-5.22,10.32-7.89,14.35-6.04,9.13-11.96,17.95-17.92,26.93l-26.62,40.08c-3.43,5.16-3.1,2.52,3.61,14.57,13.08,23.5,27.62,47.27,40.74,70.83,3.62,6.49,17.17,25.65,8.88,30.24-4.21,2.33-14.92,2.26-20.35,2.13-7.65-.19-13.42-.46-16.73-5.34l-23.88-43.21c-5.11-9.78-10.54-18.98-15.84-28.62-3.01-5.46-13.41-24.89-15.92-28.62h0ZM26.7,58.08v383.84c0,8.64.21,19.75,3.76,27.06,6.62,13.61,20.2,17.02,34.86,17.02h1392.59c11.51,0,23.82-1.41,31.15-10.58,1.51-1.89,2.95-3.54,4.22-5.92,3.81-7.15,4.02-18.97,4.02-27.57V58.08c0-6.47-.21-13.8-1.33-19.34-.63-3.12-1.22-5.23-2.43-7.71-6.62-13.61-20.2-17.02-34.86-17.02H66.09c-9.67,0-18.28.79-25.57,5.63-1.95,1.29-4.19,3.21-5.58,4.95-3.87,4.85-5.48,6.99-6.85,13.83-1.15,5.76-1.4,12.95-1.4,19.67Z" style="fill: #001b3c; fill-rule: evenodd;"/>
      <path d="M160.53,281.29c2.68,2.46,4.16,6.56,11.95,9,27.73,8.69,42.29-32,73.93-27.1,11.72,1.82,18.69,7.57,24.49,16.78,1.52-1.46,3.02-5.89,10.04-10.94,3.84-2.76,9.21-4.97,14.84-5.81,31.84-4.74,46.17,36.23,74.12,26.9,2.91-.97,4.62-2.18,6.76-3.77,2.39-1.77,3.17-3.82,4.85-5.06,1.16,15.35-5.03,27.06-12.1,34.88-7.29,8.05-20.02,13.49-31.23,15.97-13.41,2.97-28.97,3.06-41.55-1.4-9.33-3.31-15.13-7.65-21.04-14.46-3-3.45-3.5-5.89-4.8-7.03-16.01,34.46-78.24,29.86-98.52,6.59-7.57-8.68-14.2-22.49-11.75-34.55ZM213.15,209.67c10.99-2.21,19.27,5.11,21.15,13.69,2.4,10.93-5.22,19.42-13.59,21.29-10.69,2.39-19.57-5.07-21.38-13.58-2.33-10.97,5.12-19.66,13.82-21.41ZM321.04,209.79c10.78-2.65,19.57,4.99,21.45,13.48,2.37,10.72-4.81,19.16-13.09,21.26-11.09,2.81-19.83-4.86-21.81-13.28-2.64-11.22,4.97-19.38,13.45-21.46ZM331.6,351.4c9.67-.03,19.34,0,29.01,0,8.12,0,19.38.6,26.72-1.73,6.35-2.01,12.09-7.91,13.93-14.57,2.01-7.31,1.43-18.9,1.43-26.98v-143.16c0-8.62.57-18.17-3-25.43-7.68-15.64-28.34-12.41-44.54-12.41h-171.25c-16.1,0-35.89-2.82-42.6,14.36-3.42,8.76-2.07,43.67-2.07,55.46v114.3c0,8.03-.77,19.5,2.28,26.38,7.41,16.72,26.27,13.77,43.16,13.77h56.95c9.21,0,19.33-.39,28.43.05l.04,66.32c1.06-.74,1.24-1.23,2.14-2.21l5.64-6.06c1.89-1.77,2.43-2.59,3.93-4.26l23.14-24.83c5.28-6.2,23.07-24.22,26.65-29.01Z" style="fill: #fff; fill-rule: evenodd;"/>
      <path d="M732.37,165.58c9.12-1.25,19.04-.09,26.59,3.21,22.2,9.7,26.35,39.94,27.02,62.85.88,29.89-3.64,74.7-40.53,79.41-20.4,2.6-35.08-5.06-42.46-16.87-8.17-13.07-10.68-30.99-11.19-48.86-.53-18.28.67-37.43,7.23-52.83,5.66-13.29,16.19-24.56,33.33-26.91ZM824.62,246.1c1.5-29.06-2.51-59.75-15.1-81.45-11.24-19.37-31.03-32.74-62.37-34.31-62.63-3.14-91.38,40.01-94.01,99.77-2.48,56.36,10.65,113.12,77.64,116.27,65.11,3.07,90.84-42.4,93.84-100.28h0Z" style="fill: #fff; fill-rule: evenodd;"/>
      <path d="M529.59,250.1c23.84,0,56.02-4.49,56.83,29.53.33,13.87-6.1,23.46-15.79,27.47-8.85,3.66-30.23,2.38-41.14,2.38,0,0,.1-59.39.1-59.39ZM529.49,164.94c14.58,0,34.7-2.15,42.63,8.9,4.87,6.78,6.1,17.1,3.8,26.61-5.53,22.79-27.3,18.71-46.41,18.71l-.02-1.54v-52.68s0,0,0,0ZM589.08,228.9c4.96-1.52,10.97-6.76,13.44-9.66,12.21-14.32,14.62-35.91,8.24-54-8.03-22.76-29.3-31.76-59-32.15-15.18-.2-30.46,0-45.65-.03-16.55-.02-12.82,15.64-12.82,32.68v159.93c0,7.45.99,13.53,6.94,15.63,4.09,1.45,37.7.68,44.9.68,15.17,0,27.06-.26,40.59-4.97,21.6-7.52,37.21-24.49,38.87-52.29,1.45-24.17-8.29-47.18-31.31-54.42-.76-.24-1.45-.4-2.13-.58-.61-.16-.59-.12-1.21-.37-.89-.36-.48-.2-.86-.46h0Z" style="fill: #fff; fill-rule: evenodd;"/>
      <path d="M1295.34,262.7c-.01-1.16,24.67-87.2,25.6-88.68l25.51,88.67h-51.11s0,0,0,0ZM1257.79,343.89c5.35,0,13.32.13,15.87-3.52,1.67-2.39,7.71-25.28,9.03-29.97,1.06-3.76,2.93-12.11,4.36-15.02l67.87.06c.99,1.59,3.84,12.35,4.63,15.1,1.49,5.19,2.96,10.2,4.5,15.4,5.02,16.91,2.04,17.97,21.3,17.97,21.78,0,24.47,1.11,17.76-20.38-3.08-9.88-6.06-19.71-8.97-29.65-5.84-19.95-12.13-39.57-18.04-59.58l-27.02-89.22c-1.84-6.01-2.19-9.73-8.48-11.03-5.04-1.04-12.67-.96-18.06-.96-22.07,0-22.63-.35-26.74,13.73-2.88,9.87-5.85,19.58-8.85,29.37-6.02,19.63-11.68,39.26-17.74,58.72-6.12,19.64-11.66,39.37-17.84,59.01-3.07,9.77-5.95,19.56-8.85,29.37-5.94,20.06-5.09,20.61,15.26,20.61Z" style="fill: #fff; fill-rule: evenodd;"/>
      <path d="M1125.34,238.06c2.51,3.73,12.91,23.16,15.92,28.62,5.3,9.64,10.73,18.83,15.84,28.62l23.88,43.21c3.31,4.87,9.08,5.15,16.73,5.34,5.43.13,16.14.2,20.35-2.13,8.3-4.59-5.26-23.75-8.88-30.24-13.12-23.56-27.66-47.33-40.74-70.83-6.71-12.05-7.04-9.41-3.61-14.57l26.62-40.08c5.96-8.98,11.88-17.8,17.92-26.93,2.67-4.03,5.98-9.23,7.89-14.35,3.15-8.48-2.23-10.32-9.59-11.2-5.81-.69-15.4-.74-21.09.43-6.81,1.4-7.39,4.91-11.09,11.13l-50.22,83.47c-.06-7.23.62-88.05-.53-90.86-2.17-5.35-18.57-4.93-25.27-4.25-13.42,1.38-11.15,3.71-11.15,19.43v182.17c-.02,5.69,2.16,6.97,7.37,8.04,4.35.89,9.7.9,14.27.78,17.6-.47,15.3-5,15.3-15.06v-60.85c0-9.17-.66-21.05.08-29.89h0Z" style="fill: #fff; fill-rule: evenodd;"/>
      <path d="M732.37,165.58c-17.14,2.35-27.67,13.62-33.33,26.91-6.56,15.41-7.76,34.55-7.23,52.83.51,17.87,3.03,35.79,11.19,48.86,7.38,11.81,22.06,19.47,42.46,16.87,36.89-4.7,41.41-49.52,40.53-79.41-.67-22.91-4.83-53.16-27.02-62.85-7.56-3.3-17.47-4.47-26.59-3.21h0Z" style="fill: #001b3c; fill-rule: evenodd;"/>
      <path d="M923.99,167.84c12.97,0,25.94,0,38.9,0,8.53,0,10.23.41,11.33-8.34.7-5.58.65-12.73-.02-18.32-1.04-8.63-3.06-8.11-11.31-8.11h-116.63c-3.54,0-6.21-.7-7.99,1.67-3.34,4.44-2.63,20.57-1.89,25.63,1.26,8.57,3.68,7.47,11.83,7.47,6.33,0,34.55-.33,38.38.09.72,6.64.09,17.27.09,24.34v120.93c0,26.06-4.82,29.86,18.87,29.79,5.87-.02,17.28.2,18.19-6.11l.07-72.44c0-6.24-.51-92.91.17-96.59h0Z" style="fill: #fff; fill-rule: evenodd;"/>
      <path d="M160.53,281.29c-2.45,12.06,4.18,25.87,11.75,34.55,20.27,23.27,82.51,27.87,98.52-6.59,1.3,1.14,1.8,3.58,4.8,7.03,5.91,6.81,11.72,11.15,21.04,14.46,12.58,4.46,28.13,4.37,41.55,1.4,11.21-2.49,23.95-7.92,31.23-15.97,7.07-7.81,13.25-19.52,12.1-34.88-1.69,1.24-2.47,3.29-4.85,5.06-2.14,1.59-3.85,2.8-6.76,3.77-27.96,9.33-42.29-31.64-74.12-26.9-5.63.84-11,3.04-14.84,5.81-7.03,5.05-8.52,9.48-10.04,10.94-5.81-9.2-12.78-14.96-24.49-16.78-31.64-4.9-46.2,35.79-73.93,27.1-7.78-2.44-9.27-6.54-11.95-9Z" style="fill: #001b3c; fill-rule: evenodd;"/>
      <path d="M1007.1,337.77c.84,7.58,17.74,6.45,24.72,5.94,4.16-.3,10.05-1.06,11.56-3.86,1.26-2.33.71-11.3.71-14.56,0-9.58.35-182.86-.06-186.06-.96-7.38-19.05-6.37-24.6-5.9-14.98,1.27-12.38,4.61-12.38,18.37v62.02c0,3.57-.36,120.34.06,124.05h0Z" style="fill: #fff; fill-rule: evenodd;"/>
      <path d="M529.49,309.49c10.91,0,32.3,1.28,41.14-2.38,9.69-4.01,16.11-13.6,15.79-27.47-.8-34.02-32.98-29.53-56.83-29.53,0,0-.1,59.39-.1,59.39Z" style="fill: #001b3c; fill-rule: evenodd;"/>
      <path d="M529.49,217.62l.02,1.54c19.11,0,40.89,4.08,46.41-18.71,2.3-9.5,1.07-19.83-3.8-26.61-7.93-11.05-28.05-8.9-42.63-8.9v52.68s0,0,0,0Z" style="fill: #001b3c; fill-rule: evenodd;"/>
      <path d="M1295.34,262.7h51.11s-25.51-88.68-25.51-88.68c-.93,1.48-25.61,87.52-25.6,88.68h0Z" style="fill: #001b3c; fill-rule: evenodd;"/>
      <path d="M213.15,209.67c-8.7,1.75-16.15,10.44-13.82,21.41,1.81,8.5,10.69,15.97,21.38,13.58,8.37-1.87,15.99-10.37,13.59-21.29-1.88-8.58-10.16-15.9-21.15-13.69Z" style="fill: #001b3c; fill-rule: evenodd;"/>
      <path d="M321.04,209.79c-8.48,2.08-16.09,10.24-13.45,21.46,1.98,8.43,10.72,16.09,21.81,13.28,8.28-2.1,15.46-10.53,13.09-21.26-1.88-8.49-10.67-16.13-21.45-13.48Z" style="fill: #001b3c; fill-rule: evenodd;"/>
    </g>
  </g>
</svg>