<?xml version="1.0" encoding="UTF-8"?>
<svg id="HAMPARAN" xmlns="http://www.w3.org/2000/svg" viewBox="0 0 1850 500">
  <path d="M875.33,355.88v-198.82h-21.29v-42.87h44.02v27.62h12.08c5.95-9.97,14-17.65,24.17-23.02,10.16-5.37,22.44-8.06,36.83-8.06,17.65,0,32.61,3.7,44.88,11.08,12.28,7.39,21.58,17.79,27.91,31.22s9.49,29.25,9.49,47.48-3.12,34.05-9.35,47.48c-6.23,13.43-15.21,23.83-26.9,31.22-11.7,7.39-25.8,11.08-42.3,11.08-13.04,0-24.27-2.49-33.66-7.48-9.4-4.99-16.69-11.99-21.87-21h-1.15v94.09h-42.87ZM388.5,289.99c-20.14,0-35.92-4.89-47.33-14.67-11.41-9.78-17.12-22.73-17.12-38.84s5.8-29.92,17.41-39.13c11.6-9.2,28.34-13.81,50.21-13.81h52.65v-6.91c0-21.1-12.28-31.65-36.83-31.65-20.91,0-33.48,7.48-37.69,22.44h-42.87c3.64-18.42,12.37-32.46,26.19-42.15,13.81-9.68,31.94-14.53,54.38-14.53,25.32,0,44.6,5.71,57.83,17.12,13.24,11.41,19.86,28.05,19.86,49.92v66.18h20.43v42.87h-44.02v-27.62h-12.08c-5.95,9.78-13.96,17.36-24.03,22.73-10.07,5.37-22.39,8.06-36.97,8.06h0ZM1138.88,289.99c-20.14,0-35.92-4.89-47.33-14.67-11.41-9.78-17.12-22.73-17.12-38.84s5.8-29.92,17.41-39.13,28.34-13.81,50.21-13.81h52.65v-6.91c0-21.1-12.28-31.65-36.83-31.65-20.91,0-33.48,7.48-37.69,22.44h-42.87c3.64-18.42,12.37-32.46,26.18-42.15,13.81-9.68,31.94-14.53,54.38-14.53,25.32,0,44.6,5.71,57.83,17.12,13.24,11.41,19.86,28.05,19.86,49.92v66.18h20.43v42.87h-44.02v-27.62h-12.08c-5.95,9.78-13.96,17.36-24.03,22.73s-22.39,8.06-36.97,8.06h.01ZM1475.24,289.99c-20.14,0-35.92-4.89-47.33-14.67-11.41-9.78-17.12-22.73-17.12-38.84s5.8-29.92,17.41-39.13c11.6-9.2,28.34-13.81,50.21-13.81h52.65v-6.91c0-21.1-12.28-31.65-36.83-31.65-20.91,0-33.48,7.48-37.69,22.44h-42.87c3.64-18.42,12.37-32.46,26.19-42.15,13.81-9.68,31.94-14.53,54.38-14.53,25.32,0,44.6,5.71,57.83,17.12,13.24,11.41,19.86,28.05,19.86,49.92v66.18h20.43v42.87h-44.02v-27.62h-12.08c-5.95,9.78-13.96,17.36-24.03,22.73-10.07,5.37-22.39,8.06-36.97,8.06h0ZM1293.97,286.83v-129.77h-21.29v-42.87h43.73v33.37h12.08c4.79-11.51,12.18-20.23,22.15-26.18,9.97-5.95,21.39-8.92,34.24-8.92h14.39v36.83h-16.4c-15.73,0-27.43,4.51-35.1,13.53-7.67,9.02-11.51,21-11.51,35.97v88.04h-42.3,0ZM1627.45,286.83v-129.77h-21.29v-42.87h44.02v27.62h12.08c6.52-9.78,14.86-17.36,25.03-22.73,10.16-5.37,22.63-8.06,37.41-8.06,23.59,0,41.87,6.52,54.81,19.57,12.95,13.04,19.42,30.4,19.42,52.08v104.16h-42.87v-96.1c0-13.62-3.59-23.98-10.79-31.08-7.19-7.09-17.89-10.64-32.08-10.64s-24.41,3.55-31.8,10.64c-7.39,7.1-11.08,17.46-11.08,31.08v96.1h-42.87ZM540.7,286.83v-129.77h-21.29v-42.87h44.02v27.62h12.95c5.75-9.78,13.48-17.36,23.16-22.73,9.68-5.37,21.63-8.06,35.82-8.06s25.32,2.54,35.1,7.63c9.78,5.08,17.65,12.61,23.59,22.59h.86c12.85-20.14,32.61-30.21,59.27-30.21,22.06,0,39.42,6.38,52.08,19.14,12.66,12.76,18.99,30.07,18.99,51.93v104.73h-42.87v-96.96c0-27.24-13.04-40.86-39.13-40.86s-38.84,13.62-38.84,40.86v96.96h-42.87v-96.96c0-27.24-13.14-40.86-39.42-40.86-12.66,0-22.25,3.41-28.77,10.21-6.52,6.81-9.78,17.02-9.78,30.64v96.96h-42.88ZM94.67,53.77h29.12v93.22h120.56V53.77h43.73v233.06h-43.73v-101.86h-120.56v101.86h-44.02V64.06h-28.71V23h43.62v30.76h0ZM394.83,256.9c9.4,0,17.84-1.77,25.32-5.32,7.48-3.55,13.38-8.35,17.7-14.39s6.47-12.8,6.47-20.29v-4.03h-50.35c-19.38,0-29.06,7.19-29.06,21.58,0,7.1,2.63,12.61,7.91,16.54,5.27,3.93,12.61,5.9,22.01,5.9h0ZM1145.21,256.9c9.4,0,17.84-1.77,25.32-5.32,7.48-3.55,13.38-8.35,17.7-14.39s6.47-12.8,6.47-20.29v-4.03h-50.35c-19.38,0-29.06,7.19-29.06,21.58,0,7.1,2.63,12.61,7.91,16.54,5.27,3.93,12.61,5.9,22.01,5.9h0ZM1481.57,256.9c9.4,0,17.84-1.77,25.32-5.32,7.48-3.55,13.38-8.35,17.7-14.39,4.31-6.04,6.47-12.8,6.47-20.29v-4.03h-50.35c-19.38,0-29.06,7.19-29.06,21.58,0,7.1,2.63,12.61,7.91,16.54,5.27,3.93,12.61,5.9,22.01,5.9h0ZM963.38,253.17c15.54,0,27.28-4.65,35.25-13.96,7.96-9.3,11.94-22.2,11.94-38.7s-3.98-29.4-11.94-38.7c-7.96-9.3-19.71-13.96-35.25-13.96-13.62,0-24.55,3.88-32.8,11.65-8.25,7.77-12.37,18.27-12.37,31.51v18.99c0,13.24,4.12,23.74,12.37,31.51,8.24,7.77,19.18,11.65,32.8,11.65h0Z" style="fill: #ee275e;"/>
  <g>
    <path d="M99.06,463.18c-5.87,0-10.55-1.28-14.04-3.86-3.49-2.57-5.41-6.12-5.75-10.64h5.93c.08,3.07,1.34,5.45,3.77,7.13,2.44,1.69,5.86,2.53,10.27,2.53,3.88,0,6.86-.71,8.95-2.13,2.09-1.42,3.14-3.51,3.14-6.27,0-2.15-.74-3.92-2.21-5.32-1.48-1.4-3.65-2.37-6.53-2.9l-8.69-1.67c-3.91-.77-6.92-2.18-9.04-4.26-2.11-2.07-3.16-4.64-3.16-7.71,0-3.95,1.48-7.09,4.43-9.41s6.96-3.48,12.02-3.48,9.34,1.22,12.57,3.65c3.24,2.44,5.13,5.82,5.67,10.16h-5.93c-1.19-5.98-5.39-8.98-12.6-8.98-3.37,0-6.01.66-7.91,1.99-1.9,1.33-2.85,3.22-2.85,5.67,0,3.99,2.84,6.54,8.51,7.65l9.04,1.78c3.95.77,6.95,2.21,9.01,4.31s3.08,4.81,3.08,8.11c0,4.3-1.57,7.64-4.72,10.04-3.14,2.39-7.46,3.59-12.95,3.59h0Z" style="fill: #fff;"/>
    <path d="M132.78,462.49v-34.53h5.41v34.53h-5.41ZM135.48,422.79c-.96,0-1.77-.34-2.45-1.01-.67-.67-1.01-1.49-1.01-2.45s.34-1.78,1.01-2.45,1.49-1.01,2.45-1.01,1.78.34,2.45,1.01,1.01,1.49,1.01,2.45-.34,1.78-1.01,2.45-1.48,1.01-2.45,1.01h0Z" style="fill: #fff;"/>
    <path d="M156.54,462.49v-28.77h-2.88v-5.75h5.98v5.18h2.88c.92-1.88,2.32-3.32,4.2-4.31,1.88-1,4.13-1.49,6.73-1.49s4.98.56,6.88,1.67c1.9,1.12,3.41,2.84,4.52,5.18h.17c2.34-4.57,6.33-6.85,11.97-6.85,4.14,0,7.37,1.2,9.7,3.59s3.48,5.72,3.48,9.98v21.58h-5.41v-20.89c0-6.37-3.13-9.55-9.38-9.55s-9.32,3.19-9.32,9.55v20.89h-5.41v-20.89c0-6.37-3.13-9.55-9.38-9.55-3.03,0-5.34.82-6.94,2.45-1.59,1.63-2.39,4-2.39,7.1v20.89h-5.41Z" style="fill: #fff;"/>
    <path d="M227.9,476.3v-42.59h-2.88v-5.75h5.98v5.18h2.42c1.15-1.92,2.71-3.37,4.66-4.37,1.96-1,4.31-1.49,7.08-1.49,3.41,0,6.33.72,8.75,2.16,2.42,1.44,4.27,3.5,5.55,6.19,1.28,2.68,1.93,5.89,1.93,9.61s-.63,6.92-1.9,9.61-3.08,4.75-5.44,6.19-5.17,2.16-8.43,2.16c-2.8,0-5.24-.56-7.34-1.7-2.09-1.13-3.67-2.75-4.75-4.86h-.23v19.68h-5.41ZM244.42,458.58c3.65,0,6.49-1.17,8.51-3.51,2.03-2.34,3.05-5.62,3.05-9.84s-1.01-7.5-3.05-9.84c-2.03-2.34-4.87-3.51-8.51-3.51-3.34,0-6.02.96-8.06,2.88-2.03,1.92-3.05,4.47-3.05,7.65v5.64c0,3.19,1.02,5.74,3.05,7.65,2.03,1.92,4.72,2.88,8.06,2.88h0Z" style="fill: #fff;"/>
    <polygon points="276.64 462.49 276.64 414.16 282.05 414.16 282.05 462.49 276.64 462.49 276.64 462.49" style="fill: #fff;"/>
    <path d="M299.66,462.49v-34.53h5.41v34.53h-5.41ZM302.37,422.79c-.96,0-1.77-.34-2.45-1.01-.67-.67-1.01-1.49-1.01-2.45s.34-1.78,1.01-2.45,1.49-1.01,2.45-1.01,1.78.34,2.45,1.01,1.01,1.49,1.01,2.45-.34,1.78-1.01,2.45-1.48,1.01-2.45,1.01h0Z" style="fill: #fff;"/>
    <path d="M325.67,462.49v-30.39h-7.31v-4.14h7.37v-8.63c0-1.73.49-3.02,1.47-3.88.98-.86,2.29-1.3,3.94-1.3h9.44v4.14h-9.55v9.67h8.86v4.14h-8.8v30.39h-5.42Z" style="fill: #fff;"/>
    <path d="M351.45,476.3v-4.26h8.57l3.91-9.32-15.71-34.75h5.58l12.55,28.2h.29l11.91-28.2h5.18l-14.67,34.53-3.68,8.63c-.69,1.57-1.33,2.83-1.9,3.77-.58.94-1.7,1.41-3.4,1.41h-8.63,0Z" style="fill: #fff;"/>
    <path d="M396.33,462.49v-34.53h5.41v34.53h-5.41ZM399.04,422.79c-.96,0-1.77-.34-2.45-1.01-.67-.67-1.01-1.49-1.01-2.45s.34-1.78,1.01-2.45,1.49-1.01,2.45-1.01,1.78.34,2.45,1.01,1.01,1.49,1.01,2.45-.34,1.78-1.01,2.45-1.48,1.01-2.45,1.01h0Z" style="fill: #fff;"/>
    <path d="M420.1,462.49v-28.77h-2.88v-5.75h5.98v5.18h2.42c1.15-1.92,2.77-3.37,4.86-4.34,2.09-.98,4.48-1.47,7.16-1.47,4.34,0,7.79,1.27,10.36,3.8,2.57,2.53,3.86,5.9,3.86,10.13v21.24h-5.41v-20.43c0-3.26-.89-5.75-2.68-7.45-1.78-1.7-4.38-2.56-7.79-2.56s-5.96.85-7.77,2.56c-1.8,1.7-2.71,4.19-2.71,7.45v20.43h-5.41,0Z" style="fill: #fff;"/>
    <path d="M482.77,476.99c-4.64,0-8.42-.98-11.33-2.93s-4.64-4.66-5.18-8.11h5.75c1.07,4.22,4.66,6.33,10.76,6.33,3.8,0,6.71-.9,8.75-2.71s3.05-4.39,3.05-7.77v-5.87h-.29c-.88,2.07-2.36,3.68-4.43,4.84s-4.49,1.73-7.25,1.73c-3.3,0-6.16-.72-8.57-2.16-2.42-1.44-4.28-3.47-5.58-6.1s-1.96-5.75-1.96-9.35c0-5.41,1.46-9.7,4.37-12.86,2.92-3.16,6.87-4.75,11.86-4.75,2.76,0,5.12.5,7.08,1.49s3.51,2.45,4.66,4.37h2.42v-5.18h5.98v5.75h-2.88v28.48c0,4.64-1.51,8.27-4.52,10.88s-7.24,3.91-12.69,3.91h0ZM483.86,457.77c3.19,0,5.77-.94,7.74-2.82,1.97-1.88,2.96-4.35,2.96-7.42v-5.29c0-3.07-.98-5.54-2.96-7.42-1.97-1.88-4.55-2.82-7.74-2.82-3.72,0-6.65,1.13-8.77,3.4-2.13,2.26-3.19,5.43-3.19,9.49s1.06,7.23,3.19,9.49,5.06,3.4,8.77,3.4h0Z" style="fill: #fff;"/>
    <polygon points="561.2 462.49 555.68 462.49 555.68 420.6 538.53 420.6 538.53 415.88 578.35 415.88 578.35 420.6 561.2 420.6 561.2 462.49 561.2 462.49" style="fill: #fff;"/>
    <path d="M601.25,463.18c-3.53,0-6.6-.74-9.2-2.21s-4.62-3.58-6.04-6.3c-1.42-2.72-2.13-5.9-2.13-9.55s.71-6.8,2.13-9.47,3.41-4.73,5.98-6.19c2.57-1.46,5.58-2.18,9.04-2.18,3.26,0,6.08.66,8.46,1.99,2.38,1.33,4.23,3.19,5.55,5.61,1.33,2.42,1.99,5.27,1.99,8.57v2.42h-27.97c.16,3.95,1.31,7.04,3.48,9.26,2.17,2.23,5.05,3.34,8.66,3.34,2.5,0,4.61-.54,6.36-1.61s2.95-2.63,3.59-4.66h5.53c-.88,3.49-2.68,6.19-5.38,8.11-2.71,1.92-6.05,2.88-10.04,2.88h0ZM589.34,441.72h22.44c-.27-3.11-1.36-5.53-3.28-7.25-1.91-1.73-4.43-2.59-7.54-2.59s-5.69.86-7.74,2.59c-2.05,1.73-3.35,4.14-3.88,7.25h0Z" style="fill: #fff;"/>
    <path d="M647.06,463.18c-3.49,0-6.52-.74-9.09-2.21s-4.55-3.56-5.96-6.25c-1.4-2.68-2.1-5.85-2.1-9.49s.69-6.81,2.07-9.49c1.38-2.68,3.36-4.77,5.93-6.25,2.57-1.48,5.62-2.21,9.15-2.21,4.1,0,7.54,1.01,10.3,3.02,2.76,2.02,4.63,4.96,5.58,8.83h-5.53c-.69-2.45-1.9-4.26-3.62-5.41-1.73-1.15-3.97-1.73-6.73-1.73-3.72,0-6.61,1.16-8.66,3.48s-3.08,5.57-3.08,9.76,1.03,7.39,3.08,9.73,4.94,3.51,8.66,3.51c5.75,0,9.28-2.57,10.59-7.71h5.53c-.92,4.07-2.78,7.16-5.58,9.26s-6.31,3.16-10.53,3.16h0Z" style="fill: #fff;"/>
    <path d="M676.18,462.49v-48.34h5.41v19.57h.23c1.12-2.07,2.69-3.65,4.75-4.75,2.05-1.09,4.44-1.64,7.16-1.64,4.34,0,7.79,1.27,10.36,3.8,2.57,2.53,3.86,5.9,3.86,10.13v21.24h-5.41v-20.43c0-3.26-.89-5.75-2.68-7.45-1.78-1.7-4.38-2.56-7.79-2.56s-5.96.85-7.77,2.56c-1.8,1.7-2.71,4.19-2.71,7.45v20.43h-5.41Z" style="fill: #fff;"/>
    <path d="M725.67,462.49v-28.77h-2.88v-5.75h5.98v5.18h2.42c1.15-1.92,2.77-3.37,4.86-4.34,2.09-.98,4.48-1.47,7.16-1.47,4.34,0,7.79,1.27,10.36,3.8,2.57,2.53,3.86,5.9,3.86,10.13v21.24h-5.41v-20.43c0-3.26-.89-5.75-2.68-7.45-1.78-1.7-4.38-2.56-7.79-2.56s-5.96.85-7.77,2.56c-1.8,1.7-2.71,4.19-2.71,7.45v20.43h-5.41Z" style="fill: #fff;"/>
    <path d="M789.48,463.18c-3.53,0-6.6-.74-9.2-2.21s-4.63-3.56-6.07-6.25c-1.44-2.68-2.16-5.85-2.16-9.49s.71-6.81,2.13-9.49c1.42-2.68,3.44-4.77,6.07-6.25,2.63-1.48,5.71-2.21,9.23-2.21s6.7.73,9.29,2.18,4.6,3.53,6.01,6.22c1.42,2.68,2.13,5.87,2.13,9.55s-.71,6.82-2.13,9.52c-1.42,2.71-3.43,4.78-6.04,6.25-2.6,1.46-5.69,2.18-9.26,2.18h0ZM789.48,458.46c3.8,0,6.75-1.16,8.86-3.48s3.16-5.57,3.16-9.76-1.05-7.48-3.16-9.78c-2.11-2.3-5.06-3.45-8.86-3.45s-6.7,1.16-8.83,3.48c-2.13,2.32-3.19,5.57-3.19,9.76s1.06,7.43,3.19,9.76c2.13,2.32,5.08,3.48,8.83,3.48h0Z" style="fill: #fff;"/>
    <polygon points="822.17 462.49 822.17 414.16 827.58 414.16 827.58 462.49 822.17 462.49 822.17 462.49" style="fill: #fff;"/>
    <path d="M860.26,463.18c-3.53,0-6.59-.74-9.2-2.21-2.6-1.48-4.63-3.56-6.07-6.25-1.44-2.68-2.16-5.85-2.16-9.49s.71-6.81,2.13-9.49c1.42-2.68,3.44-4.77,6.07-6.25,2.63-1.48,5.71-2.21,9.23-2.21s6.7.73,9.29,2.18,4.6,3.53,6.01,6.22c1.42,2.68,2.13,5.87,2.13,9.55s-.71,6.82-2.13,9.52c-1.42,2.71-3.43,4.78-6.04,6.25-2.6,1.46-5.69,2.18-9.26,2.18h0ZM860.26,458.46c3.8,0,6.75-1.16,8.86-3.48s3.16-5.57,3.16-9.76-1.05-7.48-3.16-9.78c-2.11-2.3-5.06-3.45-8.86-3.45s-6.7,1.16-8.83,3.48c-2.13,2.32-3.19,5.57-3.19,9.76s1.06,7.43,3.19,9.76c2.13,2.32,5.08,3.48,8.83,3.48h0Z" style="fill: #fff;"/>
    <path d="M906.88,476.99c-4.64,0-8.42-.98-11.33-2.93s-4.64-4.66-5.18-8.11h5.75c1.07,4.22,4.66,6.33,10.76,6.33,3.8,0,6.71-.9,8.75-2.71s3.05-4.39,3.05-7.77v-5.87h-.29c-.88,2.07-2.36,3.68-4.43,4.84s-4.49,1.73-7.25,1.73c-3.3,0-6.16-.72-8.57-2.16-2.42-1.44-4.28-3.47-5.58-6.1s-1.96-5.75-1.96-9.35c0-5.41,1.46-9.7,4.37-12.86,2.92-3.16,6.87-4.75,11.86-4.75,2.76,0,5.12.5,7.08,1.49s3.51,2.45,4.66,4.37h2.42v-5.18h5.98v5.75h-2.88v28.48c0,4.64-1.51,8.27-4.52,10.88s-7.24,3.91-12.69,3.91h0ZM907.97,457.77c3.19,0,5.77-.94,7.74-2.82s2.96-4.35,2.96-7.42v-5.29c0-3.07-.98-5.54-2.96-7.42-1.97-1.88-4.55-2.82-7.74-2.82-3.72,0-6.65,1.13-8.78,3.4-2.13,2.26-3.19,5.43-3.19,9.49s1.06,7.23,3.19,9.49c2.13,2.26,5.06,3.4,8.78,3.4h0Z" style="fill: #fff;"/>
    <path d="M940.71,476.3v-4.26h8.57l3.91-9.32-15.71-34.75h5.58l12.55,28.2h.29l11.91-28.2h5.18l-14.67,34.53-3.68,8.63c-.69,1.57-1.33,2.83-1.9,3.77s-1.7,1.41-3.4,1.41h-8.63Z" style="fill: #fff;"/>
    <path d="M977.6,471.58v-3.45h2.07c1,0,1.76-.26,2.3-.77s.8-1.3.8-2.33v-2.53h-3.11v-6.91h6.91v9.44c0,2.07-.56,3.68-1.7,4.84-1.13,1.15-2.75,1.73-4.86,1.73h-2.42,0Z" style="fill: #fff;"/>
    <path d="M1022.02,462.49l20.08-46.61h6.39l20.02,46.61h-5.53l-6.33-14.73h-22.9l-6.33,14.73h-5.41,0ZM1035.55,442.93h19.33l-9.49-22.21h-.29l-9.55,22.21h0Z" style="fill: #fff;"/>
    <path d="M1081.87,462.49v-28.77h-2.87v-5.75h5.98v5.18h2.87c.92-1.88,2.32-3.32,4.2-4.31,1.88-1,4.13-1.49,6.73-1.49s4.98.56,6.88,1.67c1.9,1.12,3.41,2.84,4.52,5.18h.17c2.34-4.57,6.33-6.85,11.97-6.85,4.14,0,7.37,1.2,9.7,3.59s3.48,5.72,3.48,9.98v21.58h-5.41v-20.89c0-6.37-3.13-9.55-9.38-9.55s-9.32,3.19-9.32,9.55v20.89h-5.41v-20.89c0-6.37-3.13-9.55-9.38-9.55-3.03,0-5.34.82-6.94,2.45-1.59,1.63-2.39,4-2.39,7.1v20.89h-5.41Z" style="fill: #fff;"/>
    <path d="M1153.22,476.3v-42.59h-2.88v-5.75h5.98v5.18h2.42c1.15-1.92,2.71-3.37,4.66-4.37,1.96-1,4.31-1.49,7.08-1.49,3.41,0,6.33.72,8.75,2.16,2.42,1.44,4.27,3.5,5.55,6.19,1.28,2.68,1.93,5.89,1.93,9.61s-.63,6.92-1.9,9.61c-1.27,2.68-3.08,4.75-5.44,6.19s-5.17,2.16-8.43,2.16c-2.8,0-5.24-.56-7.34-1.7-2.09-1.13-3.67-2.75-4.75-4.86h-.23v19.68h-5.41ZM1169.74,458.58c3.65,0,6.49-1.17,8.51-3.51,2.03-2.34,3.05-5.62,3.05-9.84s-1.01-7.5-3.05-9.84-4.87-3.51-8.51-3.51c-3.34,0-6.02.96-8.06,2.88-2.03,1.92-3.05,4.47-3.05,7.65v5.64c0,3.19,1.02,5.74,3.05,7.65,2.03,1.92,4.72,2.88,8.06,2.88h0Z" style="fill: #fff;"/>
    <polygon points="1201.97 462.49 1201.97 414.16 1207.38 414.16 1207.38 462.49 1201.97 462.49 1201.97 462.49" style="fill: #fff;"/>
    <path d="M1224.98,462.49v-34.53h5.41v34.53h-5.41ZM1227.69,422.79c-.96,0-1.77-.34-2.45-1.01-.67-.67-1.01-1.49-1.01-2.45s.34-1.78,1.01-2.45,1.49-1.01,2.45-1.01,1.78.34,2.45,1.01,1.01,1.49,1.01,2.45-.34,1.78-1.01,2.45-1.48,1.01-2.45,1.01h0Z" style="fill: #fff;"/>
    <path d="M1251,462.49v-30.39h-7.31v-4.14h7.37v-8.63c0-1.73.49-3.02,1.47-3.88.98-.86,2.29-1.3,3.94-1.3h9.44v4.14h-9.55v9.67h8.86v4.14h-8.8v30.39h-5.42Z" style="fill: #fff;"/>
    <path d="M1276.77,476.3v-4.26h8.57l3.91-9.32-15.71-34.75h5.58l12.55,28.2h.29l11.91-28.2h5.18l-14.67,34.53-3.68,8.63c-.69,1.57-1.33,2.83-1.9,3.77s-1.7,1.41-3.4,1.41h-8.63Z" style="fill: #fff;"/>
    <path d="M1321.66,462.49v-34.53h5.41v34.53h-5.41ZM1324.36,422.79c-.96,0-1.77-.34-2.45-1.01-.67-.67-1.01-1.49-1.01-2.45s.34-1.78,1.01-2.45c.67-.67,1.49-1.01,2.45-1.01s1.78.34,2.45,1.01,1.01,1.49,1.01,2.45-.34,1.78-1.01,2.45c-.67.67-1.48,1.01-2.45,1.01h0Z" style="fill: #fff;"/>
    <path d="M1345.42,462.49v-28.77h-2.88v-5.75h5.98v5.18h2.42c1.15-1.92,2.77-3.37,4.86-4.34,2.09-.98,4.48-1.47,7.16-1.47,4.34,0,7.79,1.27,10.36,3.8,2.57,2.53,3.86,5.9,3.86,10.13v21.24h-5.41v-20.43c0-3.26-.89-5.75-2.68-7.45-1.78-1.7-4.38-2.56-7.79-2.56s-5.96.85-7.77,2.56c-1.8,1.7-2.71,4.19-2.71,7.45v20.43h-5.41Z" style="fill: #fff;"/>
    <path d="M1408.09,476.99c-4.64,0-8.42-.98-11.33-2.93-2.92-1.96-4.64-4.66-5.18-8.11h5.75c1.07,4.22,4.66,6.33,10.76,6.33,3.8,0,6.71-.9,8.75-2.71,2.03-1.81,3.05-4.39,3.05-7.77v-5.87h-.29c-.88,2.07-2.36,3.68-4.43,4.84s-4.49,1.73-7.25,1.73c-3.3,0-6.16-.72-8.57-2.16-2.42-1.44-4.28-3.47-5.58-6.1-1.3-2.63-1.96-5.75-1.96-9.35,0-5.41,1.46-9.7,4.37-12.86s6.87-4.75,11.86-4.75c2.76,0,5.12.5,7.08,1.49s3.51,2.45,4.66,4.37h2.42v-5.18h5.98v5.75h-2.88v28.48c0,4.64-1.51,8.27-4.52,10.88s-7.24,3.91-12.69,3.91h0ZM1409.19,457.77c3.19,0,5.77-.94,7.74-2.82,1.97-1.88,2.96-4.35,2.96-7.42v-5.29c0-3.07-.98-5.54-2.96-7.42-1.97-1.88-4.55-2.82-7.74-2.82-3.72,0-6.65,1.13-8.77,3.4-2.13,2.26-3.19,5.43-3.19,9.49s1.06,7.23,3.19,9.49,5.05,3.4,8.77,3.4h0Z" style="fill: #fff;"/>
    <path d="M1468.46,462.49v-46.61h22.15c2.69,0,5.02.48,6.99,1.44,1.97.96,3.52,2.33,4.63,4.12,1.12,1.78,1.67,3.91,1.67,6.36,0,2.68-.85,4.88-2.53,6.59-1.69,1.7-3.61,2.77-5.75,3.19v.23c1.54.15,3.12.66,4.75,1.52,1.63.86,3.01,2.13,4.14,3.8,1.13,1.67,1.7,3.77,1.7,6.3s-.62,4.95-1.87,6.91-2.96,3.47-5.15,4.55c-2.18,1.07-4.7,1.61-7.54,1.61h-23.19,0ZM1473.98,457.77h16.4c3.19,0,5.69-.74,7.54-2.21s2.76-3.62,2.76-6.41-.91-4.97-2.74-6.39c-1.82-1.42-4.33-2.13-7.51-2.13h-16.46v17.15h0ZM1473.98,436.02h16c2.61,0,4.66-.67,6.16-2.02s2.24-3.24,2.24-5.69-.75-4.4-2.24-5.72c-1.49-1.33-3.55-1.99-6.16-1.99h-16v15.42h0Z" style="fill: #fff;"/>
    <path d="M1534.75,463.13c-4.3,0-7.71-1.23-10.24-3.68s-3.8-5.75-3.8-9.9v-21.58h5.41v20.43c0,3.26.86,5.75,2.59,7.45,1.73,1.7,4.22,2.56,7.48,2.56s6.08-.88,8-2.65c1.92-1.76,2.88-4.22,2.88-7.37v-20.43h5.41v28.77h2.88v5.75h-5.98v-5.18h-2.42c-1.19,1.88-2.83,3.32-4.92,4.31-2.09,1-4.52,1.49-7.28,1.49h0Z" style="fill: #fff;"/>
    <path d="M1583.26,463.18c-4.68,0-8.38-.97-11.11-2.9-2.72-1.94-4.22-4.65-4.49-8.14h5.41c.27,2.23,1.25,3.88,2.93,4.95,1.69,1.07,4.16,1.61,7.42,1.61,5.87,0,8.8-1.88,8.8-5.64,0-1.54-.45-2.71-1.35-3.54s-2.42-1.43-4.57-1.81l-7.54-1.38c-6.25-1.15-9.38-4.14-9.38-8.98,0-3.11,1.17-5.56,3.51-7.37,2.34-1.81,5.54-2.71,9.61-2.71s7.53.92,10.04,2.76c2.51,1.84,3.96,4.41,4.34,7.71h-5.29c-.42-2.03-1.38-3.54-2.88-4.52-1.49-.98-3.59-1.47-6.27-1.47s-4.55.45-5.93,1.35c-1.38.9-2.07,2.21-2.07,3.94,0,1.3.45,2.33,1.35,3.08.91.75,2.37,1.31,4.4,1.7l7.48,1.38c3.3.61,5.72,1.69,7.25,3.22,1.54,1.54,2.3,3.61,2.3,6.22,0,3.34-1.21,5.93-3.62,7.77s-5.87,2.76-10.36,2.76h-.01Z" style="fill: #fff;"/>
    <path d="M1611.69,462.49v-34.53h5.41v34.53h-5.41ZM1614.39,422.79c-.96,0-1.77-.34-2.45-1.01-.67-.67-1.01-1.49-1.01-2.45s.34-1.78,1.01-2.45c.67-.67,1.49-1.01,2.45-1.01s1.78.34,2.45,1.01,1.01,1.49,1.01,2.45-.34,1.78-1.01,2.45c-.67.67-1.48,1.01-2.45,1.01h0Z" style="fill: #fff;"/>
    <path d="M1635.46,462.49v-28.77h-2.88v-5.75h5.98v5.18h2.42c1.15-1.92,2.77-3.37,4.86-4.34,2.09-.98,4.48-1.47,7.16-1.47,4.34,0,7.79,1.27,10.36,3.8,2.57,2.53,3.86,5.9,3.86,10.13v21.24h-5.41v-20.43c0-3.26-.89-5.75-2.68-7.45-1.78-1.7-4.38-2.56-7.79-2.56s-5.96.85-7.77,2.56c-1.8,1.7-2.71,4.19-2.71,7.45v20.43h-5.41Z" style="fill: #fff;"/>
    <path d="M1699.21,463.18c-3.53,0-6.59-.74-9.2-2.21-2.6-1.48-4.62-3.58-6.04-6.3-1.42-2.72-2.13-5.9-2.13-9.55s.71-6.8,2.13-9.47,3.41-4.73,5.98-6.19c2.57-1.46,5.58-2.18,9.04-2.18,3.26,0,6.08.66,8.46,1.99,2.38,1.33,4.23,3.19,5.55,5.61,1.33,2.42,1.99,5.27,1.99,8.57v2.42h-27.97c.16,3.95,1.31,7.04,3.48,9.26,2.17,2.23,5.06,3.34,8.66,3.34,2.5,0,4.61-.54,6.36-1.61,1.75-1.07,2.95-2.63,3.59-4.66h5.53c-.88,3.49-2.68,6.19-5.38,8.11s-6.05,2.88-10.04,2.88h0ZM1687.3,441.72h22.44c-.27-3.11-1.36-5.53-3.28-7.25-1.91-1.73-4.43-2.59-7.54-2.59s-5.69.86-7.74,2.59c-2.05,1.73-3.35,4.14-3.88,7.25h0Z" style="fill: #fff;"/>
    <path d="M1742.66,463.18c-4.68,0-8.38-.97-11.11-2.9-2.72-1.94-4.22-4.65-4.49-8.14h5.41c.27,2.23,1.25,3.88,2.93,4.95,1.69,1.07,4.16,1.61,7.42,1.61,5.87,0,8.8-1.88,8.8-5.64,0-1.54-.45-2.71-1.35-3.54s-2.42-1.43-4.57-1.81l-7.54-1.38c-6.25-1.15-9.38-4.14-9.38-8.98,0-3.11,1.17-5.56,3.51-7.37,2.34-1.81,5.54-2.71,9.61-2.71s7.53.92,10.04,2.76c2.51,1.84,3.96,4.41,4.34,7.71h-5.29c-.42-2.03-1.38-3.54-2.88-4.52-1.49-.98-3.58-1.47-6.27-1.47s-4.55.45-5.93,1.35c-1.38.9-2.07,2.21-2.07,3.94,0,1.3.45,2.33,1.35,3.08.91.75,2.37,1.31,4.4,1.7l7.48,1.38c3.3.61,5.72,1.69,7.25,3.22,1.54,1.54,2.3,3.61,2.3,6.22,0,3.34-1.21,5.93-3.62,7.77s-5.87,2.76-10.36,2.76h-.01Z" style="fill: #fff;"/>
    <path d="M1783.52,463.18c-4.68,0-8.38-.97-11.11-2.9-2.72-1.94-4.22-4.65-4.49-8.14h5.41c.27,2.23,1.25,3.88,2.93,4.95,1.69,1.07,4.16,1.61,7.42,1.61,5.87,0,8.8-1.88,8.8-5.64,0-1.54-.45-2.71-1.35-3.54s-2.42-1.43-4.57-1.81l-7.54-1.38c-6.25-1.15-9.38-4.14-9.38-8.98,0-3.11,1.17-5.56,3.51-7.37,2.34-1.81,5.54-2.71,9.61-2.71s7.53.92,10.04,2.76c2.51,1.84,3.96,4.41,4.34,7.71h-5.29c-.42-2.03-1.38-3.54-2.87-4.52s-3.58-1.47-6.27-1.47-4.55.45-5.93,1.35c-1.38.9-2.07,2.21-2.07,3.94,0,1.3.45,2.33,1.35,3.08.91.75,2.37,1.31,4.4,1.7l7.48,1.38c3.3.61,5.72,1.69,7.25,3.22,1.54,1.54,2.3,3.61,2.3,6.22,0,3.34-1.21,5.93-3.62,7.77s-5.87,2.76-10.36,2.76h-.01Z" style="fill: #fff;"/>
  </g>
</svg>