<?xml version="1.0" encoding="UTF-8"?>
<svg id="MANDATECH" xmlns="http://www.w3.org/2000/svg" viewBox="0 0 2464 500">
  <path d="M781.72,39.37c2.12,0,4.31.58,6.57,1.73,2.42,1.01,4.23,2.38,5.44,4.11l55.09,80.91-11.34-.43,56.46-80.48c2.87-3.89,6.57-5.84,11.11-5.84,3.63,0,6.88,1.23,9.75,3.68,2.87,2.45,4.31,5.62,4.31,9.52v125.26c0,3.75-1.28,6.92-3.85,9.52-2.57,2.45-5.97,3.68-10.2,3.68s-7.71-1.23-10.43-3.68c-2.57-2.6-3.86-5.77-3.86-9.52v-101.89l8.84,1.95-46.25,67.28c-1.36,1.59-3.1,2.96-5.21,4.11-1.96,1.15-4,1.66-6.12,1.51-1.97.14-4.01-.36-6.12-1.51-1.97-1.15-3.63-2.52-4.99-4.11l-43.3-65.33,5.89-11.47v109.47c0,3.75-1.21,6.92-3.63,9.52-2.42,2.45-5.59,3.68-9.52,3.68s-6.88-1.23-9.3-3.68c-2.42-2.6-3.63-5.77-3.63-9.52V52.56c0-3.61,1.36-6.71,4.08-9.3,2.87-2.6,6.27-3.89,10.2-3.89ZM1050.24,73.11c3.93,0,7.18,1.23,9.75,3.68,2.57,2.45,3.86,5.62,3.86,9.52v91.51c0,3.75-1.28,6.92-3.86,9.52-2.57,2.45-5.82,3.68-9.75,3.68s-7.18-1.23-9.75-3.68c-2.57-2.6-3.86-5.77-3.86-9.52v-10.6l4.99,1.95c0,1.87-1.06,4.18-3.17,6.92-2.12,2.6-4.99,5.19-8.61,7.79-3.63,2.6-7.94,4.83-12.92,6.71-4.84,1.73-10.13,2.6-15.87,2.6-10.43,0-19.88-2.52-28.34-7.57-8.46-5.19-15.19-12.26-20.18-21.2-4.84-9.09-7.26-19.47-7.26-31.15s2.42-22.21,7.26-31.15c4.99-9.09,11.64-16.15,19.95-21.2,8.31-5.19,17.53-7.79,27.66-7.79,6.5,0,12.47.94,17.91,2.81,5.44,1.87,10.13,4.25,14.06,7.14,4.08,2.88,7.18,5.84,9.3,8.87,2.27,2.88,3.4,5.34,3.4,7.36l-8.16,2.81v-15.79c0-3.75,1.28-6.85,3.86-9.3,2.57-2.6,5.82-3.89,9.75-3.89ZM1004.44,169.38c6.65,0,12.47-1.59,17.46-4.76,4.99-3.17,8.84-7.5,11.56-12.98,2.87-5.48,4.31-11.61,4.31-18.39s-1.44-13.12-4.31-18.6c-2.72-5.48-6.58-9.81-11.56-12.98-4.99-3.17-10.81-4.76-17.46-4.76s-12.24,1.59-17.23,4.76c-4.99,3.17-8.92,7.5-11.79,12.98-2.72,5.48-4.08,11.68-4.08,18.6s1.36,12.91,4.08,18.39c2.87,5.48,6.8,9.81,11.79,12.98,4.99,3.17,10.73,4.76,17.23,4.76ZM1158.14,73.11c11.18,0,19.65,2.24,25.39,6.71,5.9,4.47,9.9,10.46,12.02,17.96,2.27,7.36,3.4,15.58,3.4,24.66v55.38c0,3.75-1.28,6.92-3.86,9.52-2.57,2.45-5.82,3.68-9.75,3.68s-7.18-1.23-9.75-3.68c-2.57-2.6-3.86-5.77-3.86-9.52v-55.38c0-4.76-.68-9.01-2.04-12.76-1.21-3.89-3.47-6.99-6.8-9.3-3.32-2.31-8.08-3.46-14.28-3.46s-11.18,1.15-15.42,3.46c-4.08,2.31-7.26,5.41-9.52,9.3-2.12,3.75-3.17,8-3.17,12.76v55.38c0,3.75-1.28,6.92-3.85,9.52-2.57,2.45-5.82,3.68-9.75,3.68s-7.18-1.23-9.75-3.68c-2.57-2.6-3.86-5.77-3.86-9.52v-89.35c0-3.75,1.29-6.85,3.86-9.3,2.57-2.6,5.82-3.89,9.75-3.89s7.18,1.3,9.75,3.89c2.57,2.45,3.85,5.55,3.85,9.3v9.3l-3.4-.65c1.36-2.45,3.33-5.05,5.89-7.79,2.57-2.88,5.6-5.55,9.07-8,3.48-2.45,7.41-4.4,11.79-5.84,4.38-1.59,9.15-2.38,14.29-2.38ZM1327.67,30.93c3.93,0,7.18,1.23,9.75,3.68,2.57,2.45,3.86,5.62,3.86,9.52v133.7c0,3.75-1.29,6.92-3.86,9.52-2.57,2.45-5.82,3.68-9.75,3.68s-7.18-1.23-9.75-3.68c-2.57-2.6-3.85-5.77-3.85-9.52v-10.6l4.99,1.95c0,1.87-1.06,4.18-3.17,6.92-2.12,2.6-4.99,5.19-8.61,7.79-3.63,2.6-7.94,4.83-12.92,6.71-4.84,1.73-10.13,2.6-15.87,2.6-10.43,0-19.88-2.52-28.34-7.57-8.46-5.19-15.19-12.26-20.18-21.2-4.84-9.09-7.26-19.47-7.26-31.15s2.42-22.21,7.26-31.15c4.99-9.09,11.64-16.15,19.95-21.2,8.31-5.19,17.53-7.79,27.66-7.79,6.5,0,12.47.94,17.91,2.81,5.44,1.87,10.12,4.25,14.06,7.14,4.08,2.88,7.18,5.84,9.3,8.87,2.27,2.88,3.4,5.34,3.4,7.36l-8.16,2.81v-57.98c0-3.75,1.28-6.85,3.85-9.3,2.57-2.6,5.82-3.89,9.75-3.89ZM1281.87,169.38c6.65,0,12.47-1.59,17.46-4.76,4.99-3.17,8.84-7.5,11.56-12.98,2.87-5.48,4.31-11.61,4.31-18.39s-1.43-13.12-4.31-18.6c-2.72-5.48-6.58-9.81-11.56-12.98-4.99-3.17-10.81-4.76-17.46-4.76s-12.24,1.59-17.23,4.76c-4.99,3.17-8.92,7.5-11.79,12.98-2.72,5.48-4.08,11.68-4.08,18.6s1.36,12.91,4.08,18.39c2.87,5.48,6.8,9.81,11.79,12.98,4.99,3.17,10.73,4.76,17.23,4.76ZM1470.04,73.11c3.93,0,7.18,1.23,9.75,3.68,2.57,2.45,3.86,5.62,3.86,9.52v91.51c0,3.75-1.29,6.92-3.86,9.52-2.57,2.45-5.82,3.68-9.75,3.68s-7.18-1.23-9.75-3.68c-2.57-2.6-3.86-5.77-3.86-9.52v-10.6l4.99,1.95c0,1.87-1.06,4.18-3.17,6.92-2.12,2.6-4.99,5.19-8.62,7.79-3.63,2.6-7.93,4.83-12.92,6.71-4.84,1.73-10.13,2.6-15.87,2.6-10.43,0-19.88-2.52-28.34-7.57-8.46-5.19-15.19-12.26-20.18-21.2-4.84-9.09-7.26-19.47-7.26-31.15s2.42-22.21,7.26-31.15c4.99-9.09,11.64-16.15,19.95-21.2,8.31-5.19,17.53-7.79,27.66-7.79,6.5,0,12.47.94,17.91,2.81,5.44,1.87,10.13,4.25,14.06,7.14,4.08,2.88,7.18,5.84,9.3,8.87,2.27,2.88,3.4,5.34,3.4,7.36l-8.16,2.81v-15.79c0-3.75,1.28-6.85,3.86-9.3,2.57-2.6,5.82-3.89,9.75-3.89ZM1424.24,169.38c6.65,0,12.47-1.59,17.46-4.76,4.99-3.17,8.84-7.5,11.56-12.98,2.87-5.48,4.31-11.61,4.31-18.39s-1.44-13.12-4.31-18.6c-2.72-5.48-6.57-9.81-11.56-12.98-4.99-3.17-10.81-4.76-17.46-4.76s-12.24,1.59-17.23,4.76c-4.99,3.17-8.92,7.5-11.79,12.98-2.72,5.48-4.08,11.68-4.08,18.6s1.36,12.91,4.08,18.39c2.87,5.48,6.8,9.81,11.79,12.98,4.99,3.17,10.73,4.76,17.23,4.76ZM1514.46,77.44h53.73c3.63,0,6.65,1.15,9.07,3.46,2.42,2.31,3.63,5.19,3.63,8.65s-1.21,6.13-3.63,8.44c-2.42,2.16-5.44,3.25-9.07,3.25h-53.73c-3.63,0-6.65-1.15-9.07-3.46-2.42-2.31-3.63-5.19-3.63-8.65s1.21-6.06,3.63-8.22c2.42-2.31,5.44-3.46,9.07-3.46ZM1538.72,50.4c3.93,0,7.11,1.3,9.52,3.89,2.57,2.45,3.85,5.55,3.85,9.3v96.27c0,2.02.38,3.68,1.13,4.98.91,1.3,2.04,2.24,3.4,2.81,1.51.58,3.1.87,4.76.87,1.82,0,3.48-.29,4.99-.87,1.51-.72,3.25-1.08,5.21-1.08,2.12,0,4,.94,5.67,2.81,1.81,1.87,2.72,4.47,2.72,7.79,0,4.04-2.34,7.36-7.03,9.95-4.53,2.6-9.45,3.89-14.74,3.89-3.17,0-6.73-.22-10.66-.65-3.78-.58-7.41-1.8-10.88-3.68-3.32-2.02-6.12-5.05-8.39-9.09-2.27-4.04-3.4-9.59-3.4-16.66V63.59c0-3.75,1.28-6.85,3.86-9.3,2.72-2.6,6.04-3.89,9.97-3.89ZM1661.9,193.18c-12.85,0-24.03-2.52-33.56-7.57-9.37-5.19-16.63-12.19-21.77-20.98-4.99-8.8-7.48-18.75-7.48-29.85,0-12.98,2.72-24.01,8.16-33.1,5.59-9.23,12.85-16.3,21.77-21.2,8.92-4.9,18.36-7.36,28.34-7.36,7.71,0,14.96,1.51,21.77,4.54,6.95,3.03,13.07,7.21,18.36,12.55,5.29,5.19,9.45,11.25,12.47,18.17,3.17,6.92,4.76,14.28,4.76,22.07-.15,3.46-1.59,6.27-4.31,8.44-2.72,2.16-5.89,3.24-9.52,3.24h-86.61l-6.8-21.63h83.21l-4.99,4.33v-5.84c-.3-4.18-1.89-7.93-4.76-11.25-2.72-3.32-6.2-5.91-10.43-7.79-4.08-2.02-8.46-3.03-13.15-3.03s-8.77.58-12.7,1.73c-3.93,1.15-7.33,3.1-10.2,5.84-2.87,2.74-5.14,6.42-6.8,11.03-1.66,4.62-2.49,10.46-2.49,17.52,0,7.79,1.66,14.42,4.99,19.9,3.48,5.34,7.86,9.45,13.15,12.33,5.44,2.74,11.18,4.11,17.23,4.11,5.59,0,10.05-.43,13.38-1.3,3.32-.87,5.97-1.87,7.94-3.03,2.11-1.3,4-2.38,5.67-3.24,2.72-1.3,5.29-1.95,7.71-1.95,3.32,0,6.04,1.08,8.16,3.24,2.27,2.16,3.4,4.69,3.4,7.57,0,3.89-2.12,7.43-6.35,10.6-3.93,3.17-9.45,5.98-16.55,8.44-7.11,2.31-14.44,3.46-21.99,3.46ZM1792.46,73.11c8.62,0,16.1.87,22.45,2.6,6.5,1.73,11.49,4.18,14.96,7.36,3.63,3.03,5.44,6.71,5.44,11.03,0,2.88-.91,5.62-2.72,8.22-1.82,2.45-4.46,3.68-7.94,3.68-2.42,0-4.46-.29-6.12-.87-1.51-.72-2.87-1.59-4.08-2.6-1.21-1.01-2.65-1.95-4.31-2.81-1.51-.87-3.85-1.51-7.03-1.95-3.02-.58-5.29-.87-6.8-.87-7.71,0-14.28,1.59-19.73,4.76-5.29,3.17-9.37,7.5-12.24,12.98-2.87,5.34-4.31,11.54-4.31,18.6s1.43,13.12,4.31,18.6c3.02,5.34,7.1,9.59,12.24,12.76,5.29,3.17,11.34,4.76,18.14,4.76,3.78,0,7.03-.22,9.75-.65,2.72-.43,4.99-1.08,6.8-1.95,2.12-1.15,4.01-2.38,5.67-3.68,1.66-1.3,4.16-1.95,7.48-1.95,3.93,0,6.95,1.23,9.07,3.68,2.12,2.31,3.17,5.19,3.17,8.65s-2.12,6.92-6.35,9.95c-4.23,2.88-9.82,5.26-16.78,7.14-6.8,1.73-14.21,2.6-22.22,2.6-11.94,0-22.3-2.6-31.06-7.79-8.77-5.34-15.57-12.55-20.41-21.63-4.69-9.09-7.03-19.25-7.03-30.5,0-11.83,2.49-22.21,7.48-31.15,5.14-9.09,12.17-16.15,21.08-21.2,9.07-5.19,19.42-7.79,31.06-7.79ZM1920,73.11c10.88,0,19.12,2.24,24.71,6.71,5.75,4.47,9.67,10.46,11.79,17.96,2.12,7.36,3.17,15.58,3.17,24.66v55.38c0,3.75-1.28,6.92-3.85,9.52-2.57,2.45-5.82,3.68-9.75,3.68s-7.18-1.23-9.75-3.68c-2.57-2.6-3.85-5.77-3.85-9.52v-55.38c0-4.76-.6-9.01-1.82-12.76-1.21-3.89-3.4-6.99-6.57-9.3-3.17-2.31-7.71-3.46-13.6-3.46s-10.66,1.15-14.74,3.46c-4.08,2.31-7.18,5.41-9.3,9.3-1.97,3.75-2.95,8-2.95,12.76v55.38c0,3.75-1.28,6.92-3.85,9.52-2.57,2.45-5.82,3.68-9.75,3.68s-7.18-1.23-9.75-3.68c-2.57-2.6-3.86-5.77-3.86-9.52V44.12c0-3.75,1.28-6.85,3.86-9.3,2.57-2.6,5.82-3.89,9.75-3.89s7.18,1.3,9.75,3.89c2.57,2.45,3.85,5.55,3.85,9.3v53.65l-3.4-.65c1.36-2.45,3.25-5.05,5.67-7.79,2.42-2.88,5.37-5.55,8.84-8,3.48-2.45,7.33-4.4,11.56-5.84,4.23-1.59,8.84-2.38,13.83-2.38ZM781.72,317.51c2.12,0,4.31.58,6.57,1.73,2.42,1.01,4.23,2.38,5.44,4.11l55.09,80.91-11.34-.43,56.46-80.48c2.87-3.89,6.57-5.84,11.11-5.84,3.63,0,6.88,1.23,9.75,3.68,2.87,2.45,4.31,5.63,4.31,9.52v125.26c0,3.75-1.28,6.92-3.85,9.52-2.57,2.45-5.97,3.68-10.2,3.68s-7.71-1.23-10.43-3.68c-2.57-2.6-3.86-5.77-3.86-9.52v-101.89l8.84,1.95-46.25,67.28c-1.36,1.59-3.1,2.96-5.21,4.11-1.96,1.16-4,1.66-6.12,1.51-1.97.14-4.01-.36-6.12-1.51-1.97-1.16-3.63-2.52-4.99-4.11l-43.3-65.33,5.89-11.47v109.47c0,3.75-1.21,6.92-3.63,9.52-2.42,2.45-5.59,3.68-9.52,3.68s-6.88-1.23-9.3-3.68c-2.42-2.6-3.63-5.77-3.63-9.52v-125.26c0-3.6,1.36-6.71,4.08-9.3,2.87-2.59,6.27-3.89,10.2-3.89ZM1050.24,351.26c3.93,0,7.18,1.23,9.75,3.68,2.57,2.45,3.86,5.63,3.86,9.52v91.51c0,3.75-1.28,6.92-3.86,9.52-2.57,2.45-5.82,3.68-9.75,3.68s-7.18-1.23-9.75-3.68c-2.57-2.6-3.86-5.77-3.86-9.52v-10.6l4.99,1.95c0,1.87-1.06,4.18-3.17,6.92-2.12,2.6-4.99,5.19-8.61,7.79-3.63,2.59-7.94,4.83-12.92,6.71-4.84,1.73-10.13,2.6-15.87,2.6-10.43,0-19.88-2.52-28.34-7.57-8.46-5.19-15.19-12.26-20.18-21.2-4.84-9.09-7.26-19.47-7.26-31.15s2.42-22.21,7.26-31.15c4.99-9.08,11.64-16.15,19.95-21.2,8.31-5.19,17.53-7.79,27.66-7.79,6.5,0,12.47.94,17.91,2.81,5.44,1.87,10.13,4.25,14.06,7.14,4.08,2.89,7.18,5.84,9.3,8.87,2.27,2.89,3.4,5.33,3.4,7.36l-8.16,2.81v-15.79c0-3.75,1.28-6.85,3.86-9.3,2.57-2.6,5.82-3.9,9.75-3.9ZM1004.44,447.53c6.65,0,12.47-1.59,17.46-4.76,4.99-3.17,8.84-7.5,11.56-12.98,2.87-5.48,4.31-11.61,4.31-18.39s-1.44-13.12-4.31-18.61c-2.72-5.48-6.58-9.81-11.56-12.98-4.99-3.17-10.81-4.76-17.46-4.76s-12.24,1.59-17.23,4.76c-4.99,3.17-8.92,7.5-11.79,12.98-2.72,5.48-4.08,11.68-4.08,18.61s1.36,12.91,4.08,18.39c2.87,5.48,6.8,9.81,11.79,12.98,4.99,3.17,10.73,4.76,17.23,4.76ZM1094.66,355.59h53.73c3.63,0,6.65,1.15,9.07,3.46,2.42,2.31,3.63,5.19,3.63,8.65s-1.21,6.13-3.63,8.44c-2.42,2.16-5.44,3.24-9.07,3.24h-53.73c-3.63,0-6.65-1.16-9.07-3.46-2.42-2.31-3.63-5.19-3.63-8.65s1.21-6.06,3.63-8.22c2.42-2.31,5.44-3.46,9.07-3.46ZM1118.92,328.54c3.93,0,7.11,1.3,9.52,3.89,2.57,2.45,3.86,5.55,3.86,9.3v96.27c0,2.02.38,3.68,1.13,4.98.91,1.3,2.04,2.24,3.4,2.81,1.51.58,3.1.86,4.76.86,1.81,0,3.48-.29,4.99-.86,1.51-.72,3.25-1.08,5.21-1.08,2.12,0,4.01.94,5.67,2.81,1.81,1.87,2.72,4.47,2.72,7.79,0,4.04-2.34,7.35-7.03,9.95-4.53,2.59-9.45,3.89-14.74,3.89-3.17,0-6.73-.22-10.66-.65-3.78-.58-7.41-1.8-10.88-3.68-3.32-2.02-6.12-5.05-8.39-9.09-2.27-4.04-3.4-9.59-3.4-16.66v-97.35c0-3.75,1.29-6.85,3.86-9.3,2.72-2.59,6.05-3.89,9.97-3.89ZM1285.38,351.26c3.93,0,7.18,1.23,9.75,3.68,2.57,2.45,3.85,5.63,3.85,9.52v91.51c0,3.75-1.28,6.92-3.85,9.52-2.57,2.45-5.82,3.68-9.75,3.68s-7.18-1.23-9.75-3.68c-2.57-2.6-3.86-5.77-3.86-9.52v-10.6l4.99,1.95c0,1.87-1.06,4.18-3.17,6.92-2.12,2.6-4.99,5.19-8.62,7.79-3.63,2.59-7.93,4.83-12.92,6.71-4.83,1.73-10.13,2.6-15.87,2.6-10.43,0-19.88-2.52-28.34-7.57-8.46-5.19-15.19-12.26-20.18-21.2-4.84-9.09-7.26-19.47-7.26-31.15s2.42-22.21,7.26-31.15c4.99-9.08,11.64-16.15,19.95-21.2,8.31-5.19,17.53-7.79,27.66-7.79,6.5,0,12.47.94,17.91,2.81,5.44,1.87,10.13,4.25,14.06,7.14,4.08,2.89,7.18,5.84,9.3,8.87,2.27,2.89,3.4,5.33,3.4,7.36l-8.16,2.81v-15.79c0-3.75,1.29-6.85,3.86-9.3,2.57-2.6,5.82-3.9,9.75-3.9ZM1239.58,447.53c6.65,0,12.47-1.59,17.46-4.76,4.99-3.17,8.84-7.5,11.56-12.98,2.87-5.48,4.31-11.61,4.31-18.39s-1.43-13.12-4.31-18.61c-2.72-5.48-6.57-9.81-11.56-12.98-4.99-3.17-10.81-4.76-17.46-4.76s-12.24,1.59-17.23,4.76c-4.99,3.17-8.92,7.5-11.79,12.98-2.72,5.48-4.08,11.68-4.08,18.61s1.36,12.91,4.08,18.39c2.87,5.48,6.8,9.81,11.79,12.98,4.99,3.17,10.73,4.76,17.23,4.76ZM1342.04,469.16c-3.93,0-7.18-1.23-9.75-3.68-2.57-2.6-3.86-5.77-3.86-9.52v-89.35c0-3.75,1.28-6.85,3.86-9.3,2.57-2.6,5.82-3.9,9.75-3.9s7.18,1.3,9.75,3.9c2.57,2.45,3.86,5.55,3.86,9.3v20.34l-1.59-14.5c1.66-3.46,3.78-6.49,6.35-9.08,2.72-2.74,5.74-4.98,9.07-6.71,3.32-1.87,6.87-3.24,10.66-4.11,3.78-.87,7.56-1.3,11.34-1.3,4.54,0,8.31,1.23,11.34,3.68,3.17,2.45,4.76,5.34,4.76,8.65,0,4.76-1.28,8.22-3.85,10.38-2.57,2.02-5.37,3.03-8.39,3.03s-5.52-.5-7.94-1.51c-2.27-1.01-4.91-1.51-7.93-1.51-2.72,0-5.52.65-8.39,1.95-2.72,1.15-5.29,3.03-7.71,5.62-2.27,2.6-4.16,5.84-5.67,9.73-1.36,3.75-2.04,8.22-2.04,13.41v51.27c0,3.75-1.29,6.92-3.86,9.52-2.57,2.45-5.82,3.68-9.75,3.68ZM1523.4,351.26c3.93,0,7.18,1.23,9.75,3.68,2.57,2.45,3.85,5.63,3.85,9.52v91.51c0,3.75-1.28,6.92-3.85,9.52-2.57,2.45-5.82,3.68-9.75,3.68s-7.18-1.23-9.75-3.68c-2.57-2.6-3.86-5.77-3.86-9.52v-10.6l4.99,1.95c0,1.87-1.06,4.18-3.17,6.92-2.12,2.6-4.99,5.19-8.62,7.79-3.63,2.59-7.93,4.83-12.92,6.71-4.84,1.73-10.13,2.6-15.87,2.6-10.43,0-19.88-2.52-28.34-7.57-8.46-5.19-15.19-12.26-20.18-21.2-4.84-9.09-7.26-19.47-7.26-31.15s2.42-22.21,7.26-31.15c4.99-9.08,11.64-16.15,19.95-21.2,8.31-5.19,17.53-7.79,27.66-7.79,6.5,0,12.47.94,17.91,2.81,5.44,1.87,10.13,4.25,14.06,7.14,4.08,2.89,7.18,5.84,9.3,8.87,2.27,2.89,3.4,5.33,3.4,7.36l-8.16,2.81v-15.79c0-3.75,1.28-6.85,3.86-9.3,2.57-2.6,5.82-3.9,9.75-3.9ZM1477.6,447.53c6.65,0,12.47-1.59,17.46-4.76,4.99-3.17,8.84-7.5,11.56-12.98,2.87-5.48,4.31-11.61,4.31-18.39s-1.44-13.12-4.31-18.61c-2.72-5.48-6.57-9.81-11.56-12.98-4.99-3.17-10.81-4.76-17.46-4.76s-12.24,1.59-17.23,4.76c-4.99,3.17-8.92,7.5-11.79,12.98-2.72,5.48-4.08,11.68-4.08,18.61s1.36,12.91,4.08,18.39c2.87,5.48,6.8,9.81,11.79,12.98,4.99,3.17,10.73,4.76,17.23,4.76ZM1630.17,351.26c12.09,0,21.01,2.81,26.76,8.44,5.74,5.48,9.52,12.62,11.34,21.42l-3.86-1.95,1.82-3.46c1.81-3.32,4.61-6.85,8.39-10.6,3.78-3.9,8.31-7.14,13.6-9.73,5.44-2.74,11.49-4.11,18.14-4.11,10.88,0,19.12,2.24,24.71,6.71,5.75,4.47,9.67,10.46,11.79,17.96,2.12,7.35,3.17,15.57,3.17,24.66v55.38c0,3.75-1.28,6.92-3.85,9.52-2.57,2.45-5.82,3.68-9.75,3.68s-7.18-1.23-9.75-3.68c-2.57-2.6-3.85-5.77-3.85-9.52v-55.38c0-4.76-.6-9.01-1.82-12.76-1.21-3.89-3.4-6.99-6.57-9.3-3.17-2.31-7.71-3.46-13.6-3.46s-10.66,1.16-14.74,3.46c-4.08,2.31-7.18,5.41-9.3,9.3-1.97,3.75-2.95,8-2.95,12.76v55.38c0,3.75-1.28,6.92-3.86,9.52-2.57,2.45-5.82,3.68-9.75,3.68s-7.18-1.23-9.75-3.68c-2.57-2.6-3.86-5.77-3.86-9.52v-55.38c0-4.76-.6-9.01-1.81-12.76-1.21-3.89-3.4-6.99-6.58-9.3-3.17-2.31-7.71-3.46-13.6-3.46s-10.66,1.16-14.74,3.46c-4.08,2.31-7.18,5.41-9.3,9.3-1.96,3.75-2.95,8-2.95,12.76v55.38c0,3.75-1.28,6.92-3.86,9.52-2.57,2.45-5.82,3.68-9.75,3.68s-7.18-1.23-9.75-3.68c-2.57-2.6-3.85-5.77-3.85-9.52v-89.35c0-3.75,1.28-6.85,3.85-9.3,2.57-2.6,5.82-3.9,9.75-3.9s7.18,1.3,9.75,3.9c2.57,2.45,3.86,5.55,3.86,9.3v9.3l-3.4-.65c1.36-2.45,3.25-5.05,5.67-7.79,2.42-2.88,5.37-5.55,8.84-8,3.48-2.45,7.33-4.4,11.56-5.84,4.23-1.59,8.84-2.38,13.83-2.38ZM1855.57,317.51c2.12,0,4.31.58,6.57,1.73,2.42,1.01,4.23,2.38,5.44,4.11l55.09,80.91-11.34-.43,56.46-80.48c2.87-3.89,6.57-5.84,11.11-5.84,3.63,0,6.88,1.23,9.75,3.68,2.87,2.45,4.31,5.63,4.31,9.52v125.26c0,3.75-1.28,6.92-3.85,9.52-2.57,2.45-5.97,3.68-10.2,3.68s-7.71-1.23-10.43-3.68c-2.57-2.6-3.86-5.77-3.86-9.52v-101.89l8.84,1.95-46.25,67.28c-1.36,1.59-3.1,2.96-5.21,4.11-1.96,1.16-4,1.66-6.12,1.51-1.96.14-4-.36-6.12-1.51-1.97-1.16-3.63-2.52-4.99-4.11l-43.3-65.33,5.89-11.47v109.47c0,3.75-1.21,6.92-3.63,9.52-2.42,2.45-5.59,3.68-9.52,3.68s-6.88-1.23-9.3-3.68c-2.42-2.6-3.63-5.77-3.63-9.52v-125.26c0-3.6,1.36-6.71,4.08-9.3,2.87-2.59,6.27-3.89,10.2-3.89ZM2114.79,353.42c3.93,0,7.18,1.3,9.75,3.9,2.57,2.45,3.86,5.55,3.86,9.3v54.95c0,15.29-4.46,27.4-13.38,36.34-8.92,8.94-21.77,13.41-38.54,13.41s-29.62-4.47-38.54-13.41c-8.77-8.94-13.15-21.06-13.15-36.34v-54.95c0-3.75,1.28-6.85,3.86-9.3,2.57-2.6,5.82-3.9,9.75-3.9s7.18,1.3,9.75,3.9c2.57,2.45,3.86,5.55,3.86,9.3v54.95c0,8.8,2.04,15.36,6.12,19.69,4.08,4.18,10.2,6.27,18.36,6.27s14.51-2.09,18.59-6.27c4.08-4.33,6.12-10.89,6.12-19.69v-54.95c0-3.75,1.28-6.85,3.86-9.3,2.57-2.6,5.82-3.9,9.75-3.9ZM2173.72,469.16c-3.93,0-7.18-1.23-9.75-3.68-2.57-2.6-3.86-5.77-3.86-9.52v-133.7c0-3.75,1.28-6.85,3.86-9.3,2.57-2.6,5.82-3.89,9.75-3.89s7.18,1.3,9.75,3.89c2.57,2.45,3.85,5.55,3.85,9.3v133.7c0,3.75-1.28,6.92-3.85,9.52-2.57,2.45-5.82,3.68-9.75,3.68ZM2245.82,353.42c3.48,0,6.5,1.37,9.07,4.11,2.57,2.74,3.85,5.41,3.85,8,0,3.46-1.81,6.71-5.44,9.73l-68.24,59.93-1.13-29.85,51.92-47.81c2.87-2.74,6.2-4.11,9.97-4.11ZM2249.22,468.95c-3.93,0-7.26-1.44-9.98-4.33l-41.94-42.4,20.63-18.17,40.81,42.4c2.87,2.89,4.31,6.13,4.31,9.73s-1.59,6.85-4.76,9.3c-3.02,2.31-6.04,3.46-9.07,3.46ZM2288.29,355.59h53.73c3.63,0,6.65,1.15,9.07,3.46,2.42,2.31,3.63,5.19,3.63,8.65s-1.21,6.13-3.63,8.44c-2.42,2.16-5.44,3.24-9.07,3.24h-53.73c-3.63,0-6.65-1.16-9.07-3.46-2.42-2.31-3.63-5.19-3.63-8.65s1.21-6.06,3.63-8.22c2.42-2.31,5.44-3.46,9.07-3.46ZM2312.55,328.54c3.93,0,7.11,1.3,9.52,3.89,2.57,2.45,3.85,5.55,3.85,9.3v96.27c0,2.02.38,3.68,1.13,4.98.91,1.3,2.04,2.24,3.4,2.81,1.51.58,3.1.86,4.76.86,1.81,0,3.48-.29,4.99-.86,1.51-.72,3.25-1.08,5.21-1.08,2.12,0,4.01.94,5.67,2.81,1.82,1.87,2.72,4.47,2.72,7.79,0,4.04-2.34,7.35-7.03,9.95-4.54,2.59-9.45,3.89-14.74,3.89-3.17,0-6.72-.22-10.66-.65-3.78-.58-7.41-1.8-10.88-3.68-3.32-2.02-6.12-5.05-8.39-9.09-2.27-4.04-3.4-9.59-3.4-16.66v-97.35c0-3.75,1.28-6.85,3.85-9.3,2.72-2.59,6.05-3.89,9.98-3.89ZM2405.32,455.97c0,3.75-1.28,6.92-3.86,9.52-2.56,2.45-5.81,3.68-9.75,3.68s-7.17-1.23-9.74-3.68c-2.57-2.6-3.86-5.77-3.86-9.52v-89.35c0-3.75,1.28-6.85,3.86-9.3,2.57-2.6,5.83-3.9,9.74-3.9s7.19,1.3,9.75,3.9c2.58,2.45,3.86,5.55,3.86,9.3v89.35ZM2391.49,339.36c-5.13,0-8.76-.79-10.88-2.38-2.12-1.59-3.17-4.4-3.17-8.44v-4.11c0-4.18,1.13-6.99,3.4-8.44,2.42-1.59,6.05-2.38,10.88-2.38,5.29,0,9,.79,11.11,2.38,2.12,1.59,3.17,4.4,3.17,8.44v4.11c0,4.18-1.13,7.07-3.4,8.65-2.27,1.44-5.96,2.16-11.11,2.16Z" style="fill: #192b3e;"/>
  <path d="M458.4,449.88c-1.47,2.08-2.94,4.09-4.43,6.03,22.08,11.33,48.56,18.51,73.64,22.82,25.07,4.32,48.27,5.69,63.42,5.64,111.53-239.81-16.23-411.45-95.87-469.17-52.87,6.06-91.88,18.74-133.93,47.62,30.85,22.1,60.11,49.37,84.24,80.41,33.78,43.43,57.73,94.49,61.63,149.22,3.62,50.89-10.15,104.47-48.71,157.43ZM437.36,156.42c-1.21-1.62-2.44-3.22-3.68-4.82-23.87-30.69-52.99-57.61-83.61-79.22-33.11,22.74-64.63,51.45-90,84.3,39.36,22.38,72.75,53.3,87.63,91.33,15.41-38.31,49.63-69.32,89.67-91.59ZM340.12,276.11c-6.63-44.24-41.38-81.05-87.35-107.23-76.16,112.07-43.2,218.72-4.27,274.01,1.6,2.2,3.24,4.4,4.94,6.59,31.68-22.83,85.53-80.32,85.53-156.8,0-5.64.4-11.16,1.16-16.56Z" style="fill: #007bff; fill-rule: evenodd;"/>
  <path d="M106.96,123.25l5.91-9.65c2.24-3.27,4.74-6.83,7.45-10.59l.02-.02.02-.02c2.94-4.14,5.94-8.19,8.99-12.14l.02-.02.02-.02c19.82-26.09,46.49-56.89,71.93-75.54,32.06-.96,73.31,11.58,115.06,35.05,42.56,23.92,84.86,58.75,117.39,100.59,32.54,41.83,55.1,90.38,58.76,141.8,3.53,49.57-10.48,102.31-50.96,154.93-31.67-22.83-85.53-80.32-85.53-156.8,0-60.48-45.66-107.85-101.88-138.16l-5.89-3.17-3.8,5.35c-88.26,124.27-47.47,243.74-3.44,301.52-22.08,11.33-48.56,18.51-73.64,22.82-25.07,4.31-48.28,5.68-63.42,5.64-73.34-157.37-48.74-277.12,2.99-361.55Z" style="fill: #0b69ee; fill-rule: evenodd;"/>
</svg>