<?xml version="1.0" encoding="UTF-8"?>
<svg id="SADASA" xmlns="http://www.w3.org/2000/svg" viewBox="0 0 1754 500">
  <g id="Layer_1">
    <g id="_2550573270000" data-name=" 2550573270000">
      <path d="M135.4,316.55c.19-.83,0-1.86.82-1.86h84.71c0-1.35.63-3.65.91-5.07l11.82-59.91c.35-1.74.58-3.27.96-5.02,1.03-4.71,1.98-6.85,1.98-12.04,0-4.24-2.4-8.59-4.52-10.73-2.35-2.37-6.86-3.64-11.14-4.11-9.15-1.02-19.8-.51-29.47-1.03-4.42-.24-9.11-.77-13.4-1.86-4.3-1.09-7.6-2.17-11.04-4.21-3.14-1.86-5.91-4.22-8-7.25-5.43-7.86-5.67-15.04-.7-22.92,2.78-4.41,6.37-8.8,10.47-12l5.19-3.67c.54-.35.87-.49,1.48-.79,13.32-6.72,23.01-5.64,37.03-5.64,6.02,0,11.57-.21,17.73-.21l53.38-.21c6.13,0,11.58-.21,17.73-.21h26.8c1.71,0,2.57.22,4.33.2,2.65-.02,5.55.35,8.16.71,4.88.67,9.89,1.68,14.3,3.63,4.63,2.05,2.36,1.61,9.57-1.16,4.45-1.71,11.08-3.09,16.61-3.38,11.49-.61,23.12-.4,34.63-.41,1.95,0,3.06.21,4.95.21,1.94,0,8.4.05,10.01.29,1.4.21,3.2.23,4.6.34,9,.74,19.12,4.1,24.9,10.97,1.62,1.93,2.81,3.8,3.98,6.12,2.49,4.93,1.79,12.14,1.65,17.72-.09,3.64-.65,7.85-1.15,11.43-2.03,14.69-4.49,29.03-6.95,43.76-3.22,19.32-6.48,38.85-9.33,58.27-.72,4.92-1.36,9.63-2.27,14.42-.47,2.49-.86,4.65-1.4,7.05-1.02,4.47-2.21,8.94-3.65,13.25-.64,1.93-1.57,4.25-2.45,6-3.48,6.88-6.99,11.75-12.96,16.52-14.54,11.61-34.54,10.9-53.41,10.9-5.39,0-10.08-.21-15.46-.21,0-4.64,1.67-9.87,5.39-12.33,4.77-3.14,15.7-1.51,22.52-4.27,2.22-.9,3.94-1.84,5.63-3.23,3.5-2.89,5.83-6.09,7.67-10.26.77-1.75,1.63-4.64,2.15-6.71.6-2.39,1.2-4.73,1.65-7.21.94-5.14,1.78-10.25,2.53-15.4l4.39-31.47c0-1.72-4.7-8.05-6.55-10.15-3.42-3.89-9.03-8.52-13.66-11.28-.64-.38-1.24-.65-1.64-1.25.57-.15.98-.59,1.52-.95,1.68-1.13,3.37-2.01,5.35-2.68,5.33-1.81,11.13-1.68,16.74-.81.96.15,1.53.33,2.56.33,0-2.39,2.24-14.9,2.68-17.52.99-5.88,1.85-11.65,2.77-17.64,1.83-11.91,3.84-23.29,5.59-35.22.44-3.02,1.12-6.15-.12-8.56-1.19-2.31-3.71-3.41-6.1-4.21-2.26-.76-5.81-1.39-8.74-1.36-1.72.02-3.06-.39-4.86-.12-1.59.24-3.32,0-4.91.24l-4.51.44c-3.88.62-7.86,2.29-10.61,4.85-6.03,5.61-7.6,13.29-8.97,21.53-1.48,8.85-2.53,17.94-3.95,26.76l-14.19,87.84c-.43,2.59-2.62,15.14-2.83,17.58h-43.7c.23-2.73,3.8-23.62,4.24-26.27,2.95-17.63,5.49-34.9,8.45-52.56,1.49-8.91,2.81-17.55,4.27-26.44.71-4.28,1.28-8.73,2.09-13.17.8-4.42,1.73-8.37,2.45-12.8.73-4.48,1.25-8.96.53-13.84-.46-3.1-1.73-5.63-3.73-7.82-2.96-3.23-8.78-5.23-13.97-5.2-15.27.09-30.46-.2-45.76-.2h-50.91c-7.78,0-15.39,2.15-19.76,7.65-1.74,2.19-2.71,4.21-2.71,7.6,0,4.12,3.24,8.57,5.68,10.4,3.3,2.48,6.81,3.55,11.8,4.27,4.89.71,9.94.39,15.3.38,2.38,0,5.18-.44,7.62-.42,11.81.07,24.78-1.84,34.96,6.06,5.02,3.9,8.33,11.85,8.33,20.73,0,5.55-.37,11.6-1.36,16.78l-1.82,8.69c-.29,1.11-.38,1.93-.59,3.12-1.39,7.99-2.91,16.35-4.24,24.41l-4.24,24.41c-.4,2.09-.69,3.9-1.03,5.98-.36,2.19-.7,3.99-1.06,6.15-.69,4.17-1.22,8.28-2.15,12.28h-109.65c-5.66,0-9.47-.71-13.19-2.68.49,2.11,2.07,4.47,2.86,6.42,1.77,4.37,4.24,8.35,6.49,12.47,2.16,3.95,4.66,7.9,7.14,11.61,1.27,1.9,2.47,3.76,3.86,5.62l13.51,17c.44.47.82.76,1.22,1.26.82,1.03,1.46,1.52,2.29,2.45.45.51.52.73,1.03,1.24l5.98,5.97c6.84,6.84,18.25,15.99,25.92,21.07.98.65,1.73,1.28,2.82,1.92l13.25,7.98c.56.33.9.54,1.59.88.65.32.85.49,1.44.82,4.49,2.52,9.53,4.82,14.38,6.85,11.47,4.8,23.37,8.84,35.72,11.48,2.5.53,5.26,1.05,7.9,1.58,2.6.52,5.47.96,8.21,1.27,9.3,1.06,16.82,1.84,26.61,1.84,10.31,0,24.11-.95,33.79-2.9,5.18-1.04,10.07-1.93,15.15-3.2,1.75-.44,3.23-.89,4.86-1.32,6.32-1.66,12.35-3.76,18.41-6.12,1.52-.59,2.93-1.12,4.4-1.78l14.64-6.8c.81-.4,1.18-.7,1.99-1.1,1.43-.71,2.7-1.37,4.02-2.17,3.81-2.3,7.72-4.46,11.42-6.93,6.78-4.52,15.09-10.33,21.04-15.86l12.67-11.85c1.4-1.39,3.25-3.23,4.47-4.81l3.57-4.05c4.57-5.14,8.93-10.57,12.75-16.31,4.56-6.87,9.16-13.74,12.86-21.15l4.13-8.24c.65-1.32,1.2-2.79,1.85-4.13.67-1.38,1.23-2.93,1.85-4.33.62-1.4,1.2-2.9,1.77-4.41,5.42-14.25,9.04-28.5,11.28-43.96,3.51-24.26,2.1-51.2-3.89-74.96-1.62-6.43-3.6-12.64-5.67-18.86-3.76-11.25-9.59-23.51-15.58-33.48l-7.07-11.27c-2.39-3.61-5.08-7.18-7.75-10.6l-5.53-6.83c-1.77-2.27-6.74-7.64-8.83-9.72l-4.53-4.54c-.63-.64-1.04-.85-1.65-1.44l-7.22-6.59c-9.88-8.36-20.46-15.66-31.67-22.13-3.8-2.19-7.97-4.43-12.03-6.31-.82-.38-1.33-.55-2.13-.96-9.88-5.02-27.95-10.97-38.87-13.28-24.62-5.19-47.45-6.51-72.54-2.97-10.45,1.47-20.8,3.58-30.34,6.76-16.61,5.52-28.59,10.48-43.6,19.47l-11.27,7.28c-.78.52-1.44,1-2.17,1.54l-22.28,18.53-5.57,5.57c-.73.72-1.04,1.26-1.75,1.96-9.28,9.23-19.32,23.47-25.6,33.97-.94,1.56-1.77,3.1-2.73,4.69-3.9,6.44-9.07,18.12-11.85,25.25-1.42,3.63-2.65,7.11-3.9,10.94-3.8,11.63-6.27,24.12-8,36.52-.64,4.59-1.15,9.11-1.14,13.7,0,1.34-.22,1.99-.21,3.5v5.56c-.29,3.27,0,1.93,0,5.16,0,1.24,0,2.48,0,3.71l.68,10.45c.26,2.04.51,4.59.75,6.67.72,6.32,1.85,12.89,3.27,18.99,1.1,4.69,4.27,17.7,6.45,22.4,0,0,.39.64.39.64Z" style="fill: #c40000; fill-rule: evenodd;"/>
      <path d="M1234.39,261.51c2.1,0,36.18.22,37.94.02,1.17-.13.93-1.31,1.1-2.4l7.65-47.59c.65-4.07,1.41-8.03,1.96-12.06l7.47-47.97c.83-5.73,1.41-11.86,3.5-17.11.71-1.78,1.46-3.15,2.42-4.59,5.37-8.13,14.41-8.04,23.7-8.04,4.46,0,11.53.85,13.68,4.66.85,1.51.73,3.16.48,5.17-1.76,14.08-4.64,28.56-6.68,42.58l-3.36,21.38c-.97,0-1.96-.13-3.08-.22-14.42-1.1-17.43,3.87-19.18,4.34.29,1.09,2,1.85,2.88,2.48,3.1,2.18,6.35,4.58,9.02,7.26,1.9,1.9,3.38,3.61,4.78,5.93,2.33,3.88,1.93,3.27,1.19,8.38-.43,2.96-1.04,6.12-1.4,9.32-.87,7.8-2.69,21.51-4.31,28.46h181.59l3.71-21.23c1.17-7.1,2.5-14.23,3.68-21.26,1.2-7.13,2.52-14.27,3.68-21.26.61-3.69,1.52-6.78,2.12-10.45,3.9-23.63-.28-38.54-27.62-38.54-6.6,0-12.44.62-18.96.62s-13.34.1-19.03-3.02c-3.05-1.68-6.32-6.18-6.32-10.58,0-5.1,4.57-8.48,8.1-10.24,4.18-2.09,9.8-2.33,16.01-2.33,12.25,0,24.26.21,36.69.21,6.67,0,40.66-.35,45.52.24,17.2,2.09,13.49,18.12,11.04,30.35-1.01,5.07-1.72,10.15-2.59,15.34l-6.15,38.36c-.43,2.52-.89,5.15-1.23,7.64-1.38,10.27-3.5,20.52-4.92,30.73-.58,4.21-1.62,11.6-2.51,15.42h38.54c.09-1.12.41-2.67.59-3.74l1.77-11.63c.77-5.27,1.47-10.25,2.21-15.51,2.89-20.5,5.75-41.31,9.15-61.75.85-5.14,1.77-10.06,2.75-14.97.49-2.47.92-4.92,1.5-7.36.56-2.38,1.12-4.99,1.62-7.44.48-2.36,1.36-4.41,2.39-6.48.53-1.07.98-1.75,1.63-2.7,2.49-3.61,6.65-5.96,10.95-6.77,2.77-.52,5.66-.35,8.29-.57,2.78-.23,1.8-.05,4.13.02,4.33.13,11.03.56,13.32,4.4,1.32,2.21.71,4.87.32,7.58-.75,5.24-1.73,10.3-2.45,15.28-.76,5.19-1.54,10.13-2.42,15.31-.36,2.15-4.63,28.11-4.86,30.8-3.59-.3-2.5-.82-8.66-.82-3.45,0-11.51,1.62-13.6,4.74.46.69,8.94,6.65,11.19,8.81,2.91,2.8,5.9,5.93,7.2,9.92.25.77.08,1.6-.05,2.5-.23,1.64-.5,3.48-.75,5.02-2.08,12.5-3.85,37.66-9.13,48.17-2.57,5.12-6.69,8.99-12.45,10.63-3.29.94-6.59.9-10.25,1.29-4.15.44-7.51.64-10.1,4.12-.36.49-.78,1.23-1.04,1.85-.55,1.33-.98,2.75-1.26,4.51-.56,3.45-.99,2.54,8.31,2.54,2.14,0,3.46.21,5.57.21l12.99-.21c6.68,0,13.7-.94,19.99-2.68,5.71-1.58,10.28-4.27,14.66-7.8,1.23-.99,2.65-2.62,3.83-3.79,1.97-1.95,4.87-6.24,6-9.05,1.55-3.86,2.84-6.82,4.03-11.01,2.69-9.46,5.18-27.07,6.75-38.39,1.17-8.42,2.85-17.44,4.23-25.86.72-4.39,1.39-8.57,2.12-12.92,1.45-8.61,2.84-17.1,4.24-25.85,1.18-7.36,4.93-28.56,1.74-35.77-3.96-8.94-12.24-13.97-21.79-15.52-5.57-.91-11.69-1.21-17.38-1.17-1.66,0-2.71-.21-4.53-.21-11.85.01-32.03-.94-42.23,2.71-10.36,3.71-4.29,3.54-13.19.56-10.33-3.45-22.17-2.86-33.21-2.86-30.19,0-59.71.41-89.86.41-11.11,0-20.28-.17-29.4,4.4-3.06,1.53-6.05,3.29-8.37,5.65-.64.65-.87.78-1.54,1.35-.6.5-.68.86-1.24,1.44-2.35,2.44-4.44,5.15-6.1,8.12-6.42,11.52,2.1,23.34,13.02,27.3,5.37,1.95,13.3,3.3,19.4,3.27,2.08,0,3.46.22,5.36.21l16.48.42c3.26.18,6.8,1.08,9.08,2.26,5.49,2.85,6.51,10.24,5.44,15.96-.31,1.64-.69,3.07-1.1,4.47-.44,1.52-.65,3.11-.97,4.81-1.18,6.35-2.51,12.72-3.75,18.93-1.27,6.35-2.49,12.67-3.74,18.93-.63,3.16-1.23,6.38-1.85,9.48l-1.87,9.46h-104.09l13.4-83.48c1.14-6.84,2.33-14.13,2.87-21.24.38-5.08.88-11.47-.78-16.09-3.9-10.79-15.36-15.44-26.18-16.48-4.61-.44-8.95-.62-13.63-.6-1.66,0-2.71-.21-4.53-.21-9,0-18.58-.33-27.42.4-4.43.37-8.58.45-12.89,1.53-7.21,1.81-13.16,5.48-18.27,10.59-3.07,3.07-5.58,6.43-7.64,10.29l-2.35,4.87c-3.54,8.28-5.24,16.88-6.74,25.82-1.4,8.35-2.62,16.63-4.01,24.85-2.8,16.62-5.17,33.05-7.98,49.73-.53,3.16-3.76,22.17-4,25.06h0Z" style="fill: #c40000; fill-rule: evenodd;"/>
      <path d="M326.26,467.21c-8.65,0-18.14-.04-26.53-1.09-14.47-1.81-25.53-3.74-39.35-7.85-11.71-3.48-22.76-8.06-33.81-13.19-5.2-2.41-12.28-6.54-17.26-9.53-3.48-2.09-6.99-4.24-10.25-6.65l-17.25-13.25c-6.16-4.98-11.73-10.68-17.3-16.3l-6.32-7.08c-2.21-2.84-5.05-5.9-7.54-9.15-.51-.66-.94-1.31-1.5-2l-9.66-13.83c-4.14-6.16-7.68-12.59-11.02-19.28-6.23-12.45-11.2-25.24-15.14-38.66-7.74-26.34-9.85-56.3-6.74-84.7.87-8.01,2.36-15.63,3.93-23.07.35-1.68.86-3.47,1.31-5.29,3.01-12.06,6.94-23.83,12.17-35.03.74-1.58,1.28-3,2.06-4.54,2.24-4.45,4.34-9.03,6.91-13.29l7.63-12.57c2.6-4.05,5.52-8,8.38-11.82,3.06-4.08,6.27-8.35,9.77-12.08l5.67-6.28c2.34-2.66,5.73-5.77,8.34-8.35l16.32-13.98c1.35-1.05,2.52-1.93,3.86-2.94,5.2-3.92,10.69-7.29,16.13-10.87,1.44-.95,2.84-1.69,4.26-2.55,1.4-.84,2.75-1.53,4.2-2.4,5.6-3.34,16.82-8.51,22.88-10.92,6.55-2.61,12.96-5.04,19.82-6.98l10.72-2.88c7.39-1.85,14.69-3.12,22.74-4.26,25.82-3.66,55.27-2,80.11,4.22,3.63.91,7.15,1.74,10.57,2.83,16.12,5.15,23.42,8.12,38.3,15.5l6.39,3.5c6.46,3.61,12.6,7.59,18.7,11.81,6.21,4.29,13.18,9.68,18.72,14.87l6.16,5.58c1.88,1.5,5.68,5.58,7.55,7.71l5.66,6.08c6.27,7.06,14.83,18.02,19.47,25.88,4.04,6.85,7.44,12,11.06,19.24,3.03,6.06,5.84,12.35,8.35,18.65,1.91,4.77,3.56,9.87,5.21,14.78,4.25,12.63,6.5,25.83,8.28,39.13.51,3.83.7,8.25,1.14,12.25l.44,13.16c0,5.87-.36,11.66-.81,17.53-.79,10.24-2.4,21.08-4.63,30.82-2.86,12.52-6.49,23.98-11.38,35.62-.72,1.72-1.33,3.08-2.03,4.77-3.23,7.81-9.78,19.57-13.97,26.22-5.17,8.22-10.74,16.16-17,23.6-2.53,3.01-4.97,6.16-7.74,8.96l-2.49,2.67c-1.77,2.12-8.09,8.15-10.19,10l-9.88,8.46c-4.9,4.14-10.13,7.96-15.48,11.52-6.11,4.07-12.31,8.1-18.87,11.43-5.23,2.65-10.48,5.52-15.92,7.79-11.97,4.99-22.26,8.65-35.29,11.91-10.59,2.65-23.88,4.98-34.87,5.53-4.26.21-8.76.61-12.99.61h0ZM80.78,248.73c0,31.23,5.48,61.73,16.75,89.81,2.83,7.04,5.9,13.83,9.29,20.6,2.04,4.08,4.17,8.15,6.52,12.03.48.8.85,1.5,1.36,2.35,5.08,8.39,10.43,16.76,16.64,24.37l5.04,6.29c.59.67,1.18,1.35,1.69,2.02.35.45.49.55.87.98,1.44,1.62,2.78,3.42,4.33,4.94l16.8,16.8c2.98,3.05,11.03,9.58,14.09,11.88l6.36,4.77c3.57,2.7,7.41,5.14,11.13,7.63,1.44.96,3.06,1.98,4.54,2.88,2.32,1.4,4.69,2.96,7.14,4.2,4.09,2.07,7.96,4.39,12.09,6.46l15.51,6.96c11.04,4.4,22.21,8.07,33.77,10.96,3.99,1,7.98,1.93,12.16,2.68,27.87,4.97,50.13,5.5,78.2,2.11,4.26-.51,8.52-1.36,12.76-2.08,10.85-1.86,25.13-5.78,35.33-9.6,6.23-2.33,12.46-4.72,18.52-7.45l12.64-6.12c.95-.47,1.52-.87,2.4-1.31,10.79-5.32,26.85-16.25,36.02-23.75l4.11-3.31c.73-.61,1.39-1.26,2.09-1.82l11.66-10.6c1.66-1.28,3.45-3.06,4.8-4.68l8.87-9.68c.42-.43.53-.52.88-.98l5.15-6.18c.32-.41.53-.59.86-1,3.65-4.47,7.17-9.15,10.36-13.96,1.02-1.54,2.1-2.91,3-4.42.49-.82.94-1.49,1.45-2.26l4.24-6.89c8.74-14.54,15.87-30.04,21.24-46.16,2.51-7.51,4.75-15.14,6.55-23.33,9.83-44.7,7.79-88.04-6.5-130.94-.6-1.8-1.2-3.65-1.92-5.5l-4.18-10.66c-2.79-7.05-6.28-13.55-9.61-20.28l-6.82-11.93c-.5-.84-.88-1.53-1.39-2.32l-12.21-17.68c-3.12-4.16-7.24-9.54-10.89-13.43l-6.19-6.8c-2.52-2.51-4.78-5.25-7.51-7.53-1.32-1.1-2.42-2.63-3.74-3.68-.84-.67-1.18-1.03-1.93-1.78-.45-.45-.55-.48-1.01-.84-.38-.31-.59-.55-.95-.91-.44-.45-.49-.47-1-.86-.47-.36-.56-.52-.96-.89-.45-.42-.59-.43-1.03-.83l-3.1-2.67c-.69-.62-1.36-1.05-2.06-1.66l-6.2-4.93c-7.13-5.83-21.14-14.96-29.41-19.23-5.78-2.98-11.4-6.24-17.43-8.74l-7.77-3.36c-18.95-7.54-38.34-13.16-58.95-15.87-4.53-.59-9.03-.98-13.57-1.47l-3.47-.24c-3.27-.02-7.15-.41-10.93-.41-15.74,0-21.51.3-37.29,2.08-13.92,1.57-34.67,6.55-48.01,11.56-1.72.64-3.73,1.32-5.42,2-3.55,1.44-7.1,2.63-10.55,4.29l-7.76,3.57c-.85.43-1.62.72-2.54,1.17-10.75,5.16-25.01,13.64-34.82,21.03l-12.54,9.72c-.73.59-1.35,1.2-2.12,1.8-.52.41-.54.44-.99.86-1.6,1.48-3.41,2.77-4.95,4.33l-5.77,5.36c-2.49,2.5-5.17,4.91-7.43,7.62l-5.35,5.78c-2.79,2.79-6.1,7.02-8.49,10.06l-15.49,21.81c-3.32,4.94-6.93,11.32-9.56,16.61-5.54,11.14-10.53,22-14.51,33.93-8.16,24.47-12.91,48.8-12.91,76.75h0Z" style="fill: #c40000; fill-rule: evenodd;"/>
      <path d="M928.72,109.61c-35.16,0-70.05.41-105.12.41-1.71,0-3.45-.03-5.16,0-1.14.01-1.31.21-2.46.22-11.1.13-20.6,3.79-28.09,11.28-3.98,3.98-9.64,10.6-9.64,16.75,0,5.53,2,9.1,5.15,13.19,1.42,1.85,3.52,3.38,5.52,4.58,16.97,10.1,48.84,1.7,57.07,9.92,2.49,2.49,3.78,6.38,3.78,10.03,0,3-.76,6.25-1.47,8.63-.83,2.77-4.33,21.7-5.11,25.6-2.28,11.4-4.52,22.95-6.77,34.25-.6,3.03.44,2.22-7.88,2.22-6.4,0-65.87-.21-66.54.04-.97.36-3.34,11.96,8.05,14.34,1.85.39,3.55.67,5.72.67h96.87c.8,0,.74-1.33.88-2.21l1.44-8.25c1.39-7.1,2.48-14.62,3.78-21.78l5.65-32.69c.88-5.41,2.52-10.71,2.89-16.27.42-6.29.74-11.7-1.39-17.79-1.62-4.61-4.98-8.89-9.57-10.84-11.45-4.87-24.95-2.5-37.07-2.5-8.07,0-15.94.21-21.7-5.71-4.19-4.31-4.29-11.5.67-15.31,5.31-4.08,10.14-5.17,17.32-5.15,3.71,0,7.42,0,11.13,0s7.18.21,11.13.21h44.93c8.83,0,22.95-1.9,28.33,5.27,2.71,3.61,2.79,7.09,2.79,11.84,0,5.11-1.41,10.23-2.39,15.13-2.02,10.08-3.23,20.08-4.91,30.13-.86,5.14-1.55,10-2.41,15.11-1.68,9.95-3.2,20.26-4.86,30.18-.86,5.13-1.62,9.94-2.41,15.11-.41,2.65-2.39,12.94-2.39,15.34h37.92c.88,0,1.11-4.02,1.3-5.1.29-1.75.62-3.9.91-5.68l9.04-55.88c2.53-15.12,4.75-29.72,6.95-44.99,1.96-13.54,4.04-24.61,18.39-26.95,2.11-.34,4.05-.14,6.27-.33,5.04-.42,18.77-.34,18.77,7.22,0,2.95-.55,5.61-1.03,8.45l-5.24,32.89c-.53,3.46-3.83,22.38-3.83,24.82-2.36,0-5.41-.82-9.28-.82s-7.64.87-10.81,2.8c-.87.53-1.84,1.48-2.8,1.74.26.96,4.93,3.73,5.77,4.33,1.95,1.4,3.93,2.99,5.62,4.69,2.66,2.67,4.74,5.55,6.66,8.8,1.17,1.98,1.15,1.6.79,3.71-2.39,14.38-4.44,39.83-9.39,52.03-3.03,7.47-10.18,12.26-18.32,12.6-2.69.11-6.95.32-9.36.94-3.17.81-4.5,1.85-6.06,4.25-1.09,1.68-2.1,5.43-2.1,8.21,16.96,0,42.37,2.38,57.05-7.05,2.21-1.42,4.44-2.99,6.28-4.86.7-.71,1.26-1.25,1.96-1.95.44-.45.48-.56.84-1.01,12.16-15.06,12.89-37.8,16.05-56.71l6.3-38.43c1.4-8.41,2.81-17.24,4.21-25.67,1.88-11.26,3.15-19.55,3.15-31.27,0-4.1-1.22-7.3-3.35-10.25-3.21-4.43-7.4-7.87-12.95-9.72-3.61-1.21-7.36-1.85-11.25-2.35-7.46-.97-27.02-.71-36.34-.77-3.41-.02-9.57.48-12.98.62-2.57.11-5.43.79-7.71,1.36-2.46.62-4.66,1.53-6.86,2.41-4.31,1.73-2.41,1.16-6.42-.29-2.27-.82-4.49-1.55-7.19-2.09-4.93-.98-10.74-1.6-16.75-1.6h0Z" style="fill: #c40000; fill-rule: evenodd;"/>
      <path d="M1149.26,251.41c-8.17,0-14.75-.35-21.91-3.44-4.59-1.98-6.11-3.12-9.48-5.98-2.82-2.39-5.11-5.44-6.81-8.85-7.72-15.51-5.05-38.03-2.26-54.75,1.48-8.89,3.17-17.4,5.33-26,2.08-8.27,4.92-15.14,9.57-21.76,2.78-3.96,7.02-7.62,11.48-9.54,7.87-3.4,19.98-2.21,29.33-2.21h21.02l1.27-8.01c.13-.73.71-2.09-.23-2.09h-39.37c-14.06,0-25.98,2.95-36.04,7.03-3.3,1.34-7.21,3.82-10.1,5.98-3.01,2.26-6.1,4.9-8.64,7.65-3.43,3.7-6.61,8.19-9.11,12.53-.34.59-.54,1.12-.92,1.76-.39.66-.62,1.09-.94,1.74-.64,1.29-1.19,2.34-1.8,3.77-1.21,2.83-2,4.31-3.17,7.54-.96,2.64-1.93,5.28-2.74,8.18-6.84,24.17-11.02,59.37,8.69,79.08,3.37,3.37,6.92,6.34,11.25,8.54,1.02.52,1.57.96,2.7,1.42,1.03.42,1.72.74,2.73,1.19,10.33,4.6,25.61,6.32,37.79,6.32h33.18c12.36,0,21.27-4.02,28.21-9.51,7.57-5.99,12.12-14.65,13.46-24.26l2.56-16.2c.47-2.81.85-5.51,1.3-8.19l3.83-24.41c1.84-10.92,3.29-21.72,5.12-32.6l3.83-24.41c.46-2.77.83-5.41,1.3-8.19,1.82-10.81,3.31-21.93,5.13-32.59,1.79-10.53,1.17-12.55,7.54-20.7,4.03-5.15,12.28-9.19,19.26-9.19h14.02c.02-.79.28-1.79.38-2.51.13-.93.28-1.76.39-2.5.25-1.71.68-3.37.68-5.09h-26.59c-13.95,0-26.56,5.12-35.1,13.34-12.36,11.9-18.78,29.64-22.08,46.14-2.18,10.92-3.59,22.41-5.45,33.51-.93,5.54-1.86,11.3-2.65,16.72l-9.25,58.98c-1.03,6.11-2.8,19.98-4.34,24.93-1.31,4.21-4.28,9.08-7.7,11.68-4.03,3.06-9.13,4.94-14.64,4.94h0Z" style="fill: #c40000; fill-rule: evenodd;"/>
      <path d="M1307.15,355.5v-6.6h-21.23c-.48,0-.62.14-.62.62v80.8c0,.47.14.62.62.62h21.23v-37.1c0-12.5,2.27-23.47,12.96-26.62,1.78-.53,5.04-.92,7.1-.65,2.85.38,3.55.37,6.12,1.71,5.62,2.91,8.48,9.08,8.45,15.46l-.02,45.78c0,.77-.16,1.42.64,1.42h20.61c1.02,0,.62-2.51.62-4.53v-36.69c-.02-3.11.58-6.8,1.23-9.28,1.75-6.65,6-11.75,12.78-13.4,3.16-.77,5.97-.81,9.12-.04,3.52.85,6.98,3.4,8.86,6.39,3.29,5.22,2.84,9.42,2.84,17.56,0,12.3.16,25.66,0,37.93-.01.95-.28,2.06.62,2.06h20.41c.47,0,.62-.14.62-.62v-51.73c0-18.62-14.51-32.15-32.15-32.15-11.06,0-20.72,3.69-28.19,11.8-.54.58-.63.95-1.29,1.39-.51-.34-.74-.78-1.15-1.33-11.4-15.35-36.55-14.72-47.95-4.7l-2.22,1.9Z" style="fill: #c40000; fill-rule: evenodd;"/>
      <path d="M1101.24,390.33c0-6.35,1.26-11.59,4.86-16.37.51-.68.86-.94,1.33-1.56.63-.83.76-.74,1.49-1.39,6.72-5.98,16.01-6.97,24.3-3.58,3.28,1.34,5.93,3.74,8.27,6.16,3.28,3.4,5.72,9.89,5.72,14.69s0,7.6-2,12.22c-2.06,4.77-6.45,9.13-11.05,11.41-4.19,2.08-6.17,2.33-11.06,2.33-6.32,0-10.21-2.23-14.4-5.59-1.08-.87-1.8-1.7-2.68-2.88-1.3-1.74-2.32-3.5-3.09-5.57-1.01-2.71-1.68-6.2-1.68-9.86h0ZM1147.2,355.29c-.45-.3-.64-.53-1.15-.92l-3.97-2.63c-10.7-6.46-27.17-7.16-38.72-1.34-1.21.61-2.11,1.21-3.25,1.91l-4.5,3.33c-7.68,6.84-12.68,13.97-14.67,24.7-.29,1.56-.42,2.88-.65,4.5-.13.92-.02,1.68-.1,2.58-.57,7.02.69,14.69,3.45,21.09.62,1.44,1.74,3.7,2.53,4.89,3.12,4.69,2.54,3.66,5.63,7.36,1.71,2.05,7.21,6.29,9.42,7.48,3.54,1.9,6.48,3.34,10.66,4.18,8.36,1.68,17.91.9,25.7-2.23,6.18-2.49,6.59-3.86,9.6-5.45,0,1.1,0,2.2,0,3.3,0,.94-.37,2.88.62,2.88h20.61c.47,0,.62-.14.62-.62v-117.69h-21.23c-.9,0-.63,1.1-.62,2.06.18,13.13,0,27.43,0,40.61h0Z" style="fill: #c40000; fill-rule: evenodd;"/>
      <path d="M819.07,348.49l8.13,19.29c1.35,3.22,2.59,6.27,3.89,9.51.67,1.68,1.34,3.27,1.97,4.83.35.85.58,1.47.94,2.36.36.9.73,1.64.94,2.56h-31.54c.15-.66.64-1.61.94-2.36l14.72-36.19ZM761.77,430.94h23.08c.95,0,2.41-4.48,2.8-5.45.7-1.76,7.22-17.03,7.3-18.05h48.64c.36,1.56,7.5,18.64,8.89,22.24.19.49.36,1.26,1.01,1.26h23.08c1.09,0,.17-1.34-.55-2.96-.54-1.22-1-2.28-1.51-3.44l-8.96-20.72c-1.97-4.72-4.01-9.1-5.98-13.81-3.79-9.09-8.17-18.54-11.95-27.62-1.97-4.72-4.01-9.1-5.98-13.81-.33-.79-11.79-26.74-11.87-27.71h-21.02l-23.9,55.24c-1.55,3.55-4.37,10.48-5.98,13.8l-11.96,27.62c-.53,1.09-.99,2.27-1.5,3.45l-3.73,8.65c-.29.58-.91,1.3.08,1.3Z" style="fill: #c40000; fill-rule: evenodd;"/>
      <path d="M1020.24,414.24c-4.83,0-7.15-.11-11.54-2.06-2.08-.93-4.82-2.99-6.45-4.68-3.86-4.01-6.13-10.19-6.13-15.93,0-4.96.02-8.26,2-12.84,1.2-2.77,2.77-5.01,4.75-7,4.08-4.1,10.85-6.81,16.77-6.17,2.16.23,2.61-.04,5.11.68,4.2,1.2,7.88,3.56,10.9,6.62.5.51.87,1.01,1.31,1.57,1.19,1.49,2.65,3.77,3.3,5.57,2.9,8.01,2.47,16.21-1.89,23.51-.81,1.36-1.1,1.49-1.87,2.45-3.58,4.43-10.46,8.27-16.25,8.27h0ZM974.89,388.07v3.92c0,10.67,4.88,21.91,11.59,28.6,7.38,7.35,13.04,10.82,24.18,12.51,3.46.53,7.12.18,10.39-.1,7.16-.61,13.23-3.12,18.89-6.88.82-.54,1.41-1.08,2.14-1.57,0,1.17,0,2.34,0,3.5,0,.94-.37,2.88.62,2.88h20.61c.48,0,.62-.14.62-.62v-81.41h-21.85v6.39c-5.84-3.91-6.61-5.03-14.54-7.31-9.44-2.71-20.56-1.94-29.15,2.36-2.97,1.48-6.63,3.92-9.01,6.24-.86.84-1.33,1-2.69,2.47l-2.29,2.66c-5.89,7.45-9.51,16.54-9.51,26.36Z" style="fill: #c40000; fill-rule: evenodd;"/>
      <path d="M1246.96,380.44h-39.37c1.56-6.68,6.35-11.33,12.4-13.57,9.75-3.63,21.36-.26,25.8,10.21.47,1.1.7,2.37,1.17,3.36ZM1185.33,387.86c0,7.61.31,12.84,3.06,19.61,5.29,13.05,16.37,22.24,30.55,25.1,7.98,1.6,16.79.69,24.33-1.81,6.54-2.17,12.14-5.93,16.72-11.11,2.03-2.3,6.76-9.4,6.96-11.8-1.37-.11-3.53-.71-4.79-.98l-9.69-2.06c-1.08-.23-4.22-.76-4.9-1.08-3.91,7.39-11.61,10.92-20.41,10.92-2.95,0-5.89-.77-7.9-1.78-4.95-2.51-7.04-4.83-9.81-9.56-.78-1.33-2.32-5.53-2.48-7.41h58.74c4.46,0,3.5,1.29,3.5-6.6,0-10.13-3.32-20.04-9.32-27.37-2.21-2.7-3.91-4.38-6.61-6.58-.54-.44-.97-.73-1.53-1.15-2.15-1.62-4.08-2.66-6.59-3.93-10.68-5.37-24.03-4.83-35.08-.31-4.04,1.65-9.14,5.26-12.34,8.47-4.5,4.51-5.98,7.11-8.57,12.25-1.96,3.89-3.85,11.39-3.85,17.18Z" style="fill: #c40000; fill-rule: evenodd;"/>
      <path d="M1448.75,458.76h24.12l5.89-13.69c1.98-4.72,4-9.09,5.98-13.81,5.51-13.15,12.05-28.01,17.81-41.14l14.85-34.41c.51-1.15,2.8-6.11,2.88-7.01h-24.12l-5.59,12.96c-1.79,4.37-3.79,8.64-5.65,13.1-1.13,2.72-10.78,25.35-11.42,26.09-.32-1.39-19.32-47.02-20.73-50.38-.27-.65-.44-1.22-.71-1.77h-24.12c.1,1.2,10.44,24.86,11.6,27.56,3.95,9.22,7.8,18.2,11.75,27.41l9.5,22.25c1,2.25,1.13,1.89.41,3.44l-6.61,15.45c-.63,1.47-5.72,12.66-5.83,13.96h0Z" style="fill: #c40000; fill-rule: evenodd;"/>
      <path d="M880.29,389.92c0,6.28,1.17,12.24,3,16.78,2.42,5.99,6.39,11.88,11.46,15.96,7.37,5.93,12.11,8.43,22.2,10.16,6.01,1.03,12.4.45,17.91-.7,2.27-.47,5.4-1.53,7.4-2.49,3.89-1.87,4.17-1.96,7.98-4.59,1.63-1.12,2.62-2.19,4.07-3.35.93-.75,3.92-4.27,4.71-5.39,2.23-3.16,5.88-10.1,6.18-13.81-2.21-.52-18.54-4.95-20.2-4.95-.44,1.91-1.77,4.5-2.67,5.99-1.25,2.09-2.19,3.09-3.87,4.78-2.47,2.49-7.7,4.89-12.63,4.89-6.86,0-11.59-.6-16.85-5.2-5.73-5-7.47-11.13-7.47-18.92,0-5.89,1.94-11.41,5.72-15.51,2.26-2.46,4.06-3.95,7.41-5.37,1.22-.52,2.84-1,4.3-1.26,7.55-1.34,16.29.04,21.03,6.36,1.65,2.2,3.98,6.74,4.21,9.4l21.02-5.98c-.84-3.62-2.82-7.57-4.78-10.68-3.95-6.27-8.56-10.31-14.79-14.07-6.17-3.72-13.96-5.55-21.86-5.55-15.77,0-26.82,7.08-34.79,16.74-.47.57-.69.95-1.14,1.54-4.93,6.59-7.57,16.09-7.57,25.2h0Z" style="fill: #c40000; fill-rule: evenodd;"/>
      <path d="M661.19,35v429.95c0,.47.14.62.62.62h7.21V34.38h-7.21c-.48,0-.62.14-.62.62Z" style="fill: #c40000; fill-rule: evenodd;"/>
    </g>
  </g>
</svg>