<?xml version="1.0" encoding="UTF-8"?>
<svg id="SOLUTIONLAB" xmlns="http://www.w3.org/2000/svg" viewBox="0 0 1754 500">
  <path d="M697.79,212.97c10.13,8.29,23.18,12.44,39.03,12.44,9.28.23,18.49-1.79,26.82-5.89,7.42-3.71,13.68-9.36,18.13-16.36,4.48-7.08,6.8-15.31,6.69-23.68.22-7.27-1.63-14.45-5.35-20.7-3.88-5.92-9.05-10.9-15.12-14.55-7.5-4.56-15.4-8.4-23.61-11.47-6.18-2.21-12.23-4.77-18.13-7.66-4.19-1.98-7.91-4.83-10.9-8.36-2.47-3.17-3.76-7.09-3.68-11.1-.1-3.82.95-7.58,3.01-10.8,2.11-3.14,5.03-5.64,8.46-7.22,3.85-1.84,8.08-2.76,12.34-2.68,5.59-.11,11.09,1.45,15.79,4.48,5,3.51,9.08,8.16,11.91,13.58l18.03-11.1c-4.06-8.47-10.53-15.55-18.6-20.37-8.11-4.56-17.29-6.87-26.59-6.69-8.54-.18-16.99,1.65-24.68,5.35-6.81,3.21-12.6,8.25-16.72,14.55-3.98,6.37-6.02,13.76-5.89,21.27-.2,7.05,1.61,14.01,5.22,20.07,3.81,5.86,8.91,10.77,14.92,14.35,7.42,4.47,15.26,8.18,23.41,11.1,6.12,2.29,12.11,4.94,17.93,7.93,4.38,2.15,8.31,5.13,11.57,8.76,2.83,3.53,4.29,7.96,4.11,12.48.05,4.54-1.26,8.99-3.78,12.78-2.49,3.76-5.96,6.77-10.03,8.7-4.58,2.08-9.56,3.11-14.58,3.01-8.67.27-17.16-2.49-24.01-7.79-6.87-5.79-11.25-13.99-12.24-22.91l-22.04,5.32c1.79,13.01,8.43,24.86,18.6,33.18ZM842.62,215.65c11.46,6.84,24.62,10.32,37.96,10.03,13.43.32,26.68-3.12,38.26-9.93,11.05-6.76,19.96-16.51,25.69-28.13,6.38-13.13,9.55-27.58,9.23-42.18.33-14.65-2.79-29.17-9.13-42.38-5.66-11.64-14.54-21.42-25.59-28.16-11.64-6.85-24.96-10.33-38.46-10.03-13.34-.27-26.5,3.21-37.96,10.03-11.01,6.74-19.87,16.47-25.55,28.06-6.34,13.21-9.47,27.73-9.13,42.38-.29,14.59,2.88,29.04,9.23,42.18,5.63,11.61,14.46,21.37,25.45,28.13ZM906.91,197.08c-7.87,4.94-17.05,7.39-26.33,6.99-9.29.23-18.46-2.23-26.39-7.09-7.66-4.94-13.69-12.02-17.36-20.37-8.14-20.12-8.14-42.62,0-62.75,3.67-8.34,9.7-15.43,17.36-20.37,5.91-3.55,12.49-5.84,19.33-6.72,6.84-.88,13.78-.34,20.4,1.6,6.62,1.94,12.76,5.22,18.04,9.65,5.28,4.43,9.6,9.9,12.66,16.08,4.11,9.87,6.22,20.45,6.22,31.14s-2.11,21.27-6.22,31.14c-3.67,8.54-9.85,15.75-17.72,20.7ZM980.92,222.77V67.72h22.68v134.82h68.33v20.24h-91.01ZM1099.55,210.77c9.88,9.94,24.16,14.92,42.85,14.92s33.21-5.08,43.18-15.25c9.79-10.17,14.68-25.11,14.68-44.82v-97.9h-22.48v96.33c.19,7.6-.94,15.17-3.34,22.38-2.04,5.75-6.01,10.62-11.24,13.78-6.37,3.44-13.57,5.1-20.8,4.78-7.17.36-14.3-1.26-20.6-4.68-5.16-3.17-9.05-8.04-11-13.78-2.41-7.24-3.55-14.85-3.34-22.48v-96.33h-22.68v99c-.02,19.42,4.91,34.11,14.78,44.05ZM1269.26,222.77V87.95h-50.74v-20.24h124.15v20.24h-50.5v134.82h-22.91ZM1362.48,67.72v155.06h22.71V67.72h-22.71ZM1484.66,225.68c-13.35.28-26.5-3.19-37.96-10.03-10.99-6.76-19.82-16.52-25.45-28.13-6.32-13.14-9.45-27.6-9.13-42.18-.33-14.65,2.79-29.17,9.13-42.38,5.67-11.59,14.52-21.32,25.52-28.06,11.47-6.83,24.62-10.3,37.96-10.03,13.51-.29,26.82,3.18,38.46,10.03,11.05,6.74,19.93,16.52,25.59,28.16,6.34,13.21,9.47,27.73,9.13,42.38.32,14.59-2.85,29.05-9.23,42.18-5.73,11.62-14.64,21.37-25.69,28.13-11.6,6.82-24.88,10.26-38.33,9.93ZM1484.66,204.08c9.28.39,18.47-2.05,26.33-6.99,7.87-4.95,14.04-12.16,17.72-20.7,4.11-9.87,6.22-20.45,6.22-31.14s-2.11-21.27-6.22-31.14c-3.07-6.18-7.38-11.65-12.66-16.08-5.28-4.43-11.43-7.71-18.04-9.65-6.62-1.94-13.57-2.48-20.4-1.6-6.84.88-13.42,3.17-19.33,6.72-7.66,4.94-13.69,12.02-17.36,20.37-8.14,20.12-8.14,42.62,0,62.75,3.67,8.34,9.7,15.43,17.36,20.37,7.93,4.86,17.09,7.32,26.39,7.09ZM1585,67.72v155.06h22.68v-117.18l71.21,117.18h23.88V67.72h-22.48v117.03l-71.88-117.03h-23.41ZM688.09,442.99v-155.09h22.84v134.86h68.3v20.27l-91.14-.03ZM845.53,287.89l-60.2,155.09h24.92l12.51-34.52h63.38l12.45,34.52h24.75l-60.2-155.09h-17.59ZM878.89,388.4l-24.37-67.6-24.5,67.6h48.87ZM943.29,442.99v-155.09h51.17c14.98,0,26.75,3.41,35.29,10.23,4.24,3.44,7.61,7.83,9.83,12.82,2.22,4.99,3.23,10.43,2.95,15.88.15,6.88-1.54,13.68-4.88,19.7-3.2,5.7-7.99,10.35-13.78,13.38,8.13,2.09,15.24,7.01,20.07,13.88,4.7,7.49,7.03,16.22,6.69,25.05,0,13.94-4.38,24.8-13.14,32.58-8.76,7.78-21.03,11.69-36.79,11.71l-57.39-.13ZM966,352.68h31.14c3.05.15,6.09-.3,8.96-1.34,2.87-1.03,5.51-2.63,7.76-4.68,2.15-2.14,3.83-4.72,4.93-7.55,1.09-2.83,1.58-5.87,1.43-8.9.17-2.97-.34-5.94-1.51-8.69-1.16-2.74-2.93-5.18-5.18-7.13-5.47-4.01-12.16-5.97-18.93-5.55h-28.46l-.13,43.85ZM966,422.08h32.94c19.4,0,29.11-8.16,29.13-24.48.22-3.33-.26-6.68-1.42-9.82-1.15-3.14-2.95-6-5.27-8.41-5.25-4.57-12.08-6.89-19.03-6.46h-36.36v49.17ZM1087.38,433.19c10.17,8.29,23.18,12.44,39.03,12.44,9.36.21,18.64-1.86,27.02-6.02,7.41-3.72,13.67-9.37,18.13-16.36,4.47-7.09,6.79-15.33,6.69-23.71.23-7.26-1.63-14.43-5.35-20.67-3.86-5.95-9.03-10.94-15.12-14.58-7.5-4.54-15.41-8.38-23.61-11.47-6.19-2.2-12.24-4.75-18.13-7.66-4.2-1.97-7.92-4.82-10.9-8.36-2.45-3.17-3.74-7.09-3.65-11.1-.09-3.82.95-7.57,2.98-10.8,2.11-3.14,5.03-5.64,8.46-7.22,4.5-2.06,9.45-2.95,14.39-2.6,4.94.35,9.71,1.93,13.87,4.61,5.01,3.49,9.1,8.15,11.91,13.58l18.03-11.14c-4.08-8.46-10.55-15.54-18.6-20.37-8.15-4.6-17.4-6.91-26.76-6.69-8.53-.17-16.98,1.67-24.68,5.35-6.81,3.22-12.6,8.27-16.72,14.58-3.98,6.36-6.02,13.74-5.89,21.24-.2,7.05,1.61,14.01,5.22,20.07,3.81,5.86,8.92,10.76,14.92,14.35,7.37,4.45,15.15,8.18,23.25,11.14,6.12,2.28,12.11,4.92,17.93,7.89,4.39,2.16,8.32,5.14,11.57,8.8,2.83,3.51,4.29,7.93,4.11,12.44.05,4.55-1.26,9.02-3.78,12.81-2.5,3.75-5.96,6.74-10.03,8.66-4.58,2.08-9.56,3.11-14.58,3.01-8.67.27-17.16-2.49-24.01-7.79-6.86-5.79-11.24-13.99-12.24-22.91l-22.04,5.35c1.79,13,8.43,24.84,18.6,33.15ZM1201.83,442.99v-26.92h24.48v26.92h-24.48ZM1257.45,287.89v155.09h22.71v-155.09h-22.71ZM1313.54,442.99v-155.09h43.48c25.49,0,45.25,6.86,59.3,20.57,14.05,13.71,21.05,33.11,21,58.2,0,24.53-6.93,43.4-20.8,56.63-13.87,13.22-33.78,19.79-59.74,19.7h-43.25ZM1336.22,422.05h18.7c11,.28,21.95-1.53,32.28-5.32,8.67-3.36,15.87-9.68,20.34-17.83,4.68-8.29,7.02-19.34,7.02-33.15.48-11.42-1.88-22.77-6.89-33.05-4.36-8.13-11.34-14.56-19.8-18.23-9.81-4.01-20.34-5.95-30.94-5.69h-20.54l-.17,113.25ZM1471.41,339.94c5.1,2.87,10.87,4.34,16.72,4.28,5.92.11,11.76-1.37,16.92-4.28,4.98-2.79,9.12-6.85,12.01-11.77,2.94-5.32,4.48-11.31,4.48-17.39s-1.54-12.07-4.48-17.39c-2.9-4.92-7.04-8.99-12.01-11.81-5.16-2.81-10.95-4.28-16.82-4.28s-11.66,1.47-16.82,4.28c-5,2.8-9.16,6.88-12.07,11.81-2.94,5.32-4.48,11.31-4.48,17.39s1.54,12.07,4.48,17.39c2.9,4.93,7.07,8.99,12.07,11.77ZM1502.02,334.75c-4.24,2.37-9.03,3.58-13.88,3.51-4.83.05-9.59-1.16-13.81-3.51-4.16-2.28-7.63-5.64-10.03-9.73-2.5-4.33-3.77-9.25-3.68-14.25-.1-5.05,1.17-10.03,3.68-14.42,2.42-4.07,5.89-7.44,10.03-9.73,4.26-2.28,9.01-3.48,13.85-3.48s9.59,1.19,13.85,3.48c4.15,2.3,7.61,5.66,10.03,9.73,2.51,4.38,3.78,9.37,3.68,14.42.09,5-1.18,9.92-3.68,14.25-2.41,4.09-5.88,7.45-10.03,9.73ZM1477.9,291.94v37.49l5.65.03v-15.95h5.12l8.56,15.95h6.22l-9.37-16.72c2.28-.44,4.36-1.62,5.92-3.34,1.53-1.88,2.29-4.27,2.14-6.69.06-1.44-.17-2.89-.7-4.23-.53-1.35-1.32-2.57-2.35-3.59-2.68-2.17-6.09-3.23-9.53-2.94h-11.67ZM1488.91,308.3h-5.18v-11.14h5.18c1.86-.08,3.71.31,5.38,1.14.74.46,1.33,1.12,1.71,1.9.38.78.53,1.66.43,2.52.1.86-.04,1.74-.42,2.52-.38.78-.97,1.44-1.72,1.89-1.67.83-3.52,1.24-5.38,1.17Z" style="fill: #f1f7f6; fill-rule: evenodd;"/>
  <path d="M736.83,225.42l.03-1.24h-.03v1.24ZM697.79,212.97l.78-.96h0l-.78.96ZM763.65,219.53l.55,1.11h.01s-.56-1.11-.56-1.11ZM781.78,203.17l1.04.67h0s-1.05-.67-1.05-.67ZM788.47,179.49l-1.24-.04v.05l1.24-.02ZM783.12,158.79l1.06-.63v-.02s-.03-.02-.03-.02l-1.03.68ZM768,144.24l-.64,1.06h0s.64-1.06.64-1.06ZM744.38,132.77l.43-1.16h-.02s-.42,1.16-.42,1.16ZM726.26,125.11l.55-1.11h-.02s-.53,1.11-.53,1.11ZM715.35,116.75l-.98.76.02.02.02.02.94-.8ZM711.67,105.64l1.24.03v-.06l-1.24.03ZM714.68,94.84l-1.03-.69-.02.02,1.04.67ZM723.15,87.62l.52,1.12h.01s-.54-1.12-.54-1.12ZM735.49,84.94l-.02,1.24h.02s.02,0,.02,0l-.02-1.24ZM751.27,89.42l.71-1.01h-.02s-.02-.03-.02-.03l-.67,1.04ZM763.18,103l-1.1.57.62,1.18,1.13-.7-.65-1.05ZM781.21,91.9l.65,1.05.95-.58-.48-1-1.12.54ZM762.61,71.53l.64-1.06-.03-.02-.61,1.08ZM736.02,64.84l-.03,1.24h.03s.02,0,.02,0l-.02-1.24ZM711.34,70.19l.53,1.12h0s-.54-1.12-.54-1.12ZM694.62,84.74l-1.04-.68v.02s1.04.66,1.04.66ZM688.73,106.01l1.24.03v-.06l-1.24.02ZM693.95,126.08l-1.06.63v.02s.03.02.03.02l1.04-.67ZM708.86,140.43l.64-1.06h0s-.63,1.06-.63,1.06ZM732.28,151.53l.43-1.16h-.02s-.42,1.16-.42,1.16ZM750.2,159.46l-.57,1.1h.02s.55-1.1.55-1.1ZM761.78,168.22l.97-.78-.02-.03-.02-.02-.92.83ZM765.89,180.7l-1.24-.05v.06h1.24ZM762.11,193.48l-1.03-.69h0s1.03.69,1.03.69ZM752.08,202.17l.51,1.13h.02s-.53-1.13-.53-1.13ZM737.49,205.18l.02-1.24h-.06l.04,1.24ZM713.48,197.39l-.8.95.02.02.02.02.76-.98ZM701.24,174.48l1.23-.14-.16-1.39-1.36.33.29,1.2ZM679.2,179.8l-.29-1.2-1.09.26.15,1.11,1.23-.17ZM880.58,225.68l.03-1.24h-.06l.03,1.24ZM842.62,215.65l-.65,1.05h.01s.64-1.05.64-1.05ZM918.84,215.75l.63,1.07h.02s-.65-1.07-.65-1.07ZM944.53,187.62l1.11.55h0s-1.11-.55-1.11-.55ZM953.76,145.45l-1.24-.03v.06l1.24-.03ZM944.63,103.07l1.12-.54h0s-1.11.54-1.11.54ZM919.04,74.91l.65-1.06h-.02s-.63,1.06-.63,1.06ZM880.58,64.87l-.03,1.24h.03s.03,0,.03,0l-.03-1.24ZM842.62,74.91l-.63-1.06h-.01s.65,1.06.65,1.06ZM817.06,102.97l-1.11-.54h0s1.12.54,1.12.54ZM807.93,145.35l1.24.02v-.05l-1.24.03ZM817.16,187.52l-1.11.54h0l1.11-.54ZM880.58,204.08l.05-1.24h-.08l.03,1.24ZM906.91,197.08l.66,1.05h0l-.66-1.05ZM854.19,196.99l-.67,1.04h.03s.65-1.04.65-1.04ZM836.83,176.62l-1.15.46v.03s1.15-.5,1.15-.5ZM836.83,113.87l-1.13-.5v.03s1.13.46,1.13.46ZM854.19,93.5l-.64-1.06-.03.02.67,1.04ZM893.92,88.38l-.35,1.19h0l.35-1.19ZM911.97,98.03l.8-.95h0l-.8.95ZM924.63,114.11l1.14-.48-.02-.04-.02-.04-1.11.55ZM924.63,176.38l1.14.49h0s-1.14-.49-1.14-.49ZM980.92,67.72v-1.24h-1.24v1.24h1.24ZM980.92,222.77h-1.24v1.24h1.24v-1.24ZM1003.6,67.72h1.24v-1.24h-1.24v1.24ZM1003.6,202.54h-1.24v1.24h1.24v-1.24ZM1071.93,202.54h1.24v-1.24h-1.24v1.24ZM1071.93,222.77v1.24h1.24v-1.24h-1.24ZM1099.55,210.77l.88-.87h0l-.88.87ZM1185.58,210.43l.88.87h.01s-.89-.87-.89-.87ZM1200.26,67.72h1.24v-1.24h-1.24v1.24ZM1177.79,67.72v-1.24h-1.24v1.24h1.24ZM1177.79,164.04h-1.24v.03l1.24-.03ZM1174.44,186.42l1.17.41v-.02s-1.17-.39-1.17-.39ZM1163.2,200.2l.59,1.09.03-.02h.02s-.64-1.07-.64-1.07ZM1142.4,204.98l.05-1.24h-.12s.06,1.24.06,1.24ZM1121.8,200.3l-.65,1.05.03.02h.03s.59-1.07.59-1.07ZM1110.79,186.52l-1.17.39h0s1.17-.39,1.17-.39ZM1107.45,164.04l1.24.03v-.03h-1.24ZM1107.45,67.72h1.24v-1.24h-1.24v1.24ZM1084.77,67.72v-1.24h-1.24v1.24h1.24ZM1084.77,166.72h1.24s0,0,0,0h-1.24ZM1269.26,87.95h1.24v-1.24h-1.24v1.24ZM1269.26,222.77h-1.24v1.24h1.24v-1.24ZM1218.52,87.95h-1.24v1.24h1.24v-1.24ZM1218.52,67.72v-1.24h-1.24v1.24h1.24ZM1342.68,67.72h1.24v-1.24h-1.24v1.24ZM1342.68,87.95v1.24h1.24v-1.24h-1.24ZM1292.17,87.95v-1.24h-1.24v1.24h1.24ZM1292.17,222.77v1.24h1.24v-1.24h-1.24ZM1362.48,222.77h-1.24v1.24h1.24v-1.24ZM1362.48,67.72v-1.24h-1.24v1.24h1.24ZM1385.19,222.77v1.24h1.24v-1.24h-1.24ZM1385.19,67.72h1.24v-1.24h-1.24v1.24ZM1446.7,215.65l-.65,1.05h.01s.64-1.05.64-1.05ZM1484.66,225.68l.03-1.24h-.06l.03,1.24ZM1421.24,187.52l-1.12.54h0s1.11-.54,1.11-.54ZM1412.11,145.35l1.24.03v-.06l-1.24.03ZM1421.24,102.97l-1.11-.54h0s1.12.54,1.12.54ZM1446.76,74.91l-.63-1.06h-.01s.65,1.06.65,1.06ZM1484.72,64.87l-.03,1.24h.03s.03,0,.03,0l-.03-1.24ZM1523.19,74.91l.65-1.06h-.02s-.63,1.06-.63,1.06ZM1548.77,103.07l1.12-.54h0s-1.11.54-1.11.54ZM1557.91,145.45l-1.24-.03v.06l1.24-.03ZM1548.67,187.62l1.11.55h0s-1.11-.55-1.11-.55ZM1522.99,215.75l.63,1.07h.02s-.65-1.07-.65-1.07ZM1510.99,197.08l.66,1.05h0l-.66-1.05ZM1484.66,204.08l.05-1.24h-.08l.03,1.24ZM1528.71,176.38l1.14.49h0s-1.14-.49-1.14-.49ZM1528.71,114.11l1.14-.48-.02-.04-.02-.04-1.11.55ZM1516.04,98.03l.8-.95h0l-.8.95ZM1458.27,93.5l-.64-1.06-.03.02.67,1.04ZM1440.91,113.87l-1.13-.5v.03s1.13.46,1.13.46ZM1440.91,176.62l-1.15.46v.03s1.15-.5,1.15-.5ZM1458.27,196.99l-.67,1.04h.03s.65-1.04.65-1.04ZM1585,222.77h-1.24v1.24h1.24v-1.24ZM1585,67.72v-1.24h-1.24v1.24h1.24ZM1607.67,222.77v1.24h1.24v-1.24h-1.24ZM1607.67,105.6l1.06-.64-2.29-3.78v4.42h1.24ZM1678.88,222.77l-1.06.64.36.6h.7v-1.24ZM1702.76,222.77v1.24h1.24v-1.24h-1.24ZM1702.76,67.72h1.24v-1.24h-1.24v1.24ZM1680.29,67.72v-1.24h-1.24v1.24h1.24ZM1680.29,184.75l-1.05.65,2.29,3.73v-4.38h-1.24ZM1608.41,67.72l1.05-.65-.36-.59h-.69v1.24ZM688.09,287.89v-1.24h-1.24v1.24h1.24ZM688.09,442.99h-1.24v1.24h1.24v-1.24ZM710.94,287.89h1.24v-1.24h-1.24v1.24ZM710.94,422.75h-1.24v1.24h1.24v-1.24ZM779.24,422.75h1.24v-1.24h-1.24v1.24ZM779.24,443.02v1.24h1.24v-1.24h-1.24ZM785.32,442.99l-1.15-.45-.66,1.69h1.81v-1.24ZM845.53,287.89v-1.24h-.85l-.31.79,1.15.45ZM810.24,442.99v1.24h.87l.3-.82-1.16-.42ZM822.75,408.47v-1.24h-.87l-.29.82,1.16.42ZM886.13,408.47l1.16-.42-.29-.82h-.87v1.24ZM898.57,442.99l-1.16.42.29.82h.87v-1.24ZM923.32,442.99v1.24h1.81l-.66-1.69-1.15.45ZM863.12,287.89l1.15-.45-.31-.79h-.85v1.24ZM854.52,320.81l1.16-.42-1.16-3.22-1.17,3.22,1.16.42ZM878.89,388.4v1.24h1.76l-.6-1.66-1.16.42ZM830.02,388.4l-1.16-.42-.6,1.66h1.77v-1.24ZM943.29,287.89v-1.24h-1.24v1.24h1.24ZM943.29,442.99h-1.24v1.23h1.23s0-1.23,0-1.23ZM1029.75,298.13l.78-.96h0s-.77.96-.77.96ZM1042.53,326.83l-1.24-.06v.09l1.24-.03ZM1037.64,346.53l1.08.61h0s-1.08-.61-1.08-.61ZM1023.86,359.91l-.57-1.1-2.86,1.5,3.12.8.31-1.2ZM1043.93,373.79l1.05-.66-.02-.03-.02-.02-1.01.71ZM1050.62,398.84l-1.24-.05v.05h1.24ZM1000.69,443.12v1.24s0,0,0,0v-1.24ZM997.14,352.68l.06-1.23h-.03s-.03,0-.03,0v1.24ZM966,352.68h-1.24s0,1.24,0,1.24h1.24v-1.24ZM1013.86,346.66l.84.91.02-.02.02-.02-.87-.88ZM1020.22,330.2l-1.23-.07v.07s0,.07,0,.07l1.24-.06ZM1013.53,314.38l.81-.93-.04-.03-.04-.03-.73,1ZM994.6,308.83v1.24h.08s-.08-1.24-.08-1.24ZM966.14,308.83v-1.24h-1.23v1.23s1.23,0,1.23,0ZM966,422.08h-1.24v1.24h1.24v-1.24ZM1028.08,397.6l-1.23-.08v.04s0,.04,0,.04h1.24ZM1021.39,379.37l.89-.86-.04-.04-.04-.04-.81.93ZM1002.36,372.92v1.24h.08s-.08-1.24-.08-1.24ZM966,372.92v-1.24h-1.24v1.24h1.24ZM1126.41,445.63l.03-1.24h-.03v1.24ZM1087.38,433.19l-.78.96h0s.78-.96.78-.96ZM1153.44,439.61l.55,1.11h0s-.56-1.11-.56-1.11ZM1171.56,423.25l1.04.67h0s-1.05-.67-1.05-.67ZM1178.25,399.54l-1.24-.04v.05h1.24ZM1172.9,378.87l1.06-.64-.03-.04-1.04.68ZM1157.78,364.29l-.64,1.06h0s.64-1.06.64-1.06ZM1134.17,352.81l.43-1.16h-.02s-.41,1.16-.41,1.16ZM1116.04,345.16l.55-1.11h-.02s-.53,1.11-.53,1.11ZM1105.14,336.79l-.98.76.02.02.02.02.95-.8ZM1101.49,325.69l1.24.03v-.06l-1.24.03ZM1104.47,314.89l-1.03-.69-.02.03,1.05.66ZM1112.93,307.66l-.52-1.13h0s.52,1.13.52,1.13ZM1127.32,305.06l.09-1.23h0l-.09,1.23ZM1141.19,309.67l.71-1.02-.04-.03-.67,1.04ZM1153.1,323.25l-1.1.57.62,1.18,1.13-.7-.65-1.05ZM1171.13,312.11l.65,1.05.95-.59-.48-1-1.11.54ZM1152.53,291.74l.64-1.06-.03-.02-.61,1.08ZM1125.78,285.05l-.02,1.24h.05l-.03-1.24ZM1101.09,290.4l.53,1.12h0l-.54-1.12ZM1084.37,304.99l-1.04-.68v.02s1.04.66,1.04.66ZM1078.48,326.22l1.24.03v-.06l-1.24.02ZM1083.7,346.29l-1.06.63v.02s.03.02.03.02l1.04-.68ZM1098.62,360.64l.64-1.06h0s-.64,1.06-.64,1.06ZM1121.86,371.78l.43-1.16h0s-.42,1.16-.42,1.16ZM1139.79,379.67l-.56,1.1h.02s.55-1.1.55-1.1ZM1151.36,388.47l.96-.78-.02-.02-.02-.02-.92.82ZM1155.48,400.91l-1.24-.05v.06h1.24ZM1151.7,413.72l1.03.69h0s-1.03-.69-1.03-.69ZM1141.66,422.38l.51,1.13h.02s-.53-1.13-.53-1.13ZM1127.08,425.39l.02-1.24h-.06l.04,1.24ZM1103.07,417.6l-.8.95.02.02h.02s.76-.96.76-.96ZM1090.82,394.69l1.23-.14-.16-1.4-1.36.33.29,1.2ZM1068.78,400.04l-.29-1.2-1.09.26.15,1.11,1.23-.17ZM1201.83,416.06v-1.24h-1.24v1.24h1.24ZM1201.83,442.99h-1.24v1.24h1.24v-1.24ZM1226.32,416.06h1.24v-1.24h-1.24v1.24ZM1226.32,442.99v1.24h1.24v-1.24h-1.24ZM1257.45,442.99h-1.24v1.24h1.24v-1.24ZM1257.45,287.89v-1.24h-1.24v1.24h1.24ZM1280.17,442.99v1.24h1.24v-1.24h-1.24ZM1280.17,287.89h1.24v-1.24h-1.24v1.24ZM1313.54,287.89v-1.24h-1.24v1.24h1.24ZM1313.54,442.99h-1.24v1.24h1.24v-1.24ZM1437.33,366.66h-1.24,1.24ZM1356.79,442.99v-1.24s0,0,0,0v1.24ZM1354.92,422.05l.03-1.24h-.03v1.24ZM1336.22,422.05h-1.24v1.24s1.24,0,1.24,0v-1.24ZM1387.19,416.73l.43,1.16h.02s-.45-1.16-.45-1.16ZM1407.53,398.9l-1.08-.61h0s1.08.61,1.08.61ZM1414.55,365.76l-1.24-.05v.05h1.24ZM1407.66,332.71l1.11-.54v-.02s-.02-.02-.02-.02l-1.09.59ZM1387.86,314.49l.49-1.13h-.02s-.47,1.13-.47,1.13ZM1356.93,308.8v1.24h.03l-.03-1.24ZM1336.39,308.8v-1.24h-1.23v1.24s1.23,0,1.23,0ZM1488.14,344.22l.02-1.24h-.04v1.24ZM1471.41,339.94l.61-1.08h0s-.6,1.08-.6,1.08ZM1505.06,339.94l-.61-1.08h0s.61,1.08.61,1.08ZM1517.07,328.16l1.07.63.02-.03-1.08-.6ZM1517.07,293.38l1.08-.6-.02-.03-1.07.63ZM1505.06,281.57l.61-1.08h-.02s-.59,1.08-.59,1.08ZM1471.41,281.57l-.59-1.09h-.01s.61,1.09.61,1.09ZM1459.34,293.38l-1.07-.63-.02.03,1.08.6ZM1459.34,328.16l-1.08.6.02.03,1.07-.63ZM1488.14,338.27l.02-1.24h-.03v1.24ZM1502.02,334.75l-.6-1.08h0s.6,1.08.6,1.08ZM1474.32,334.75l.6-1.08h0s-.6,1.08-.6,1.08ZM1464.29,325.02l-1.07.62h0s1.07-.62,1.07-.62ZM1460.61,310.77l1.24.02v-.05l-1.24.02ZM1464.29,296.36l-1.06-.63v.02s1.06.61,1.06.61ZM1474.32,286.62l-.59-1.09h-.01s.6,1.09.6,1.09ZM1502.02,286.62l.6-1.08h-.01s-.59,1.08-.59,1.08ZM1512.05,296.36l1.07-.62v-.02s-1.07.63-1.07.63ZM1515.73,310.77l-1.24-.02v.05l1.24-.02ZM1512.05,325.02l1.07.63h0s-1.07-.63-1.07-.63ZM1477.9,329.44h-1.24v1.23h1.23s0-1.23,0-1.23ZM1477.9,291.94v-1.24h-1.24v1.24h1.24ZM1483.55,329.47v1.24s1.24,0,1.24,0v-1.24h-1.24ZM1483.55,313.52v-1.24h-1.24v1.24h1.24ZM1488.67,313.52l1.09-.59-.35-.65h-.74v1.24ZM1497.23,329.47l-1.09.59.35.65h.74v-1.24ZM1503.45,329.47v1.24h2.11l-1.03-1.84-1.08.61ZM1494.09,312.75l-.24-1.21-1.68.33.84,1.49,1.08-.61ZM1500.01,309.4l.92.83.02-.02.02-.03-.96-.78ZM1502.15,302.71l-1.24-.05v.06s0,.07,0,.07l1.23-.08ZM1501.45,298.48l1.15-.45h0l-1.15.45ZM1499.11,294.89l.87-.88-.04-.04-.05-.04-.78.96ZM1489.57,291.94v1.24h.1s-.1-1.24-.1-1.24ZM1483.72,308.3h-1.24v1.24h1.24v-1.24ZM1488.91,308.3l.04-1.24h-.04v1.24ZM1483.72,297.16v-1.24h-1.24v1.24h1.24ZM1488.91,297.16v1.24h.05l-.05-1.24ZM1494.29,298.3l.65-1.05-.05-.03-.05-.03-.55,1.11ZM1496,300.19l1.11-.54h0l-1.11.54ZM1496.43,302.71l-1.23-.14-.02.14.02.14,1.23-.15ZM1496.01,305.23l-1.11-.54h0l1.11.54ZM1494.29,307.13l.55,1.11.05-.02.04-.03-.65-1.06ZM736.83,224.18c-15.63,0-28.38-4.08-38.25-12.16l-1.57,1.91c10.4,8.51,23.74,12.72,39.81,12.72v-2.48ZM763.1,218.42c-8.16,4.01-17.16,5.99-26.25,5.76l-.06,2.48c9.49.23,18.88-1.83,27.4-6.01l-1.09-2.22ZM780.73,202.51c-4.33,6.81-10.43,12.31-17.64,15.91l1.11,2.21c7.61-3.81,14.05-9.62,18.62-16.8l-2.09-1.33ZM787.23,179.51c.11,8.13-2.15,16.13-6.5,23l2.09,1.32c4.61-7.28,7-15.74,6.88-24.36l-2.48.03ZM782.05,159.42c3.6,6.05,5.39,13,5.18,20.03l2.48.07c.23-7.51-1.69-14.92-5.53-21.37l-2.13,1.26ZM767.36,145.3c5.91,3.56,10.94,8.4,14.72,14.17l2.07-1.36c-3.98-6.08-9.28-11.18-15.51-14.93l-1.28,2.12ZM743.95,133.93c8.14,3.05,15.98,6.86,23.41,11.37l1.28-2.11c-7.56-4.6-15.54-8.47-23.82-11.57l-.87,2.31ZM725.71,126.22c5.94,2.91,12.03,5.49,18.26,7.71l.84-2.33c-6.14-2.19-12.15-4.74-18-7.61l-1.09,2.22ZM714.41,117.55c3.11,3.67,6.97,6.63,11.32,8.68l1.06-2.24c-4.03-1.9-7.61-4.64-10.49-8.04l-1.89,1.6ZM710.44,105.62c-.09,4.3,1.3,8.5,3.94,11.89l1.95-1.52c-2.29-2.95-3.5-6.59-3.42-10.32l-2.48-.05ZM713.64,94.17c-2.19,3.43-3.31,7.43-3.2,11.5l2.48-.06c-.09-3.57.89-7.09,2.82-10.1l-2.09-1.33ZM722.62,86.49c-3.63,1.68-6.73,4.33-8.97,7.66l2.05,1.38c1.98-2.95,4.73-5.3,7.96-6.79l-1.04-2.25ZM735.51,83.7c-4.46-.08-8.88.87-12.9,2.8l1.07,2.23c3.68-1.76,7.71-2.63,11.78-2.55l.05-2.47ZM751.95,88.38c-4.91-3.17-10.65-4.8-16.48-4.68l.05,2.47c5.34-.11,10.6,1.38,15.09,4.28l1.34-2.08ZM764.28,102.43c-2.92-5.59-7.13-10.4-12.29-14.02l-1.42,2.03c4.84,3.39,8.79,7.9,11.52,13.14l2.19-1.14ZM780.56,90.84l-18.03,11.1,1.3,2.11,18.03-11.1-1.3-2.11ZM761.98,72.59c7.86,4.69,14.16,11.59,18.11,19.84l2.23-1.07c-4.17-8.69-10.8-15.96-19.08-20.9l-1.27,2.13ZM736.05,66.08c9.08-.18,18.04,2.07,25.96,6.53l1.22-2.16c-8.3-4.67-17.7-7.04-27.22-6.85l.05,2.47ZM711.87,71.31c7.52-3.62,15.78-5.41,24.12-5.23l.05-2.47c-8.73-.19-17.38,1.69-25.25,5.47l1.07,2.23ZM695.65,85.42c4-6.11,9.61-10.99,16.21-14.11l-1.06-2.24c-7.02,3.31-12.98,8.5-17.23,14.99l2.07,1.35ZM689.97,105.99c-.13-7.27,1.85-14.42,5.7-20.59l-2.1-1.31c-4.1,6.58-6.21,14.2-6.07,21.95l2.48-.04ZM695.01,125.45c-3.49-5.86-5.23-12.59-5.04-19.4l-2.48-.07c-.2,7.28,1.67,14.47,5.39,20.73l2.13-1.26ZM709.5,139.37c-5.84-3.48-10.81-8.25-14.51-13.96l-2.07,1.34c3.91,6.02,9.15,11.07,15.32,14.74l1.26-2.13ZM732.69,150.37c-8.07-2.89-15.84-6.58-23.19-11l-1.28,2.12c7.49,4.51,15.41,8.26,23.63,11.21l.84-2.33ZM750.77,158.36c-5.86-3.01-11.89-5.67-18.06-7.98l-.87,2.31c6.08,2.28,12.02,4.91,17.8,7.87l1.13-2.2ZM762.7,167.4c-3.37-3.75-7.42-6.82-11.95-9.05l-1.09,2.22c4.24,2.09,8.04,4.96,11.2,8.48l1.84-1.65ZM767.13,180.75c.19-4.82-1.37-9.54-4.38-13.3l-1.93,1.55c2.65,3.29,4.01,7.43,3.84,11.65l2.48.09ZM763.14,194.16c2.66-3.99,4.04-8.69,3.99-13.48l-2.48.03c.05,4.29-1.19,8.5-3.57,12.08l2.06,1.37ZM752.61,203.29c4.28-2.02,7.93-5.18,10.54-9.13l-2.07-1.36c-2.36,3.58-5.66,6.43-9.53,8.26l1.06,2.24ZM737.47,206.42c5.21.1,10.38-.97,15.12-3.12l-1.02-2.25c-4.41,2-9.21,2.99-14.05,2.9l-.05,2.48ZM712.72,198.37c7.08,5.48,15.85,8.33,24.81,8.05l-.07-2.48c-8.38.26-16.59-2.4-23.22-7.54l-1.51,1.96ZM700.01,174.61c1.03,9.24,5.57,17.73,12.68,23.72l1.59-1.89c-6.62-5.58-10.85-13.49-11.81-22.1l-2.46.27ZM679.49,181l22.04-5.32-.58-2.41-22.04,5.32.58,2.41ZM698.58,212.02c-9.92-8.12-16.41-19.69-18.15-32.39l-2.46.33c1.84,13.32,8.64,25.45,19.04,33.97l1.57-1.91ZM880.55,224.45c-13.11.28-26.04-3.14-37.3-9.86l-1.27,2.13c11.66,6.96,25.04,10.5,38.62,10.21l-.05-2.48ZM918.21,214.68c-11.38,6.7-24.41,10.08-37.6,9.76l-.06,2.48c13.66.32,27.14-3.18,38.92-10.1l-1.26-2.13ZM943.42,187.07c-5.62,11.41-14.37,20.99-25.22,27.62l1.29,2.11c11.25-6.88,20.32-16.81,26.15-28.64l-2.22-1.09ZM952.52,145.47c.31,14.4-2.81,28.66-9.11,41.61l2.23,1.08c6.47-13.31,9.68-27.96,9.35-42.74l-2.48.05ZM943.51,103.6c6.25,13.03,9.34,27.36,9.01,41.81l2.48.06c.34-14.84-2.83-29.55-9.25-42.94l-2.23,1.07ZM918.4,75.96c10.85,6.62,19.57,16.22,25.12,27.65l2.23-1.08c-5.76-11.86-14.8-21.81-26.05-28.68l-1.29,2.11ZM880.61,66.11c13.27-.29,26.37,3.13,37.81,9.86l1.26-2.13c-11.84-6.97-25.39-10.5-39.12-10.2l.05,2.47ZM843.25,75.97c11.27-6.71,24.19-10.13,37.3-9.86l.05-2.47c-13.57-.27-26.95,3.26-38.62,10.21l1.26,2.13ZM818.17,103.51c5.58-11.38,14.28-20.94,25.09-27.55l-1.29-2.11c-11.21,6.86-20.24,16.77-26.02,28.57l2.22,1.09ZM809.17,145.32c-.33-14.45,2.76-28.78,9.01-41.81l-2.23-1.07c-6.42,13.39-9.59,28.1-9.25,42.94l2.48-.06ZM818.28,186.98c-6.27-12.96-9.39-27.22-9.11-41.61l-2.48-.05c-.29,14.78,2.92,29.43,9.35,42.74l2.23-1.08ZM843.27,214.6c-10.79-6.64-19.46-16.21-24.99-27.62l-2.23,1.08c5.73,11.82,14.72,21.76,25.92,28.64l1.3-2.11ZM880.53,205.31c9.54.4,18.97-2.1,27.04-7.18l-1.32-2.1c-7.65,4.81-16.59,7.19-25.62,6.81l-.1,2.47ZM853.54,198.04c8.13,4.98,17.53,7.51,27.07,7.27l-.06-2.48c-9.06.22-17.99-2.17-25.71-6.91l-1.29,2.11ZM835.7,177.12c3.76,8.57,9.96,15.84,17.82,20.91l1.34-2.08c-7.46-4.81-13.33-11.71-16.9-19.83l-2.27,1ZM835.68,113.41c-8.26,20.42-8.26,43.25,0,63.68l2.29-.93c-8.02-19.82-8.02-41.99,0-61.82l-2.29-.93ZM853.52,92.46c-7.86,5.07-14.06,12.34-17.82,20.91l2.27,1c3.57-8.12,9.44-15.02,16.9-19.83l-1.34-2.08ZM873.36,85.56c-7.01.9-13.75,3.25-19.81,6.88l1.27,2.12c5.77-3.46,12.18-5.69,18.85-6.55l-.31-2.45ZM894.27,87.2c-6.78-1.98-13.9-2.54-20.9-1.64l.31,2.45c6.67-.86,13.44-.33,19.9,1.56l.69-2.38ZM912.76,97.08c-5.42-4.54-11.71-7.9-18.5-9.89l-.69,2.38c6.45,1.89,12.45,5.09,17.6,9.41l1.59-1.9ZM925.74,113.56c-3.14-6.33-7.56-11.94-12.97-16.47l-1.59,1.9c5.15,4.32,9.36,9.66,12.35,15.68l2.21-1.1ZM932.09,145.25c0-10.85-2.15-21.6-6.31-31.62l-2.29.95c4.04,9.72,6.13,20.14,6.13,30.66h2.48ZM925.77,176.86c4.17-10.02,6.31-20.76,6.31-31.61h-2.48c0,10.53-2.08,20.94-6.13,30.66l2.29.95ZM907.57,198.13c8.08-5.08,14.42-12.49,18.19-21.26l-2.27-.98c-3.57,8.3-9.58,15.33-17.24,20.14l1.32,2.1ZM979.68,67.72v155.06h2.48V67.72h-2.48ZM1003.6,66.48h-22.68v2.48h22.68v-2.48ZM1004.83,202.54V67.72h-2.48v134.82h2.48ZM1071.93,201.3h-68.33v2.48h68.33v-2.48ZM1073.16,222.77v-20.24h-2.48v20.24h2.48ZM980.92,224.01h91.01v-2.48h-91.01v2.48ZM1142.4,224.45c-18.47,0-32.39-4.91-41.97-14.55l-1.76,1.75c10.18,10.25,24.82,15.28,43.72,15.28v-2.48ZM1184.7,209.57c-9.67,9.86-23.72,14.88-42.3,14.88v2.48c19.02,0,33.79-5.15,44.06-15.62l-1.77-1.73ZM1199.02,165.61c0,19.52-4.85,34.1-14.34,43.96l1.78,1.72c10.08-10.48,15.03-25.77,15.03-45.68h-2.48ZM1199.02,67.72v97.9h2.48v-97.9h-2.48ZM1177.79,68.95h22.48v-2.48h-22.48v2.48ZM1179.02,164.04v-96.33h-2.48v96.33h2.48ZM1175.61,186.81c2.45-7.34,3.6-15.06,3.41-22.8l-2.48.06c.19,7.46-.92,14.88-3.28,21.95l2.35.78ZM1163.84,201.26c5.47-3.3,9.63-8.4,11.77-14.43l-2.33-.83c-1.94,5.49-5.73,10.13-10.71,13.13l1.28,2.12ZM1142.35,206.22c7.46.32,14.87-1.38,21.45-4.93l-1.18-2.18c-6.18,3.33-13.14,4.94-20.16,4.63l-.11,2.48ZM1121.21,201.39c6.51,3.53,13.86,5.2,21.26,4.83l-.13-2.47c-6.94.35-13.84-1.22-19.95-4.54l-1.18,2.17ZM1109.62,186.92c2.04,6.01,6.12,11.11,11.53,14.44l1.3-2.11c-4.92-3.02-8.62-7.66-10.48-13.12l-2.34.8ZM1106.21,164.01c-.21,7.78.95,15.53,3.41,22.9l2.35-.78c-2.37-7.1-3.48-14.57-3.28-22.05l-2.48-.07ZM1106.21,67.72v96.33h2.48v-96.33h-2.48ZM1084.77,68.95h22.68v-2.48h-22.68v2.48ZM1086.01,166.72v-99h-2.48v99h2.48ZM1100.43,209.89c-9.57-9.63-14.45-23.95-14.43-43.17h-2.48c-.02,19.62,4.96,34.66,15.14,44.92l1.76-1.75ZM1268.02,87.95v134.82h2.48V87.95h-2.48ZM1218.52,89.19h50.74v-2.48h-50.74v2.48ZM1217.29,67.72v20.24h2.48v-20.24h-2.48ZM1342.68,66.48h-124.15v2.48h124.15v-2.48ZM1343.91,87.95v-20.24h-2.48v20.24h2.48ZM1292.17,89.19h50.5v-2.48h-50.5v2.48ZM1293.41,222.77V87.95h-2.48v134.82h2.48ZM1269.26,224.01h22.91v-2.48h-22.91v2.48ZM1363.71,222.77V67.72h-2.48v155.06h2.48ZM1385.19,221.54h-22.71v2.48h22.71v-2.48ZM1383.95,67.72v155.06h2.48V67.72h-2.48ZM1362.48,68.95h22.71v-2.48h-22.71v2.48ZM1446.06,216.71c11.66,6.96,25.04,10.5,38.62,10.21l-.05-2.48c-13.11.28-26.04-3.14-37.3-9.86l-1.27,2.13ZM1420.13,188.06c5.73,11.82,14.72,21.76,25.92,28.64l1.3-2.11c-10.79-6.64-19.46-16.21-24.99-27.62l-2.23,1.08ZM1410.87,145.32c-.32,14.78,2.85,29.42,9.25,42.74l2.23-1.07c-6.23-12.97-9.32-27.23-9.01-41.61l-2.48-.05ZM1420.13,102.43c-6.42,13.39-9.59,28.1-9.25,42.94l2.48-.06c-.33-14.45,2.76-28.78,9.01-41.81l-2.23-1.07ZM1446.12,73.85c-11.2,6.87-20.21,16.78-25.98,28.57l2.22,1.09c5.57-11.38,14.26-20.93,25.05-27.55l-1.29-2.11ZM1484.75,63.64c-13.57-.27-26.95,3.26-38.62,10.21l1.26,2.13c11.27-6.71,24.19-10.13,37.3-9.86l.05-2.47ZM1523.82,73.84c-11.84-6.97-25.39-10.5-39.12-10.2l.05,2.47c13.27-.29,26.37,3.13,37.81,9.86l1.26-2.13ZM1549.89,102.53c-5.76-11.86-14.8-21.81-26.05-28.68l-1.29,2.11c10.85,6.62,19.57,16.22,25.12,27.65l2.23-1.08ZM1559.14,145.47c.34-14.84-2.83-29.55-9.25-42.94l-2.23,1.07c6.25,13.03,9.34,27.36,9.01,41.81l2.48.06ZM1549.79,188.16c6.47-13.31,9.68-27.96,9.35-42.74l-2.48.05c.31,14.4-2.81,28.66-9.11,41.61l2.23,1.08ZM1523.63,216.8c11.25-6.88,20.32-16.81,26.15-28.64l-2.22-1.09c-5.62,11.41-14.37,20.99-25.22,27.62l1.29,2.11ZM1484.63,226.92c13.68.34,27.19-3.16,38.99-10.1l-1.26-2.13c-11.4,6.71-24.45,10.09-37.67,9.76l-.06,2.48ZM1510.33,196.03c-7.65,4.81-16.59,7.19-25.62,6.81l-.1,2.47c9.54.4,18.97-2.1,27.04-7.18l-1.32-2.1ZM1527.57,175.9c-3.57,8.3-9.58,15.33-17.24,20.14l1.32,2.1c8.08-5.08,14.42-12.49,18.2-21.26l-2.27-.98ZM1533.69,145.25c0,10.53-2.08,20.94-6.13,30.66l2.29.95c4.17-10.02,6.31-20.76,6.31-31.61h-2.48ZM1527.56,114.58c4.04,9.72,6.13,20.14,6.13,30.66h2.48c0-10.85-2.15-21.6-6.31-31.62l-2.29.95ZM1515.25,98.98c5.15,4.32,9.36,9.66,12.35,15.68l2.21-1.1c-3.14-6.33-7.56-11.94-12.97-16.47l-1.59,1.9ZM1497.65,89.57c6.45,1.89,12.45,5.09,17.6,9.41l1.59-1.9c-5.41-4.54-11.71-7.9-18.5-9.89l-.69,2.38ZM1477.75,88.01c6.67-.86,13.44-.33,19.9,1.56l.69-2.38c-6.78-1.98-13.9-2.54-20.9-1.64l.31,2.45ZM1458.9,94.56c5.77-3.46,12.18-5.69,18.85-6.55l-.31-2.45c-7.01.9-13.75,3.25-19.81,6.88l1.27,2.12ZM1442.04,114.37c3.57-8.12,9.44-15.02,16.9-19.83l-1.34-2.08c-7.86,5.07-14.06,12.34-17.82,20.91l2.27,1ZM1442.06,176.15c-8.02-19.82-8.02-41.99,0-61.82l-2.29-.93c-8.26,20.42-8.26,43.25,0,63.68l2.29-.93ZM1458.94,195.95c-7.46-4.81-13.33-11.71-16.9-19.83l-2.27,1c3.76,8.57,9.96,15.84,17.82,20.91l1.34-2.08ZM1484.63,202.84c-9.06.22-17.99-2.17-25.71-6.91l-1.29,2.11c8.13,4.98,17.53,7.51,27.06,7.27l-.06-2.48ZM1586.23,222.77V67.72h-2.48v155.06h2.48ZM1607.67,221.54h-22.68v2.48h22.68v-2.48ZM1606.44,105.6v117.18h2.48v-117.18h-2.48ZM1679.94,222.13l-71.21-117.18-2.11,1.29,71.21,117.17,2.11-1.28ZM1702.76,221.54h-23.88v2.48h23.88v-2.48ZM1701.52,67.72v155.06h2.48V67.72h-2.48ZM1680.29,68.95h22.48v-2.48h-22.48v2.48ZM1681.52,184.75v-117.03h-2.48v117.03h2.48ZM1607.36,68.36l71.88,117.03,2.11-1.29-71.88-117.03-2.11,1.3ZM1585,68.95h23.41v-2.48h-23.41v2.48ZM686.86,287.89v155.09h2.48v-155.09h-2.48ZM710.94,286.66h-22.84v2.48h22.84v-2.48ZM712.18,422.75v-134.86h-2.48v134.86h2.48ZM779.24,421.51h-68.3v2.48h68.3v-2.48ZM780.47,443.02v-20.27h-2.48v20.27h2.48ZM688.09,444.22l91.14.03v-2.48l-91.14-.03v2.48ZM786.48,443.43l60.2-155.09-2.31-.9-60.2,155.09,2.31.9ZM810.24,441.75h-24.92v2.48h24.92v-2.48ZM821.59,408.05l-12.51,34.52,2.33.84,12.51-34.52-2.32-.84ZM886.13,407.23h-63.38v2.48h63.38v-2.48ZM899.74,442.57l-12.45-34.52-2.33.84,12.45,34.52,2.33-.84ZM923.32,441.75h-24.75v2.48h24.75v-2.48ZM861.97,288.34l60.2,155.09,2.31-.9-60.2-155.09-2.31.9ZM845.53,289.13h17.59v-2.48h-17.59v2.48ZM853.36,321.23l24.37,67.6,2.33-.84-24.37-67.6-2.33.84ZM831.19,388.82l24.5-67.6-2.33-.84-24.5,67.6,2.33.84ZM878.89,387.16h-48.87v2.48h48.87v-2.48ZM942.05,287.89v155.09h2.48v-155.09h-2.48ZM994.46,286.66h-51.17v2.48h51.17v-2.48ZM1030.52,297.16c-8.83-7.05-20.9-10.51-36.06-10.51v2.48c14.81,0,26.26,3.37,34.51,9.96l1.55-1.93ZM1040.71,310.44c-2.3-5.16-5.79-9.71-10.18-13.27l-1.56,1.92c4.09,3.31,7.33,7.55,9.48,12.36l2.26-1.01ZM1043.76,326.89c.29-5.65-.75-11.28-3.05-16.45l-2.26,1.01c2.14,4.81,3.12,10.05,2.84,15.31l2.47.13ZM1038.72,347.13c3.45-6.21,5.19-13.22,5.04-20.33l-2.48.05c.14,6.66-1.49,13.24-4.73,19.07l2.16,1.2ZM1024.44,361c6.01-3.14,10.97-7.96,14.29-13.87l-2.16-1.21c-3.08,5.49-7.69,9.97-13.27,12.89l1.14,2.19ZM1044.95,373.08c-4.99-7.11-12.36-12.21-20.77-14.37l-.62,2.4c7.84,2.01,14.71,6.76,19.36,13.39l2.03-1.42ZM1051.86,398.88c.35-9.08-2.05-18.06-6.88-25.75l-2.09,1.31c4.57,7.28,6.83,15.76,6.5,24.35l2.48.09ZM1038.3,432.34c9.08-8.06,13.56-19.29,13.56-33.5h-2.48c0,13.66-4.28,24.15-12.73,31.65l1.65,1.85ZM1000.69,444.36c15.96-.02,28.56-3.97,37.61-12.02l-1.65-1.85c-8.47,7.52-20.4,11.37-35.97,11.39v2.48ZM943.29,444.22l57.39.13v-2.48s-57.39-.13-57.39-.13v2.48ZM997.14,351.44h-31.14v2.48h31.14v-2.48ZM1005.69,350.18c-2.72.98-5.6,1.41-8.49,1.27l-.12,2.47c3.21.16,6.42-.32,9.44-1.41l-.84-2.33ZM1013.03,345.75c-2.13,1.95-4.63,3.45-7.34,4.43l.84,2.33c3.02-1.09,5.8-2.77,8.18-4.93l-1.67-1.83ZM1017.64,338.66c-1.03,2.67-2.62,5.1-4.65,7.12l1.75,1.75c2.28-2.26,4.05-4.98,5.21-7.98l-2.31-.89ZM1018.98,330.27c.15,2.86-.31,5.72-1.34,8.4l2.31.89c1.16-3,1.67-6.2,1.51-9.42l-2.47.13ZM1017.57,322c1.09,2.57,1.57,5.35,1.41,8.13l2.47.14c.18-3.16-.37-6.32-1.6-9.24l-2.28.96ZM1012.72,315.32c2.11,1.83,3.77,4.11,4.85,6.68l2.28-.96c-1.23-2.92-3.12-5.51-5.52-7.59l-1.62,1.87ZM994.68,310.07c6.48-.4,12.89,1.48,18.12,5.32l1.46-2c-5.7-4.18-12.69-6.23-19.74-5.79l.15,2.47ZM966.14,310.07h28.46v-2.48h-28.46v2.48ZM967.24,352.68l.13-43.85h-2.48s-.13,43.84-.13,43.84h2.48ZM998.95,420.85h-32.94v2.48h32.94v-2.48ZM1026.84,397.6c-.01,7.91-2.36,13.63-6.86,17.42-4.54,3.82-11.48,5.83-21.03,5.83v2.48c9.84,0,17.46-2.07,22.63-6.41,5.21-4.38,7.73-10.89,7.74-19.31h-2.48ZM1025.5,388.2c1.09,2.98,1.55,6.15,1.34,9.31l2.47.16c.23-3.51-.28-7.03-1.49-10.33l-2.32.85ZM1020.5,380.23c2.2,2.28,3.91,5,5,7.97l2.32-.85c-1.21-3.3-3.1-6.31-5.55-8.84l-1.78,1.72ZM1002.43,374.15c6.62-.41,13.14,1.8,18.14,6.15l1.63-1.87c-5.49-4.78-12.65-7.21-19.92-6.76l.15,2.47ZM966,374.15h36.36v-2.48h-36.36v2.48ZM967.24,422.08v-49.17h-2.48v49.17h2.48ZM1126.41,444.39c-15.63,0-28.35-4.08-38.25-12.16l-1.57,1.92c10.43,8.51,23.74,12.72,39.81,12.72v-2.48ZM1152.88,438.5c-8.21,4.08-17.28,6.1-26.45,5.89l-.05,2.48c9.56.21,19.03-1.9,27.6-6.15l-1.1-2.22ZM1170.52,422.59c-4.34,6.8-10.43,12.29-17.64,15.91l1.11,2.21c7.61-3.82,14.04-9.62,18.62-16.79l-2.09-1.33ZM1177.02,399.55c.1,8.15-2.16,16.15-6.5,23.04l2.09,1.32c4.6-7.29,6.99-15.77,6.88-24.39l-2.48.03ZM1171.84,379.5c3.6,6.03,5.4,12.97,5.18,20l2.48.08c.23-7.5-1.68-14.9-5.53-21.34l-2.13,1.27ZM1157.15,365.35c5.92,3.55,10.96,8.41,14.72,14.19l2.07-1.35c-3.96-6.11-9.27-11.23-15.52-14.97l-1.27,2.12ZM1133.74,353.97c8.13,3.06,15.97,6.87,23.41,11.37l1.28-2.12c-7.57-4.58-15.54-8.45-23.82-11.57l-.87,2.31ZM1115.49,346.27c5.93,2.93,12.03,5.5,18.26,7.72l.83-2.33c-6.14-2.18-12.15-4.72-17.99-7.6l-1.1,2.22ZM1104.19,337.59c3.1,3.68,6.97,6.65,11.33,8.69l1.05-2.24c-4.03-1.89-7.61-4.63-10.48-8.04l-1.89,1.6ZM1100.26,325.66c-.1,4.29,1.27,8.49,3.9,11.89l1.96-1.52c-2.28-2.95-3.48-6.59-3.39-10.31l-2.48-.06ZM1103.42,314.23c-2.16,3.44-3.26,7.43-3.17,11.49l2.48-.06c-.08-3.57.89-7.09,2.79-10.11l-2.09-1.32ZM1112.41,306.54c-3.63,1.69-6.73,4.33-8.97,7.66l2.05,1.38c1.98-2.95,4.73-5.3,7.96-6.79l-1.04-2.24ZM1127.41,303.83c-5.14-.37-10.3.57-14.99,2.71l1.03,2.25c4.31-1.97,9.05-2.83,13.78-2.49l.18-2.47ZM1141.86,308.63c-4.34-2.78-9.31-4.44-14.46-4.8l-.18,2.47c4.73.33,9.3,1.85,13.3,4.41l1.34-2.08ZM1154.2,322.68c-2.9-5.61-7.12-10.42-12.3-14.03l-1.41,2.03c4.85,3.38,8.8,7.88,11.51,13.13l2.2-1.14ZM1170.48,311.06l-18.03,11.14,1.3,2.11,18.03-11.14-1.3-2.11ZM1151.9,292.8c7.84,4.71,14.14,11.61,18.12,19.85l2.23-1.08c-4.19-8.67-10.82-15.93-19.07-20.89l-1.27,2.12ZM1125.81,286.29c9.13-.21,18.16,2.04,26.12,6.53l1.22-2.16c-8.35-4.7-17.81-7.07-27.4-6.85l.06,2.48ZM1101.63,291.52c7.52-3.6,15.78-5.39,24.13-5.23l.05-2.48c-8.73-.17-17.37,1.71-25.24,5.47l1.07,2.23ZM1085.41,305.66c4-6.12,9.61-11.01,16.21-14.14l-1.06-2.24c-7.02,3.32-12.98,8.52-17.23,15.02l2.07,1.35ZM1079.72,326.2c-.13-7.26,1.85-14.4,5.7-20.56l-2.1-1.31c-4.1,6.56-6.21,14.17-6.07,21.91l2.48-.04ZM1084.76,345.66c-3.49-5.86-5.23-12.59-5.04-19.4l-2.48-.07c-.2,7.28,1.67,14.48,5.39,20.74l2.13-1.26ZM1099.25,359.58c-5.84-3.49-10.8-8.26-14.52-13.96l-2.07,1.35c3.92,6.01,9.16,11.05,15.32,14.73l1.27-2.12ZM1122.29,370.62c-8.01-2.93-15.73-6.62-23.03-11.03l-1.28,2.12c7.44,4.5,15.3,8.26,23.46,11.24l.85-2.32ZM1140.35,378.57c-5.86-2.99-11.89-5.65-18.06-7.95l-.86,2.32c6.08,2.27,12.02,4.89,17.8,7.84l1.12-2.2ZM1152.29,387.65c-3.36-3.77-7.42-6.86-11.95-9.08l-1.09,2.22c4.24,2.09,8.05,4.98,11.19,8.51l1.85-1.65ZM1156.71,400.96c.19-4.81-1.37-9.52-4.39-13.26l-1.93,1.55c2.64,3.28,4.01,7.41,3.84,11.62l2.48.1ZM1152.73,414.4c2.66-4,4.04-8.71,3.99-13.51l-2.48.03c.05,4.3-1.19,8.53-3.57,12.11l2.06,1.37ZM1142.19,423.5c4.27-2.02,7.91-5.16,10.54-9.09l-2.06-1.37c-2.37,3.56-5.67,6.4-9.53,8.23l1.06,2.24ZM1127.06,426.63c5.21.1,10.38-.96,15.12-3.12l-1.02-2.25c-4.41,2-9.21,3-14.05,2.9l-.05,2.48ZM1102.31,418.58c7.08,5.48,15.85,8.33,24.81,8.05l-.07-2.48c-8.38.26-16.59-2.4-23.22-7.54l-1.51,1.96ZM1089.59,394.83c1.04,9.24,5.57,17.73,12.67,23.72l1.6-1.89c-6.62-5.59-10.85-13.5-11.81-22.1l-2.46.27ZM1069.07,401.24l22.04-5.35-.58-2.4-22.04,5.35.58,2.4ZM1088.16,432.23c-9.92-8.1-16.41-19.66-18.15-32.36l-2.46.34c1.83,13.31,8.64,25.44,19.04,33.93l1.57-1.92ZM1200.6,416.06v26.92h2.48v-26.92h-2.48ZM1226.32,414.82h-24.48v2.48h24.48v-2.48ZM1227.55,442.99v-26.92h-2.48v26.92h2.48ZM1201.83,444.22h24.48v-2.48h-24.48v2.48ZM1258.69,442.99v-155.09h-2.48v155.09h2.48ZM1280.17,441.75h-22.71v2.48h22.71v-2.48ZM1278.93,287.89v155.09h2.48v-155.09h-2.48ZM1257.45,289.13h22.71v-2.48h-22.71v2.48ZM1312.31,287.89v155.09h2.48v-155.09h-2.48ZM1357.03,286.66h-43.48v2.48h43.48v-2.48ZM1417.19,307.58c-14.34-14-34.45-20.92-60.16-20.92v2.48c25.26,0,44.68,6.79,58.44,20.22l1.73-1.77ZM1438.57,366.67c.04-25.32-7.03-45.08-21.38-59.09l-1.73,1.77c13.75,13.42,20.67,32.46,20.63,57.31h2.48ZM1417.38,424.18c14.18-13.52,21.19-32.75,21.19-57.52h-2.48c0,24.29-6.86,42.8-20.42,55.73l1.71,1.79ZM1356.79,444.22c26.16.09,46.42-6.53,60.59-20.04l-1.71-1.79c-13.57,12.93-33.13,19.45-58.88,19.36v2.48ZM1313.54,444.22h43.25v-2.48h-43.25v2.48ZM1354.92,420.81h-18.7v2.48h18.7v-2.48ZM1386.77,415.57c-10.18,3.74-20.98,5.52-31.82,5.24l-.06,2.48c11.15.28,22.26-1.55,32.73-5.39l-.85-2.32ZM1406.45,398.31c-4.33,7.9-11.3,14.01-19.7,17.27l.9,2.31c8.94-3.47,16.37-9.98,20.97-18.39l-2.17-1.19ZM1413.32,365.76c0,13.68-2.32,24.49-6.86,32.54l2.15,1.22c4.83-8.55,7.18-19.83,7.18-33.75h-2.48ZM1406.55,333.26c4.92,10.09,7.24,21.24,6.77,32.45l2.48.1c.49-11.62-1.92-23.18-7.01-33.64l-2.23,1.08ZM1387.37,315.62c8.21,3.56,14.98,9.79,19.2,17.68l2.18-1.17c-4.49-8.38-11.68-15-20.4-18.78l-.98,2.27ZM1356.96,310.04c10.43-.26,20.79,1.65,30.44,5.6l.94-2.29c-9.97-4.08-20.67-6.04-31.44-5.78l.06,2.48ZM1336.39,310.04h20.54v-2.48h-20.54v2.48ZM1337.46,422.05l.17-113.25h-2.48s-.17,113.25-.17,113.25h2.48ZM1488.12,342.98c-5.64.06-11.19-1.36-16.1-4.12l-1.21,2.16c5.29,2.97,11.27,4.5,17.34,4.44l-.03-2.48ZM1504.45,338.86c-4.97,2.8-10.59,4.22-16.29,4.12l-.05,2.48c6.14.11,12.2-1.42,17.56-4.44l-1.22-2.15ZM1516,327.54c-2.78,4.73-6.76,8.64-11.55,11.32l1.21,2.16c5.17-2.9,9.47-7.12,12.47-12.22l-2.13-1.25ZM1520.31,310.77c0,5.87-1.49,11.65-4.33,16.79l2.17,1.2c3.04-5.51,4.64-11.7,4.64-17.99h-2.48ZM1515.98,293.98c2.84,5.14,4.33,10.92,4.33,16.79h2.48c0-6.29-1.6-12.48-4.64-17.99l-2.17,1.2ZM1504.45,282.65c4.78,2.71,8.76,6.62,11.55,11.36l2.13-1.25c-3.01-5.11-7.3-9.34-12.47-12.26l-1.22,2.15ZM1488.24,278.53c5.67,0,11.25,1.42,16.23,4.13l1.18-2.17c-5.34-2.91-11.33-4.43-17.42-4.43v2.48ZM1472,282.66c4.98-2.71,10.56-4.13,16.23-4.13v-2.48c-6.08,0-12.07,1.52-17.42,4.43l1.18,2.17ZM1460.41,294.01c2.8-4.74,6.81-8.66,11.61-11.36l-1.21-2.16c-5.19,2.91-9.51,7.14-12.54,12.26l2.13,1.26ZM1456.09,310.77c0-5.87,1.49-11.65,4.33-16.79l-2.17-1.2c-3.04,5.51-4.64,11.7-4.64,17.99h2.48ZM1460.42,327.57c-2.84-5.14-4.33-10.92-4.33-16.79h-2.48c0,6.29,1.6,12.48,4.64,17.99l2.17-1.2ZM1472.01,338.86c-4.81-2.67-8.82-6.58-11.61-11.32l-2.13,1.26c3.02,5.12,7.34,9.34,12.54,12.23l1.2-2.16ZM1488.12,339.5c5.07.07,10.07-1.19,14.5-3.67l-1.2-2.16c-4.05,2.26-8.62,3.42-13.26,3.35l-.03,2.48ZM1473.72,335.83c4.41,2.45,9.38,3.72,14.43,3.67l-.03-2.48c-4.62.05-9.16-1.11-13.2-3.35l-1.2,2.16ZM1463.22,325.65c2.52,4.28,6.15,7.8,10.51,10.19l1.19-2.17c-3.96-2.17-7.27-5.38-9.56-9.28l-2.13,1.26ZM1459.37,310.75c-.09,5.22,1.24,10.37,3.84,14.89l2.15-1.24c-2.38-4.13-3.6-8.84-3.52-13.61l-2.48-.04ZM1463.21,295.74c-2.62,4.58-3.95,9.78-3.84,15.05l2.48-.05c-.1-4.83,1.12-9.59,3.52-13.78l-2.15-1.23ZM1473.72,285.54c-4.34,2.4-7.96,5.92-10.5,10.18l2.13,1.26c2.31-3.89,5.61-7.09,9.57-9.28l-1.2-2.16ZM1488.17,281.91c-5.04,0-9.99,1.25-14.43,3.63l1.17,2.18c4.08-2.19,8.63-3.33,13.26-3.33v-2.48ZM1502.6,285.53c-4.44-2.38-9.4-3.63-14.43-3.63v2.48c4.63,0,9.18,1.14,13.26,3.33l1.17-2.18ZM1513.11,295.72c-2.54-4.26-6.16-7.78-10.5-10.18l-1.2,2.16c3.95,2.19,7.26,5.39,9.57,9.28l2.13-1.26ZM1516.97,310.8c.1-5.27-1.22-10.48-3.84-15.05l-2.15,1.23c2.39,4.19,3.61,8.95,3.52,13.78l2.48.05ZM1513.12,325.64c2.61-4.52,3.93-9.67,3.84-14.89l-2.48.04c.08,4.77-1.13,9.47-3.52,13.61l2.15,1.24ZM1502.61,335.84c4.35-2.39,7.98-5.91,10.51-10.19l-2.13-1.26c-2.3,3.9-5.6,7.1-9.56,9.28l1.19,2.17ZM1479.14,329.44v-37.49h-2.48v37.49h2.48ZM1483.56,328.23l-5.65-.03v2.48s5.64.03,5.64.03v-2.48ZM1482.32,313.52v15.95h2.48v-15.95h-2.48ZM1488.67,312.28h-5.12v2.48h5.12v-2.48ZM1498.32,328.88l-8.56-15.95-2.18,1.17,8.56,15.95,2.18-1.17ZM1503.45,328.23h-6.22v2.48h6.22v-2.48ZM1493.01,313.35l9.37,16.72,2.16-1.21-9.37-16.72-2.16,1.21ZM1499.09,308.57c-1.38,1.53-3.22,2.57-5.24,2.96l.47,2.43c2.55-.5,4.86-1.8,6.6-3.73l-1.84-1.66ZM1500.92,302.79c.13,2.11-.54,4.19-1.87,5.83l1.92,1.56c1.72-2.12,2.59-4.82,2.41-7.55l-2.47.15ZM1500.3,298.93c.46,1.19.67,2.46.61,3.73l2.48.11c.07-1.62-.19-3.23-.78-4.74l-2.3.9ZM1498.23,295.76c.9.9,1.61,1.98,2.07,3.16l2.3-.9c-.59-1.51-1.48-2.88-2.63-4.02l-1.75,1.75ZM1489.67,293.18c3.12-.26,6.22.7,8.65,2.67l1.56-1.92c-2.93-2.37-6.66-3.53-10.42-3.22l.2,2.47ZM1477.9,293.18h11.67v-2.48h-11.67v2.48ZM1483.72,309.53h5.18v-2.48h-5.18v2.48ZM1482.48,297.16v11.14h2.48v-11.14h-2.48ZM1488.91,295.92h-5.18v2.48h5.18v-2.48ZM1494.84,297.19c-1.86-.91-3.91-1.35-5.98-1.26l.1,2.47c1.66-.07,3.3.28,4.79,1.01l1.09-2.22ZM1497.11,299.65c-.48-.99-1.23-1.83-2.17-2.41l-1.3,2.1c.54.33.97.81,1.25,1.38l2.22-1.08ZM1497.66,302.85c.12-1.1-.07-2.2-.55-3.2l-2.22,1.08c.27.57.38,1.21.31,1.84l2.46.28ZM1497.12,305.77c.48-.99.67-2.11.54-3.2l-2.46.29c.07.63-.03,1.26-.31,1.83l2.23,1.08ZM1494.94,308.18c.94-.58,1.7-1.41,2.18-2.41l-2.23-1.08c-.27.57-.71,1.05-1.25,1.38l1.29,2.11ZM1488.86,309.53c2.07.07,4.13-.37,5.98-1.3l-1.1-2.21c-1.49.74-3.13,1.1-4.79,1.04l-.09,2.48Z" style="fill: #f1f7f6;"/>
  <path d="M559.69,272.54l-44.22-.3c-9.33.02-18.29-3.67-24.91-10.24-6.62-6.58-10.37-15.51-10.41-24.84v-17.89c-.66-4.33-2.85-8.28-6.16-11.15-3.32-2.86-7.55-4.45-11.93-4.47l-130.44-.4h-29.37c-8.54-.4-16.79-3.19-23.82-8.04-7.03-4.85-12.57-11.58-15.98-19.42-.78-1.83-1.45-3.71-2.01-5.62v-.3c-1.91-6.81-2.22-13.98-.9-20.93,1.32-6.95,4.24-13.51,8.52-19.14,4.28-5.64,9.81-10.2,16.15-13.34,6.34-3.14,13.33-4.76,20.41-4.75h141.21c8.6-.1,17.05,2.25,24.37,6.77,7.32,4.52,13.2,11.02,16.97,18.75,2.03,4.34,5.26,8.01,9.29,10.58,4.04,2.58,8.73,3.95,13.52,3.97h46.02c3.89,0,7.73-.92,11.21-2.66,3.48-1.74,6.51-4.26,8.85-7.37,2.31-2.99,3.9-6.48,4.64-10.19.74-3.71.61-7.54-.39-11.18-8.12-29.4-25.67-55.33-49.96-73.79-24.29-18.46-53.96-28.43-84.47-28.39h-158.17c-17.95-.04-35.65,4.26-51.57,12.55-15.93,8.29-29.61,20.31-39.87,35.04-21.97,31.67-32.31,64.62-30.8,97.93v24.32c.02,6.67,2.68,13.06,7.4,17.78,4.72,4.72,11.11,7.36,17.79,7.37l44.99.27c4.64.01,9.22.93,13.5,2.72,4.28,1.78,8.16,4.39,11.43,7.68,3.27,3.29,5.86,7.19,7.62,11.48s2.66,8.88,2.64,13.52v22.38c.01,6.66,2.65,13.03,7.34,17.75,4.69,4.72,11.06,7.39,17.71,7.43l150.88.47c8.74.19,17.25,2.88,24.51,7.75,7.26,4.87,12.97,11.73,16.46,19.74.76,1.84,1.42,3.71,1.97,5.62v.2c1.92,6.81,2.24,13.97.93,20.93-1.31,6.95-4.22,13.51-8.49,19.15-4.27,5.64-9.79,10.22-16.13,13.37-6.34,3.15-13.32,4.79-20.4,4.78h-171.25c-4.18,0-8.18-1.66-11.14-4.61-2.96-2.96-4.62-6.96-4.62-11.14v-13.38c.01-6.1-2.21-12-6.23-16.59-4.03-4.59-9.59-7.55-15.64-8.33h-51.51c-7.93.03-15.64-2.65-21.84-7.59-.74-.6-1.37-1.17-2.01-1.74l-.5-.47c-.57-.54-1.07-1.07-1.61-1.64l-.67-.74c-.43-.54-.87-1.04-1.27-1.57l-.77-1.04c-.37-.5-.7-1-1.04-1.54l-.77-1.24c-.27-.5-.57-1-.84-1.54l-.7-1.44c-.2-.47-.43-.97-.64-1.51-.2-.54-.4-1.04-.57-1.57-.17-.54-.4-1.1-.54-1.54-.13-.43-.3-1.14-.43-1.74v-.43c0-.33,0-.7-.23-1.04-.23-.33-.23-1.47-.33-2.21-.1-.74,0-.87,0-1.17v-49.67c-.01-6.68-2.67-13.08-7.39-17.8-4.72-4.72-11.12-7.38-17.8-7.39h-50.17c-6.67.01-13.07,2.67-17.79,7.39-4.72,4.72-7.36,11.12-7.36,17.8v50.17c0,3.3.65,6.58,1.91,9.63,1.26,3.05,3.12,5.82,5.45,8.16,2.34,2.33,5.11,4.19,8.16,5.45,3.05,1.26,6.32,1.91,9.63,1.91h56.22c7.6.03,15,2.51,21.08,7.07,6.08,4.56,10.54,10.96,12.7,18.25l.2.67v18.33c.04,28.96,11.56,56.73,32.04,77.2,20.48,20.48,48.24,32,77.2,32.03h167.6c73.95,0,136.46-56.02,142.42-127.6l.23-56.36c.02-3.31-.62-6.6-1.88-9.66-1.26-3.07-3.11-5.85-5.45-8.2-2.34-2.34-5.12-4.21-8.18-5.48-3.06-1.27-6.34-1.92-9.65-1.92v-.07Z" style="fill: #77c045;"/>
</svg>