<?xml version="1.0" encoding="UTF-8"?>
<svg id="Layer_13" data-name="Layer 13" xmlns="http://www.w3.org/2000/svg" viewBox="0 0 1984 500">
  <g id="Layer_1">
    <g id="_2536387350560" data-name=" 2536387350560">
      <path d="M1359.5,288.51c0,23.21,5.26,44.43,11.91,60.94,1.74,4.33,3.65,8.3,5.73,12.39l3.27,5.79c1.2,2,2.18,3.72,3.45,5.61,1.82,2.71,5.58,8.19,7.63,10.49,3.43,3.83,4.82,5.92,8.7,9.79,16.54,16.54,34.07,26.62,56.76,34.2,9.36,3.13,20.22,5.18,30.19,6.41,29.29,3.6,63.21-.05,89.58-11.77,15.43-6.86,21.59-11.19,34.52-21.3,3.01-2.35,9.13-8.52,11.85-11.35,4.87-5.06,12.53-15.87,15.87-21.46l8-15.55c10.06-24.58,13.36-43.13,13.36-71.09V68.88h-67.77v218.54c0,7.01-.63,13.55-1.66,19.73-1.11,6.67-2.37,11.33-4.28,17.1-1.82,5.51-4.03,10.06-6.64,14.75-14.42,25.92-41.65,37.58-70.79,37.58-19.33,0-34.18-4.82-48.42-14.28-2-1.33-4.23-3.01-5.85-4.66-2.4-2.44-1.67-.93-5.27-5.24-.89-1.06-1.58-1.54-2.43-2.64-.75-.97-1.46-1.79-2.23-2.85-4.53-6.17-8.22-13.19-11.03-20.5-3.75-9.78-6.68-24.26-6.68-35.37V68.88h-67.77v219.63h0Z" style="fill: #ff7c00; fill-rule: evenodd;"/>
      <path d="M183.06,431.3h61.25c.36-.75.74-1.86,1.03-2.59l17.25-42.56c6.13-15.34,12.24-30.26,18.33-45.46,24.18-60.41,49.03-120.81,73.21-181.21,6.05-15.12,12.13-29.98,18.23-45.2,3.09-7.71,6.06-14.95,9.16-22.73l6.89-17.03c.79-1.98,1.48-3.88,2.33-5.64l-57.58.04c-9.61,1.02-16.64,8.2-19.72,16.16l-18.02,46.86c-.69,1.73-1.32,3.4-2.02,5.23-7.01,18.44-14.77,39.39-22,57.37l-28.11,73c-4.39,11.87-9.89,24.96-13.96,36.42-7.27,20.49-8.17,23.34-13.2,44.79-.39,1.66-1.12,4.4-1.16,6.09l-3.42-11.45c-6.02-21.19-10.35-33.96-18.43-54.05-1.44-3.59-2.58-6.84-4.04-10.46l-28.22-73.27c-6.8-16.91-13.28-35.1-20.09-52.03-1.41-3.51-2.79-7.1-4.03-10.46-3.58-9.7-22.22-58.32-24.45-62.53-3.27-6.17-9.92-10.89-17.32-11.67l-57.94-.04,8.96,22.57c3.09,7.71,6.11,15.1,9.16,22.73,6.03,15.07,12.2,29.96,18.28,45.15,6.11,15.27,12.13,29.96,18.22,45.2,24.18,60.42,49.03,120.79,73.21,181.21,3.1,7.73,6.11,15.11,9.16,22.73,1.08,2.71,8.52,20.51,9.06,22.83Z" style="fill: #ff7c00; fill-rule: evenodd;"/>
      <path d="M1716.5,168.54c0,6.27.37,12.65,1.29,19.01,2.39,16.5,7.95,30.18,17.66,43.23,18.57,24.95,51.14,33.62,79.13,43.01,18.3,6.14,42.34,10.26,56.77,24.78,1.9,1.91,3.17,3.15,4.9,5.25,10.06,12.21,8.54,34.54,2.61,47.76-5.98,13.32-18.02,22.13-32.32,25.67-6.17,1.52-12.47,2.4-19.15,2.6-2.65.08-3.84.65-7.03.16-2.28-.34-4.65.03-6.94-.3-6.69-.98-11.76-1.38-18.4-3.34-3.73-1.1-7.15-2.72-10.43-4.07-9.94-4.07-18.82-9.86-27.71-15.78-11.98-7.99-19.12-14.88-32.82-3.9-2.99,2.4-15.76,24.83-18.36,29.12l-3.69,6.09c2.02,1.36,3.21,3.37,5.23,4.92,1.98,1.53,3.42,3.12,5.44,4.71,2.03,1.6,3.67,2.93,5.7,4.45,2.05,1.54,3.75,2.71,5.96,4.18,17.29,11.53,36.27,19.78,56.61,24.58,33.77,7.96,73.16,6.52,104.46-9.14,7.7-3.85,15.57-8.48,22.01-14.23l4.08-3.53c1.39-1.06,2.43-2.25,3.71-3.53.69-.69,1.15-1.11,1.82-1.8.82-.85.89-1.17,1.63-2l6.56-7.94c4.27-5.65,7.68-11.82,10.93-18.43,6.57-13.33,10.87-32.41,10.87-47.48s-.57-29.71-6.64-42.28c-1.19-2.47-1.84-4.3-3.21-6.58-3.04-5.03-6.02-9.95-9.82-14.46-6.74-8-15.29-14.58-24.33-19.89-26.08-15.32-57.07-21.5-85.12-32.67-2.5-1-4.53-1.99-6.79-3-15.97-7.13-31.16-18.41-31.16-37.7,0-20.29,9.87-33.92,27.49-41.01,5.97-2.4,13.87-4.07,20.73-4.64,1.39-.11,2.93.06,4.33-.02,1.64-.09,2.02-.44,3.98-.39,1.79.05,1.82.34,3.61.4,1.4.04,2.96-.11,4.34,0,9.67.79,18.76,3.11,27.44,6.99,7.72,3.45,15.04,7.42,22.3,11.77l5.43,3.27c8.38,4.99,18.24,3.34,23.35-5.15,1.12-1.86,1.75-3.54,2.89-5.44,1.11-1.86,1.95-3.79,2.93-5.77l5.8-11.23c1.12-2.01,2-3.66,3.02-5.68.6-1.21,2.63-4.8,2.9-5.8-2.61-3.89-15.46-12.74-19.2-15.23-3.43-2.28-7.21-4.32-11.12-6.28-21.52-10.76-45.02-16.91-70.07-16.91-21.4,0-37.18,1.42-55.14,8.65-6.33,2.55-12.67,5.52-18.28,8.9-20.42,12.28-34.6,29.23-43.54,51.42-2.86,7.1-4.49,14.18-5.6,21.94-.5,3.47-1.02,8.83-1.02,12.75h0Z" style="fill: #ff7c00; fill-rule: evenodd;"/>
      <path d="M554.19,166.37c0,18.56,1.53,30.17,8.39,47.06,4.78,11.78,14.13,23,23.82,30.91l5.85,4.3c1.1.78,1.69,1.28,3.02,2.06,8.76,5.15,17.36,9.14,26.91,12.96,14.59,5.84,29.99,10.36,45.17,14.63,9.58,2.69,20.15,6.05,28.71,11.16l9.01,5.85c9.33,6.93,15.84,17.13,15.84,29.1,0,16.37-1.78,25.86-11.29,37.64-6.6,8.18-16.78,13.21-27.42,15.71-3.92.92-7.63,1.29-12.19,1.95-2.29.33-4.67-.04-6.95.3-3.11.47-4.07-.09-6.67-.16-18.35-.54-29.43-4.79-44.72-12.55-9.13-4.64-17.59-11.44-26.26-16.87-5.27-3.31-12.5-4.82-18.45-1.62-7.04,3.78-9.02,8.88-13.09,15.18l-10.65,17.62c-1.21,2-2.31,4.01-3.56,5.87.35.52.67.95,1.12,1.42l6.58,6.1c8.25,7.33,17.49,13.08,26.94,18.72,4.36,2.6,9.01,4.52,13.56,6.73,4.68,2.27,9.55,3.97,14.63,5.66,16.45,5.49,32.93,9.2,51.69,9.2,12.76,0,24.42-.42,36.33-2.81,15.27-3.06,30.08-8.37,42.68-16.76,8.16-5.43,18.14-12.87,24.07-20.51,5.67-7.3,7.09-8.57,12.32-17.39,14.97-25.24,20.34-66.85,9.38-94.86-4.64-11.85-10.96-20.68-19.77-29.52l-5.19-4.6c-.97-.76-1.68-1.34-2.61-2.1-.99-.82-1.9-1.38-2.93-2.14-5.81-4.31-12.29-7.88-18.9-10.82l-10.26-4.6c-10.79-4.27-21.47-8.08-32.74-11.84-9.91-3.31-20.29-6.24-29.55-9.96-17.39-6.99-39.45-17.93-39.45-39.92v-4.71c0-14.17,7.42-25.75,17.98-32.77,3.83-2.55,6.72-3.99,11.33-5.71,7.21-2.69,21.1-5.14,29.15-4.03,5.06.7,8.84.15,15.58,1.45,13.22,2.56,24.29,8.74,35.79,14.95,3.66,1.98,6.9,4.36,10.75,6.29,8.61,4.31,17.61,2.29,22.58-6.3.5-.86.83-1.66,1.33-2.65l4.47-8.57c.92-1.85,1.94-3.52,2.9-5.43,1.87-3.75,8-14.04,8.7-17.03l-19.5-14.93c-9.95-6.68-23.99-12.83-35.38-16.08-4.77-1.36-8.78-2.48-13.89-3.5-34.88-6.97-73.95-4.79-104.85,13.84-16.61,10.02-30.33,23.39-39.24,41.22-.79,1.59-1.41,2.75-2.18,4.34-2.35,4.89-3.9,9.61-5.39,14.9-1.83,6.5-3.54,15.23-3.54,23.64Z" style="fill: #ff7c00; fill-rule: evenodd;"/>
      <polygon points="421.54 431.3 489.31 431.3 489.31 68.88 421.54 68.88 421.54 431.3" style="fill: #ff7c00; fill-rule: evenodd;"/>
      <path d="M878.92,149.33c0,2.64,1.23,4.68,2.62,6.08,3.68,3.73,9.04,3.85,12.71.18,1.82-1.82,2.35-3.74,3.73-6.06l17.08-26.77,7.61-9.43c.56-.67.52-.75,1.12-1.42l6.88-7.62c3.34-3.33,6.39-6.53,9.78-9.79.99-.95,1.56-1.18,2.55-2.16,9.24-9.2,25.46-20.28,36.71-26.72,6.26-3.58,12.77-7.12,19.5-9.85,9.96-4.05,17.74-7.25,28.48-10.3,10.85-3.09,21.25-4.87,32.66-6.48,18.74-2.64,44.34-1.51,61.93,1.82,4.97.94,9.58,1.86,14.06,2.98,4.8,1.2,8.88,2.53,13.54,3.85,6.41,1.82,12.46,4.36,18.48,6.89,5.94,2.49,11.86,5.11,17.34,8.39,7.2,4.31,14.54,8.01,21.33,13.1,6.48,4.85,13.2,9.41,19.01,15.06l9.07,8.33c10.09,10.09,18.35,21.42,27.52,32.28,6.03,7.13,3.31,6.65-6.14,16.11-3.47,3.47-6.68,6.68-10.15,10.15-8.46,8.46-16.79,17.08-25.56,25.18-7.01,6.48-13.56,13.53-20.29,20.3l-10.81,9.49c-2,1.55-3.49,4.2-6.32,4.2-3.47,0-5.12-7.71-7.48-12.45-1.18-2.36-2.38-4.23-3.63-6.52-5.67-10.43-14.27-19.53-23.43-26.94-7.52-6.09-15.81-10.82-25.51-14.71-24.04-9.64-54.94-9.09-78.02,2.28l-7.91,4.05c-9.57,5.8-9.67,6.87-17.31,12.77-7.49,5.79-16.29,19-20.93,27.28-2.32,4.14-3.94,8.06-5.46,12.66-4.06,12.3-5.66,22.27-5.66,36.02s4.56,29.83,9.3,39.26c5.35,10.63,11.89,20.16,20.33,28.6,12.62,12.64,29.51,22.05,47,25.85,21.5,4.67,42.63,2.93,61.58-5.52,12.87-5.74,16.04-8.67,25.76-16.28,3.95-3.09,4.65-3.52,8.82.66l5.79,5.8c2.28,2.29,5.53,3.79,5.53,7.52,0,1.49-3.46,3.91-4.6,4.83-9.07,7.31-18.35,13.3-28.5,18.98-6.32,3.53-13.06,6.38-19.95,8.68-10.36,3.45-20.96,5.33-32.12,5.94-6.85.37-19.16-1.19-26.07-2.57-5.2-1.04-10.29-2.36-14.94-3.91-4.58-1.53-9.7-3.45-13.73-5.48-8.3-4.19-16.39-8.68-23.61-14.45-8.82-7.05-16.87-14.79-23.55-23.93-4.67-6.39-15.9-3.4-15.9,5.39,0,3.24,1.97,5.43,3.46,7.41,1.67,2.21,3.29,4.11,5.15,6.09,9.12,9.75,18.61,19.08,30.19,25.99l14.36,8.11c13.47,6.77,27.69,10.9,42.78,13.4,12.72,2.11,27.22,2.13,39.7-.38,16.38-3.29,31.71-9.9,45.78-18.37,4.59-2.76,8.8-5.3,13.14-8.25l24.14-18.63c2.14-1.66,3.61-3.24,5.56-4.95,2.08-1.84,4.8-3.5,4.8-6.8,0-3.01-1.67-4.2-3.47-5.59-2.64-2.04-4.83-4.59-7.46-6.68l-17.09-15.53c-4.97-4.16-10.76-11.91-15.49-5.92-1.02,1.29-1.82,2.26-2.97,3.55-6.52,7.32-13.24,13.01-21.73,18.14-12.46,7.54-27.19,11.66-45.24,11.66s-34.42-6.63-48.05-16.46c-3.18-2.29-5.86-4.65-8.58-7.37-8.54-8.54-15.12-17.03-19.9-28.67-4.64-11.3-8.27-27.37-6.32-40.86,2.09-14.49,4.18-23.3,12.05-36.51,7.75-13.01,20.01-24.42,33.46-31.42,6.89-3.59,15.25-6.71,24.02-8.23,25.75-4.45,45.74,1.54,64.05,13.67,7.17,4.75,13.39,10.81,18.69,17.55l5.12,7.21c2.02,3.41,4.05,6.55,5.6,10.34,1.59,3.89,3.12,7.42,4.38,11.93,1.81,6.48,3.25,14.07,3.18,21.11-.04,3.87.57,5.43,3.99,5.43,1.18,0,13.22-12.68,14.23-13.68l83.9-83.54c4.64-4.64,10.96-8.74,10.96-17.67,0-6.23-3.43-9.55-6.16-13.05l-4.4-5.39c-11.88-14.91-20.31-25.23-34.3-38.19-5.03-4.66-10.39-9.29-15.93-13.43-7.97-5.95-17.61-12.94-26.44-17.41-6.4-3.25-12.62-6.99-19.28-9.72-25.92-10.61-40.79-15.1-69.02-18.69-21.21-2.69-48.29-1.27-69.03,2.88-21.64,4.33-41.67,11.46-60.86,21.05-13.26,6.63-25.94,14.88-37.5,24.11-7.55,6.03-14.76,12.51-21.61,19.35-.91.91-1.68,1.6-2.54,2.53l-4.8,5.35c-.88,1.15-1.71,1.74-2.59,2.85-12.83,16.01-18.96,24.27-29.19,42.57-1.02,1.83-3.02,4.91-3.02,7.5h0Z" style="fill: #ff7c00; fill-rule: evenodd;"/>
      <path d="M897.04,250.09c0,57.51,25.89,103.63,54.82,132.56,5.86,5.86,12.1,11.05,18.48,16.32,6.5,5.37,13.78,9.8,21.01,14.15,9.82,5.9,21.05,11.19,31.96,14.79,21.04,6.96,40.12,10.65,64.01,10.65,21.41,0,43.22-3.96,61.77-11.08,5.91-2.27,11.54-4.35,17.12-7.16,5.63-2.84,10.53-5.35,15.77-8.51,8.7-5.25,17.03-11.1,24.66-17.75l12.51-11.77c4.27-4.3,5.04-2.45,9,.61,2.92,2.26,5.43,5.31,8.04,7.91,3.73,3.73,4.71,4.55.73,8.52l-6.71,6.71c-.59.6-1,1.08-1.65,1.61l-7.22,6.19c-.8.7-1.13.96-1.98,1.64-12.72,10.26-26.42,19.02-41.07,26.34-11.55,5.78-25.6,11.02-39.43,14.57-8.45,2.17-18.85,4.1-28.09,5.25-2.19.27-4.29.32-6.08.81-9.05,2.48-7.71,15.64,1.24,17.29,6.25,1.16,34.72-5.52,40.46-7.12,30.53-8.54,59.21-23.07,83.77-43.08l8.37-7.21c.9-.9,1.28-1.02,2.18-1.81,3.89-3.42,13.3-12.95,15.8-16.09,1.78-2.23,4.4-4.11,4.4-7.56,0-5.71-4.67-8.84-7.7-11.87l-19.57-19.57c-5.53-5.53-11.7-13.43-19.79-3.3l-5.94,6.38c-2.14,2.14-4.03,4.01-6.16,6.16l-6.53,5.79c-.74.69-.88.68-1.61,1.29-18.49,15.54-40.15,26.24-63.41,33-3.24.94-6.7,1.71-9.94,2.38-23.23,4.81-51.07,4.86-73.77-.84-19.77-4.97-38.38-12.68-55.38-23.99-5.29-3.52-10.25-7.36-15.13-11.33-4.03-3.28-13.19-11.68-16.31-15.59-4.69-5.88-9.95-11.46-14.16-17.74-2.88-4.3-5.56-8.25-8.15-12.87-20.83-37.25-27.31-76.72-18.81-119.7,1.06-5.38,2.57-11.09,4.15-15.78,3.25-9.7,7.22-19.02,11.76-28.1,5.35-10.7,12.63-20.34,19.97-29.68,5.41-6.88,15.36-16.85,22.52-22.42,4.75-3.69,9.33-7.28,14.37-10.64,12.53-8.35,25.39-14.78,40.11-19.69,4.99-1.66,10.35-2.39,11.62-8.33,1.18-5.56-2.78-10.83-8.67-10.83-2.35,0-5.71,1.3-7.79,2l-17.79,6.85c-10.27,4.26-19.92,10.14-28.86,16.08-12.12,8.06-21.89,17.02-32.1,27.34l-4.59,5.2c-3.57,4.6-7.5,8.97-10.93,13.71l-5.95,8.91c-2.62,3.93-5.26,8.28-7.37,12.56-1.19,2.4-2.18,4.37-3.38,6.77-1.14,2.28-2.09,4.29-3.13,6.66-5.33,12.25-9.24,24.74-11.89,38.13-2.13,10.79-3.59,23.36-3.59,36.28h0Z" style="fill: #ff7c00; fill-rule: evenodd;"/>
      <path d="M1080.43,80.11c21.05,0,28.85.55,49,5.72,8.81,2.26,23.79,7.91,32.31,12.27,11.7,5.99,23.34,13.74,33.33,22.13l11.77,10.7c1.14,1.15,4.79,4.95,4.79,6.44,0,2.16-5.87,7.14-8.25,9.51l-6.82,6.59c-3.93,3.12-4.12,1.85-8.4-2.42-9.59-9.58-14.34-13.49-26.33-21.51-3.91-2.61-13.56-7.88-18.6-10.03-33.89-14.52-73.2-16.96-107.75-3.16-2.67,1.07-5.37,2.11-7.96,3.27-9.82,4.37-29.18,16.18-37.07,24.18l-3.08,2.72c-3.68,3.41-5.32,5.63-7.96,8.35l-2.73,3.07c-6.56,7.06-13.4,17.96-18.15,26.43-3.18,5.69-7.91,16.79-9.82,23.52-3.89,13.73-3.88,13.58-5.86,27.85l-.89,15.44c.52,14.76,2.66,29.9,7.22,43.53.48,1.43.83,2.62,1.39,4.05,1.28,3.24,2.81,8.23,9.17,8.23,5.08,0,9.06-3.98,9.06-9.06,0-1.62-3.45-10.56-4.43-14.42-5.53-21.71-6.26-45,.12-66.72,1.4-4.77,3-9.81,4.93-14.28,6.41-14.83,15.07-28.46,26.47-39.86,10.98-10.98,21.96-19.15,36.22-25.76,37.53-17.4,81.43-15.77,116.44,5.21,4.06,2.43,7.81,4.8,11.57,7.64l10.65,8.92c1.71,1.73,3.17,3.18,4.89,4.89.86.86,1.57,1.46,2.32,2.39,4.22,5.29,6.22,6.97,10.82,13.83l45.03-44.85-3.98-4.9c-.83-.94-1.11-1.42-2-2.35-4.62-4.84-9.51-10.89-15.04-15.76l-6.97-6.07c-.91-.7-1.36-1.17-2.38-1.97-7.28-5.69-12.65-9.65-20.61-14.55-16.72-10.29-37.49-18.64-56.66-22.71-8.02-1.71-22.28-4.01-30.89-4.27-2.68-.08-6.06.27-8.61-.09-2.52-.36-4.81.11-8.07.1-4.77-.01-11.27-.28-14.15,3.61-4.5,6.07-1.18,14.53,7.26,14.54,1.93,0,2.56-.25,4.01-.37,1.41-.12,3.24-.02,4.69-.02h0Z" style="fill: #ff7c00; fill-rule: evenodd;"/>
      <path d="M854.64,250.09c0,36.29,8.08,67.02,19.2,92.43,8.47,19.36,18.66,35.75,31.49,51.86l13.01,14.9c11.54,11.48,15.73,15.81,29.39,26.06,10.71,8.04,22.03,15.11,34.48,21.33,22.55,11.28,48.83,19.58,74.66,22.47,5.27.59,8.3,1.09,14.13,1.09,4.09,0,7.61-4.48,7.61-6.89,0-4.14-.14-8.74-6.25-10.43l-12.13-1.28c-9.19-1.15-13.75-2.09-22.55-3.91-6.93-1.44-14.18-3.68-20.64-5.82-6.45-2.14-13.19-4.87-19.25-7.57l-13.05-6.52c-10.9-5.38-31.04-19.43-39.41-27.27-6.28-5.88-9.08-7.89-15.22-14.86-.55-.62-1.03-1.04-1.63-1.63l-12.08-14.38-10.88-15.58c-1.89-2.89-3.29-5.33-5.07-8.34-24.24-40.98-33.01-93.2-25.17-140.11.9-5.35,2.02-10.71,3.19-15.66l3.05-11.08c.97-3.46,1.01-1.86,1.01-5.88,0-7.47-11.94-11.67-16.53-3.49-2.12,3.78-6.4,23.44-7.3,27.86-2.54,12.58-4.08,27.81-4.08,42.68h0Z" style="fill: #ff7c00; fill-rule: evenodd;"/>
    </g>
  </g>
</svg>