<?xml version="1.0" encoding="UTF-8"?>
<svg id="VLABS" xmlns="http://www.w3.org/2000/svg" viewBox="0 0 580 500">
  <g id="Layer_1">
    <g id="_2550575193424" data-name=" 2550575193424">
      <path d="M137.98,174.8l12-9.09c.57-.43,3.48-2.81,4.09-2.98.86.58,3.81,4.34,4.6,5.15.25.26.31.31.52.58.94,1.23,2.1,2.31,3.07,3.52l1.96,2.3c.39.42.64.74,1.04,1.16l3.05,3.54c.25.26.26.35.49.61l11.65,13.47c.21.25.31.3.52.58l3.55,4.13c1.94,2,3.64,4.36,5.55,6.4l3.6,4.08c1.77,1.9,3.35,3.95,5.12,5.85.25.27.26.35.49.61.2.23.35.33.53.56l13.79,15.71c.19.23.34.33.54.56,1.34,1.59,2.85,3.03,4.11,4.67.35.45.65.7,1.03,1.17.95,1.19,2.08,2.2,3.05,3.41,1.38,1.73,5.59,6.13,7.24,8,.23.26.24.35.49.61l2.62,2.86c.44.43.63.75,1.03,1.16.2.21.36.33.55.54l4.63,5.12c.2.2.36.34.55.55l2.62,2.86c1.48,1.46,2.72,3.1,4.2,4.57l4.27,4.51c.26.27.27.34.49.61l6.95,7.2c.42.41.6.73,1.03,1.16l13.17,13.04c.39.36.71.71,1.1,1.1,1.73,1.73,4.38,3.98,6.34,5.73l1.8,1.49c.45.35.76.63,1.22.98,1.6,1.2,4.96,3.97,7,3.97,2.44,0,4.62-1.64,6.41-2.98l4.86-3.92c.83-.64,1.47-1.34,2.28-1.98l8.91-8.52c.4-.4.73-.6,1.16-1.03l8.16-8.3c.22-.27.23-.34.49-.61l6.95-7.2c.22-.27.23-.34.49-.61l26.19-28.54c.39-.5.69-.71,1.05-1.15,1.3-1.63,2.88-3.02,4.13-4.65.57-.75,1.42-1.47,2.02-2.25l4.1-4.67c.2-.21.35-.32.54-.55l1.03-1.16c1.44-1.81,4.38-4.78,5.59-6.36.21-.27.27-.32.52-.58l14.26-16.34c.22-.24.32-.29.53-.57.24-.31.26-.32.51-.59.25-.27.26-.35.49-.61.2-.23.35-.33.53-.56l2.54-2.94c.76-.99,1.71-1.88,2.49-2.87l4.06-4.71c.2-.23.35-.32.53-.56l8.12-9.43c.37-.41.66-.75,1.03-1.16l2.48-2.88c1.27-1.64,2.75-3.1,4.06-4.72l7.67-8.79c.67-.72,1.3-1.75,2.1-2.29.61.16,3.49,2.52,4.02,2.93l12.07,9.14c-.66.98-1.51,1.81-2.25,2.75-1.84,2.35-3.75,4.49-5.61,6.83-2.58,3.26-5.37,6.35-7.93,9.63-3.68,4.71-7.61,9.23-11.38,13.86-.38.47-.7.89-1.1,1.34-.42.49-.73.93-1.16,1.4-.41.46-.69.88-1.1,1.34l-20.52,24.71c-2.21,2.81-4.65,5.45-6.9,8.22-.39.48-.75.92-1.17,1.39l-14.45,17c-.27.28-.31.39-.55.67-.4.44-.83.89-1.2,1.36l-21.61,24.71c-.98,1.23-3.23,3.41-4.21,4.68l-7.17,7.82c-.29.29-.32.36-.56.66-.94,1.17-2.12,2.12-3.05,3.29l-4.86,5.13c-.23.23-.38.38-.61.61-.3.3-.34.43-.61.73-.78.88-1.83,1.67-2.54,2.58-1.42,1.84-3.53,3.23-4.93,5.07l-12.77,12.34c-.23.21-.38.38-.61.61l-2.08,1.83c-.24.22-.36.39-.62.6l-4.75,4.03c-.44.38-.9.72-1.35,1.09l-4.41,3.27c-2.97-1.99-5.62-4.36-8.39-6.6-1.58-1.27-5.01-4.29-6.57-5.86l-7.07-6.83c-1.45-1.39-3.19-2.78-4.44-4.34-1.45-1.82-3.58-3.3-4.98-5.14-.85-1.12-2.07-2.13-3.02-3.2l-1.89-1.89c-.25-.28-.27-.39-.55-.67l-1.22-1.22c-.27-.3-.32-.43-.61-.74-.44-.45-.87-.82-1.28-1.28-.25-.28-.27-.39-.55-.67l-19.75-21.82c-.21-.24-.39-.36-.6-.62-1.1-1.31-2.97-3.57-4.09-4.69l-8.73-10.04c-.23-.29-.4-.42-.63-.71l-25.36-29.87c-.36-.46-.74-.86-1.11-1.32-1.89-2.33-3.92-4.55-5.77-6.91-2.89-3.7-6.14-7.34-9.12-11-1.49-1.83-2.95-3.72-4.51-5.48-1.59-1.78-3.06-3.69-4.57-5.55l-23.76-28.9c-1.08-1.28-2.53-2.86-3.45-4.23h0ZM491.51,119.58c-.67-.45-3.48-3.18-4.3-3.87l-9.72-8.81c.1-.36,2.25-2.55,2.77-3.08l4.33-4.57c.46-.46,1.06-.99,1.45-1.47l6.41-6.88c.29-.35.35-.45.68-.79l1.4-1.65c1.38-1.55,2.64-3.24,3.88-4.9,2.21-2.94,4.05-5.74,5.96-8.92.39-.66.69-1.19,1.08-1.84.21-.36.34-.55.53-.93.2-.4.34-.57.53-.93l9.63-19.99c.84.22,3.71,2.59,4.48,3.32l2.15,2.61c5.78,8.36,2.18,18.76-2.16,26.59-.68,1.22-1.25,2.21-1.96,3.4-.36.61-.71,1.09-1.04,1.64-2.03,3.4-5.64,7.87-8.05,10.97l-4.36,5.15c-1.65,1.69-4.07,4.68-5.79,6.4l-3.96,4.2c-.3.3-.35.43-.61.73l-2.01,2.14c-.26.25-.42.39-.65.69-.26.34-.46.51-.66.8h0ZM54.23,66.92c0-4.62,1.6-8.97,4.36-11.73.34-.34.4-.54.72-.86l2.6-2.16c.45-.32,1.42-1.08,1.95-1.22l11.77,23.7c1.81,3.01,2.84,4.44,4.66,7.16.4.6.83,1.13,1.24,1.68l7.34,8.87c.27.27.49.45.72.74l8.67,9.13c.54.54.86.99,1.4,1.52.55.54,2.73,2.76,2.83,3.14l-6.07,5.51c-.34.33-.52.55-.88.83l-2.63,2.37c-.73.56-3.73,3.5-4.44,3.97-.19-.29-.39-.45-.61-.73l-1.92-2.1c-.25-.25-.43-.41-.67-.67l-5.24-5.61c-.26-.3-.31-.43-.61-.73l-2.62-2.86c-.31-.31-.36-.39-.62-.72l-1.27-1.41c-1.16-1.17-5.82-6.93-6.8-8.2l-3.97-5.41c-1.74-2.52-3.24-4.81-4.72-7.59-.63-1.19-1.29-2.3-1.81-3.56-1.22-3-2.14-4.73-2.82-8.15-.29-1.44-.58-3.13-.58-4.91h0ZM29,70.33c0,5.94.2,10.1,1.56,15.87,2.4,10.17,6.19,17.13,12.5,24.93l20.96,23.29c1.55,1.57,5.95,5.23,5.95,7.71,0,.72-2.05,4.26-2.56,5.24-.28.55-.67,1.18-.97,1.71-1.31,2.27-2.5,4.49-3.7,6.9-.6,1.2-1.12,2.32-1.63,3.61-3.68,9.26-6.69,18.69-8.33,28.61-.97,5.88-1.84,12.43-1.83,19.26,0,1-.13,1.54-.12,2.44,0,1.04.13,1.6.13,2.56-.01,1.82.03,3.39.12,5.12.14,2.61.63,7.22.97,9.64.87,6.17,2.07,12.02,3.65,17.44,1.59,5.46,3.4,10.38,5.52,15.57,1.74,4.27,4,8.32,6.16,12.37,1.95,3.66,4.29,7.05,6.6,10.47,2.44,3.61,5.15,7.11,8.04,10.37.26.29.4.39.64.7l1.25,1.43c1.33,1.44,4.03,4.41,5.23,5.37l6.86,6.31,5.83,4.65c.54.41,1.03.74,1.55,1.13l14.53,9.12c2.73,1.66,9.49,4.63,12.64,5.89,2.52,1.01,5.11,1.9,7.8,2.8,2.58.86,5.32,1.65,8.13,2.35,8.56,2.14,19.12,3.73,28.09,3.73,9.7,0,15.76-.21,25.27-1.79,3.6-.6,7.11-1.3,10.62-2.18,1.17-.29,2.14-.54,3.32-.83l3.32-.94c1.03-.35,2.05-.75,3.1-1.17l9.14-3.53c1.53-.6,4.64-1.99,6.18-2.35.12.44,1.17,1.44,1.55,1.86l8.66,10.12c.17.19.26.25.41.44.17.22.16.24.38.47.32.35.48.6.79.92,1.13,1.17,2.03,2.51,3.17,3.66.35.35.44.57.79.92,1.14,1.15,2.14,2.42,3.18,3.65.55.65,1.07,1.13,1.6,1.81.29.38.54.54.82.89l10.56,11.63,12.05,11.84c1.26.97,2.43,2.14,3.71,3.12.65.5,1.29.92,1.98,1.43l2.13,1.29c.64.31,1.87.82,2.72.82,2.23,0,5.09-2.23,6.76-3.48,5.42-4.09,12.1-11.06,16.55-15.87.29-.31.55-.55.86-.85l8.11-8.96c.51-.58,1.16-1.19,1.63-1.78.52-.66,1.04-1.19,1.6-1.82,1.06-1.2,2.03-2.51,3.17-3.66,1.35-1.36,4.66-5.43,6.34-7.32l5.91-6.89c.51-.6,3.48-3.88,3.57-4.23,1.46.34,4.65,1.74,6.09,2.32,1.04.41,2.01.76,3.09,1.18,3.58,1.4,7.06,2.94,10.76,3.99.63.18,1.07.33,1.71.49,5.81,1.46,11.67,2.87,17.63,3.59,9.23,1.1,12.54,1.24,21.68,1.24,11.29,0,25.29-2.43,36.13-6.05,2.69-.9,5.17-1.74,7.72-2.76,5.46-2.19,10.91-4.71,15.95-7.7l8.17-5.12c.56-.37.99-.7,1.51-1.05l3.05-2.19c2.75-2.07,5.38-4.29,8.01-6.5.27-.23.41-.43.68-.66.32-.27.42-.3.73-.61l1.34-1.22c.26-.25.42-.42.67-.67l5.91-6.04c.23-.25.43-.42.67-.67,2.11-2.13,6.5-7.81,8.27-10.14l9.68-15.31c4.5-8.69,7.62-16.06,10.32-25.4,1.6-5.52,2.8-11.25,3.68-17.41.23-1.6.33-3.03.54-4.7.39-3.07.58-6.79.57-9.91,0-1.04.13-1.59.12-2.56,0-1.03-.13-1.56-.12-2.56.06-10.91-1.89-22-4.66-32.16-1.08-3.98-2.4-8.08-3.91-11.94-1.27-3.24-2.48-6.17-3.99-9.18l-2.84-5.2c-.63-1.23-3.62-6.36-3.62-6.99,0-2.55,4.12-6.02,5.82-7.71l5.73-6.22c.27-.31.55-.56.85-.85.37-.37.47-.51.8-.91,1.11-1.33,3.1-3.1,4.11-4.42l6.43-7.22c2.06-2.21,4.24-5.1,6.04-7.49,2.53-3.37,4.53-6.97,6.22-10.85,2.12-4.87,3.79-10.54,4.45-16.03.45-3.72.51-6.47.51-10.22,0-7.11-1.93-14.78-4.75-21.21-.98-2.24-2.01-4.33-3.22-6.41-1.6-2.73-4.56-7.3-6.74-9.59-.32-.34-.42-.54-.73-.85l-1.52-1.65c-1.27-1.44-2.72-2.72-4.08-4.08-.34-.34-.52-.42-.86-.73-3.62-3.36-8.17-6.33-12.59-8.5-.36-.18-.74-.31-1.1-.48-5.78-2.88-14.27-4.67-20.14-1l-1.72,1.33c-.99.94-2,2.26-2.61,3.49-1.93,3.86-1.11,7.23-.48,11.37,1.12,7.29.91,12.31-1.91,18.91-1.84,4.31-4.33,7.9-7.09,11.44l-12.49,13.72c-.65.81-2.73,2.8-3.65,3.79l-4.75,5.37c-1.84,2.18-3.97,4.3-5.98,6.33l-5.22,5.88c-4.19,5.34-8.86,12.51-4.2,19.09,1.04,1.47,2.36,2.69,3.8,3.76l7.09,5.59c2.32,1.95,6.04,5.06,8.1,7.14,1.58,1.59,5.19,4.95,6.3,6.38l3.03,3.31c.28.29.3.39.55.67l7.9,10.02c2.88,3.98,5.37,8.18,7.77,12.47l4.91,10.33c1.55,3.69,2.84,7.45,3.93,11.31,3.53,12.57,4.6,25.21,3.08,38.38-.94,8.2-3.12,16.55-6.28,24.08-3.68,8.75-9.25,18.4-15.52,25.44-3.86,4.33-5.25,5.67-9.81,9.94-3.02,2.83-7.01,5.65-10.38,7.91l-5.68,3.47c-5.98,3.45-12.34,6.1-18.98,8.33-3.11,1.04-6.23,1.82-9.6,2.59-3.41.78-6.71,1.3-10.4,1.79-.76.1-1.93.26-2.73.32-.96.07-1.93.21-2.79.25-10.3.51-15.54.29-25.83-.86-1.51-.17-2.86-.49-4.28-.84-5.75-1.44-10.34-1.88-15.36-5.24,1.02-1.92,2.65-3.58,4-5.26.17-.21.29-.29.47-.51l1.28-1.52c1.23-1.23,2.3-2.67,3.54-3.9l2.79-2.94c1.4-1.76,1.27-1.85,3.15-1.85,1.72,0,3.43.28,4.99.49l14.71,2.12c1.85.27,7.97-.4,10.29-.66,3.23-.36,6.63-.91,9.61-1.61,5.49-1.29,11.77-3,16.85-5.46,1.53-.74,3.11-1.4,4.59-2.23.35-.2.61-.31.98-.49,4.01-2,8.14-5.03,11.69-7.82.57-.45.98-.83,1.53-1.27,1.87-1.5,4.09-3.72,5.68-5.53l2.61-2.88c2.99-3.68,5.69-7.43,7.99-11.64,2-3.67,3.88-7.46,5.3-11.4,1.53-4.24,2.89-8.45,3.86-12.97.34-1.6.64-3,.94-4.67.17-.96.3-1.39.31-2.49l.12-2.68c0-4.39-.06-8.66-.48-12.93-.68-7.04-2.13-14.15-4.51-20.73-1.8-4.97-3.93-9.82-6.64-14.33l-3.35-5.18c-1.1-1.64-2.35-3.26-3.66-4.76l-1.46-1.71c-.21-.22-.35-.32-.54-.56-1.35-1.69-4.42-4.67-6.34-6.22-.21-.17-.29-.29-.51-.47-2.3-1.95-4.68-3.78-7.21-5.47l-1.92-1.25c-.44-.28-.84-.5-1.29-.78-.47-.29-.92-.57-1.37-.82-4.74-2.71-12.84-6.95-18.4-6.95-4.5,0-7.61,1.67-10.51,4.24-2.1,1.86-4,4-5.85,6.1l-6.28,7.01c-.23.26-.44.41-.67.67l-3.66,4.15c-1.06,1.15-2.14,2.23-3.12,3.46-.22.27-.41.42-.66.68-.29.3-.33.44-.61.74l-3.11,3.47c-.23.26-.44.41-.67.67l-15.6,17.43c-.24.25-.44.4-.67.67l-11.28,12.61c-.26.27-.41.37-.65.69-.27.35-.33.41-.63.71l-9.39,10.48c-1.28,1.45-4,4.25-5.05,5.56-.26.33-.31.41-.62.72-.48.47-.73.86-1.22,1.34-.31.31-.35.41-.61.73l-1.93,2.09c-.41.51-.79,1-1.32,1.36-.86-.58-1.73-1.17-2.47-1.92-.35-.35-.5-.43-.85-.73-1.04-.92-7.93-7.84-8.92-9.12l-8.59-9.33c-.24-.3-.46-.46-.72-.74-.31-.33-.38-.52-.73-.86l-1.47-1.58c-.96-1.03-1.79-2.18-2.8-3.17l-6.28-7.13c-.29-.35-.44-.44-.75-.84l-2.11-2.4c-2.18-2.33-3.96-5.08-6.68-6.85-3.29-2.14-8.45-2.66-12.15-1.08-1.65.7-2.39,1.26-3.69,2.28-1.46,1.14-7.61,8.58-9.16,10.34-.26.3-.45.41-.71.75-1.37,1.77-4.37,4.75-5.68,6.39l-8.49,9.43c-.24.27-.47.47-.73.73l-3.7,3.98c-1.13,1.42-7.98,8.27-8.91,9.13-1.05.97-2.2,1.91-3.38,2.71-.87-.58-1.81-1.89-2.53-2.71-1.63-1.85-3.41-3.6-4.99-5.49l-3.12-3.47c-.29-.3-.33-.44-.61-.74l-4.39-4.88c-.26-.26-.42-.38-.65-.69l-3.8-4.25c-.49-.48-.74-.87-1.22-1.34l-9.99-11.1c-.27-.32-.3-.42-.61-.73-.29-.28-.41-.4-.64-.7l-1.92-2.1c-.27-.3-.32-.43-.61-.74-.22-.23-.4-.37-.61-.61l-6.29-7c-1.08-1.11-1.99-2.39-3.11-3.48-1.46-1.43-2.91-3.38-4.39-4.87l-3.74-4.19c-.59-.76-1.32-1.36-1.92-2.11l-15.67-17.36c-1.01-1.2-2.2-2.28-3.42-3.28-7.51-6.17-14.88-3.64-22.7.27-5.49,2.74-10.74,5.85-15.52,9.71-2.84,2.29-6.36,5.43-8.65,8.17-1.35,1.61-2.57,2.86-3.9,4.63-.6.81-1.22,1.55-1.77,2.37l-2.53,3.81c-2.46,4.02-4.55,8.21-6.3,12.59-3.78,9.42-6.18,21.42-6.18,31.85,0,7.08-.09,7.84,1.35,14.74,1.23,5.89,3.14,11.4,5.42,16.89.17.41.25.58.42.92l1.34,2.93c2.23,4.52,4.9,8.88,8,12.85,1.23,1.58,2.41,3.18,3.8,4.61.24.25.44.41.67.67.26.3.31.43.61.73l3.6,3.47c3.61,3.67,10.48,8.29,14.66,10.46,3.08,1.6,6.24,3.18,9.52,4.37.7.25,1.32.52,2.04.76,6.6,2.19,13.34,3.85,20.4,4.72,1.54.19,3.58.48,5.1.51.98.02,1.64.09,2.69.12.88.03,1.56.23,2.63.07l14.7-2.12c2-.28,4.2-.51,6.32-.51.47,0,1.55,1.42,1.86,1.79,1,1.2,2.68,2.6,3.67,3.89.61.8,2.91,3.12,3.9,4.39.2.25.27.29.46.51l1.71,2.07c.84,1.03,1.79,2.14,2.41,3.32-2.53,1.69-4.09,2.26-7.02,3.22l-10.37,2.55c-4.3.82-12.35,1.43-16.61,1.43-3.19,0-6.62.05-9.75-.12l-7.02-.66c-10.13-1.38-19.63-3.68-28.91-7.66-.74-.32-1.31-.57-2.02-.9l-2.08-.96c-1.5-.62-2.65-1.35-4.05-2.04-4.75-2.35-10.79-6.5-14.71-9.67l-5.72-4.88c-.29-.26-.51-.51-.79-.79l-3.72-3.72c-1.19-1.19-3.94-4.45-4.97-5.76-.89-1.14-1.78-2.23-2.63-3.46-.44-.64-.86-1.16-1.27-1.78l-3.57-5.57c-1.74-2.91-3.18-5.9-4.67-8.98l-1.38-3.13c-.61-1.39-1.16-2.98-1.69-4.4-.55-1.48-1.02-3.06-1.5-4.6-5.29-17.22-4.94-36.23-.11-53.53,2.1-7.5,5.13-14.81,8.82-21.66.18-.33.29-.46.45-.77l1.35-2.43c.3-.52.65-1.08.96-1.6,2.81-4.7,6.01-9.24,9.41-13.51l4.62-5.5c.69-.91,1.66-1.71,2.4-2.6.24-.29.27-.38.55-.67l7.74-7.62c.29-.27.39-.3.67-.55.24-.21.37-.39.61-.61l3.48-2.99c2.38-2.21,5.73-4.7,8.41-6.71l1.41-1.15c2.44-2.07,4.47-4.91,4.47-8.33,0-5.69-3.42-10.25-6.86-14.35l-4.44-4.94c-.56-.63-1.22-1.21-1.83-1.83l-6.59-7.3c-.17-.21-.28-.3-.48-.5-.36-.36-.48-.61-.85-.98l-1.83-1.95c-.41-.41-.55-.59-.92-1.03-.57-.68-1.31-1.22-1.88-1.9l-9.82-10.54c-.24-.25-.24-.29-.44-.54l-3.76-4.65c-3.9-5.2-8.2-12.65-8.2-21.66,0-3.51.65-6.38,1.13-9.71.58-4.02.35-6.92-2.02-10.12-.66-.9-1.39-1.67-2.25-2.38-.9-.74-1.78-1.28-2.9-1.73-8.3-3.32-18.73,1.57-25.41,6.03-3.86,2.57-7.29,5.55-10.58,8.81-1.22,1.21-3.45,3.88-4.52,5.23-1.94,2.43-3.63,5.03-5.24,7.69-.43.72-.74,1.39-1.17,2.12-1.59,2.66-2.97,6.11-3.96,9.09-.54,1.62-1.1,3.35-1.45,5.01-.75,3.6-1.49,7.25-1.49,11.55h0Z" style="fill: #007dff; fill-rule: evenodd;"/>
      <path d="M381.55,479.81c-3.29,0-5.12.06-8.34-.68-.44-.1-1.29-.23-1.29-.66v-29.38c9.44,0,21.51-1.26,25.93,8.21,1.84,3.95,1.85,10.09,0,14.06-1.33,2.85-3.42,4.78-6.09,6.22l-2.98,1.16c-2.09.58-4.5,1.07-7.22,1.07h0ZM380.58,443.97h-8.66v-28.16c1.48,0,2.96-.73,6.7-.73,8.89,0,17.19,3.98,17.19,13.41,0,3.61-.03,6.11-1.74,9.23-2.51,4.58-8.38,6.25-13.5,6.25ZM348.39,413.98c3.3,0,6.42.25,7.7,3.39,1.03,2.52,1.2,4.99,1.2,8.55v56.32c0,.41,0,.82,0,1.23,0,.52-.12.97.37.97h22.43c11,0,25.61-1.29,31.78-9.54,4.47-5.98,4.39-18.65-2.21-23.81-2.32-1.82-3.05-2.13-5.8-3.22-1.54-.61-5.46-1.58-7.56-1.58.13-.09-.04,0,.23-.13.16-.07.14-.07.36-.13,1.9-.59,2.92-.87,4.86-1.85l2.37-1.41c.74-.52,2.58-1.98,3.12-2.61,2.09-2.5,4.3-5.51,4.3-9.23,0-4.52-.47-8.16-2.91-11.48-1.8-2.45-4.1-4.07-7.17-5.26-5.71-2.22-13.37-3.62-21.25-3.62h-31.82v3.41h0Z" style="fill: #007dff; fill-rule: evenodd;"/>
      <path d="M463.11,469.57c0,2.36,0,3.97-1.22,6.09-.7,1.21-1.64,2.16-2.8,2.93-3.63,2.4-6.66,2.56-11.22,2.56-5.45,0-11.66-2.19-14.89-6.2-1.58-1.96-2.84-4.11-3.77-6.71-.6-1.67-2.06-6.61-2.06-8.55h-3.17v13.78c0,4.74,5.14,7.84,8.78,9.63,8.35,4.12,24.7,4.26,32.8.24,1.43-.71,2.53-1.23,3.9-2.2,4.11-2.9,7.04-7.3,7.66-12.46.1-.85.32-2.92.2-3.69-.15-.98,0-1.9-.42-3.61-1.21-5.01-3.25-6.74-6.37-9.72-2.28-2.17-6.74-4.79-9.59-6.5l-12.63-7.48c-.89-.52-1.63-1.03-2.48-1.54-1.65-.99-4.84-3.35-6.08-4.89-.2-.25-.32-.33-.51-.59-.53-.74-1.03-1.69-1.36-2.67-.92-2.77-.75-5.92.5-8.43,2.96-5.9,10.82-6.66,16.73-5.52.8.16,1.41.31,2.07.49,1.83.51,3.79,1.5,5.3,2.62,1.45,1.07,2.85,2.55,3.86,4.06.39.59.67,1.06,1.03,1.66.65,1.07,1.19,2.43,1.68,3.69.68,1.76,2.12,6.72,2.12,8.48h3.29v-12.8c0-2.26-.66-3.89-1.84-5.47-4.47-5.98-16.03-8.31-23.51-8.31-10.27,0-21.76,3.62-24.53,14.6-1.4,5.55-.12,12.26,3.54,16.74,1.22,1.49,2.49,2.71,4,3.92,2.2,1.78,3.38,2.5,5.81,3.95,1.67,1,3.2,1.94,4.86,2.94,4.39,2.65,13.81,7.82,17.44,11.94,1.56,1.77,2.9,4.22,2.9,6.98h0Z" style="fill: #007dff; fill-rule: evenodd;"/>
      <path d="M305.48,429.95c.43.31,1.38,2.98,1.6,3.52l9.18,21.79c.27.65.51,1.14.77,1.79.24.61.63,1.34.77,1.92h-25.11c1.55-3.23,3.2-7.48,4.8-10.81.3-.62.5-1.15.78-1.78l5.68-12.73c.27-.63,1.52-3.33,1.55-3.69h0ZM275.61,484.44c6.1,0,5.29.45,5.98-1.1.18-.39.36-.84.57-1.26l3.5-7.72c.42-.87.73-1.64,1.14-2.52.42-.9.79-1.71,1.17-2.61l2.28-5.15h29.74l2.39,5.78c.29.72.57,1.25.85,1.95,1.38,3.33,4.26,7.26,7.29,9.29,3.18,2.13,8.77,3.7,13,3.7l4.38-.13c.71-.06,1.42-.3,2.08-.36v-2.93c-2.35,0-5.1-1.7-6.74-3.26-.37-.35-.48-.55-.79-.91-2.47-2.84-3.9-6.38-5.29-9.83-2.8-6.96-6.13-14.31-8.9-21.21l-12.88-30.76c-.33-.83-.66-1.56-1.01-2.4-.19-.47-.92-1.98-.96-2.45h-5.24c-.2.85-5.49,12.37-6.13,13.86-2.21,5.14-5.14,11.14-7.23,16.18-.36.86-.71,1.53-1.06,2.35l-2.05,4.65c-1.08,2.67-3.03,6.52-4.14,9.26-1.42,3.48-3.63,7.88-5.15,11.55l-2.07,4.63c-1.18,2.83-2.97,6.43-4.14,9.26-.54,1.3-1.23,2.12-.56,2.12h0Z" style="fill: #007dff; fill-rule: evenodd;"/>
      <path d="M102.63,409.96c0,3.11-.26,1.49,2.51,2.61,5.47,2.21,7.78,9.27,9.96,14.3l2.06,4.89c.65,1.62,1.41,3.26,2.05,4.89,1.51,3.83,3.56,8.25,5.14,12.17l15.46,36.71h4.51l3.98-9.31c.71-1.59,1.35-3.11,2.01-4.7,3.17-7.68,6.92-15.78,10.08-23.44l14.11-32.83c.35-.84.64-1.47.99-2.3.18-.42.35-.81.52-1.19.14-.33.41-.88.49-1.22h-5.73c-.27.52-.51,1.11-.75,1.69-2.47,5.97-5.48,12.74-8.06,18.76l-13.26,30.87c-.25.56-.51,1.11-.75,1.69-.12.3-.23.51-.36.85l-.31.66c-.15.23-.05.09-.16.21l-1.71-4.14c-.29-.67-.58-1.36-.87-2.06l-6.98-16.55c-.31-.74-.57-1.29-.87-2.05l-4.39-10.36c-1.21-2.88-3.13-7.63-4.48-10.15-1.19-2.22-1.83-2.75-3.08-4.36-.74-.95-.83-.83-1.48-1.44-3.68-3.43-10.25-4.72-15.51-4.72l-4.03.12c-.54-.01-1.09-.14-1.09.37h0Z" style="fill: #007dff; fill-rule: evenodd;"/>
      <path d="M212.35,413.98c3.27,0,6.52.19,7.79,3.55,1.01,2.7,1.11,4.98,1.11,8.64v56.08c0,1.13-.22,2.19.37,2.19h52.79v-5.12h-38.52v-55.1c0-7.22-1.01-13.65-9.27-13.65h-14.26v3.41h0Z" style="fill: #007dff; fill-rule: evenodd;"/>
      <path d="M185.53,471.52c0,3.29.38,7.38,2.14,9.93,1.73,2.5,4.93,3,9.07,3h11.95c.64,0,.37-1.38.37-3.17,0-.81-1.68,0-4-.63-1.26-.34-2.19-.88-2.98-1.77-.62-.71-1.19-2.26-1.42-3.33-.28-1.3-.5-2.7-.5-4.26v-60.71h-14.63v60.95h0Z" style="fill: #007dff; fill-rule: evenodd;"/>
    </g>
  </g>
</svg>