<?xml version="1.0" encoding="UTF-8"?>
<svg id="W-SECIRITY" xmlns="http://www.w3.org/2000/svg" viewBox="0 0 2732 500">
  <path d="M2573.49,295.48l.08,35.89,18.2.28.26-36.31c62.2-8.42,73.62,9.4,71.03-95.05l-18.98.08c-1.34,69,12.27,74.96-61.27,74.88-72.48-.1-60.34-4.8-61.2-74.88l-15.29-.08c-1.63,3.05-.9-1.06-2.35,7.02-2.81,15.85-1.42,56.76,4.83,68.07,12.58,22.65,35.25,15.57,64.68,20.14v-.05h0Z" style="fill: #bc202e; fill-rule: evenodd;"/>
  <polygon points="2322.64 218.22 2452.49 218.87 2460.99 218.79 2466.64 218.79 2483.4 218.53 2483.53 200.77 2322.61 200.28 2322.64 218.22" style="fill: #bc202e; fill-rule: evenodd;"/>
  <path d="M2286.41,331.11l18.67.62c.28-24.84,3.18-113.64-1.5-131.77l-17.17.59v130.55h0Z" style="fill: #bc202e; fill-rule: evenodd;"/>
  <polygon points="2393.7 331.32 2412.91 331.53 2412.94 237.56 2393.44 238.42 2393.75 331.32 2393.7 331.32" style="fill: #bc202e; fill-rule: evenodd;"/>
  <path d="M1029.99,153c-1.01,39.4-.21,79.69-.21,119.17,0,83.3-9.42,102.61,76.95,161.77,84,57.58,60.34,57.25,145.79-1.99,83.27-57.66,75.09-73.82,75.06-162.62,0-38.29.8-77.41-.21-115.63-24.07-7.26-137.91-48.11-149.43-47.85-11.9.23-120.87,41.34-147.98,47.15h.03ZM1174.92,172.08l.26,62.85,144.14.28.08,37.21-119.61.15c-9.99-27.91-41.24-20.37-42.53,2.58-1.39,24.97,32.28,33.9,42.68,5.68h119.32l.08,34.24-83.46.28-.65,42.68c-26.7,11.05-21.35,40.9,2.14,42.22,22.52,1.27,37.44-28.02,6.17-43.3l.05-32.77,75.19-.49c4.88,43.12-28.92,70.21-50.64,86.92-18.69,14.38-62.64,47.23-85.57,55.83v-109.28c2.35-8.7,17.56-7.1,17.4-25.46-.23-27.45-39.95-29.67-42.53-2.63-1.99,21.28,11,16.19,17.43,28.09l-.05,110.36c-20.84-8.57-68.43-43.15-85.16-56.16-25.56-19.83-52.52-41.06-52.52-88.18l.15-163.04c22.31-7.02,128.72-45.45,140.7-45.65,15.26-.28,113.92,38.45,141.24,44.8l-.23,23.91h-53.37c-11.7-3.95-7.31-15.42-23.55-17.66-28.22-3.9-33.67,41.11-4.31,43.28,20.99,1.5,15.83-17.4,33.52-17.35l48.26.08-.13,35.43-136.73.1c-.15-11.67-2.69-44.36,1.65-52.73,4.52-8.78,24.25-13.87,13.22-35.01-17.48-33.54-68.58,17.77-22.65,32.77l-.03-.03ZM1166.63,158.91c-3.87-27.6,18.75-24.35,23.55-15.13,8.37,16.01-7.23,24.71-23.55,15.13ZM1234.78,175.44c17.82-7.67,25.38,18.18,9.27,24.4-6.92,2.69-14.67-.8-17.07-8.06-3.77-11.44,2.07-13.92,7.8-16.35h0ZM1168.31,265.58c12.96-7.69,32.64,6.74,20.19,20.04-10.41,11.18-28.22,3.33-20.19-20.04ZM1174.2,345.39c-4.52-4.18-10.28-7.64-8.99-15.57,1.14-6.71,7.31-12.34,15-11.54,13.01,1.47,21.15,24.92-6.02,27.11ZM1251.33,385.49c-8,13.53-32.04,5.58-23.78-12.58,7.64-16.76,32.56-2.19,23.78,12.58Z" style="fill: #bc202e; fill-rule: evenodd;"/>
  <path d="M1393.14,294.22c3.54,49.24,42.86,37.39,113.3,37.57,25.9.05,43.54-3.98,47.05-29.8,3.46-25.69-6.35-40.59-26.67-44.72-30.34-6.17-96.78,4.03-108.48-4.83-7.28-5.47-7.31-20.58-1.76-27.53,8.42-10.54,53.42-6.07,69.98-6.09,29.1,0,37.21-3.69,46.17,9.89,5.65,8.57-5.04,9.84,21.15,8.75-1.7-43.72-30.21-37.13-70.13-37.16-32.48-.05-76.64-7.49-87.25,18.67-5.65,13.87-4.39,32.41,3.41,43.59,21.25,30.37,121.83-2.76,133.19,22.72,17.17,38.29-54.41,27.09-72.04,27.09-21.1,0-37.16,3.9-44.96-6.43l-6.02-11.67h-16.96l.03-.05Z" style="fill: #bc202e; fill-rule: evenodd;"/>
  <path d="M2108.22,330.34l18.2,1.42c1.63-115.06-14.36-112.81,68.3-113,23.08-.03,48.88-4.62,53.71,19.81,9.35,47.07-46.63,36.72-101.84,36.61l-.26,19.16c81.18.41,102.67-10.64,102.9,36.56l18.95.8c.41-25.49-1.06-32.92-12.94-47.36,16.22-17.2,32.25-84.05-37.91-84.13-119.48-.05-111.11-7.85-109.17,130.11h.05Z" style="fill: #bc202e; fill-rule: evenodd;"/>
  <path d="M1894.46,285.02c-16.06,29.02,8.08,27.16-73.67,27.27-47.25.05-50.69-.44-50.66-48.67,0-45.81,9.92-44.96,53.5-44.85,73.18.26,55.83-1.29,70.83,27.76l17.2.05c-.36-54.97-42.14-46.35-90.87-46.35-62.77-.05-68.71,6.51-68.84,69.12-.13,62.28,15.73,62.36,74.52,62.33,42.09-.05,92.65,3.82,84.07-47.07l-16.11.41h.03Z" style="fill: #bc202e; fill-rule: evenodd;"/>
  <path d="M1732.9,312.34c-31.99-.34-64.24-.15-96.24-.05-44.41.23-44.8-5.32-44.8-48.67.05-59.16,20.4-43.87,141.73-44.93l-.13-18.31c-36.67-.85-77.28-1.21-113.87-.15-44.41,1.27-45.63,24.22-45.7,66.26-.15,78.96,22.65,66.65,159.76,65.02l-.72-19.19-.03.03Z" style="fill: #bc202e; fill-rule: evenodd;"/>
  <path d="M1930.28,200.46c-.28,19.93-2.43,92.36,2.94,106.59,11.41,30.16,45.86,24.58,80.23,24.63,36.46,0,67.21,3.33,75.17-29.64,3.23-13.22,3.33-88.83-.21-102l-16.27.52c-4.6,22,.57,61.35-1.29,85.96-2.56,33.98-31.14,25.77-63.06,25.77-71.76,0-58-.15-59.29-94.07l-3.05-17.97-15.16.21h-.03Z" style="fill: #bc202e; fill-rule: evenodd;"/>
  <polygon points="1610.84 275.39 1733.6 275.57 1733.11 255.95 1611.74 255.79 1610.84 275.39" style="fill: #bc202e; fill-rule: evenodd;"/>
  <g style="isolation: isolate;">
    <text transform="translate(68.6 355.08)" style="fill: #1f5488; font-family: ArialMT, Arial; font-size: 393.96px; isolation: isolate;"><tspan x="0" y="0">widya</tspan></text>
  </g>
</svg>