<?xml version="1.0" encoding="UTF-8"?>
<svg id="W-ROBOTICS" xmlns="http://www.w3.org/2000/svg" viewBox="0 0 2732 500">
  <path d="M793.24,211.03c0,11.11,9.16,8.44,27.63,8.33,15.25-.05,46.67,4.91,60.66,8.09,8.41,1.9,19.87,5.39,26.46,8.68,10.25,5.07,22.96,11.75,31.21,19.92,9.48,9.43,5.85,4.43,16.74,17.6,2.54,3.12,4.94,7,7.16,10.39,4.11,6.43,8.97,16.37,10.84,24.35,6.76,28.81-8.84,109.71,66,140.87,32.25,13.43,62.21,16.34,97.4,10.44,35.97-6.03,2.91-20.96,22.91-42.43,1.68-1.82,3.58-3.2,4.99-5.07,6.03-7.96,1.6-12.2.69-16.07,5.13-7.66,3.36-3.9,3.36-13.38,6.89-.59,8.38-5.5,8.38-10.89,0-2.67-2.32-6.41-3.36-8.38,9.21,0,22-.88,28.62-3.23,10.81-3.84,14.12-11.37,14.12-21.89,0-1.55-4.09-6.89-4.99-8.38-1.82-2.99-3.26-5.21-5.26-8.17l-26.94-41.73c-2.14-3.18-3.82-5.5-5.53-8.7,7.8-.64,15.06-6.68,15.06-16.74,0-8.38-3.76,7.53-21.79,3.36,1.6-5.95,14.26-16.34,14.26-61.97,0-14.2-1.82-28.94-4.27-41.01-4.46-22.24-15.11-45.31-29-62.29l-10.49-12.12c-7.98-9.02-5.21-5.07-11.75-11.69-28.14-28.62-89.74-52.12-131.31-52.12-34.76,0-63.57,3.68-91.88,17.84-5.45,2.72-10.39,4.86-15.51,7.96-22.46,13.56-34.71,24.22-51.99,43.49-26.27,29.45-42.45,84.16-42.45,125.04v-.05ZM1158.42,250.41l-70.3.05c-2.64.45-5.05,2.78-5.05,5.79,0,4.35,20.59,17.28,24.94,20.24l20.16,14.2c2,1.5,5.98,3.1,5.98,5.77v43.55c0,11.88-16.82,16.93-27.77,20.83-22.64,8.17-23.76,16.23-29.21,20.24-7.08-3.76-10.89-7.26-15.65-13.67-2.72-3.63-9.35-14.61-9.48-19.87,10.2-2.72,18.93-23.1,6.14-36.26-14.47-14.93-41.28-6.03-41.28,16.15,0,20.24,19.78,22.78,21.63,23.58,2.46,1.15,1.82,1.34,3.04,4.49,6.43,16.61,16.63,29,32.25,37.25-1.9,8.25-.8,43.41-.8,54.44-11.48-.27-35.19-11.53-44.86-17.97-30.63-20.37-36.74-51.85-39.7-87.6-2-24.27,2.32-28.46-9.53-54.12-6.25-13.67-19.54-30.47-30.84-39.52-5.55-4.49-5.45-5.26-13.56-10.71-22.19-14.69-41.36-20.64-70.04-25.45-12.52-2.08-30.04-4.01-43.6-4.14-5.18-.08-8.76-.91-15.01-.91,0-35.91,12.87-74.81,32.31-104.16,9.1-13.75,20.32-23.95,32.79-34.2,49.82-40.9,122.58-50.41,183.75-28.41,21.17,7.61,40.74,18.64,57.97,32.52,12.26,9.88,11.35,10.57,20,19.33,12.02,12.07,22.86,32.65,29,48.92,2.32,6.03,3.82,14.42,4.94,21.04,1.15,6.81,2.78,15.97,2.78,23.18,0,5.31.51,7.85.77,11.85.45,6.35-2.35,28.04-4.11,35.11-2.46,9.61-6.86,15.3-7.58,18.37v.05l-.08.03ZM1109,262.14h40.21c3.55,6.68,3.76,10.07-2.27,15.27-10.44,9.02-11.94,3.1-24.03-4.89-2.99-2-12.34-8.25-13.88-10.39h-.03ZM1039.5,315.75c17.6,0,16.02,23.47.8,23.47-6.25,0-11.03-5.71-11.53-11.08-.53-6.09,4.86-12.39,10.71-12.39h.03ZM1160.96,361.81c0,5.37,1.31,5.79,4.17,10.07-1.68.85-4.62,2-6.03,3.18-5.77,4.81-1.76,9.83-1.5,12.68-7,.19-13.32,1.68-22.64,1.68-15.97,0-39.38,1.23-52.76-5.85,3.44-12.87,32.71-20.37,45.28-26.78,12.52-6.43,10.84-14.79,10.84-25.18v-36.82c7.77-1.82,22.78-10.39,23.44-18.42,3.44.91,5.58,6.7,9.02,11.88l34.2,52.95c2.35,10.97-25.04,9.75-32.12,10.73-5.13.72-11.94,3.76-11.94,9.85l.03.03ZM1142.48,446.42c-6.57,3.12-31.59,4.19-41.87,4.19-8.68,0-15.06-1.68-22.62-1.68v-53.61c3.18.27,1.82.35,4.59,1.25,17.14,5.69,45.82,6.68,63.97,4.49,2.99-.35,7.4-2.35,8.94,1.5,1.28,3.26-2.72,5.37-4.43,7.21-14.28,15.17-8.57,26.43-8.57,36.66h-.03Z" style="fill: #1a5689; fill-rule: evenodd;"/>
  <path d="M31,376.04c0,26.49,24.91,50.28,53.61,50.28,17.25,0,33.48,1.63,49.32-4.3,3.12-1.17,5.77-2.78,8.76-4.65,2.99-1.87,5.26-4.27,8.09-6.17,11.96,8.04,18.4,15.11,39.38,15.11,27.96,0,43.07,2.99,64.03-14.74,8.25-6.97,16.37-21.41,16.37-36.39v-102.98h-30.12v97.14c0,32.12-27.9,26.81-51.08,26.81-12.47,0-23.47-10.07-23.47-22.64v-101.3h-30.17v102.98c0,11.43-11.21,20.96-23.47,20.96-18.77,0-42.61,3.63-49.37-14.28-1.9-5.13-1.15-85.6-.85-102.18.19-9.85,3.5-7.5-31.03-7.5,0,0,0,103.86,0,103.86Z" style="fill: #1a5689; fill-rule: evenodd;"/>
  <path d="M582.15,274.68v93.83c0,16.02,3.58,30.09,14.47,40.82,10.36,10.25,23.1,16.98,39.14,16.98h48.59c8.76,0,18.37-2.24,24.27-5.05,0,11.69.77,17.46-6.35,24.64-.08.13-.27.32-.4.4-4.3,4.19-8.89,6.76-15.83,6.76h-82.1v30.17h82.93c26.99,0,51.93-23.31,51.93-48.59v-162.47h-30.17v102.98c0,11.43-11.21,20.96-23.47,20.96h-48.59c-12.04,0-23.47-9.61-23.47-20.11v-103.86h-28.44c-1.95,0-2.54.53-2.54,2.51l.03.03Z" style="fill: #1a5689; fill-rule: evenodd;"/>
  <path d="M510.14,276.37c-4.94-.43-10.63-4.19-20.13-4.19h-54.44c-6.57,0-15.33,2.64-20.32,4.75-8.62,3.58-15.7,10.09-21.17,17.33-5.95,7.85-9.56,18.18-9.56,29v52.76c0,26.59,24.99,50.28,53.61,50.28h49.4c28.7,0,53.61-23.12,53.61-51.96v-155c0-1.9-.59-2.48-2.54-2.48-33.8,0-28.49-2.94-28.44,12.58v46.91l-.03.03ZM415.46,376.87v-55.27c0-9.56,11.35-19.28,20.96-19.28h52.76c8.81,0,20.96,9.61,20.96,17.6v57.81c0,4.59-4.91,10.81-7.9,13.06-4.46,3.36-8.97,5.37-16.42,5.37h-46.06c-12.58,0-24.3-8.62-24.3-19.28h0Z" style="fill: #1a5689; fill-rule: evenodd;"/>
  <path d="M779.81,322.42v54.44c0,26.43,24.99,49.45,53.61,49.45h49.4v-30.17h-49.4c-7,0-12.92-3.26-16.55-6.89-4.54-4.49-6.89-8.68-6.89-17.38v-46.91c0-12.92,11.99-22.64,21.79-22.64h51.1c11.11,0,22.64,9.4,22.64,20.11v103.89h28.44c1.95,0,2.54-.59,2.54-2.54v-97.14c0-23.1-11.16-39.6-31-49.45-5.58-2.78-13.48-4.99-21.79-4.99h-52.81c-25.5,0-51.08,22.37-51.08,50.22Z" style="fill: #1a5689; fill-rule: evenodd;"/>
  <path d="M1687.78,195.12v185.97c0,14.39,7.8,26.81,15.3,34.12,8.22,8.06,20.64,13.62,36.66,13.62h86.24c20.32,0,37.97-8.49,47.5-26.22,2.51-4.67,5.31-13.03,5.31-19.84v-67.02c0-24.19-22.43-46.11-51.13-46.11h-120.58v-74.52c0-13.54-19.3-14.93-19.3,0h0ZM1830.2,409.52h-93c-16.55,0-30.12-12.74-30.12-27.61v-92.97h123.12c17.25,0,30.12,12.87,30.12,30.12v60.34c0,12.52-6.49,22.45-17.57,27.63-3.07,1.5-7.88,2.48-12.58,2.48h.03Z" style="fill: #1a5689; fill-rule: evenodd;"/>
  <path d="M2509.46,312.39c0,27.98,22.59,44.06,47.82,46,10.63.85,76.9.08,90.41.05,11.29-.05,17.01,1.55,23.68,6.43,13.75,10.12,14.55,25.69.35,37.7-5.02,4.3-12.34,7.02-21.49,6.97l-128.22-.08c-17.38.08-15.01,19.33-.83,19.33h124.8c44.94,0,66.62-37.83,48.78-66.38-2.99-4.75-6.17-7.8-10.44-11.35-14.82-12.23-32.2-11.88-52.57-11.88h-42.75c-12.6,0-31.48,1.71-41.15-1.6-32.07-10.92-21.55-45.6,6.09-48.59,7.61-.8,108.7-.21,128.08-.08,24.03.19,16.66-19.3,6.68-19.3h-131.47c-12.76,0-23.58,5.63-32.57,12.66-7.26,5.71-15.19,17.25-15.19,30.09v.03Z" style="fill: #1a5689; fill-rule: evenodd;"/>
  <path d="M1452.42,315.75v67.02c0,6.81,2.72,14.66,5.07,19.2,9.48,18.29,27.13,26.86,47.69,26.86h107.26c13.62,0,24.08-3.63,33.75-11.48,1.44-1.17,2.46-1.63,3.74-2.96l5.58-6.97c2.08-2.99,3.5-5.05,4.81-8.62,2.27-6.41,4.03-12.98,4.03-21.92v-56.12c0-15.17-5.45-27.71-13.16-35.38-8.76-8.7-19.87-15.7-33.75-15.7h-117.24c-7.48,0-14.12,1.92-19.28,4.22-2.54,1.09-5.45,2.59-7.53,4.11-11.8,8.57-20.96,22.37-20.96,37.75h0ZM1614.92,409.52h-114.73c-14.23,0-28.49-12.6-28.49-26.75v-68.7c0-11.43,12.98-25.12,26.81-25.12h120.58c11.93,0,26.01,13.48,26.01,28.49v61.97c0,17.25-12.95,30.12-30.17,30.12h0Z" style="fill: #1a5689; fill-rule: evenodd;"/>
  <path d="M1909.77,314.9v67.87c0,14.28,7.32,24.59,16.1,33.3,8.17,8.06,20.56,12.76,36.66,12.76h107.2c13.75,0,24.59-3.63,34.18-11.88l6.68-6.76c1.23-1.36,1.9-2.16,2.91-3.76,6.03-9.67,8.22-19.52,8.22-32.04v-49.4c0-17.33-4.14-29.45-12.39-38.74-6.81-7.66-20.4-16.55-34.52-16.55h-118.95c-23.1,0-46.06,21.97-46.06,45.23l-.03-.03ZM1928.19,376.87v-55.27c0-9.67,2.67-17.6,7.32-22.83,4.17-4.67,11.83-9.83,20.32-9.83h120.63c12.52,0,25.95,13.56,25.95,30.12v59.49c0,9.18-3.68,17.11-8.17,22-5.05,5.5-13.7,8.97-22,8.97h-113.93c-18.32,0-30.12-13.96-30.12-32.65h0Z" style="fill: #1a5689; fill-rule: evenodd;"/>
  <path d="M2303.44,318.23v62.83c0,26.01,22.19,47.74,51.91,47.74h123.14c12.23,0,14.93-12.98,7.61-17.65-2.86-1.82-6.14-1.63-10.95-1.63-19.54.13-120.04.96-127.71-.4-14.12-2.54-24.75-14.28-24.75-27.21v-65.34c0-13.43,11.56-24.91,22.96-27.31,5.85-1.23,107.58-.35,126.16-.32,9.72,0,18.42.77,18.42-10.89,0-5.26-4.62-8.38-10.07-8.38h-129.79c-24.64,0-46.91,22.32-46.91,48.59l-.03-.03Z" style="fill: #1a5689; fill-rule: evenodd;"/>
  <path d="M2145.11,192.63v191.82c0,6.41,3.12,14.28,5.63,18.69,3.44,6.17,6.22,8.62,10.92,13.32,14.66,14.79,39.04,12.34,60.53,12.34,2.99,0,7.05-.69,8.94-1.95,4.41-2.94,6.09-13.67-2.08-16.66-5.39-2-29.74.91-40.74-1.09-14.12-2.59-24.72-14.34-24.72-30.57v-90.46h61.97c11.96,0,11.88-18.42.83-18.42h-62.8v-76.2c0-6.49-7.8-12.39-15.27-6.89-1.82,1.34-3.18,3.18-3.18,6.09h-.03Z" style="fill: #1a5689; fill-rule: evenodd;"/>
  <path d="M1258.98,312.39v108.03c0,6.7,8.12,10.2,13.94,6.43,5.53-3.63,4.49-11.21,4.49-19.84,0-12.9-.91-91.16.32-96.82,1.42-6.59,4.99-11.43,9.08-15.25,3.5-3.2,10.84-6.89,17.41-6.89h84.56c15.91,0,25.58,12.5,27.5,27.82,1.9,15.46,17.73,10.31,17.73,1.55,0-27.69-21.47-47.79-45.23-47.79h-84.56c-12.66,0-24.03,6.54-30.81,12.76-7.5,6.94-14.42,19.68-14.42,29.98h0Z" style="fill: #1a5689; fill-rule: evenodd;"/>
  <path d="M853.53,140.68c0,22.99,12.2,36.74,29.85,45.5,9.02,4.49,15.14,7.21,26.7,9.29,36.85,6.62,60.02.19,83.95,24.14,13.22,13.24,24.38,21.6,50.46,21.6,10.47,0,23.84-2.35,31.72-5.18,66.91-23.95,58.53-105.44,8.04-143.51-47.34-35.64-130.43-40.56-180.47-15.51-21.52,10.73-50.22,36.82-50.22,63.65l-.03.03ZM861.94,145.72c0-15.38,5.5-24.83,14.34-36.74,12.98-17.46,37.11-29.64,58.34-34.63,25.29-5.98,44.11-5.18,69.63-3.12,36.66,2.94,75.4,20,96.74,50.68,19.06,27.5,22,72.28-5.26,94.33-19.52,15.78-57.27,22.78-80.26,10.47-8.7-4.67-11.29-9.99-18.21-15.27-6.43-4.99-10.07-9.93-19.87-13.67-28.81-10.92-77.22-1.82-104.8-29.21-5.18-5.13-10.65-13.03-10.65-22.8v-.03Z" style="fill: #1a5689; fill-rule: evenodd;"/>
  <rect x="312.42" y="272.2" width="30.17" height="154.11" style="fill: #1a5689;"/>
  <path d="M925.57,102.97c0,7.21,4.86,10.07,11.69,10.07.77,3.31,3.63,8.68,5.05,11.75,6.22,13.88-1.09,10.84,37.7,10.84v8.41c-40.82,0-29.08-2.62-40.82,7.77-3.36,2.91-6.06,4.41-8.62,8.17-15.97-3.71-17.25,9.85-12.34,14.85,6.35,6.51,21.41,1.31,14.87-12.34,23.74-15.89-2.86-14.26,47.71-14.26.27,12.2,14.9,24.78,29.32,26.01v19.22c3.39.8,9.37,4.27,12.58,5.85,4.27,2.14,8.33,4.73,13.43,5.9,0,18.77,18.42,13.06,18.42,4.17,0-10.01-7.16-13.03-13.7-9.43-3.52,1.9-1.44,2.72-11.43-2.32-2.64-1.31-4.94-2.46-7.8-3.9-8.89-4.38-7.26-.8-7.26-19.49,15.46-.37,31-14.34,31-30.17h16.74c.77,2.8,11.53,17.33,13.4,20.11-9.85,18.58,16.79,21.15,16.79,6.7,0-2.91-1.82-5.9-3.66-7.26-2.64-2-5.31-1.95-9.75-1.95-1.17-2.27-13.96-22.64-16.74-22.64h-16.74c0-8.22-2.86-9.37-4.22-15.06l8.57-9.02c.69.24,3.71,1.5,4.86,1.5,14.12,0,12.31-19.28.8-19.28-3.26,0-7.08,2.72-8.38,5.05-2.46,4.3-.99,5.58.03,10.01-2.08,1.42-2.59,2.27-4.38,4.01-1.74,1.63-2.99,2.32-4.81,3.52-7-4.62-11.67-10.89-25.15-10.89-10.97,0-21.41,5.79-26.67,13.56-1.82,2.72-4.01,5.21-4.33,9.08h-31.85c-.53-2.35-3.07-7.9-4.17-10.07-1.82-3.63-3.12-7.8-5.05-10.01,2.14-3.23,4.99-5.39,3.58-10.2-3.39-11.4-18.66-8.22-18.66,1.82l-.03-.05ZM929.76,102.97c2.62-4.99,2.8-4.86,9.21-3.36,1.36,5.77,1.76,8.38-5.05,8.38-3.31,0-3.26-3.04-4.17-5.05v.03ZM1050.39,107.19c0-2.27.35-2.32.8-4.22,12.98-2.99,10.44,8.41,4.17,8.41-2.27,0-2.32-.43-4.17-.88-.53-2.22-.8-1.52-.8-3.31h0ZM991.73,141.48c0-6.17,2.78-11.8,6.06-14.82,21.33-19.28,48.65,10.89,29.77,29.74-7.45,7.5-20.83,8.04-29.77-.03-3.31-2.99-6.06-8.68-6.06-14.85v-.05h0ZM924.71,173.33c-5.37,0-6.11-10.04.85-10.04,6.14,0,7.5,10.04-.85,10.04ZM1086.36,175.01c-4.75,1.15-1.71,1.36-7.53,0-2.86-12.31,6.51-10.12,8.49-5.9.91,2,.24,3.76-.96,5.9ZM1040.33,208.49c0-2.99,1.04-4.27,3.28-5.13,2.16-.85,3.66-.13,5.93.96,2.91,12.44-9.21,8.84-9.21,4.19v-.03Z" style="fill: #1a5689; fill-rule: evenodd;"/>
  <path d="M2255.67,278.85v139.06c0,14.98,19.28,12.76,19.28.8v-138.2c0-14.87-19.28-13.51-19.28-1.68v.03Z" style="fill: #1a5689; fill-rule: evenodd;"/>
  <rect x="312.42" y="216.08" width="30.17" height="31" style="fill: #1a5689;"/>
  <path d="M2255.67,239.55v10.01c0,13.96,19.28,14.15,19.28-.8,0-5.58.96-18.48-9.21-18.48-5.45,0-10.07,3.84-10.07,9.26h0Z" style="fill: #1a5689; fill-rule: evenodd;"/>
</svg>