<?xml version="1.0" encoding="UTF-8"?>
<svg id="Layer_2" data-name="Layer 2" xmlns="http://www.w3.org/2000/svg" viewBox="0 0 100 100">
  <path d="M96.45,81.34l-5.85-10.15L56.15,11.55c-1.27-2.2-3.62-3.55-6.15-3.55s-4.88,1.35-6.15,3.55l-5.82,10.1-28.62,49.56-5.85,10.15c-1.27,2.2-1.27,4.9,0,7.1,1.27,2.21,3.62,3.56,6.15,3.56h80.59c2.54,0,4.89-1.35,6.16-3.56,1.27-2.2,1.27-4.9,0-7.1ZM33.33,71.25l.03-.05h-4.02l18.65-32.28,2,3.47,1.66,2.86,14.98,25.94.03.05h-33.33Z" style="fill: #e1c564; fill-rule: evenodd;"/>
</svg>