<?xml version="1.0" encoding="UTF-8"?>
<svg id="Layer_1" data-name="Layer 1" xmlns="http://www.w3.org/2000/svg" viewBox="0 0 100 100">
  <g>
    <path d="M78.34,61.74c6.83-1.25,13.41-5.16,18.67-11.74-5.26-6.58-11.84-10.49-18.67-11.74-4.45,6.44-11.52,10.72-20.13,11.74-2.61.31-5.35.32-8.21,0,2.25,1.79,4.18,3.74,5.81,5.81,5.36,6.81,7.34,14.83,5.93,22.53,5.71,3.95,13.13,5.83,21.5,4.9.93-8.37-.95-15.78-4.9-21.5Z" style="fill: #e2c665; fill-rule: evenodd;"/>
    <path d="M79.03,84.25c-6.63,0-12.7-1.79-17.74-5.27l-.41-.29.09-.49c1.4-7.63-.66-15.41-5.78-21.91-1.61-2.05-3.52-3.96-5.68-5.68l-2.1-1.68,2.67.3c2.75.31,5.45.31,8.03,0,8.22-.97,15.17-5.02,19.58-11.41l.29-.41.49.09c7.3,1.34,13.92,5.49,19.13,12.02l.39.49-.39.49c-4.94,6.18-11.14,10.24-17.99,11.78,3.75,5.93,5.27,13.19,4.39,21.05l-.07.62-.62.07c-1.45.16-2.88.24-4.29.24ZM62.59,77.98c5.57,3.7,12.44,5.27,19.94,4.55.73-7.68-.93-14.71-4.83-20.35l-.68-.99,1.18-.22c6.74-1.23,12.89-5.02,17.8-10.97-4.8-5.81-10.76-9.56-17.32-10.88-4.68,6.52-11.9,10.65-20.38,11.65-1.94.23-3.94.29-5.97.2,1.51,1.37,2.87,2.82,4.08,4.36,5.29,6.71,7.47,14.74,6.17,22.65Z" style="fill: #e2c665;"/>
  </g>
  <g>
    <path d="M21.66,61.74c4.45-6.44,11.52-10.72,20.13-11.74,2.61-.31,5.35-.32,8.21,0-2.25-1.8-4.18-3.75-5.81-5.81-5.36-6.81-7.34-14.83-5.93-22.53-5.71-3.95-13.13-5.83-21.5-4.9-.93,8.37.95,15.78,4.9,21.5-6.83,1.25-13.41,5.16-18.66,11.74,5.25,6.58,11.83,10.49,18.66,11.74Z" style="fill: #e2c665; fill-rule: evenodd;"/>
    <path d="M22.02,62.59l-.49-.09c-7.3-1.33-13.92-5.49-19.13-12.02l-.39-.49.39-.49c4.94-6.18,11.14-10.24,17.99-11.78-3.75-5.93-5.26-13.18-4.39-21.05l.07-.62.62-.07c8.3-.93,15.92.81,22.03,5.03l.41.29-.09.49c-1.4,7.63.65,15.41,5.78,21.91,1.61,2.04,3.52,3.95,5.68,5.68l2.1,1.68-2.67-.3c-2.75-.31-5.45-.31-8.03,0-8.22.97-15.17,5.02-19.58,11.41l-.29.41ZM4,50c4.8,5.81,10.76,9.56,17.32,10.88,4.68-6.52,11.9-10.65,20.38-11.65,1.94-.23,3.93-.29,5.97-.19-1.51-1.37-2.88-2.83-4.08-4.36-5.29-6.71-7.47-14.74-6.17-22.65-5.57-3.7-12.44-5.27-19.94-4.55-.73,7.68.93,14.71,4.83,20.35l.68.99-1.18.22c-6.74,1.23-12.89,5.02-17.8,10.97Z" style="fill: #e2c665;"/>
  </g>
  <g>
    <path d="M50,97c6.58-5.26,10.49-11.84,11.74-18.67-6.44-4.45-10.72-11.52-11.74-20.13-.31-2.61-.32-5.35,0-8.21-1.79,2.25-3.74,4.18-5.81,5.81-6.81,5.37-14.83,7.34-22.53,5.93-3.95,5.71-5.83,13.13-4.9,21.5,8.37.93,15.79-.95,21.5-4.9,1.25,6.83,5.16,13.41,11.74,18.67Z" style="fill: #e2c665; fill-rule: evenodd;"/>
    <path d="M50,98l-.49-.39c-6.18-4.94-10.24-11.14-11.78-17.99-5.94,3.75-13.19,5.26-21.05,4.39l-.62-.07-.07-.62c-.93-8.3.81-15.92,5.03-22.03l.29-.41.49.09c7.63,1.39,15.41-.66,21.91-5.78,2.04-1.61,3.95-3.52,5.68-5.68l1.68-2.1-.3,2.67c-.31,2.75-.31,5.45,0,8.03.97,8.22,5.03,15.17,11.41,19.58l.41.29-.09.49c-1.33,7.3-5.49,13.92-12.02,19.13l-.49.39ZM38.81,77.01l.22,1.18c1.23,6.74,5.02,12.89,10.97,17.8,5.81-4.8,9.56-10.76,10.88-17.32-6.52-4.68-10.65-11.89-11.65-20.38-.23-1.94-.29-3.94-.19-5.97-1.37,1.51-2.83,2.87-4.36,4.08-6.71,5.29-14.73,7.47-22.65,6.17-3.7,5.57-5.27,12.44-4.55,19.94,7.68.73,14.71-.93,20.35-4.83l.99-.68Z" style="fill: #e2c665;"/>
  </g>
  <path d="M48.93,52.58l.3-2.67c.31-2.75.31-5.45,0-8.03-.97-8.22-5.02-15.17-11.41-19.58l-.41-.29.09-.49c1.33-7.3,5.49-13.92,12.02-19.13l.49-.39.49.39c6.18,4.94,10.24,11.14,11.78,17.99,5.94-3.75,13.19-5.27,21.05-4.39l.62.07.07.62c.93,8.3-.81,15.92-5.03,22.03l-.29.41-.49-.09c-7.63-1.4-15.41.66-21.91,5.78-2.04,1.61-3.96,3.52-5.68,5.68l-1.68,2.1ZM39.12,21.32c6.52,4.68,10.65,11.9,11.65,20.38.23,1.93.29,3.93.2,5.97,1.37-1.51,2.83-2.87,4.36-4.08,6.71-5.29,14.74-7.47,22.65-6.17,3.7-5.57,5.27-12.44,4.55-19.94-7.68-.73-14.71.93-20.35,4.83l-.99.68-.22-1.18c-1.23-6.75-5.02-12.89-10.97-17.8-5.81,4.8-9.56,10.76-10.88,17.32Z" style="fill: #e2c665;"/>
</svg>