<?xml version="1.0" encoding="UTF-8"?>
<svg id="Layer_1" xmlns="http://www.w3.org/2000/svg" version="1.1" viewBox="0 0 100 100">
  <!-- Generator: Adobe Illustrator 29.5.1, SVG Export Plug-In . SVG Version: 2.1.0 Build 141)  -->
  <defs>
    <style>
      .st0 {
        fill: #e2c665;
      }
    </style>
  </defs>
  <path class="st0" d="M79,84.2c-6.6,0-12.7-1.8-17.7-5.3l-.4-.3v-.5c1.5-7.6-.6-15.4-5.7-21.9-1.6-2-3.5-4-5.7-5.7l-2.1-1.7,2.7.3c2.8.3,5.5.3,8,0,8.2-1,15.2-5,19.6-11.4l.3-.4h.5c7.3,1.4,13.9,5.6,19.1,12.1l.4.5-.4.5c-4.9,6.2-11.1,10.2-18,11.8,3.8,5.9,5.3,13.2,4.4,21v.6c0,0-.7,0-.7,0-1.4.2-2.9.2-4.3.2h0ZM62.6,78c5.6,3.7,12.4,5.3,19.9,4.6.7-7.7-.9-14.7-4.8-20.3l-.7-1,1.2-.2c6.7-1.2,12.9-5,17.8-11-4.8-5.8-10.8-9.6-17.3-10.9-4.7,6.5-11.9,10.7-20.4,11.7-1.9.2-3.9.3-6,.2,1.5,1.4,2.9,2.8,4.1,4.4,5.3,6.7,7.5,14.7,6.2,22.6h0Z"/>
  <path class="st0" d="M22,62.6h-.5c-7.3-1.4-13.9-5.6-19.1-12.1l-.4-.5.4-.5c4.9-6.2,11.1-10.2,18-11.8-3.8-5.9-5.3-13.2-4.4-21v-.6c0,0,.7,0,.7,0,8.3-.9,15.9.8,22,5l.4.3v.5c-1.5,7.6.6,15.4,5.7,21.9,1.6,2,3.5,4,5.7,5.7l2.1,1.7-2.7-.3c-2.8-.3-5.5-.3-8,0-8.2,1-15.2,5-19.6,11.4l-.3.4h0ZM4,50c4.8,5.8,10.8,9.6,17.3,10.9,4.7-6.5,11.9-10.6,20.4-11.6,1.9-.2,3.9-.3,6-.2-1.5-1.4-2.9-2.8-4.1-4.4-5.3-6.7-7.5-14.7-6.2-22.6-5.6-3.7-12.4-5.3-19.9-4.6-.7,7.7.9,14.7,4.8,20.3l.7,1-1.2.2c-6.7,1.2-12.9,5-17.8,11h0Z"/>
  <path class="st0" d="M50,98l-.5-.4c-6.2-4.9-10.2-11.1-11.8-18-5.9,3.8-13.2,5.3-21,4.4h-.6c0,0,0-.7,0-.7-.9-8.3.8-15.9,5-22l.3-.4h.5c7.6,1.5,15.4-.6,21.9-5.7,2-1.6,4-3.5,5.7-5.7l1.7-2.1-.3,2.7c-.3,2.8-.3,5.5,0,8,1,8.2,5,15.2,11.4,19.6l.4.3v.5c-1.4,7.3-5.6,13.9-12.1,19.1l-.5.4h0ZM38.8,77l.2,1.2c1.2,6.7,5,12.9,11,17.8,5.8-4.8,9.6-10.8,10.9-17.3-6.5-4.7-10.7-11.9-11.7-20.4-.2-1.9-.3-3.9-.2-6-1.4,1.5-2.8,2.9-4.4,4.1-6.7,5.3-14.7,7.5-22.6,6.2-3.7,5.6-5.3,12.4-4.6,19.9,7.7.7,14.7-.9,20.3-4.8l1-.7h0Z"/>
  <path class="st0" d="M48.9,52.6l.3-2.7c.3-2.8.3-5.5,0-8-1-8.2-5-15.2-11.4-19.6l-.4-.3v-.5c1.4-7.3,5.6-13.9,12.1-19.1l.5-.4.5.4c6.2,4.9,10.2,11.1,11.8,18,5.9-3.8,13.2-5.3,21-4.4h.6c0,0,0,.7,0,.7.9,8.3-.8,15.9-5,22l-.3.4h-.5c-7.6-1.5-15.4.6-21.9,5.7-2,1.6-4,3.5-5.7,5.7l-1.7,2.1h0ZM39.1,21.3c6.5,4.7,10.6,11.9,11.6,20.4.2,1.9.3,3.9.2,6,1.4-1.5,2.8-2.9,4.4-4.1,6.7-5.3,14.7-7.5,22.6-6.2,3.7-5.6,5.3-12.4,4.6-19.9-7.7-.7-14.7.9-20.3,4.8l-1,.7-.2-1.2c-1.2-6.8-5-12.9-11-17.8-5.8,4.8-9.6,10.8-10.9,17.3h0Z"/>
</svg>