<?xml version="1.0" encoding="UTF-8"?>
<svg id="Layer_1_copy_2" data-name="Layer 1 copy 2" xmlns="http://www.w3.org/2000/svg" viewBox="0 0 639.89 239.28">
  <g>
    <path d="M112.94,15.03H24.58v205.51h56.95v-58.7h28.47c50.79,0,88.08-25.54,88.08-74.28v-.58c0-45.52-33.47-71.95-85.15-71.95ZM141.42,90.2c0,16.44-12.62,27.01-32.58,27.01h-27.31v-54.32h27.01c20.27,0,32.88,9.12,32.88,26.73v.58Z" style="fill: #e2c665; fill-rule: evenodd;"/>
    <polygon points="378.64 170.63 378.64 220.54 222.16 220.54 222.16 15.03 279.11 15.03 279.11 170.63 378.64 170.63" style="fill: #e2c665; fill-rule: evenodd;"/>
  </g>
  <rect x="558.36" y="17.36" width="56.95" height="205.51" style="fill: #e2c665;"/>
  <path d="M531.31,197.83l-14.52-25.16L431.39,24.77c-3.14-5.45-8.97-8.79-15.25-8.79s-12.11,3.34-15.25,8.79l-14.44,25.03-59.96,103.84h49.45l35.24-61,4.97,8.61,4.1,7.09,37.14,64.32.08.13h-49.6v51.45h108.17c6.31,0,12.13-3.34,15.28-8.82,3.14-5.45,3.14-12.16,0-17.61Z" style="fill: #e2c665; fill-rule: evenodd;"/>
</svg>