<?xml version="1.0" encoding="UTF-8"?>
<svg id="Layer_1" data-name="Layer 1" xmlns="http://www.w3.org/2000/svg" viewBox="0 0 2100 1000">
  <g>
    <path d="M602.36,496.82c0-27.1-8.23-51.79-26.13-69.72-22.74-22.74-59.54-34.85-116.18-34.85h-127.79l-91.48,338.84h94.38l27.59-102.61h41.64l45.02,102.61h103.59l-52.77-114.23c34.85-9.69,55.18-23.23,70.18-38.25,21.79-21.28,31.95-49.36,31.95-81.79ZM493.93,536.51c-11.62,11.62-32.43,18.38-58.08,18.38h-53.74l22.28-81.79h51.31c19.36,0,32.92,3.87,41.15,12.1,6.28,5.8,9.18,13.05,9.18,22.26,0,11.13-3.87,20.82-12.1,29.05Z" style="fill: #231f20;"/>
    <path d="M824.56,385.95c-57.61,0-106.02,22.28-142.33,58.59-37.28,37.28-59.05,88.1-59.05,140.87,0,62.92,34.21,114.62,90.02,138.19,65.92-26.42,134.2-56.57,203.06-89.66,19.19-9.23,38.47-18.7,57.73-28.39,7.96-21.67,12.22-44.73,12.22-68.06,0-85.69-64.87-151.53-161.66-151.53ZM857.46,625.59c-16.92,16.92-38.72,27.59-64.38,27.59-48.38,0-74.54-31.95-74.54-75.02,0-29.05,12.59-59.56,33.41-80.84,16.92-16.95,38.72-27.13,64.38-27.13,48.41,0,74.54,31.95,74.54,75.05,0,29.03-12.59,59.54-33.41,80.36Z" style="fill: #231f20;"/>
    <path d="M1245.36,554.75c-8.08,4.77-16.19,9.52-24.37,14.27-22.18,12.86-45,25.76-68.13,38.55,21.14,9.76,26.03,16.22,26.03,25.76,0,15.49-15.49,25.15-38.23,25.15-19.53,0-38.62-4.48-57.3-13.37-7.18,3.8-14.71,7.72-22.67,11.86-22.23,11.57-44.9,23.04-67.6,34.29,35.62,29.15,83.33,45.66,139.82,45.66,46.95,0,87.13-15,112.79-40.67,19.85-19.85,31.46-45.51,31.46-76.48,0-28.83-11.91-49.24-31.8-65.02ZM1177.94,386.44c-46.97,0-86.66,15.49-112.3,41.15-19.38,19.36-31,45.02-31,74.07,0,26.03,9.33,44.56,25.64,59.22,27.37-14.61,55.03-29.81,82.28-45.17,3.26-1.85,6.5-3.7,9.74-5.53-15.61-7.57-19.87-13-19.87-22.09,0-13.08,14.03-23.72,36.79-23.72,16.66,0,31.97,3.19,46.22,9.03,15.85-9.45,31.27-18.77,45.95-27.81,12.69-7.82,25.2-15.66,37.6-23.5-31.05-22.3-71.2-35.67-121.05-35.67Z" style="fill: #231f20;"/>
    <path d="M1336.7,539.41l-21.31,80.36h158.79l21.28-80.36h-158.77Z" style="fill: #231f20;"/>
    <path d="M1644.08,389.85l-107.46,28.54,1.95,75.54,56.61-13.56-67.28,250.74h92.46l91.48-341.25h-67.77Z" style="fill: #231f20;"/>
    <path d="M2022.14,392.26h-244.45l-20.82,76h127.3l-95.36,69.23,2.41,48.41h31.95c36.31,0,53.25,11.62,53.25,31.46s-23.23,40.18-57.13,40.18c-31.46,0-52.74-13.08-71.64-37.77l-63.9,52.77c28.56,41.15,73.1,65.36,135.53,65.36,49.87,0,90.05-15.51,116.66-42.13,21.79-21.77,32.92-49.38,32.92-81.79,0-43.1-26.15-70.69-68.74-82.3l103.59-72.61,18.41-66.79Z" style="fill: #231f20;"/>
  </g>
  <g>
    <path d="M1673.91,226.7c-3.02,2.75-6.09,5.55-9.18,8.33-111.53,100.74-261.6,207.39-434.92,309.11-5.77,3.38-11.57,6.74-17.39,10.13-25.79,14.98-52.52,30.02-79.58,44.88-3.58,1.97-7.16,3.94-10.74,5.89-11.74,6.38-22.3,12.08-32.34,17.39-7.74,4.14-15.75,8.35-24.25,12.81-4.09,2.14-8.3,4.33-12.66,6.6-24.13,12.54-48.73,25.01-73.37,37.13-6.67,3.29-13.34,6.55-20.02,9.79-185.77,90.19-362.8,157.52-511.97,194.68-81.62,20.36-151.44,30.68-207.49,30.68-6.26,0-12.56-.15-18.75-.41-68.18-3.04-112.82-23.52-132.71-60.88-19.89-37.38-11.98-85.86,23.5-144.11,27.54-45.22,71.35-96.14,130.35-151.56l-27.08,100.3c-69.06,76.7-98.81,139.09-81.65,171.33,10.57,19.8,40.93,31.51,87.81,33.87,54.13,2.73,126.01-6.99,213.68-28.83,84.3-21.04,178.03-52.01,278.57-92.07,8.13-3.24,16.29-6.53,24.47-9.89,60.46-24.72,122.73-52.43,185.48-82.6,13.1-6.31,26.25-12.71,39.4-19.24,29.51-14.59,59.05-29.71,88.2-45.1,4.82-2.51,9.67-5.09,14.49-7.65,3.14-1.68,6.31-3.36,9.45-5.09,25.23-13.51,50.65-27.49,75.73-41.64,7.04-3.99,14-7.96,20.92-11.93,13.3-7.62,26.32-15.22,38.94-22.65,7.67-4.53,15.24-9.03,22.72-13.51,12.64-7.57,24.96-15.05,36.82-22.35,14.44-8.89,28.71-17.82,42.76-26.79,124.19-79.09,233.23-160.23,317.38-236.27l.58-.54c2.14-1.92,4.26-3.85,6.38-5.77l31.66,4.89,4.82,31.05Z" style="fill: #231f20;"/>
    <polygon points="1773.99 85.88 1759.28 132.31 1708.45 292.86 1694.52 202.91 1689.5 170.37 1658.46 165.57 1567.01 151.42 1715.14 104.52 1773.99 85.88" style="fill: #231f20;"/>
  </g>
</svg>