<?xml version="1.0" encoding="UTF-8"?>
<svg id="Layer_1" data-name="Layer 1" xmlns="http://www.w3.org/2000/svg" viewBox="0 0 1080 241">
  <g>
    <path d="M148.68,28.27l-44,133.24L60.94,28.27H15.18l62.6,176.48h53.8L194.18,28.27h-45.5Z" style="fill: #231f20;"/>
    <path d="M378.38,115.64c0-17.32-3.67-32.48-10.99-45.48-7.32-12.99-17.48-23-30.47-30.01-13-7.01-27.85-10.52-44.56-10.52s-32.28,3.61-45.48,10.83c-13.2,7.22-23.47,17.53-30.79,30.94-7.32,13.41-10.98,29.08-10.98,47.03s3.71,33.62,11.14,47.03c7.42,13.41,17.74,23.72,30.94,30.94,13.2,7.22,28.26,10.83,45.17,10.83,14.03,0,26.71-2.58,38.06-7.74,11.34-5.15,20.78-12.27,28.31-21.35,7.53-9.07,12.73-19.28,15.62-30.63h-56.31c-5.16,11.14-14.34,16.71-27.54,16.71-8.87,0-16.34-2.83-22.43-8.51-6.08-5.67-9.54-13.87-10.36-24.6h119.74c.62-5.36.93-10.52.93-15.47ZM258.02,101.72c1.44-9.48,5.2-16.81,11.29-21.97,6.08-5.15,13.56-7.73,22.43-7.73s17.02,2.68,23.21,8.04c6.19,5.37,9.28,12.59,9.28,21.66h-66.21Z" style="fill: #231f20;"/>
    <path d="M445.62,171.57V28.27h-43v176.48h99.31v-33.18h-56.31Z" style="fill: #231f20;"/>
    <path d="M684.32,69.5c-7.96-13.74-18.85-24.47-32.68-32.18-13.83-7.71-29.04-11.57-45.63-11.57s-31.8,3.86-45.63,11.57c-13.83,7.71-24.81,18.44-32.93,32.18-8.14,13.74-12.2,29.25-12.2,46.51s4.06,32.8,12.2,46.63c8.12,13.83,19.1,24.6,32.93,32.31,13.83,7.71,29.04,11.56,45.63,11.56s31.76-3.85,45.5-11.56c13.74-7.71,24.64-18.48,32.69-32.31,8.04-13.83,12.06-29.37,12.06-46.63s-3.98-32.77-11.94-46.51ZM639.82,153.21c-8.46,9.39-19.73,14.08-33.81,14.08s-25.6-4.65-34.07-13.95c-8.46-9.3-12.69-21.75-12.69-37.33s4.23-28.24,12.69-37.46c8.47-9.22,19.82-13.83,34.07-13.83s25.35,4.65,33.81,13.95c8.46,9.31,12.7,21.75,12.7,37.34s-4.24,27.82-12.7,37.2Z" style="fill: #231f20;"/>
    <path d="M893.87,116.01c0,15.76-3.36,30.09-10.07,42.99l-34.19-34.19c.34-2.82.51-5.75.51-8.8,0-3.61-.23-7.06-.69-10.34-1.5-10.85-5.5-19.85-12-27-2.42-2.66-5.06-4.93-7.94-6.82-7.19-4.76-15.82-7.13-25.88-7.13-7.94,0-14.98,1.43-21.12,4.29-4.88,2.28-9.19,5.46-12.94,9.54-5.16,5.62-8.75,12.46-10.77,20.51-1.28,5.15-1.93,10.8-1.93,16.95,0,9.12,1.45,17.17,4.34,24.14,2.07,4.93,4.85,9.33,8.36,13.19,5.46,6.01,12.13,10.07,20.01,12.2,4.32,1.17,9,1.75,14.05,1.75,3.88,0,7.55-.36,11-1.08l30.74,30.74c-12.73,6.37-26.65,9.56-41.74,9.56-16.03,0-30.78-3.6-44.23-10.79-.47-.26-.93-.51-1.4-.77-10.95-6.11-20.12-14.14-27.49-24.1-1.94-2.6-3.75-5.34-5.44-8.21-8.13-13.83-12.2-29.37-12.2-46.63s4.07-32.77,12.2-46.51c.52-.87,1.05-1.73,1.59-2.58,7-11.03,15.95-20,26.84-26.92,1.46-.93,2.96-1.82,4.5-2.68,13.83-7.71,29.04-11.57,45.63-11.57s31.8,3.86,45.63,11.57c3.16,1.76,6.16,3.68,9.01,5.77,9.64,6.99,17.53,15.8,23.67,26.41.45.78.89,1.57,1.32,2.36,7.08,13.15,10.63,27.87,10.63,44.15Z" style="fill: #231f20;"/>
    <path d="M1021.83,28.27v105.59c0,10.56-2.68,18.69-8.05,24.38-5.36,5.7-13.07,8.55-23.12,8.55s-17.69-2.85-22.88-8.55c-5.2-5.69-7.8-13.82-7.8-24.38V28.27h-42.99v105.33c0,15.76,3.19,29.13,9.56,40.1,6.36,10.98,15.04,19.2,26.02,24.64,10.97,5.45,23.42,8.17,37.33,8.17s26.52-2.76,37.84-8.29c11.31-5.54,20.32-13.74,27.02-24.64,6.7-10.9,10.06-24.22,10.06-39.98V28.27h-42.99Z" style="fill: #231f20;"/>
  </g>
  <rect x="830.62" y="108.19" width="38.01" height="109.69" transform="translate(133.57 648.53) rotate(-45)" style="fill: #75ff33;"/>
</svg>