<?xml version="1.0" encoding="UTF-8"?>
<!DOCTYPE svg PUBLIC "-//W3C//DTD SVG 1.1//EN" "http://www.w3.org/Graphics/SVG/1.1/DTD/svg11.dtd">
<!-- Creator: CorelDRAW -->
<svg xmlns="http://www.w3.org/2000/svg" xml:space="preserve" width="296.333mm" height="84.6666mm" version="1.1" style="shape-rendering:geometricPrecision; text-rendering:geometricPrecision; image-rendering:optimizeQuality; fill-rule:evenodd; clip-rule:evenodd"
viewBox="0 0 29633.32 8466.66"
 xmlns:xlink="http://www.w3.org/1999/xlink"
 xmlns:xodm="http://www.corel.com/coreldraw/odm/2003">
 <defs>
  <style type="text/css">
   <![CDATA[
    .str0 {stroke:#E1C964;stroke-width:84.67;stroke-miterlimit:22.9256}
    .fil1 {fill:none}
    .fil0 {fill:#E1C964}
    .fil2 {fill:#E1C964;fill-rule:nonzero}
    .fil3 {fill:#E2C665;fill-rule:nonzero}
   ]]>
  </style>
 </defs>
 <g id="Layer_x0020_1">
  <metadata id="CorelCorpID_0Corel-Layer"/>
  <g id="_1616864157680">
   <g id="ICON">
    <path class="fil0 str0" d="M5943.66 5110.77c510.57,-93.34 1002.4,-385.84 1395.27,-877.44 -392.87,-491.54 -884.7,-784.04 -1395.27,-877.44 -332.73,481.7 -861.27,801.26 -1504.54,877.44 -194.82,23.07 -400.18,23.83 -613.86,0 167.94,134.16 312.58,279.91 434.09,434.03 400.89,508.76 548.75,1108.51 443.35,1684.32 427.18,295.01 981.78,435.96 1607.13,366.16 69.74,-625.34 -71.15,-1179.89 -366.17,-1607.07z"/>
    <path class="fil0 str0" d="M1706.91 5110.77c332.73,-481.7 861.34,-801.26 1504.54,-877.44 194.88,-23.07 400.19,-23.77 613.81,0 -167.89,-134.22 -312.59,-279.97 -433.98,-434.03 -400.95,-508.7 -548.81,-1108.45 -443.4,-1684.32 -427.13,-294.95 -981.73,-435.96 -1607.13,-366.16 -69.69,625.34 71.2,1179.95 366.16,1607.07 -510.57,93.4 -1002.4,385.9 -1395.21,877.44 392.81,491.6 884.64,784.1 1395.21,877.44z"/>
    <path class="fil0 str0" d="M3825.26 7747c491.6,-392.86 784.09,-884.7 877.44,-1395.32 -481.7,-332.67 -801.2,-861.28 -877.44,-1504.54 -23.02,-194.83 -23.78,-400.19 0,-613.81 -134.16,167.95 -279.91,312.64 -433.98,434.03 -508.75,401.07 -1108.51,548.81 -1684.37,443.41 -294.96,427.18 -435.85,981.73 -366.16,1607.07 625.4,69.8 1180,-71.15 1607.13,-366.16 93.34,510.57 385.84,1002.46 877.38,1395.32z"/>
    <path class="fil1 str0" d="M4702.7 2114.98c-93.35,-510.57 -385.84,-1002.46 -877.44,-1395.32 -491.54,392.86 -784.04,884.75 -877.38,1395.32 481.58,332.73 801.19,861.28 877.38,1504.54 23.13,194.77 23.83,400.19 0,613.81 134.21,-167.89 279.97,-312.53 434.09,-434.03 508.7,-400.89 1108.45,-548.75 1684.31,-443.41 295.02,-427.12 435.91,-981.73 366.17,-1607.07 -625.35,-69.8 -1179.95,71.21 -1607.13,366.16z"/>
   </g>
   <g>
    <g>
     <polygon class="fil2" points="16136.28,5168.88 16407.59,5168.88 16407.59,5951.57 16902.65,5951.57 16902.65,6189.59 16136.28,6189.59 "/>
     <polygon class="fil2" points="13747.43,5170 14043.22,5170 14286.75,5562.96 14530.27,5170 14826.06,5170 14824.82,6189.82 14558.29,6189.82 14559.53,5597.21 14286.75,5985.27 14013.97,5597.21 14015.21,6189.82 13748.67,6189.82 "/>
     <polygon class="fil2" points="12864.29,5167.25 13142.11,5167.25 13142.11,6191.16 12864.29,6191.16 "/>
     <path class="fil2" d="M11736.58 5166.9l415.43 0c730.68,0 745.91,1023.2 0,1023.2l-415.43 0 0 -1023.2zm288.12 255.66l0 511.28 89.94 0c408.3,0 401.02,-511.28 1.6,-511.28l-91.54 0z"/>
     <path class="fil2" d="M11259.8 5164.63l304.37 0 0 610.77c0,60.58 -9.19,117.58 -27.33,171.48 -18.15,53.67 -46.63,100.89 -85.45,141.19 -38.83,40.3 -79.49,68.45 -122.21,84.9 -59.27,22.66 -130.25,34.11 -213.41,34.11 -48.01,0 -100.38,-3.34 -157.13,-10.49 -56.73,-6.92 -104.06,-20.75 -142.19,-41.5 -38.13,-20.75 -73.05,-50.32 -104.75,-88.48 -31.7,-38.16 -53.29,-77.51 -65.01,-118.06 -18.84,-65.1 -28.26,-122.82 -28.26,-173.15l0 -610.77 304.38 0 0 625.33c0,56.05 14.93,99.69 44.56,130.93 29.86,31.48 71.22,47.22 124.28,47.22 52.38,0 93.72,-15.5 123.58,-46.5 29.64,-30.77 44.57,-74.89 44.57,-131.65l0 -625.33z"/>
     <path class="fil2" d="M9583.02 5166.91l558.78 0c95.8,0 169.33,24.61 220.51,73.44 51.31,48.94 77.05,109.44 77.05,181.45 0,60.56 -18.27,112.54 -54.83,155.94 -24.53,28.85 -60.16,51.74 -107.14,68.43 71.26,17.65 123.79,48.17 157.57,91.09 33.55,43.15 50.44,97.29 50.44,162.37 0,53.17 -12.03,100.87 -35.86,143.3 -24.06,42.46 -56.69,75.83 -98.34,100.62 -25.68,15.27 -64.56,26.43 -116.61,33.38 -69.19,9.25 -115,14.08 -137.68,14.08l-513.89 0c0,-128.37 0,-256.75 0,-385.12 -78.14,-0.32 -126.43,59.07 -161.15,145.63 -164.22,-211.02 31.26,-321.23 213.6,-359.5 131.8,-27.65 271.54,-22.51 404.29,-20.47 47.87,0.72 81.33,-8.47 100.18,-25.52 39.13,-35.35 37.19,-92.08 0,-125.24 -18.97,-16.91 -51.62,-24.57 -98.1,-25.27l-188.05 -2.87c0,36.47 0,72.93 0,109.41 -88.92,2.09 -179.4,16.64 -270.77,38.19l0 -373.34zm270.92 800.24l0.02 0 0 0.01 206.43 -1.95c52.97,-0.48 90.18,-9.65 111.7,-28.82 4.41,-3.95 8.35,-7.95 11.87,-12.06l0 -0.01 0.81 -0.93 0 -0.01 0.78 -0.95 0 -0.01 0.8 -0.93 0 -0.01 0.74 -0.97 0 -0.01 0.75 -0.96 0 -0.01 0.71 -0.98 0 -0.01 0.72 -0.96 0 -0.01 0.69 -0.99 0 -0.01 0.68 -0.99 0 -0.01 0.65 -0.99 0 -0.01 0.66 -0.99 0.62 -1.03 0.62 -1.03 0.59 -1.04 0.01 0 0.58 -1.03 0.01 0 0.54 -1.06 0.01 0 0.56 -1.04 0.01 -0.01c6.17,-12.05 9.26,-25.86 9.26,-43.3 0,-19.83 -4.63,-33.4 -13.88,-45.55l-0.65 -0.85 -0.02 -0.01 -0.65 -0.85 -0.02 -0.01 -0.69 -0.85 -0.02 -0.01 -0.69 -0.84 -0.02 -0.01 -0.71 -0.85 -0.02 -0.01 -0.71 -0.82 -0.02 -0.01 -0.75 -0.85 -0.02 -0.01 -0.76 -0.82 -0.01 -0.01 -0.79 -0.85 -0.02 -0.01 -0.78 -0.82 -0.02 -0.01 -0.81 -0.85 -0.02 -0.01 -0.82 -0.82 -0.02 -0.01 -0.84 -0.82 -0.02 -0.01 -0.84 -0.82 -0.02 -0.01 -0.89 -0.85 -0.02 -0.01 -0.88 -0.82 -0.01 -0.01 -0.91 -0.84 -0.02 -0.01 -0.91 -0.82 -0.02 -0.01 -0.94 -0.85 -0.02 -0.01 -0.94 -0.83 -0.02 -0.01 -0.97 -0.85 -0.02 -0.01 -0.97 -0.83 -0.01 -0.01 -1.02 -0.86 -0.02 -0.01 -1.02 -0.84 -0.02 -0.01 -1.06 -0.82 -0.02 -0.01 -1.06 -0.81 -0.02 0 -1.1 -0.81 -0.02 -0.01 -1.11 -0.78 -0.02 -0.01 -1.15 -0.76 -0.01 -0.01 -1.16 -0.75 -0.02 -0.01 -1.2 -0.75 -0.02 -0.01 -1.21 -0.74 -0.01 -0.01 -1.25 -0.71 -0.01 -0.01 -1.26 -0.7 -0.02 -0.01 -1.28 -0.7 -0.02 -0.01 -1.3 -0.67 -0.03 -0.01 -1.33 -0.66 -0.03 -0.01 -1.32 -0.64 -0.03 -0.01 -1.39 -0.65 -0.03 -0.01c-2.81,-1.28 -5.77,-2.49 -8.87,-3.61l-1.53 -0.54 -0.02 0 -1.57 -0.56 -0.02 0 -1.59 -0.53 -0.02 0 -1.62 -0.52 -0.02 0 -1.62 -0.49 -0.02 0 -1.67 -0.48 -0.01 0 -1.69 -0.48 -0.01 0 -1.72 -0.46 -0.01 0 -1.73 -0.43 -0.01 0 -1.79 -0.44 -0.01 0 -1.78 -0.42 -0.01 0 -1.82 -0.41 0 0 -1.84 -0.39 -0.01 0 -1.87 -0.38 -0.01 0 -1.87 -0.37 -0.01 0 -1.92 -0.34 -1.93 -0.32 -1.98 -0.33 -1.98 -0.31 -2.02 -0.29 -2.02 -0.28 -2.08 -0.27 -2.07 -0.24 -0.01 0 -2.1 -0.23 -0.01 0 -2.11 -0.21 -0.01 0 -2.16 -0.21 -0.01 0 -2.17 -0.19 0 0 -2.21 -0.19 -0.01 0 -2.21 -0.16 -0.01 0 -2.24 -0.15 -0.01 0 -2.26 -0.13 -0.01 0 -2.3 -0.12 -0.01 -0.01 -2.3 -0.08 -0.01 0 -2.35 -0.09 -0.01 -0.01 -2.34 -0.07 -0.01 -0.01 -2.39 -0.05 -0.01 -0.01 -2.4 -0.02 -0.01 -0.01 -2.44 -0.03 -0.01 -0.01 -2.45 0 -5 0.02 -205.69 1.93 0 0.04 -0.02 0 0 192.98z"/>
     <polygon class="fil2" points="17045.68,5167.25 17316.99,5167.25 17316.99,6191.16 17045.68,6191.16 "/>
     <path class="fil2" d="M15647.93 5163.57l304.38 0 0 610.77c0,60.58 -9.19,117.58 -27.34,171.48 -18.15,53.66 -46.63,100.88 -85.45,141.18 -38.83,40.31 -79.48,68.46 -122.21,84.91 -59.27,22.66 -130.25,34.11 -213.41,34.11 -48.01,0 -100.38,-3.35 -157.13,-10.5 -56.73,-6.91 -104.05,-20.75 -142.19,-41.5 -38.13,-20.74 -73.05,-50.32 -104.75,-88.48 -31.7,-38.16 -53.29,-77.51 -65.01,-118.06 -18.83,-65.1 -28.26,-122.81 -28.26,-173.14l0 -610.77 304.38 0 0 625.32c0,56.05 14.93,99.69 44.56,130.93 29.87,31.49 71.22,47.23 124.28,47.23 52.38,0 93.72,-15.5 123.59,-46.51 29.63,-30.77 44.56,-74.89 44.56,-131.65l0 -625.32z"/>
     <path class="fil2" d="M17998.41 5997.94l-192.63 0 -67.78 190.56 -301.55 0.76 428.53 -1015.13 133.43 0 133.44 0 428.53 1015.13 -301.56 -0.76 -67.77 -190.56 -192.64 0zm0 -534.91l-119.05 327.11 119.05 0 119.05 0 -119.05 -327.11z"/>
     <path class="fil2" d="M21739.42 5997.94l-192.64 0 -67.77 190.56 -301.56 0.76 428.53 -1015.13 133.44 0 133.43 0c73.87,174.99 144.77,342.92 218.64,517.91 -75.44,29.51 -167.94,41.11 -255.22,34.87l-96.85 -263.88 -119.05 327.11 283.64 1.03c42.24,0.14 82.84,-2.39 124.85,-7.9 131.81,-17.28 182.4,-74.14 225.35,-162.66 74.27,109.86 73.82,215.92 -59.82,315.21l106.99 253.44 -301.55 -0.76 -67.78 -190.56 -192.63 0z"/>
     <path class="fil2" d="M20844.57 5167.03l304.38 0 0 610.78c0,60.58 -9.19,117.57 -27.34,171.48 -18.15,53.66 -46.63,100.88 -85.45,141.18 -38.82,40.31 -79.48,68.45 -122.21,84.91 -59.26,22.65 -130.25,34.1 -213.41,34.1 -48.01,0 -100.38,-3.34 -157.12,-10.49 -56.74,-6.92 -104.06,-20.75 -142.19,-41.5 -38.14,-20.75 -73.06,-50.32 -104.76,-88.48 -31.69,-38.16 -53.29,-77.51 -65.01,-118.06 -18.83,-65.1 -28.26,-122.82 -28.26,-173.14l0 -610.78 304.38 0 0 625.33c0,56.05 14.93,99.69 44.57,130.93 29.86,31.48 71.21,47.23 124.27,47.23 52.38,0 93.73,-15.51 123.59,-46.51 29.63,-30.77 44.56,-74.89 44.56,-131.65l0 -625.33z"/>
     <path class="fil2" d="M19087.96 5166.94l415.5 0c730.73,0 745.92,1023.15 0,1023.15l-415.5 0 0 -1023.15zm288.19 255.57l0 511.29 89.9 0c408.31,0 401.02,-511.29 1.67,-511.29l-91.57 0z"/>
    </g>
    <path id="AI" class="fil3" d="M9361.77 4776.82l293.11 0 72.2 -181.92 391.28 0 72.19 181.92 300.32 0 -430.26 -1017.92 -270.01 0 -428.83 1017.92zm447.61 -399.94l114.06 -285.89 112.62 285.89 -226.68 0zm779.68 399.94l280.1 0 0 -306.1 124.18 0 203.58 306.1 321.98 0 -241.13 -352.3c127.06,-53.42 207.92,-155.93 207.92,-311.87l0 -2.89c0,-96.74 -30.33,-176.14 -89.52,-235.35 -67.86,-67.86 -173.26,-108.29 -329.2,-108.29l-477.91 0 0 1010.7zm280.1 -525.56l0 -244.01 184.82 0c92.4,0 151.6,40.43 151.6,121.28l0 2.89c0,73.63 -56.31,119.84 -150.16,119.84l-186.26 0zm1004.93 525.56l280.1 0 0 -765.24 303.21 0 0 -245.46 -885.08 0 0 245.46 301.77 0 0 765.24zm713.26 0l280.11 0 0 -1010.7 -280.11 0 0 1010.7zm464.92 0l280.11 0 0 -360.96 477.91 0 0 -232.46 -477.91 0 0 -171.82 528.45 0 0 -245.46 -808.56 0 0 1010.7zm944.28 0l280.11 0 0 -1010.7 -280.11 0 0 1010.7zm952.94 20.22c222.35,0 349.42,-96.75 446.16,-228.13l-210.81 -150.17c-62.08,73.64 -122.73,122.74 -228.12,122.74 -141.51,0 -241.13,-118.41 -241.13,-270.01l0 -2.88c0,-147.28 99.62,-268.56 241.13,-268.56 98.18,0 163.15,47.65 220.91,118.39l210.79 -163.15c-88.07,-122.73 -223.79,-209.36 -428.81,-209.36 -306.1,0 -531.35,231.02 -531.35,525.56l0 2.89c0,301.77 232.47,522.68 521.23,522.68zm574.65 -20.22l280.11 0 0 -1010.7 -280.11 0 0 1010.7zm385.51 0l293.11 0 72.19 -181.92 391.29 0 72.18 181.92 300.33 0 -430.26 -1017.92 -270.01 0 -428.83 1017.92zm447.6 -399.94l114.07 -285.89 112.62 285.89 -226.69 0zm779.69 399.94l769.57 0 0 -245.46 -489.47 0 0 -765.24 -280.1 0 0 1010.7zm1331.22 0l280.11 0 0 -1010.7 -280.11 0 0 1010.7zm464.93 0l277.22 0 0 -554.44 433.15 554.44 244.02 0 0 -1010.7 -277.22 0 0 534.23 -415.83 -534.23 -261.34 0 0 1010.7zm1380.32 0l280.11 0 0 -765.24 303.21 0 0 -245.46 -885.09 0 0 245.46 301.77 0 0 765.24zm706.05 0l820.11 0 0 -238.23 -542.89 0 0 -160.27 485.13 0 0 -220.91 -485.13 0 0 -154.49 535.66 0 0 -236.8 -812.88 0 0 1010.7zm964.49 0l769.57 0 0 -245.46 -489.47 0 0 -765.24 -280.1 0 0 1010.7zm890.85 0l769.57 0 0 -245.46 -489.46 0 0 -765.24 -280.11 0 0 1010.7zm898.07 0l280.11 0 0 -1010.7 -280.11 0 0 1010.7zm980.39 20.22c186.25,0 330.64,-66.42 438.93,-157.39l0 -453.36 -463.48 0 0 205.02 197.8 0 0 122.73c-40.42,27.44 -92.4,41.87 -161.71,41.87 -160.27,0 -274.33,-116.95 -274.33,-281.55l0 -2.89c0,-154.49 114.06,-275.77 258.46,-275.77 102.5,0 170.37,33.21 244,95.29l164.6 -199.25c-108.29,-92.4 -231.02,-145.83 -410.05,-145.83 -311.88,0 -542.89,231.02 -542.89,525.56l0 2.89c0,307.54 232.46,522.68 548.67,522.68zm594.86 -20.22l820.11 0 0 -238.23 -542.89 0 0 -160.27 485.13 0 0 -220.91 -485.13 0 0 -154.49 535.67 0 0 -236.8 -812.89 0 0 1010.7zm964.49 0l277.22 0 0 -554.44 433.15 554.44 244.02 0 0 -1010.7 -277.22 0 0 534.23 -415.83 -534.23 -261.34 0 0 1010.7zm1621.44 20.22c222.36,0 349.42,-96.75 446.16,-228.13l-210.81 -150.17c-62.08,73.64 -122.72,122.74 -228.12,122.74 -141.5,0 -241.13,-118.41 -241.13,-270.01l0 -2.88c0,-147.28 99.63,-268.56 241.13,-268.56 98.18,0 163.15,47.65 220.91,118.39l210.79 -163.15c-88.07,-122.73 -223.79,-209.36 -428.81,-209.36 -306.1,0 -531.34,231.02 -531.34,525.56l0 2.89c0,301.77 232.46,522.68 521.22,522.68zm567.44 -20.22l820.11 0 0 -238.23 -542.89 0 0 -160.27 485.13 0 0 -220.91 -485.13 0 0 -154.49 535.67 0 0 -236.8 -812.89 0 0 1010.7z"/>
    <path class="fil2" d="M9360.15 3343.38l295.14 0 0 -304.26 147.56 0c263.19,0 456.39,-132.35 456.39,-384.89l0 -3.04c0,-235.8 -173.43,-372.72 -441.18,-372.72l-457.91 0 0 1064.91zm295.14 -535.5l0 -281.43 139.95 0c104.97,0 170.39,47.16 170.39,138.43l0 3.05c0,85.19 -65.42,139.95 -168.87,139.95l-141.47 0zm1265.71 556.8c328.6,0 575.05,-247.97 575.05,-553.75l0 -3.05c0,-304.25 -243.4,-550.71 -572,-550.71 -328.6,0 -575.05,247.98 -575.05,553.76l0 3.04c0,304.26 243.41,550.71 572,550.71zm3.05 -266.23c-162.78,0 -273.84,-135.39 -273.84,-287.52l0 -3.05c0,-153.65 108.01,-284.48 270.79,-284.48 162.78,0 272.32,132.36 272.32,287.53l0 3.04c0,153.65 -108.02,284.48 -269.27,284.48zm724.13 244.93l810.86 0 0 -258.62 -515.72 0 0 -806.29 -295.14 0 0 1064.91zm946.25 0l295.13 0 0 -1064.91 -295.13 0 0 1064.91zm750 0l295.13 0 0 -806.29 319.47 0 0 -258.62 -932.55 0 0 258.62 317.95 0 0 806.29zm743.91 0l864.1 0 0 -251.01 -572.01 0 0 -168.86 511.16 0 0 -232.76 -511.16 0 0 -162.78 564.41 0 0 -249.5 -856.5 0 0 1064.91zm1016.23 0l295.13 0 0 -276.87 108.01 -118.67 269.28 395.54 352.94 0 -416.84 -608.52 403.14 -456.39 -349.9 0 -366.63 432.05 0 -432.05 -295.13 0 0 1064.91zm1110.55 0l292.08 0 0 -584.17 456.39 584.17 257.11 0 0 -1064.91 -292.09 0 0 562.89 -438.14 -562.89 -275.35 0 0 1064.91zm1201.82 0l295.13 0 0 -1064.91 -295.13 0 0 1064.91zm489.86 0l295.13 0 0 -276.87 108.01 -118.67 269.27 395.54 352.94 0 -416.83 -608.52 403.14 -456.39 -349.9 0 -366.63 432.05 0 -432.05 -295.13 0 0 1064.91z"/>
   </g>
  </g>
 </g>
</svg>
