<?xml version="1.0" encoding="UTF-8"?>
<!DOCTYPE svg PUBLIC "-//W3C//DTD SVG 1.1//EN" "http://www.w3.org/Graphics/SVG/1.1/DTD/svg11.dtd">
<!-- Creator: CorelDRAW -->
<svg xmlns="http://www.w3.org/2000/svg" xml:space="preserve" width="84.6666mm" height="84.6666mm" version="1.1" style="shape-rendering:geometricPrecision; text-rendering:geometricPrecision; image-rendering:optimizeQuality; fill-rule:evenodd; clip-rule:evenodd"
viewBox="0 0 8466.66 8466.66"
 xmlns:xlink="http://www.w3.org/1999/xlink"
 xmlns:xodm="http://www.corel.com/coreldraw/odm/2003">
 <defs>
  <style type="text/css">
   <![CDATA[
    .str0 {stroke:#E1C964;stroke-width:84.67;stroke-miterlimit:22.9256}
    .fil1 {fill:none}
    .fil0 {fill:#E1C964}
    .fil2 {fill:#E1C964;fill-rule:nonzero}
    .fil3 {fill:#E2C665;fill-rule:nonzero}
   ]]>
  </style>
 </defs>
 <g id="Layer_x0020_1">
  <metadata id="CorelCorpID_0Corel-Layer"/>
  <g id="_1580919192992">
   <g id="ICON">
    <path class="fil0 str0" d="M5665.23 3726.7c345.12,-63.1 677.57,-260.81 943.13,-593.11 -265.56,-332.25 -598.01,-529.97 -943.13,-593.1 -224.91,325.6 -582.19,541.61 -1017,593.1 -131.69,15.6 -270.51,16.11 -414.94,0 113.52,90.69 211.29,189.21 293.42,293.39 270.98,343.89 370.93,749.3 299.68,1138.51 288.76,199.42 663.64,294.69 1086.35,247.51 47.14,-422.7 -48.1,-797.55 -247.51,-1086.3z"/>
    <path class="fil0 str0" d="M2801.39 3726.7c224.9,-325.61 582.22,-541.61 1016.99,-593.11 131.73,-15.59 270.51,-16.07 414.91,0 -113.49,-90.72 -211.3,-189.24 -293.35,-293.38 -271.02,-343.86 -370.97,-749.26 -299.72,-1138.52 -288.71,-199.37 -663.6,-294.69 -1086.34,-247.51 -47.11,422.71 48.13,797.59 247.51,1086.31 -345.12,63.13 -677.58,260.85 -943.1,593.1 265.52,332.3 597.98,530.01 943.1,593.11z"/>
    <path class="fil0 str0" d="M4233.29 5508.67c332.29,-265.56 530.01,-598.02 593.1,-943.18 -325.6,-224.87 -541.57,-582.18 -593.1,-1016.99 -15.56,-131.69 -16.07,-270.51 0,-414.91 -90.69,113.52 -189.21,211.33 -293.35,293.39 -343.89,271.1 -749.3,370.97 -1138.55,299.72 -199.38,288.75 -294.62,663.6 -247.51,1086.3 422.74,47.18 797.63,-48.09 1086.34,-247.51 63.1,345.12 260.81,677.62 593.07,943.18z"/>
    <path class="fil1 str0" d="M4826.39 1701.69c-63.09,-345.12 -260.81,-677.61 -593.1,-943.17 -332.26,265.56 -529.97,598.05 -593.07,943.17 325.53,224.91 541.57,582.18 593.07,1017 15.63,131.65 16.11,270.5 0,414.9 90.72,-113.48 189.24,-211.25 293.42,-293.38 343.86,-270.99 749.26,-370.93 1138.52,-299.72 199.41,-288.72 294.65,-663.6 247.51,-1086.31 -422.71,-47.18 -797.59,48.14 -1086.35,247.51z"/>
   </g>
   <g>
    <g>
     <polygon class="fil2" points="4349.59,7310.48 4453.27,7310.48 4453.27,7609.58 4642.46,7609.58 4642.46,7700.54 4349.59,7700.54 "/>
     <polygon class="fil2" points="3436.7,7310.91 3549.74,7310.91 3642.8,7461.07 3735.86,7310.91 3848.9,7310.91 3848.42,7700.63 3746.57,7700.63 3747.04,7474.16 3642.8,7622.46 3538.56,7474.16 3539.03,7700.63 3437.18,7700.63 "/>
     <polygon class="fil2" points="3099.21,7309.86 3205.38,7309.86 3205.38,7701.14 3099.21,7701.14 "/>
     <path class="fil2" d="M2668.26 7309.72l158.76 0c279.22,0 285.04,391.01 0,391.01l-158.76 0 0 -391.01zm110.1 97.7l0 195.39 34.37 0c156.03,0 153.25,-195.39 0.61,-195.39l-34.98 0z"/>
     <path class="fil2" d="M2486.06 7308.85l116.32 0 0 233.41c0,23.15 -3.52,44.93 -10.45,65.53 -6.94,20.51 -17.82,38.55 -32.66,53.95 -14.83,15.41 -30.37,26.16 -46.7,32.45 -22.65,8.66 -49.77,13.03 -81.55,13.03 -18.35,0 -38.36,-1.27 -60.05,-4.01 -21.68,-2.64 -39.76,-7.93 -54.34,-15.86 -14.57,-7.92 -27.91,-19.23 -40.03,-33.81 -12.11,-14.58 -20.36,-29.62 -24.84,-45.11 -7.2,-24.88 -10.8,-46.94 -10.8,-66.17l0 -233.41 116.32 0 0 238.97c0,21.42 5.7,38.1 17.03,50.04 11.41,12.03 27.21,18.04 47.49,18.04 20.02,0 35.82,-5.92 47.23,-17.77 11.32,-11.76 17.03,-28.62 17.03,-50.31l0 -238.97z"/>
     <path class="fil2" d="M1845.28 7309.72l213.54 0c36.61,0 64.71,9.41 84.27,28.07 19.6,18.7 29.44,41.82 29.44,69.34 0,23.14 -6.98,43.01 -20.96,59.59 -9.37,11.03 -22.99,19.77 -40.94,26.15 27.24,6.75 47.31,18.41 60.22,34.81 12.82,16.49 19.27,37.18 19.27,62.05 0,20.32 -4.59,38.55 -13.7,54.76 -9.19,16.23 -21.66,28.98 -37.58,38.45 -9.81,5.84 -24.67,10.1 -44.56,12.76 -26.44,3.54 -43.95,5.38 -52.61,5.38l-196.39 0c0,-49.06 0,-98.12 0,-147.17 -29.86,-0.12 -48.31,22.57 -61.58,55.65 -62.76,-80.64 11.94,-122.76 81.63,-137.38 50.36,-10.57 103.76,-8.6 154.49,-7.82 18.3,0.27 31.08,-3.24 38.29,-9.76 14.95,-13.51 14.21,-35.18 0,-47.86 -7.25,-6.46 -19.73,-9.38 -37.49,-9.65l-71.86 -1.1c0,13.94 0,27.87 0,41.81 -33.98,0.8 -68.56,6.36 -103.48,14.59l0 -142.67zm103.53 305.81l0.01 0 0 0.01 78.89 -0.75c20.24,-0.18 34.46,-3.68 42.68,-11.01 1.69,-1.51 3.19,-3.04 4.54,-4.61l0 0 0.31 -0.36 0 0 0.3 -0.37 0 0 0.3 -0.36 0 0 0.29 -0.37 0 0 0.28 -0.37 0 0 0.27 -0.38 0 0 0.28 -0.37 0 0 0.26 -0.38 0 -0.01 0.26 -0.37 0 -0.01 0.25 -0.38 0 0 0.25 -0.38 0.24 -0.39 0.24 -0.39 0.22 -0.4 0 0 0.23 -0.4 0 0 0.21 -0.4 0 0 0.21 -0.4 0.01 0c2.36,-4.61 3.54,-9.89 3.54,-16.55 0,-7.58 -1.77,-12.76 -5.3,-17.41l-0.26 -0.32 0 0 -0.25 -0.33 -0.01 0 -0.26 -0.33 -0.01 0 -0.26 -0.32 -0.01 -0.01 -0.27 -0.32 -0.01 0 -0.27 -0.32 -0.01 0 -0.29 -0.33 0 0 -0.29 -0.31 -0.01 -0.01 -0.3 -0.32 -0.01 -0.01 -0.29 -0.31 -0.01 0 -0.31 -0.33 -0.01 0 -0.31 -0.32 -0.01 0 -0.32 -0.31 -0.01 -0.01 -0.32 -0.31 -0.01 -0.01 -0.34 -0.32 0 0 -0.34 -0.32 -0.01 0 -0.34 -0.32 -0.01 -0.01 -0.35 -0.31 -0.01 0 -0.36 -0.33 0 0 -0.36 -0.32 -0.01 0 -0.37 -0.33 -0.01 0 -0.37 -0.32 0 0 -0.39 -0.33 -0.01 -0.01 -0.39 -0.32 -0.01 0 -0.4 -0.31 -0.01 -0.01 -0.4 -0.3 -0.01 -0.01 -0.43 -0.3 0 -0.01 -0.43 -0.3 0 0 -0.44 -0.29 -0.01 -0.01 -0.44 -0.28 -0.01 0 -0.46 -0.29 0 -0.01 -0.46 -0.28 -0.01 0 -0.48 -0.28 0 0 -0.48 -0.27 -0.01 0 -0.49 -0.27 -0.01 0 -0.5 -0.26 -0.01 0 -0.5 -0.25 -0.01 -0.01 -0.51 -0.24 -0.01 -0.01 -0.53 -0.24 -0.01 -0.01c-1.08,-0.49 -2.21,-0.95 -3.39,-1.38l-0.59 -0.21 0 0 -0.61 -0.21 0 0 -0.61 -0.2 -0.01 0 -0.62 -0.2 -0.01 0 -0.62 -0.18 0 0 -0.64 -0.19 -0.01 0 -0.64 -0.18 -0.01 0 -0.65 -0.18 -0.01 0 -0.66 -0.16 0 0 -0.68 -0.17 -0.01 0 -0.68 -0.16 0 0 -0.7 -0.16 0 0 -0.7 -0.15 0 0 -0.72 -0.14 0 0 -0.72 -0.14 0 0 -0.74 -0.13 -0.73 -0.13 -0.76 -0.12 -0.76 -0.12 -0.77 -0.11 -0.77 -0.11 -0.79 -0.1 -0.8 -0.09 0 0 -0.8 -0.09 -0.01 0 -0.8 -0.08 -0.01 0 -0.82 -0.08 0 0 -0.83 -0.08 -0.01 0 -0.84 -0.07 0 0 -0.85 -0.06 0 0 -0.86 -0.06 0 0 -0.87 -0.05 0 0 -0.88 -0.04 0 0 -0.88 -0.03 0 -0.01 -0.9 -0.03 0 0 -0.9 -0.03 -0.01 0 -0.91 -0.02 0 -0.01 -0.92 -0.01 0 0 -0.94 -0.01 0 0 -0.93 0 -1.92 0 -78.6 0.74 0 0.02 -0.01 0 0 73.74z"/>
     <polygon class="fil2" points="4697.12,7309.86 4800.8,7309.86 4800.8,7701.14 4697.12,7701.14 "/>
     <path class="fil2" d="M4162.97 7308.45l116.32 0 0 233.4c0,23.15 -3.51,44.93 -10.45,65.53 -6.93,20.51 -17.82,38.56 -32.65,53.95 -14.84,15.41 -30.38,26.16 -46.71,32.45 -22.64,8.66 -49.77,13.04 -81.55,13.04 -18.35,0 -38.36,-1.28 -60.04,-4.01 -21.69,-2.65 -39.77,-7.93 -54.34,-15.86 -14.57,-7.93 -27.92,-19.23 -40.03,-33.82 -12.12,-14.58 -20.37,-29.62 -24.85,-45.11 -7.19,-24.88 -10.79,-46.94 -10.79,-66.17l0 -233.4 116.31 0 0 238.96c0,21.42 5.71,38.1 17.03,50.04 11.41,12.03 27.22,18.04 47.49,18.04 20.02,0 35.82,-5.92 47.23,-17.77 11.33,-11.76 17.03,-28.62 17.03,-50.31l0 -238.96z"/>
     <path class="fil2" d="M5061.2 7627.3l-73.61 0 -25.9 72.82 -115.24 0.29 163.76 -387.93 50.99 0 50.99 0 163.77 387.93 -115.24 -0.29 -25.9 -72.82 -73.62 0zm0 -204.41l-45.49 125 45.49 0 45.5 0 -45.5 -125z"/>
     <path class="fil2" d="M6490.82 7627.3l-73.62 0 -25.9 72.82 -115.24 0.29 163.77 -387.93 50.99 0 50.99 0c28.23,66.87 55.32,131.05 83.55,197.92 -28.83,11.28 -64.18,15.71 -97.53,13.33l-37.01 -100.84 -45.5 125 108.4 0.39c16.14,0.06 31.65,-0.91 47.71,-3.02 50.37,-6.6 69.7,-28.33 86.11,-62.16 28.39,41.99 28.22,82.52 -22.85,120.46l40.88 96.85 -115.24 -0.29 -25.9 -72.82 -73.61 0z"/>
     <path class="fil2" d="M6148.86 7309.77l116.31 0 0 233.41c0,23.15 -3.51,44.93 -10.44,65.53 -6.94,20.5 -17.82,38.55 -32.66,53.95 -14.84,15.4 -30.37,26.16 -46.7,32.45 -22.65,8.66 -49.78,13.03 -81.55,13.03 -18.35,0 -38.37,-1.28 -60.05,-4.01 -21.68,-2.64 -39.77,-7.93 -54.34,-15.86 -14.57,-7.93 -27.91,-19.23 -40.03,-33.81 -12.11,-14.58 -20.36,-29.62 -24.84,-45.12 -7.2,-24.88 -10.8,-46.93 -10.8,-66.16l0 -233.41 116.32 0 0 238.97c0,21.42 5.7,38.09 17.03,50.03 11.41,12.03 27.21,18.05 47.49,18.05 20.01,0 35.81,-5.92 47.23,-17.77 11.32,-11.76 17.03,-28.62 17.03,-50.31l0 -238.97z"/>
     <path class="fil2" d="M5477.57 7309.73l158.79 0c279.24,0 285.05,391 0,391l-158.79 0 0 -391zm110.13 97.67l0 195.39 34.36 0c156.03,0 153.25,-195.39 0.64,-195.39l-35 0z"/>
    </g>
    <path id="AI" class="fil3" d="M194.73 7134.58l118.61 0 29.22 -73.62 158.34 0 29.21 73.62 121.54 0 -174.12 -411.93 -109.26 0 -173.54 411.93zm181.13 -161.85l46.16 -115.69 45.58 115.69 -91.74 0zm315.52 161.85l113.35 0 0 -123.87 50.25 0 82.38 123.87 130.3 0 -97.58 -142.57c51.42,-21.62 84.14,-63.1 84.14,-126.2l0 -1.17c0,-39.15 -12.27,-71.29 -36.22,-95.24 -27.47,-27.46 -70.12,-43.82 -133.22,-43.82l-193.4 0 0 409zm113.35 -212.68l0 -98.75 74.79 0c37.39,0 61.35,16.36 61.35,49.08l0 1.17c0,29.8 -22.79,48.5 -60.77,48.5l-75.37 0zm406.67 212.68l113.35 0 0 -309.67 122.7 0 0 -99.33 -358.17 0 0 99.33 122.12 0 0 309.67zm288.63 0l113.36 0 0 -409 -113.36 0 0 409zm188.15 0l113.35 0 0 -146.07 193.39 0 0 -94.08 -193.39 0 0 -69.52 213.85 0 0 -99.33 -327.2 0 0 409zm382.12 0l113.35 0 0 -409 -113.35 0 0 409zm385.63 8.18c89.98,0 141.4,-39.15 180.54,-92.32l-85.3 -60.77c-25.13,29.8 -49.67,49.67 -92.32,49.67 -57.26,0 -97.58,-47.91 -97.58,-109.26l0 -1.17c0,-59.6 40.32,-108.68 97.58,-108.68 39.73,0 66.02,19.28 89.4,47.91l85.3 -66.02c-35.64,-49.67 -90.56,-84.72 -173.53,-84.72 -123.87,0 -215.02,93.48 -215.02,212.68l0 1.17c0,122.11 94.07,211.51 210.93,211.51zm232.54 -8.18l113.36 0 0 -409 -113.36 0 0 409zm156.01 0l118.61 0 29.22 -73.62 158.34 0 29.21 73.62 121.53 0 -174.11 -411.93 -109.27 0 -173.53 411.93zm181.13 -161.85l46.16 -115.69 45.57 115.69 -91.73 0zm315.52 161.85l311.42 0 0 -99.33 -198.07 0 0 -309.67 -113.35 0 0 409zm538.71 0l113.35 0 0 -409 -113.35 0 0 409zm188.14 0l112.18 0 0 -224.37 175.29 224.37 98.75 0 0 -409 -112.19 0 0 216.18 -168.27 -216.18 -105.76 0 0 409zm558.58 0l113.35 0 0 -309.67 122.7 0 0 -99.33 -358.17 0 0 99.33 122.12 0 0 309.67zm285.72 0l331.87 0 0 -96.41 -219.69 0 0 -64.86 196.32 0 0 -89.39 -196.32 0 0 -62.52 216.77 0 0 -95.82 -328.95 0 0 409zm390.3 0l311.42 0 0 -99.33 -198.07 0 0 -309.67 -113.35 0 0 409zm360.5 0l311.43 0 0 -99.33 -198.08 0 0 -309.67 -113.35 0 0 409zm363.43 0l113.35 0 0 -409 -113.35 0 0 409zm396.73 8.18c75.37,0 133.8,-26.88 177.63,-63.69l0 -183.47 -187.56 0 0 82.97 80.04 0 0 49.67c-16.36,11.1 -37.39,16.94 -65.44,16.94 -64.85,0 -111.01,-47.33 -111.01,-113.93l0 -1.17c0,-62.52 46.16,-111.6 104.59,-111.6 41.48,0 68.94,13.44 98.74,38.56l66.61 -80.63c-43.82,-37.39 -93.49,-59.01 -165.94,-59.01 -126.2,0 -219.69,93.48 -219.69,212.68l0 1.17c0,124.45 94.07,211.51 222.03,211.51zm240.73 -8.18l331.87 0 0 -96.41 -219.69 0 0 -64.86 196.32 0 0 -89.39 -196.32 0 0 -62.52 216.77 0 0 -95.82 -328.95 0 0 409zm390.3 0l112.19 0 0 -224.37 175.28 224.37 98.75 0 0 -409 -112.19 0 0 216.18 -168.27 -216.18 -105.76 0 0 409zm656.15 8.18c89.98,0 141.4,-39.15 180.55,-92.32l-85.31 -60.77c-25.12,29.8 -49.66,49.67 -92.31,49.67 -57.26,0 -97.58,-47.91 -97.58,-109.26l0 -1.17c0,-59.6 40.32,-108.68 97.58,-108.68 39.73,0 66.02,19.28 89.39,47.91l85.31 -66.02c-35.64,-49.67 -90.57,-84.72 -173.53,-84.72 -123.87,0 -215.02,93.48 -215.02,212.68l0 1.17c0,122.11 94.07,211.51 210.92,211.51zm229.63 -8.18l331.88 0 0 -96.41 -219.7 0 0 -64.86 196.32 0 0 -89.39 -196.32 0 0 -62.52 216.77 0 0 -95.82 -328.95 0 0 409z"/>
    <path class="fil2" d="M2404.37 6612.87l112.79 0 0 -116.27 56.39 0c100.57,0 174.4,-50.58 174.4,-147.09l0 -1.16c0,-90.11 -66.27,-142.44 -168.59,-142.44l-174.99 0 0 406.96zm112.79 -204.64l0 -107.55 53.48 0c40.11,0 65.11,18.02 65.11,52.9l0 1.16c0,32.56 -25,53.49 -64.53,53.49l-54.06 0zm483.69 212.78c125.57,0 219.75,-94.77 219.75,-211.62l0 -1.16c0,-116.27 -93.02,-210.45 -218.59,-210.45 -125.57,0 -219.76,94.76 -219.76,211.61l0 1.16c0,116.28 93.02,210.46 218.6,210.46zm1.16 -101.74c-62.21,0 -104.65,-51.74 -104.65,-109.88l0 -1.16c0,-58.72 41.28,-108.72 103.49,-108.72 62.2,0 104.06,50.58 104.06,109.88l0 1.16c0,58.72 -41.28,108.72 -102.9,108.72zm276.73 93.6l309.86 0 0 -98.83 -197.08 0 0 -308.13 -112.78 0 0 406.96zm361.6 0l112.79 0 0 -406.96 -112.79 0 0 406.96zm286.61 0l112.79 0 0 -308.12 122.08 0 0 -98.84 -356.37 0 0 98.84 121.5 0 0 308.12zm284.29 0l330.21 0 0 -95.93 -218.59 0 0 -64.53 195.34 0 0 -88.95 -195.34 0 0 -62.2 215.68 0 0 -95.35 -327.3 0 0 406.96zm388.35 0l112.78 0 0 -105.81 41.28 -45.35 102.9 151.16 134.87 0 -159.29 -232.55 154.06 -174.41 -133.71 0 -140.11 165.11 0 -165.11 -112.78 0 0 406.96zm424.39 0l111.62 0 0 -223.24 174.41 223.24 98.25 0 0 -406.96 -111.62 0 0 215.11 -167.43 -215.11 -105.23 0 0 406.96zm459.27 0l112.79 0 0 -406.96 -112.79 0 0 406.96zm187.2 0l112.79 0 0 -105.81 41.27 -45.35 102.9 151.16 134.88 0 -159.29 -232.55 154.06 -174.41 -133.72 0 -140.1 165.11 0 -165.11 -112.79 0 0 406.96z"/>
   </g>
  </g>
 </g>
</svg>
