<?xml version="1.0" encoding="UTF-8"?>
<!DOCTYPE svg PUBLIC "-//W3C//DTD SVG 1.1//EN" "http://www.w3.org/Graphics/SVG/1.1/DTD/svg11.dtd">
<!-- Creator: CorelDRAW -->
<svg xmlns="http://www.w3.org/2000/svg" xml:space="preserve" width="169.333mm" height="42.3332mm" version="1.1" style="shape-rendering:geometricPrecision; text-rendering:geometricPrecision; image-rendering:optimizeQuality; fill-rule:evenodd; clip-rule:evenodd"
viewBox="0 0 16933.32 4233.32"
 xmlns:xlink="http://www.w3.org/1999/xlink"
 xmlns:xodm="http://www.corel.com/coreldraw/odm/2003">
 <defs>
  <style type="text/css">
   <![CDATA[
    .fil0 {fill:#001B3C}
    .fil1 {fill:white}
   ]]>
  </style>
 </defs>
 <g id="Layer_x0020_1">
  <metadata id="CorelCorpID_0Corel-Layer"/>
  <g id="_2537805324976">
   <path class="fil0" d="M10524.01 2878.79c-3.45,-31.14 -0.47,-1011.32 -0.47,-1041.25 0,-173.54 0,-347.08 0,-520.62 0,-115.5 -21.81,-143.56 103.94,-154.22 46.58,-3.95 198.42,-12.38 206.48,49.55 3.49,26.81 0.52,1481.32 0.52,1561.76 0,27.35 4.63,102.66 -5.92,122.24 -12.69,23.54 -62.13,29.93 -97.03,32.44 -58.65,4.21 -200.49,13.75 -207.52,-49.9zm-5670.18 114.46c-30.11,40.16 -179.46,191.42 -223.74,243.47l-194.22 208.44c-12.62,14.07 -17.14,20.95 -33,35.79l-47.35 50.84c-7.56,8.2 -9.09,12.33 -17.97,18.55l-0.3 -556.7c-76.38,-3.74 -161.29,-0.43 -238.61,-0.43 -159.35,0 -318.7,0 -478.06,0 -141.78,0 -300.13,24.72 -362.3,-115.6 -25.6,-57.79 -19.16,-154.1 -19.16,-221.47l0 -959.4c0,-99.01 -11.35,-392.02 17.36,-465.55 56.32,-144.21 222.43,-120.56 357.56,-120.56l1437.45 0c135.99,0 309.4,-27.14 373.9,104.18 29.94,60.95 25.19,141.07 25.18,213.43l0 1201.7c0,67.81 4.88,165.12 -12.03,226.47 -15.4,55.89 -63.58,105.35 -116.9,122.26 -61.65,19.56 -156.12,14.54 -224.31,14.54 -81.16,0 -162.35,-0.22 -243.5,0.04zm7774.56 -63.07c-170.85,0 -177.96,-4.58 -128.12,-172.99 24.37,-82.36 48.53,-164.57 74.29,-246.54 51.83,-164.93 98.39,-330.5 149.72,-495.37 50.86,-163.36 98.36,-328.17 148.89,-492.91 25.23,-82.25 50.15,-163.68 74.32,-246.57 34.46,-118.15 39.17,-115.25 224.45,-115.25 45.27,0 109.33,-0.69 151.61,8.03 52.76,10.89 55.73,42.11 71.15,92.6l226.8 748.89c49.6,167.96 102.47,332.73 151.46,500.15 24.43,83.5 49.39,166 75.26,248.91 56.29,180.38 33.73,171.05 -149.11,171.05 -161.67,0 -136.69,-8.88 -178.79,-150.84 -12.93,-43.62 -25.25,-85.7 -37.74,-129.23 -6.62,-23.07 -30.56,-113.37 -38.87,-126.71l-569.68 -0.49c-11.97,24.41 -27.71,94.55 -36.6,126.08 -11.11,39.39 -61.8,231.54 -75.8,251.61 -21.39,30.67 -88.36,29.58 -133.24,29.58zm-3636.1 -820.86c-25.14,485.82 -241.17,867.45 -787.68,841.72 -562.3,-26.47 -672.51,-502.9 -651.73,-976.01 22.02,-501.59 263.38,-863.77 789.09,-837.44 263.1,13.18 429.2,125.41 523.55,288.01 105.7,182.16 139.38,439.83 126.77,683.72zm-1977.14 -144.38c3.17,2.19 -0.29,0.81 7.19,3.84 5.21,2.1 5.03,1.77 10.15,3.14 5.67,1.5 11.47,2.86 17.87,4.87 193.22,60.76 274.95,253.86 262.8,456.77 -13.97,233.32 -144.99,375.78 -326.31,438.89 -113.6,39.54 -213.37,41.76 -340.75,41.76 -60.4,0 -342.49,6.47 -376.86,-5.71 -49.91,-17.68 -58.3,-68.69 -58.24,-131.21l0.01 -1342.49c0,-143 -31.37,-274.44 107.59,-274.29 127.52,0.15 255.8,-1.43 383.22,0.23 249.38,3.25 427.9,78.82 495.29,269.88 53.56,151.82 33.33,333.05 -69.14,453.24 -20.72,24.31 -71.15,68.32 -112.82,81.08zm2811.24 -512.54c-5.75,30.95 -1.46,758.43 -1.46,810.81l-0.58 608.1c-7.64,52.92 -103.45,51.13 -152.72,51.28 -198.85,0.59 -158.4,-31.34 -158.4,-250.08l0 -1015.06c0,-59.33 5.3,-148.59 -0.76,-204.29 -32.15,-3.5 -269.01,-0.76 -322.17,-0.76 -68.44,0 -88.74,9.28 -99.29,-62.68 -6.23,-42.5 -12.16,-177.87 15.84,-215.15 14.93,-19.88 37.38,-14.03 67.07,-14.02l979.04 0c69.28,0 86.28,-4.4 94.97,68.08 5.62,46.85 6.07,106.88 0.16,153.74 -9.27,73.51 -23.56,70.03 -95.13,70.03 -108.86,-0.01 -217.71,0 -326.57,0zm1690.18 589.41c-6.15,74.18 -0.65,173.91 -0.65,250.87l0 510.8c0,84.5 19.37,122.53 -128.39,126.44 -38.37,1.02 -83.27,0.93 -119.82,-6.55 -43.69,-8.95 -61.96,-19.74 -61.91,-67.47l0.08 -1529.16c0,-131.95 -19.04,-151.52 93.61,-163.12 56.19,-5.78 193.86,-9.26 212.08,35.64 9.61,23.65 3.92,702.06 4.43,762.72l421.57 -700.67c31.11,-52.19 35.93,-81.69 93.1,-93.41 47.71,-9.77 128.22,-9.37 177.02,-3.58 61.84,7.34 107.01,22.82 80.53,94 -16,43.02 -43.8,86.61 -66.23,120.48 -50.74,76.66 -100.39,150.69 -150.43,226.04l-223.45 336.45c-28.78,43.34 -26,21.15 30.32,122.3 109.82,197.24 231.86,396.77 341.97,594.55 30.35,54.5 144.14,215.28 74.5,253.83 -35.32,19.55 -125.27,18.98 -170.84,17.85 -64.25,-1.59 -112.68,-3.9 -140.43,-44.81l-200.45 -362.74c-42.91,-82.12 -88.48,-159.28 -133,-240.2 -25.25,-45.87 -112.58,-208.91 -133.61,-240.26zm-9222.11 -1510.74l0 3221.98c0,72.52 1.75,165.81 31.56,227.12 55.55,114.25 169.58,142.89 292.61,142.89l11689.52 0c96.62,0 199.98,-11.85 261.5,-88.85 12.67,-15.87 24.77,-29.7 35.44,-49.7 32.02,-59.98 33.77,-159.23 33.77,-231.46l0 -3221.98c0,-54.27 -1.77,-115.87 -11.17,-162.37 -5.29,-26.18 -10.24,-43.88 -20.39,-64.75 -55.55,-114.25 -169.58,-142.89 -292.61,-142.89l-11689.52 0c-81.18,0 -153.43,6.64 -214.67,47.29 -16.33,10.84 -35.17,26.96 -46.83,41.56 -32.51,40.69 -46.03,58.71 -57.49,116.06 -9.68,48.36 -11.72,108.67 -11.72,165.1z"/>
   <path class="fil1" d="M3417.87 2404.69c22.46,20.68 34.95,55.1 100.27,75.57 232.77,72.94 355.01,-268.65 620.58,-227.52 98.34,15.24 156.85,63.58 205.6,140.84 12.73,-12.22 25.31,-49.4 84.28,-91.81 32.24,-23.19 77.35,-41.7 124.6,-48.73 267.25,-39.76 387.52,304.11 622.2,225.79 24.41,-8.15 38.75,-18.3 56.71,-31.66 20.02,-14.89 26.58,-32.06 40.74,-42.49 9.71,128.88 -42.22,227.18 -101.54,292.75 -61.17,67.61 -168.07,113.23 -262.17,134.09 -112.6,24.95 -243.15,25.69 -348.74,-11.73 -78.3,-27.75 -127.02,-64.2 -176.64,-121.35 -25.17,-28.99 -29.37,-49.43 -40.31,-59.04 -134.37,289.27 -656.78,250.67 -826.95,55.33 -63.51,-72.9 -119.17,-188.79 -98.63,-290.04zm441.69 -601.2c92.24,-18.56 161.75,42.93 177.54,114.94 20.12,91.74 -43.79,163.04 -114.09,178.75 -89.75,20.06 -164.29,-42.59 -179.45,-113.96 -19.55,-92.09 42.98,-165.03 116,-179.73zm905.69 1.03c90.5,-22.21 164.31,41.9 180.06,113.19 19.89,90 -40.39,160.82 -109.88,178.42 -93.09,23.57 -166.45,-40.76 -183.1,-111.48 -22.16,-94.17 41.75,-162.65 112.92,-180.13zm88.58 1188.73c81.15,-0.26 162.34,-0.04 243.5,-0.04 68.19,0 162.66,5.02 224.31,-14.54 53.32,-16.91 101.5,-66.37 116.9,-122.26 16.91,-61.35 12.03,-158.66 12.03,-226.47l0 -1201.7c0.01,-72.36 4.76,-152.48 -25.18,-213.43 -64.5,-131.32 -237.91,-104.18 -373.9,-104.18l-1437.45 0c-135.13,0 -301.24,-23.65 -357.56,120.56 -28.71,73.53 -17.36,366.54 -17.36,465.55l0 959.4c0,67.37 -6.44,163.68 19.16,221.47 62.17,140.32 220.52,115.6 362.3,115.6 159.36,0 318.71,0 478.06,0 77.32,0 162.23,-3.31 238.61,0.43l0.3 556.7c8.88,-6.22 10.41,-10.35 17.97,-18.55l47.35 -50.84c15.86,-14.84 20.38,-21.72 33,-35.79l194.22 -208.44c44.28,-52.05 193.63,-203.31 223.74,-243.47z"/>
   <path class="fil1" d="M8217.94 1433.46c76.56,-10.51 159.79,-0.74 223.21,26.97 186.33,81.41 221.2,335.28 226.85,527.6 7.37,250.88 -30.56,627.06 -340.24,666.54 -171.25,21.83 -294.47,-42.49 -356.4,-141.6 -68.54,-109.7 -89.62,-260.11 -93.94,-410.15 -4.41,-153.47 5.62,-314.18 60.72,-443.5 47.54,-111.57 135.89,-206.12 279.8,-225.86zm774.35 675.86c12.61,-243.89 -21.07,-501.56 -126.77,-683.72 -94.35,-162.6 -260.45,-274.83 -523.55,-288.01 -525.71,-26.33 -767.07,335.85 -789.09,837.44 -20.78,473.11 89.43,949.54 651.73,976.01 546.51,25.73 762.54,-355.9 787.68,-841.72z"/>
   <path class="fil1" d="M6515.81 2142.88c200.14,0 470.25,-37.68 477,247.91 2.75,116.46 -51.19,196.95 -132.52,230.62 -74.25,30.74 -253.76,19.98 -345.36,19.98l0.88 -498.51zm-0.83 -714.82c122.42,0 291.27,-18.04 357.85,74.72 40.84,56.9 51.22,143.58 31.88,223.33 -46.4,191.32 -229.19,157.07 -389.6,157.07l-0.16 -12.89 0.03 -442.23zm500.17 536.88c41.67,-12.76 92.1,-56.77 112.82,-81.08 102.47,-120.19 122.7,-301.42 69.14,-453.24 -67.39,-191.06 -245.91,-266.63 -495.29,-269.88 -127.42,-1.66 -255.7,-0.08 -383.22,-0.23 -138.96,-0.15 -107.59,131.29 -107.59,274.29l-0.01 1342.49c-0.06,62.52 8.33,113.53 58.24,131.21 34.37,12.18 316.46,5.71 376.86,5.71 127.38,0 227.15,-2.22 340.75,-41.76 181.32,-63.11 312.34,-205.57 326.31,-438.89 12.15,-202.91 -69.58,-396.01 -262.8,-456.77 -6.4,-2.01 -12.2,-3.37 -17.87,-4.87 -5.12,-1.37 -4.94,-1.04 -10.15,-3.14 -7.48,-3.03 -4.02,-1.65 -7.19,-3.84z"/>
   <path class="fil1" d="M12943.59 2248.68c-0.09,-9.76 207.07,-731.94 214.86,-744.37l214.16 744.33 -429.02 0.04zm-315.2 681.5c44.88,0 111.85,1.09 133.24,-29.58 14,-20.07 64.69,-212.22 75.8,-251.61 8.89,-31.53 24.63,-101.67 36.6,-126.08l569.68 0.49c8.31,13.34 32.25,103.64 38.87,126.71 12.49,43.53 24.81,85.61 37.74,129.23 42.1,141.96 17.12,150.84 178.79,150.84 182.84,0 205.4,9.33 149.11,-171.05 -25.87,-82.91 -50.83,-165.41 -75.26,-248.91 -48.99,-167.42 -101.86,-332.19 -151.46,-500.15l-226.8 -748.89c-15.42,-50.49 -18.39,-81.71 -71.15,-92.6 -42.28,-8.72 -106.34,-8.03 -151.61,-8.03 -185.28,0 -189.99,-2.9 -224.45,115.25 -24.17,82.89 -49.09,164.32 -74.32,246.57 -50.53,164.74 -98.03,329.55 -148.89,492.91 -51.33,164.87 -97.89,330.44 -149.72,495.37 -25.76,81.97 -49.92,164.18 -74.29,246.54 -49.84,168.41 -42.73,172.99 128.12,172.99z"/>
   <path class="fil1" d="M11516.57 2041.81c21.03,31.35 108.36,194.39 133.61,240.26 44.52,80.92 90.09,158.08 133,240.2l200.45 362.74c27.75,40.91 76.18,43.22 140.43,44.81 45.57,1.13 135.52,1.7 170.84,-17.85 69.64,-38.55 -44.15,-199.33 -74.5,-253.83 -110.11,-197.78 -232.15,-397.31 -341.97,-594.55 -56.32,-101.15 -59.1,-78.96 -30.32,-122.3l223.45 -336.45c50.04,-75.35 99.69,-149.38 150.43,-226.04 22.43,-33.87 50.23,-77.46 66.23,-120.48 26.48,-71.18 -18.69,-86.66 -80.53,-94 -48.8,-5.79 -129.31,-6.19 -177.02,3.58 -57.17,11.72 -61.99,41.22 -93.1,93.41l-421.57 700.67c-0.51,-60.66 5.18,-739.07 -4.43,-762.72 -18.22,-44.9 -155.89,-41.42 -212.08,-35.64 -112.65,11.6 -93.61,31.17 -93.61,163.12l-0.08 1529.16c-0.05,47.73 18.22,58.52 61.91,67.47 36.55,7.48 81.45,7.57 119.82,6.55 147.76,-3.91 128.39,-41.94 128.39,-126.44l0 -510.8c0,-76.96 -5.5,-176.69 0.65,-250.87z"/>
   <path class="fil0" d="M8217.94 1433.46c-143.91,19.74 -232.26,114.29 -279.8,225.86 -55.1,129.32 -65.13,290.03 -60.72,443.5 4.32,150.04 25.4,300.45 93.94,410.15 61.93,99.11 185.15,163.43 356.4,141.6 309.68,-39.48 347.61,-415.66 340.24,-666.54 -5.65,-192.32 -40.52,-446.19 -226.85,-527.6 -63.42,-27.71 -146.65,-37.48 -223.21,-26.97z"/>
   <path class="fil1" d="M9826.39 1452.4c108.86,0 217.71,-0.01 326.57,0 71.57,0 85.86,3.48 95.13,-70.03 5.91,-46.86 5.46,-106.89 -0.16,-153.74 -8.69,-72.48 -25.69,-68.08 -94.97,-68.08l-979.04 0c-29.69,-0.01 -52.14,-5.86 -67.07,14.02 -28,37.28 -22.07,172.65 -15.84,215.15 10.55,71.96 30.85,62.68 99.29,62.68 53.16,0 290.02,-2.74 322.17,0.76 6.06,55.7 0.76,144.96 0.76,204.29l0 1015.06c0,218.74 -40.45,250.67 158.4,250.08 49.27,-0.15 145.08,1.64 152.72,-51.28l0.58 -608.1c0,-52.38 -4.29,-779.86 1.46,-810.81z"/>
   <path class="fil0" d="M3417.87 2404.69c-20.54,101.25 35.12,217.14 98.63,290.04 170.17,195.34 692.58,233.94 826.95,-55.33 10.94,9.61 15.14,30.05 40.31,59.04 49.62,57.15 98.34,93.6 176.64,121.35 105.59,37.42 236.14,36.68 348.74,11.73 94.1,-20.86 201,-66.48 262.17,-134.09 59.32,-65.57 111.25,-163.87 101.54,-292.75 -14.16,10.43 -20.72,27.6 -40.74,42.49 -17.96,13.36 -32.3,23.51 -56.71,31.66 -234.68,78.32 -354.95,-265.55 -622.2,-225.79 -47.25,7.03 -92.36,25.54 -124.6,48.73 -58.97,42.41 -71.55,79.59 -84.28,91.81 -48.75,-77.26 -107.26,-125.6 -205.6,-140.84 -265.57,-41.13 -387.81,300.46 -620.58,227.52 -65.32,-20.47 -77.81,-54.89 -100.27,-75.57z"/>
   <path class="fil1" d="M10524.01 2878.79c7.03,63.65 148.87,54.11 207.52,49.9 34.9,-2.51 84.34,-8.9 97.03,-32.44 10.55,-19.58 5.92,-94.89 5.92,-122.24 0,-80.44 2.97,-1534.95 -0.52,-1561.76 -8.06,-61.93 -159.9,-53.5 -206.48,-49.55 -125.75,10.66 -103.94,38.72 -103.94,154.22 0,173.54 0,347.08 0,520.62 0,29.93 -2.98,1010.11 0.47,1041.25z"/>
   <path class="fil0" d="M6514.93 2641.39c91.6,0 271.11,10.76 345.36,-19.98 81.33,-33.67 135.27,-114.16 132.52,-230.62 -6.75,-285.59 -276.86,-247.91 -477,-247.91l-0.88 498.51z"/>
   <path class="fil0" d="M6514.95 1870.29l0.16 12.89c160.41,0 343.2,34.25 389.6,-157.07 19.34,-79.75 8.96,-166.43 -31.88,-223.33 -66.58,-92.76 -235.43,-74.72 -357.85,-74.72l-0.03 442.23z"/>
   <path class="fil0" d="M12943.59 2248.68l429.02 -0.04 -214.16 -744.33c-7.79,12.43 -214.95,734.61 -214.86,744.37z"/>
   <path class="fil0" d="M3859.56 1803.49c-73.02,14.7 -135.55,87.64 -116,179.73 15.16,71.37 89.7,134.02 179.45,113.96 70.3,-15.71 134.21,-87.01 114.09,-178.75 -15.79,-72.01 -85.3,-133.5 -177.54,-114.94z"/>
   <path class="fil0" d="M4765.25 1804.52c-71.17,17.48 -135.08,85.96 -112.92,180.13 16.65,70.72 90.01,135.05 183.1,111.48 69.49,-17.6 129.77,-88.42 109.88,-178.42 -15.75,-71.29 -89.56,-135.4 -180.06,-113.19z"/>
  </g>
 </g>
</svg>
