<?xml version="1.0" encoding="UTF-8"?>
<!DOCTYPE svg PUBLIC "-//W3C//DTD SVG 1.1//EN" "http://www.w3.org/Graphics/SVG/1.1/DTD/svg11.dtd">
<!-- Creator: CorelDRAW -->
<svg xmlns="http://www.w3.org/2000/svg" xml:space="preserve" width="169.333mm" height="254mm" version="1.1" style="shape-rendering:geometricPrecision; text-rendering:geometricPrecision; image-rendering:optimizeQuality; fill-rule:evenodd; clip-rule:evenodd"
viewBox="0 0 16933.32 25400"
 xmlns:xlink="http://www.w3.org/1999/xlink"
 xmlns:xodm="http://www.corel.com/coreldraw/odm/2003">
 <defs>
  <style type="text/css">
   <![CDATA[
    .fil0 {fill:#255087}
    .fil1 {fill:#BE1C2C}
   ]]>
  </style>
 </defs>
 <g id="Layer_x0020_1">
  <metadata id="CorelCorpID_0Corel-Layer"/>
  <g id="_2550567137392">
   <path class="fil0" d="M8557.85 16428.78c-127.81,0 -189.31,-18.96 -285.52,-99.53 -121.35,-101.62 -141.69,-312.17 -72.63,-441.01 12.66,-23.61 50.18,-76.98 67.66,-94.46 147.46,-147.45 385.28,-136.62 526.5,3.8 236.09,234.72 46.27,631.2 -236.01,631.2zm-3597.05 -5978.2c0,-188.73 150.11,-364.77 324.24,-364.77 136.76,0 227.3,4.36 321.51,114.19 151.1,176.18 126.32,431.64 -90.03,573.24 -152.21,99.6 -555.72,46.08 -555.72,-322.66zm10466.92 -1651.02c-36.86,20.93 -75.88,58.04 -113.84,88.21 -102.93,81.81 -749.62,593.07 -775.51,630.61 37.36,79.45 -56.1,1018.37 -89.13,1200.02 -68.15,374.74 -151.72,697.02 -247.64,1059.46 -136.64,516.27 -369.63,1093.4 -611.25,1577.38 -27.44,54.96 -52.73,94.67 -77.77,145.15 -25.17,50.77 -46.49,95.75 -76.71,146.21l-488.61 818.48c-174.15,261.25 -359.77,516.11 -557.87,759.37l-252.02 295.13c-20.7,21.44 -36.84,33.9 -54.91,56.56 -117.1,146.77 -305.76,293.33 -441.78,429.61l-455.97 425.55c-183.51,184.13 -390.52,339.11 -598.88,495.43 -169.78,127.36 -336.8,244.99 -523.98,357.57 -185.53,111.57 -359.28,215.74 -544.59,326.79 -45.74,27.4 -87.45,53.48 -135.14,77.64 -54.73,27.73 -95.11,52.72 -145.31,77.61 -74.88,37.15 -225.7,123.53 -304.05,141.78l0 -739.67c59.98,-13.97 116.68,-58.72 175.55,-87.9 87.13,-43.18 166.55,-93.51 232.64,-162.53 110.09,-114.97 203.85,-242.5 267.77,-390.82 142.6,-330.91 122.67,-759.39 -62.04,-1066.99 -70.44,-117.32 -140.68,-198.99 -242.15,-284.75 -193.82,-163.8 -414.48,-296.5 -766.96,-297.01 -583.59,-0.84 -1052.14,404.12 -1164.6,942.99 -81.25,389.25 36.8,691.37 203.84,939.89 106.23,158.04 352.61,354.44 535.22,396.99l0 780.2c-54.38,-4.53 -260.78,-109.89 -310.75,-135.08 -393.84,-198.52 -766.53,-425.79 -1130.09,-673.51 -179.15,-122.07 -348.12,-259.89 -516.24,-395.69 -40,-32.32 -78.59,-72.06 -118.61,-104.3l-186.41 -158.09c-25.12,-23.93 -36.56,-29.41 -60.63,-50.84 -139.24,-124.04 -692.38,-667.42 -800.55,-790.25l-204.52 -241.32c-20.26,-25.88 -29.53,-33.52 -50.76,-60.7l-154.52 -189.98c-138.26,-170.75 -253.85,-348.21 -383.93,-528.01 -128.42,-177.5 -237.52,-364.28 -350.63,-551.14 -58.86,-97.21 -108.08,-190.38 -167.23,-288.75l-117.97 -216.4c-16.98,-31.54 -27.19,-43.71 -44.08,-77.51 -175.16,-350.51 -400.96,-931.02 -531.68,-1282.04 -213.98,-574.6 -333.44,-1221.5 -419.8,-1839.77 -24.63,-176.33 -55.26,-699.58 -54.92,-857.01 0.18,-74.32 0.31,-148.76 -0.12,-223.06 -0.46,-81.61 10.27,-133.43 10.27,-222.79 196.68,0 652.9,16.07 831.58,-9.42 65.76,-9.38 39.83,-89.55 39.83,-243.89 0,-198.49 10.12,-364.92 10.12,-557.29l0 -1702.26c0,-385.63 10.14,-747.65 10.14,-1124.71 74.59,-35.8 272.5,-77.07 364.83,-101.27 336.21,-88.13 674.52,-192.73 1011.26,-275.58 10.53,-2.58 31.11,-7.49 47.87,-12.92 26.6,-8.62 18.14,-9.22 45.26,-15.54l0 4356.99c-48.22,4.01 -132.71,58.86 -170.31,83.01l-154.03 109.42c-182,140.75 -339.18,417.81 -382.31,651.2 -66.84,361.67 45.19,800.92 308.53,1064.24 215.03,215 498.32,351.58 823.68,351.69 182.57,0.06 310.01,-20.62 443.03,-73.72 242.78,-96.93 437.02,-243.01 569.76,-463.76 68.13,-113.29 120.79,-220.33 158.13,-368.76 87.43,-347.51 -9.89,-724.75 -218.25,-998.89 -21.59,-28.4 -40.74,-41.97 -62.51,-69.21 -25.31,-31.67 -28.35,-41.21 -63.55,-68.17 -55.6,-42.61 -87.58,-79.1 -148.16,-115.3 -33.71,-20.14 -137.31,-83.57 -171.83,-91.61l-0.53 -3130.96 -0.15 -962.59 0.7 -1469.22c-24.56,11.78 -74.98,21.06 -102.57,29.17 -38.45,11.28 -72.99,21.26 -110.26,31.59 -350.47,97.06 -703.46,218.16 -1053.75,314.15 -67.86,18.6 -138.86,41.23 -208.87,64.71 -73.19,24.54 -137.29,38.54 -210.48,63.09 -209.6,70.3 -422.04,127.55 -634.47,186.26l-846.83 247.5c-73.2,20.78 -136.75,50.3 -206.92,66.65l-0.01 1428.7c-0.09,82.01 10.39,132.48 10.49,202.3l-0.58 1439.39c-0.31,74.17 10.37,119.5 10.37,202.42l-841.54 -0.52c-64.38,-0.79 -79.79,-7.85 -94.06,47.78 -7.79,30.38 -6.85,88.98 -6.74,135.12 0.77,331.43 -14.6,653.02 -10.52,983.27 0.71,57.5 10.79,70.09 10.88,130.98 0.5,367.14 44.1,720.9 80.71,1054.14 52.43,477.37 156.38,951.86 275.74,1416.38l342.35 1076.2c27.33,69.33 53.99,134.2 81.16,202.55 54.97,138.31 102.72,267.3 168.77,398.67 17.49,34.8 31.69,59.46 46.84,95.01 98.38,230.71 433.25,821.21 547.38,1013.03l224.06 333.22c261.24,361.1 441.24,624.55 737.64,964.63 26.74,30.7 35.44,45.71 66.11,75.75 31.31,30.67 38.85,42.91 66.38,75.46 45.78,54.12 86.56,97.71 136.29,147.43 205.53,205.52 423.9,448.65 643.88,632.82l530.88 451.98c348.67,283.95 955.38,720.24 1337.42,932.27l729.54 405.29c244.95,136.05 488.47,270.05 747.18,377.53 307.34,127.7 180.27,107.81 612.38,-68.06 199.57,-81.22 380.46,-183.04 572.23,-278.91l739.49 -395.35c34.88,-19.36 53.68,-35.47 87.98,-53.88 140.3,-75.29 467.36,-292.11 606.09,-386.9 272.82,-186.4 547.54,-395.93 803.79,-604.63l153.57 -130.13c54.96,-46.48 101.08,-81.46 151.5,-132.21l435.69 -415.44c97.07,-97.06 186.48,-186.67 283.86,-283.56 49.2,-48.95 81.51,-102.77 131.64,-152.09 220.83,-217.22 706.94,-879.42 862.73,-1113.11l222.97 -344.45c39.58,-60.23 71.9,-115.94 107.92,-175.78 35.16,-58.39 65.99,-120.67 102.71,-181.02 19.51,-32.05 31.15,-61.69 49.15,-92.7l144.78 -280.78c64.69,-129.36 119.75,-254.14 182.52,-384.91l87.97 -195.74c86.82,-198.31 163.43,-414.37 231.41,-619.72l136.88 -420.41c95.24,-292.43 156.47,-608.42 227.23,-907.62 94.9,-401.25 124.87,-828.91 177.16,-1241.39 55.67,-439.14 37.65,-939.92 37.65,-1380.33z"/>
   <path class="fil1" d="M8527.46 13743.65c-181.44,0 -364.78,-162.65 -364.78,-344.51 0,-125.62 7.09,-199.44 118.79,-306.77 234.2,-225.06 620.89,-38.37 620.89,276.38 0,203.85 -172.51,374.9 -374.9,374.9zm1357.75 -4883.88c-396.62,0 -489.21,-415.32 -301.62,-615.73 156.03,-166.7 386.4,-161.68 542,-19.82 23.43,21.36 55.95,70.07 70.68,101.57 106.22,227.05 -47.07,533.98 -311.06,533.98zm-4073.96 -3576.79l0.15 962.59 1925.72 -607.95 0 -1499.62 1631.33 0 0 3272.81c-67.41,45.14 -180.02,105.89 -234.65,150.39 -27.38,22.3 -40.69,40.53 -69.33,62.39 -73.78,56.35 -185.68,198.43 -229.78,286.97 -145.31,291.75 -193.29,510.29 -120.68,843.72 104.82,481.37 467.24,780.16 919.67,894.04 74.79,18.84 149.86,21.76 241.46,22.12 167.05,0.66 305.58,-40.14 428.56,-88.21 360.56,-140.97 615.17,-449.16 708.36,-841.92 66.7,-281.06 9.99,-592.92 -130.66,-846.33 -56.22,-101.31 -150.12,-209.05 -233.79,-282.98 -70.5,-62.28 -238.22,-192.83 -326.7,-200.19l0 -1469.22 1701.69 337.25 0.58 -1269.44c67.91,5.65 1340.62,379.09 1540.15,425.57l0 3597.05c-110.58,74.04 -216.12,169.63 -319.81,247.62l-316.21 251.21c-72.95,59.67 -142.21,110.4 -212.85,172.18 -149.72,130.9 -569.92,454.86 -749.21,588.29 -39.99,29.77 -68.15,54.69 -106.52,85.99 -71.27,58.17 -139.47,106.31 -208.18,166.74l-425.51 334.43c-342.68,279.98 -725.4,566.35 -1069.44,845.61 -142.74,115.87 -281.04,222.42 -423.71,336.23 -142.75,113.89 -281.29,221.43 -422.48,337.6 -72.76,59.88 -99,4.91 -239.01,-78.74 -198.09,-118.36 -361.45,-110.58 -537.42,-131.99 -38.47,-4.69 -48.12,4 -86.6,6.03 -149.19,7.86 -201.83,25.59 -320.42,64.75 -351.1,115.95 -636.57,442.03 -735.6,794.41 -110.98,394.91 17.64,864.53 303.28,1150.18 278.6,278.59 749.42,418.58 1141.44,304.68 387.69,-112.64 655.15,-361.98 799.88,-730.14 142.07,-361.43 -9.82,-328.43 129.96,-437.46 37.32,-29.1 68.84,-54.65 106.98,-85.53l4448.18 -3566.65c38.37,-31.08 69.08,-54.79 106.84,-85.69 38.25,-31.28 69.55,-58.96 111.45,-83.39 25.89,-37.54 672.58,-548.8 775.51,-630.61 37.96,-30.17 76.98,-67.28 113.84,-88.21 0,-118.41 0,-236.81 0,-355.23 0,-132.03 -10.14,-227.48 -10.14,-354.64l-891.67 0c-25.67,-110.19 -10.12,-1403.48 -10.12,-1631.34 0,-547.16 0,-1094.31 0,-1641.47 -37.07,-17.77 -154.1,-42.21 -206.18,-57.26 -75.38,-21.78 -137.31,-38.17 -212.9,-60.69 -144.07,-42.93 -279.52,-82.84 -420.67,-126.47 -139.09,-43 -275.22,-82.82 -422.44,-124.73l-1257.18 -374.15c-145.61,-43.41 -278.23,-82.12 -423.34,-123.82 -77.45,-22.25 -135.67,-39.56 -212.03,-61.55 -64.63,-18.6 -157.53,-39.49 -209.27,-64.31l0 1398.29c-63.96,0 -600.65,-116.65 -704.99,-136.02 -168.18,-31.21 -125.88,54.65 -125.88,-390.88 0,-455.96 0,-911.93 0,-1367.89 -1175.58,0 -2371.98,20.26 -3546.38,20.26l0 1641.48 -963.28 293.84z"/>
   <path class="fil0" d="M5984.18 22052.34l290.41 -125.04c113.71,-49.84 84.5,14.91 84.5,-401.86 385.42,0 256.71,-70.28 508.57,322.3 15.96,24.86 28.34,40.61 44.45,67.02 30.6,50.19 59.93,89.57 85.33,137.58l435.7 0c-9.63,-36.1 -346.17,-551.74 -385.51,-617.61 -20.85,-34.91 -44.45,-67.71 -68.43,-103.83 -17.72,-26.69 -48.67,-89.17 -83.08,-89.17l-537.03 0c0,-296.54 33.18,-253.31 -121.59,-253.31l0 -526.89 -253.32 0 0 1590.81z"/>
   <path class="fil0" d="M9216.46 22052.34c54.66,-28.91 114.77,-50.49 175.72,-77.61 39.1,-17.39 153.82,-71.45 189.05,-74.38l0 -374.91 293.85 0c27.52,0 37.48,29.49 50.87,50.46l303.77 476.44 435.7 0c-52.27,-98.81 -192.46,-304.34 -257.59,-411.16 -34.06,-55.87 -234.71,-399.45 -279.44,-399.45l-547.16 0 0 -253.31 -121.59 0 0 -526.89 -243.18 0 0 1590.81z"/>
   <path class="fil1" d="M10969.4 21049.22l101.33 0 0 212.78 334.37 0 0 121.59 597.81 0c37.33,0 66.34,-110.16 91.2,-172.26 17.52,-43.76 69.86,-155 70.93,-202.64l-830.87 0 0 -273.58 810.6 0c23.34,0 30.39,-7.05 30.39,-30.4l0 -344.51 -1205.76 0 0 689.02z"/>
   <path class="fil0" d="M14120.62 22042.2l1388.15 0c11.72,-43.87 152.8,-216.74 189.74,-266.23 20.06,-26.89 56.16,-70.77 63.58,-98.54l-922.06 0c96.9,-144.71 264.14,-346.22 364.77,-496.5l-172.25 0c35.53,-67.15 81.9,-114.74 125.66,-178.31 29.5,-42.86 117.41,-148.15 127.64,-186.46l-273.58 0 -668.74 911.93c-23.29,30.94 -214.41,282.27 -222.91,314.11z"/>
   <path class="fil0" d="M12286.63 22042.2l1388.15 0 263.44 -364.77 -922.05 0 266.23 -372.12c31.43,-42.14 64.73,-79.63 88.41,-124.38l-172.25 0 263.44 -364.77 -283.72 0 -108.57 154.88c-39.98,53.21 -71.49,98.76 -111.45,151.98l-222.85 304.05c-40.07,53.23 -71.43,98.8 -111.45,151.99l-337.33 463.14z"/>
   <path class="fil0" d="M4981.06 22072.6c143.83,0 219.05,-20.61 328.73,-66.46 72.1,-30.13 180.67,-100.07 218.43,-156.46 -9.06,-13.52 -126.19,-121.23 -141.85,-131.71 -58.7,15.66 -123.82,151.98 -435.7,151.98 0,-188.01 10.91,-152.82 -57.48,-165.44 -25.04,-4.62 -53.56,-15.45 -75.79,-25.53 -46.01,-20.89 -78.33,-45.71 -112.64,-79.88 -177.77,-177.06 -128.99,-394.03 -128.99,-661.35 0,-131.72 0,-263.44 0,-395.17l-354.65 -151.98c0,202.64 0,405.3 0,607.95 0,374.07 -28.88,653 302.47,913.45 99.21,77.98 282.28,160.6 457.47,160.6z"/>
   <path class="fil1" d="M2427.67 21160.67c0,93.03 12.44,156.01 30.4,233.05 22.79,-10.94 99.81,-27.74 131.72,-30.4 5.05,60.7 57.08,163.39 86.9,206.95 40.26,58.82 84.71,115.18 146.15,147.7 24.82,-18.19 125.2,-178.25 131.72,-202.66 -54.47,-81.35 -162.12,-124.37 -162.12,-374.9 0,-205 201.78,-415.44 405.3,-415.44 206.18,0 157.9,33.44 243.18,40.53l131.73 -212.78c57.67,4.8 167.19,106.82 205.13,149.51 40.22,45.26 114.38,161.6 129.24,225.4 45.83,-1.03 40.26,-10.14 91.2,-10.14 -2.59,-116.03 -158.03,-311.51 -266.32,-392.31 -405.92,-302.87 -919.74,-182.19 -1160.56,171.21 -89.3,131.03 -143.67,284.87 -143.67,464.28z"/>
   <path class="fil0" d="M998.98 22052.34l374.91 0 0 -476.24 496.49 0c36.92,0 60.75,-101.16 89.74,-173.69 23.35,-58.41 58.41,-131.11 72.38,-191.08 -131.73,0 -263.44,0 -395.17,0 -145.26,0 -254.18,-10.12 -395.17,-10.12l0 -618.09 -243.18 0 0 1469.22z"/>
   <path class="fil0" d="M3481.46 20887.09c19.91,27.2 67.76,55.47 111.78,141.53 191.84,375.08 -192.11,792.97 -598.14,598.15 -43.29,81.79 -98.58,151.25 -141.87,233.05 -76.9,-51.5 -132.49,-89.33 -195,-159.65 -36.04,-40.56 -124.11,-163.86 -129.23,-225.38 -45.83,1.01 -40.27,10.12 -91.2,10.12 5.13,61.55 68.53,172.31 99.69,214.41 134.08,181.09 362.85,342.88 619.72,342.88 263.45,0 437.26,-58.23 620.67,-240.59 167.43,-166.46 230.46,-352.11 230.46,-620.68 0,-73.87 -18.91,-111.28 -20.26,-172.24 -38.36,8.93 -104.07,27.25 -141.85,30.39 -27.36,-117.42 -143.52,-330.73 -233.06,-354.64 -24.59,18.02 -123.39,166.94 -131.71,202.65z"/>
   <polygon class="fil0" points="7554.73,20816.16 8071.49,20816.16 8071.49,22042.2 8446.4,22042.2 8446.4,21120.14 8314.67,21120.14 8314.67,20572.98 7919.5,20572.98 7919.5,20451.39 7554.73,20451.39 "/>
   <path class="fil1" d="M12479.14 20724.97l1165.24 0c-28.53,42.62 -243.7,328.8 -253.31,364.77l182.38 0c8.5,-31.8 42.5,-65.31 60.74,-91.25 23.29,-33.13 42.46,-59.85 68.1,-94.02l334.31 -456.03c23.38,-31.04 53.66,-60.56 63.75,-98.38l-1621.21 0 0 374.91z"/>
   <path class="fil1" d="M14313.13 20724.97l1165.24 0 -128.93 175.04c-30.89,41.39 -114.56,147.57 -124.38,189.73 234.35,0 131.66,45.15 403.88,-315.54l231.58 -315.56c29.98,-39.91 50.68,-64.85 73.82,-108.58l-1621.21 0 0 374.91z"/>
   <path class="fil1" d="M9560.97 20897.22l121.59 0 0 -162.11 466.1 0c160.99,0 222.5,324.23 -50.67,324.23l-425.56 0 0 91.2 557.29 0c29.82,0 131.73,172.38 151.99,202.65 126.73,-33.84 273.58,-256.17 273.58,-435.7 0,-112.35 -5.07,-162.55 -53.75,-260.36 -81.13,-163.01 -266.93,-296.93 -493.41,-296.93l-547.16 0 0 537.02z"/>
   <path class="fil1" d="M6328.69 20390.6l0 506.62 121.59 0 0 -162.11 466.1 0c175.48,0 205.21,324.23 -30.39,324.23l-435.71 0 0 91.2 547.16 0c37.12,0 120.63,155.83 151.99,202.65 116.94,-27.25 273.58,-240.44 273.58,-425.56 0,-163.43 -36.76,-320.58 -170.69,-427.15 -118.29,-94.15 -212.07,-140.28 -386.59,-140.28l-506.64 0c-23.35,0 -30.4,7.05 -30.4,30.4z"/>
   <path class="fil0" d="M10868.07 22052.34l1205.78 0 0 -374.91 -830.87 0 0 -192.52 70.93 0c0,-172.11 57.25,-131.72 -334.38,-131.72l0 -202.65 -111.46 0 0 901.8z"/>
   <path class="fil1" d="M5366.11 21332.92c0,79.37 -61.63,178.03 -103.57,220.68 -64.11,65.23 -118.81,89.96 -220.68,113.7l0 101.32c179.19,0 278.99,-145.29 334.37,-182.38 65.62,43.93 116.67,114.77 172.26,151.99 33.99,-24.91 81.67,-118.3 101.33,-162.13 23.12,-51.54 50.66,-148.49 50.66,-222.91l0 -962.59 -334.37 0 0 942.32z"/>
   <path class="fil1" d="M1100.31 20461.53c0,51.46 93.06,30.4 233.05,30.4l0 618.08 131.72 0 0 -374.9 841 0 0 -364.77 -1205.77 0 0 91.19z"/>
   <path class="fil1" d="M8010.7 20481.79l395.16 0 0 537.03 131.73 0 0 -293.85c406.92,0 365.77,31.57 408.25,-78.1l118.63 -296.81 -1053.77 0 0 131.73z"/>
  </g>
 </g>
</svg>
