<?xml version="1.0" encoding="UTF-8"?>
<svg id="Layer_1" data-name="Layer 1" xmlns="http://www.w3.org/2000/svg" viewBox="0 0 3000 1080">
  <path d="M1416.98,717.35v-331.34h-35.48v-71.45h73.36v46.03h20.14c9.91-16.62,23.33-29.41,40.28-38.36,16.94-8.95,37.4-13.43,61.38-13.43,29.41,0,54.34,6.16,74.8,18.46,20.46,12.31,35.96,29.65,46.51,52.03,10.55,22.38,15.82,48.75,15.82,79.12s-5.2,56.74-15.58,79.12c-10.39,22.38-25.34,39.72-44.83,52.03-19.5,12.31-43,18.46-70.49,18.46-21.74,0-40.44-4.15-56.1-12.47-15.67-8.31-27.81-19.98-36.44-35h-1.92v156.8h-71.45ZM605.65,607.54c-33.57,0-59.86-8.15-78.88-24.45-19.02-16.3-28.53-37.88-28.53-64.73s9.67-49.87,29.01-65.21c19.34-15.34,47.23-23.02,83.67-23.02h87.75v-11.51c0-35.16-20.46-52.75-61.38-52.75-34.85,0-55.79,12.47-62.82,37.4h-71.45c6.07-30.69,20.62-54.1,43.64-70.25,23.02-16.14,53.23-24.21,90.63-24.21,42.2,0,74.32,9.51,96.38,28.53,22.06,19.02,33.09,46.75,33.09,83.19v110.29h34.04v71.45h-73.36v-46.03h-20.14c-9.91,16.3-23.26,28.93-40.04,37.88-16.78,8.95-37.32,13.43-61.62,13.43h0ZM1856.2,607.54c-33.57,0-59.86-8.15-78.88-24.45-19.02-16.3-28.53-37.88-28.53-64.73s9.67-49.87,29.01-65.21c19.34-15.34,47.23-23.02,83.67-23.02h87.75v-11.51c0-35.16-20.46-52.75-61.38-52.75-34.85,0-55.79,12.47-62.82,37.4h-71.45c6.07-30.69,20.62-54.1,43.63-70.25,23.02-16.14,53.23-24.21,90.63-24.21,42.2,0,74.32,9.51,96.38,28.53,22.06,19.02,33.09,46.75,33.09,83.19v110.29h34.04v71.45h-73.36v-46.03h-20.14c-9.91,16.3-23.26,28.93-40.04,37.88-16.78,8.95-37.32,13.43-61.62,13.43h0ZM2416.75,607.54c-33.57,0-59.86-8.15-78.88-24.45-19.02-16.3-28.53-37.88-28.53-64.73s9.67-49.87,29.01-65.21c19.34-15.34,47.23-23.02,83.67-23.02h87.75v-11.51c0-35.16-20.46-52.75-61.38-52.75-34.85,0-55.79,12.47-62.82,37.4h-71.45c6.07-30.69,20.62-54.1,43.64-70.25,23.02-16.14,53.23-24.21,90.63-24.21,42.2,0,74.32,9.51,96.38,28.53,22.06,19.02,33.09,46.75,33.09,83.19v110.29h34.04v71.45h-73.36v-46.03h-20.14c-9.91,16.3-23.26,28.93-40.04,37.88-16.78,8.95-37.32,13.43-61.62,13.43h0ZM2114.66,602.27v-216.26h-35.48v-71.45h72.88v55.62h20.14c7.99-19.18,20.3-33.72,36.92-43.63,16.62-9.91,35.64-14.86,57.06-14.86h23.98v61.38h-27.33c-26.21,0-45.72,7.51-58.5,22.54-12.79,15.03-19.18,35-19.18,59.94v146.73h-70.49ZM2670.41,602.27v-216.26h-35.48v-71.45h73.36v46.03h20.14c10.87-16.3,24.77-28.93,41.72-37.88,16.94-8.95,37.72-13.43,62.34-13.43,39.32,0,69.77,10.87,91.35,32.61,21.58,21.74,32.37,50.67,32.37,86.79v173.58h-71.45v-160.15c0-22.69-5.99-39.96-17.98-51.79-11.99-11.82-29.81-17.74-53.47-17.74s-40.68,5.92-52.99,17.74c-12.31,11.83-18.46,29.09-18.46,51.79v160.15h-71.45ZM859.31,602.27v-216.26h-35.48v-71.45h73.36v46.03h21.58c9.59-16.3,22.46-28.93,38.6-37.88,16.14-8.95,36.04-13.43,59.7-13.43s42.2,4.24,58.5,12.71c16.3,8.47,29.41,21.02,39.32,37.64h1.44c21.41-33.57,54.34-50.35,98.78-50.35,36.76,0,65.69,10.63,86.79,31.89,21.1,21.26,31.65,50.11,31.65,86.55v174.54h-71.45v-161.59c0-45.39-21.74-68.09-65.21-68.09s-64.73,22.7-64.73,68.09v161.59h-71.45v-161.59c0-45.39-21.9-68.09-65.69-68.09-21.1,0-37.08,5.68-47.95,17.02-10.87,11.35-16.3,28.37-16.3,51.07v161.59h-71.45ZM115.98,213.87h48.53v155.36h200.91v-155.36h72.88v388.4h-72.88v-169.75h-200.91v169.75h-73.36V231.01h-47.85v-68.42h72.69v51.27h0ZM616.2,552.4c15.66,0,29.73-2.95,42.2-8.87,12.47-5.91,22.3-13.91,29.49-23.98,7.19-10.07,10.79-21.34,10.79-33.81v-6.71h-83.91c-32.29,0-48.43,11.99-48.43,35.96,0,11.83,4.39,21.02,13.19,27.57,8.79,6.55,21.02,9.83,36.68,9.83h0ZM1866.75,552.4c15.66,0,29.73-2.95,42.2-8.87,12.47-5.91,22.3-13.91,29.49-23.98,7.19-10.07,10.79-21.34,10.79-33.81v-6.71h-83.91c-32.29,0-48.43,11.99-48.43,35.96,0,11.83,4.39,21.02,13.19,27.57,8.79,6.55,21.02,9.83,36.68,9.83h0ZM2427.3,552.4c15.66,0,29.73-2.95,42.2-8.87,12.47-5.91,22.3-13.91,29.49-23.98,7.19-10.07,10.79-21.34,10.79-33.81v-6.71h-83.91c-32.29,0-48.43,11.99-48.43,35.96,0,11.83,4.39,21.02,13.19,27.57,8.79,6.55,21.02,9.83,36.68,9.83h0ZM1563.71,546.17c25.89,0,45.47-7.75,58.74-23.26,13.26-15.5,19.9-37,19.9-64.49s-6.64-48.99-19.9-64.49c-13.27-15.5-32.85-23.26-58.74-23.26-22.7,0-40.92,6.47-54.66,19.42-13.75,12.95-20.62,30.45-20.62,52.51v31.65c0,22.06,6.87,39.56,20.62,52.51,13.74,12.95,31.96,19.42,54.66,19.42h0Z" style="fill: #ee275e;"/>
  <g>
    <path d="M123.29,896.17c-9.78,0-17.58-2.14-23.4-6.43-5.82-4.28-9.01-10.2-9.59-17.74h9.88c.13,5.12,2.23,9.08,6.28,11.89,4.06,2.81,9.77,4.22,17.12,4.22,6.46,0,11.43-1.18,14.91-3.55,3.49-2.36,5.23-5.85,5.23-10.45,0-3.58-1.23-6.54-3.69-8.87-2.46-2.34-6.09-3.95-10.88-4.84l-14.48-2.78c-6.52-1.28-11.54-3.64-15.06-7.1-3.51-3.45-5.27-7.73-5.27-12.85,0-6.58,2.46-11.81,7.38-15.68,4.92-3.87,11.6-5.8,20.04-5.8s15.56,2.03,20.95,6.09c5.4,4.06,8.55,9.7,9.45,16.93h-9.88c-1.98-9.97-8.98-14.96-21-14.96-5.62,0-10.02,1.1-13.19,3.31-3.16,2.21-4.75,5.36-4.75,9.45,0,6.65,4.73,10.9,14.19,12.75l15.06,2.97c6.59,1.28,11.59,3.68,15.01,7.19,3.42,3.51,5.13,8.02,5.13,13.52,0,7.16-2.62,12.74-7.86,16.73-5.24,3.99-12.43,5.99-21.58,5.99h0Z" style="fill: #fff;"/>
    <path d="M179.49,895.02v-57.54h9.01v57.54h-9.01ZM183.99,828.85c-1.6,0-2.95-.56-4.08-1.68-1.12-1.12-1.68-2.48-1.68-4.08s.56-2.96,1.68-4.08c1.12-1.12,2.48-1.68,4.08-1.68s2.96.56,4.08,1.68c1.12,1.12,1.68,2.48,1.68,4.08s-.56,2.96-1.68,4.08c-1.12,1.12-2.47,1.68-4.08,1.68h0Z" style="fill: #fff;"/>
    <path d="M219.09,895.02v-47.95h-4.8v-9.59h9.97v8.63h4.8c1.53-3.13,3.87-5.53,7-7.19,3.14-1.66,6.88-2.49,11.22-2.49s8.3.93,11.46,2.78c3.16,1.86,5.68,4.73,7.53,8.63h.29c3.9-7.61,10.55-11.41,19.95-11.41,6.9,0,12.29,2,16.16,5.99,3.87,3.99,5.8,9.54,5.8,16.64v35.96h-9.01v-34.81c0-10.61-5.21-15.92-15.63-15.92s-15.54,5.31-15.54,15.92v34.81h-9.01v-34.81c0-10.61-5.21-15.92-15.63-15.92-5.05,0-8.9,1.36-11.56,4.08-2.65,2.72-3.98,6.67-3.98,11.84v34.81h-9.01Z" style="fill: #fff;"/>
    <path d="M338.01,918.04v-70.97h-4.8v-9.59h9.97v8.63h4.03c1.92-3.2,4.51-5.62,7.77-7.29,3.26-1.66,7.19-2.49,11.8-2.49,5.69,0,10.55,1.2,14.58,3.6,4.03,2.4,7.12,5.84,9.25,10.31,2.14,4.47,3.21,9.82,3.21,16.02s-1.05,11.54-3.16,16.02-5.13,7.91-9.06,10.31c-3.93,2.4-8.61,3.6-14.05,3.6-4.67,0-8.74-.94-12.23-2.83-3.48-1.88-6.12-4.59-7.91-8.1h-.38v32.8h-9.01ZM365.54,888.5c6.08,0,10.81-1.95,14.19-5.85,3.39-3.9,5.08-9.36,5.08-16.4s-1.69-12.5-5.08-16.4c-3.39-3.9-8.12-5.85-14.19-5.85-5.56,0-10.04,1.6-13.43,4.8-3.39,3.2-5.08,7.45-5.08,12.75v9.4c0,5.31,1.7,9.56,5.08,12.75,3.39,3.2,7.86,4.8,13.43,4.8h0Z" style="fill: #fff;"/>
    <polygon points="419.24 895.02 419.24 814.47 428.26 814.47 428.26 895.02 419.24 895.02 419.24 895.02" style="fill: #fff;"/>
    <path d="M457.6,895.02v-57.54h9.01v57.54h-9.01ZM462.11,828.85c-1.6,0-2.95-.56-4.08-1.68-1.12-1.12-1.68-2.48-1.68-4.08s.56-2.96,1.68-4.08c1.12-1.12,2.48-1.68,4.08-1.68s2.96.56,4.08,1.68c1.12,1.12,1.68,2.48,1.68,4.08s-.56,2.96-1.68,4.08c-1.12,1.12-2.47,1.68-4.08,1.68h0Z" style="fill: #fff;"/>
    <path d="M500.95,895.02v-50.64h-12.18v-6.9h12.28v-14.39c0-2.88.82-5.03,2.45-6.47,1.63-1.44,3.82-2.16,6.57-2.16h15.73v6.9h-15.92v16.11h14.77v6.9h-14.67v50.64h-9.01Z" style="fill: #fff;"/>
    <path d="M543.91,918.04v-7.1h14.29l6.52-15.54-26.18-57.92h9.3l20.91,46.99h.48l19.85-46.99h8.63l-24.45,57.54-6.14,14.39c-1.15,2.62-2.21,4.71-3.16,6.28-.96,1.57-2.84,2.35-5.66,2.35h-14.39Z" style="fill: #fff;"/>
    <path d="M618.71,895.02v-57.54h9.01v57.54h-9.01ZM623.22,828.85c-1.6,0-2.95-.56-4.08-1.68-1.12-1.12-1.68-2.48-1.68-4.08s.56-2.96,1.68-4.08c1.12-1.12,2.48-1.68,4.08-1.68s2.96.56,4.08,1.68c1.12,1.12,1.68,2.48,1.68,4.08s-.56,2.96-1.68,4.08c-1.12,1.12-2.47,1.68-4.08,1.68h0Z" style="fill: #fff;"/>
    <path d="M658.32,895.02v-47.95h-4.8v-9.59h9.97v8.63h4.03c1.92-3.2,4.62-5.61,8.1-7.24,3.49-1.63,7.47-2.45,11.94-2.45,7.23,0,12.98,2.11,17.26,6.33,4.29,4.22,6.43,9.84,6.43,16.88v35.39h-9.01v-34.04c0-5.43-1.49-9.58-4.46-12.42-2.97-2.84-7.3-4.27-12.99-4.27s-9.94,1.42-12.95,4.27c-3,2.84-4.51,6.99-4.51,12.42v34.04h-9.01Z" style="fill: #fff;"/>
    <path d="M762.76,919.19c-7.73,0-14.03-1.63-18.89-4.89-4.86-3.26-7.73-7.77-8.63-13.52h9.59c1.79,7.03,7.77,10.55,17.93,10.55,6.33,0,11.19-1.5,14.58-4.51,3.39-3.01,5.08-7.32,5.08-12.95v-9.78h-.48c-1.47,3.45-3.93,6.14-7.38,8.06s-7.48,2.88-12.08,2.88c-5.5,0-10.26-1.2-14.29-3.6-4.03-2.4-7.13-5.79-9.3-10.17-2.17-4.38-3.26-9.58-3.26-15.58,0-9.01,2.43-16.16,7.29-21.43,4.86-5.27,11.45-7.91,19.76-7.91,4.6,0,8.54.83,11.8,2.49,3.26,1.66,5.85,4.09,7.77,7.29h4.03v-8.63h9.97v9.59h-4.8v47.47c0,7.73-2.51,13.78-7.53,18.13-5.02,4.35-12.06,6.52-21.15,6.52h0ZM764.58,887.16c5.31,0,9.61-1.57,12.9-4.7,3.29-3.13,4.94-7.25,4.94-12.37v-8.82c0-5.12-1.64-9.24-4.94-12.37-3.29-3.13-7.59-4.7-12.9-4.7-6.2,0-11.08,1.88-14.62,5.66-3.55,3.77-5.32,9.05-5.32,15.82s1.77,12.05,5.32,15.82c3.55,3.77,8.43,5.66,14.62,5.66h0Z" style="fill: #fff;"/>
    <polygon points="893.47 895.02 884.27 895.02 884.27 825.21 855.69 825.21 855.69 817.34 922.05 817.34 922.05 825.21 893.47 825.21 893.47 895.02 893.47 895.02" style="fill: #fff;"/>
    <path d="M960.22,896.17c-5.88,0-11-1.23-15.34-3.69-4.34-2.46-7.7-5.96-10.07-10.5-2.36-4.54-3.55-9.84-3.55-15.92s1.18-11.33,3.55-15.78c2.37-4.45,5.69-7.88,9.97-10.31,4.29-2.43,9.3-3.64,15.06-3.64,5.44,0,10.14,1.1,14.1,3.31,3.97,2.21,7.05,5.32,9.25,9.35,2.21,4.03,3.31,8.79,3.31,14.29v4.03h-46.61c.26,6.58,2.19,11.73,5.8,15.44,3.62,3.71,8.42,5.56,14.43,5.56,4.16,0,7.69-.9,10.6-2.69,2.91-1.79,4.91-4.38,5.99-7.77h9.21c-1.47,5.82-4.46,10.32-8.97,13.52-4.51,3.2-10.08,4.8-16.73,4.8h0ZM940.37,860.4h37.4c-.45-5.18-2.27-9.21-5.47-12.08-3.19-2.88-7.38-4.32-12.56-4.32s-9.48,1.44-12.9,4.32c-3.42,2.88-5.58,6.9-6.47,12.08h0Z" style="fill: #fff;"/>
    <path d="M1036.56,896.17c-5.82,0-10.87-1.23-15.15-3.69-4.28-2.46-7.59-5.93-9.93-10.41-2.33-4.47-3.5-9.75-3.5-15.82s1.15-11.35,3.45-15.82c2.3-4.47,5.6-7.95,9.88-10.41,4.29-2.46,9.37-3.69,15.25-3.69,6.84,0,12.56,1.68,17.17,5.03,4.6,3.36,7.71,8.26,9.3,14.72h-9.21c-1.15-4.09-3.16-7.1-6.04-9.01-2.88-1.92-6.62-2.88-11.22-2.88-6.2,0-11.01,1.93-14.43,5.8-3.42,3.87-5.13,9.29-5.13,16.26s1.71,12.31,5.13,16.21c3.42,3.9,8.23,5.85,14.43,5.85,9.59,0,15.47-4.28,17.65-12.85h9.21c-1.53,6.78-4.63,11.93-9.3,15.44-4.67,3.51-10.52,5.27-17.55,5.27h0Z" style="fill: #fff;"/>
    <path d="M1085.08,895.02v-80.56h9.01v32.61h.38c1.86-3.45,4.49-6.09,7.91-7.91,3.42-1.82,7.4-2.73,11.94-2.73,7.23,0,12.98,2.11,17.26,6.33,4.29,4.22,6.43,9.84,6.43,16.88v35.39h-9.01v-34.04c0-5.43-1.49-9.58-4.46-12.42-2.97-2.84-7.3-4.27-12.99-4.27s-9.94,1.42-12.95,4.27c-3,2.84-4.51,6.99-4.51,12.42v34.04h-9.01Z" style="fill: #fff;"/>
    <path d="M1167.56,895.02v-47.95h-4.8v-9.59h9.97v8.63h4.03c1.92-3.2,4.62-5.61,8.1-7.24,3.49-1.63,7.47-2.45,11.94-2.45,7.23,0,12.98,2.11,17.26,6.33,4.29,4.22,6.43,9.84,6.43,16.88v35.39h-9.01v-34.04c0-5.43-1.49-9.58-4.46-12.42-2.97-2.84-7.3-4.27-12.99-4.27s-9.94,1.42-12.95,4.27c-3,2.84-4.51,6.99-4.51,12.42v34.04h-9.01Z" style="fill: #fff;"/>
    <path d="M1273.91,896.17c-5.88,0-11-1.23-15.34-3.69-4.34-2.46-7.72-5.93-10.12-10.41-2.4-4.47-3.6-9.75-3.6-15.82s1.18-11.35,3.55-15.82c2.37-4.47,5.74-7.95,10.12-10.41,4.38-2.46,9.51-3.69,15.39-3.69s11.17,1.21,15.49,3.64c4.32,2.43,7.66,5.88,10.02,10.36,2.37,4.47,3.55,9.78,3.55,15.92s-1.18,11.36-3.55,15.87c-2.36,4.51-5.72,7.97-10.07,10.41-4.34,2.43-9.49,3.64-15.44,3.64h0ZM1273.91,888.31c6.33,0,11.25-1.93,14.77-5.8,3.52-3.87,5.27-9.29,5.27-16.26s-1.75-12.47-5.27-16.3c-3.51-3.84-8.44-5.75-14.77-5.75s-11.17,1.93-14.72,5.8c-3.55,3.87-5.32,9.29-5.32,16.26s1.77,12.39,5.32,16.26c3.55,3.87,8.46,5.8,14.72,5.8h0Z" style="fill: #fff;"/>
    <polygon points="1328.38 895.02 1328.38 814.47 1337.4 814.47 1337.4 895.02 1328.38 895.02 1328.38 895.02" style="fill: #fff;"/>
    <path d="M1391.87,896.17c-5.88,0-10.99-1.23-15.34-3.69-4.34-2.46-7.72-5.93-10.12-10.41-2.4-4.47-3.6-9.75-3.6-15.82s1.18-11.35,3.55-15.82c2.37-4.47,5.74-7.95,10.12-10.41,4.38-2.46,9.51-3.69,15.39-3.69s11.17,1.21,15.49,3.64c4.32,2.43,7.66,5.88,10.02,10.36,2.37,4.47,3.55,9.78,3.55,15.92s-1.18,11.36-3.55,15.87c-2.36,4.51-5.72,7.97-10.07,10.41-4.34,2.43-9.49,3.64-15.44,3.64h0ZM1391.87,888.31c6.33,0,11.25-1.93,14.77-5.8,3.52-3.87,5.27-9.29,5.27-16.26s-1.75-12.47-5.27-16.3c-3.51-3.84-8.44-5.75-14.77-5.75s-11.17,1.93-14.72,5.8c-3.55,3.87-5.32,9.29-5.32,16.26s1.77,12.39,5.32,16.26c3.55,3.87,8.46,5.8,14.72,5.8h0Z" style="fill: #fff;"/>
    <path d="M1469.55,919.19c-7.73,0-14.03-1.63-18.89-4.89-4.86-3.26-7.73-7.77-8.63-13.52h9.59c1.79,7.03,7.77,10.55,17.93,10.55,6.33,0,11.19-1.5,14.58-4.51,3.39-3.01,5.08-7.32,5.08-12.95v-9.78h-.48c-1.47,3.45-3.93,6.14-7.38,8.06-3.45,1.92-7.48,2.88-12.08,2.88-5.5,0-10.26-1.2-14.29-3.6-4.03-2.4-7.13-5.79-9.3-10.17-2.17-4.38-3.26-9.58-3.26-15.58,0-9.01,2.43-16.16,7.29-21.43,4.86-5.27,11.45-7.91,19.76-7.91,4.6,0,8.54.83,11.8,2.49,3.26,1.66,5.85,4.09,7.77,7.29h4.03v-8.63h9.97v9.59h-4.8v47.47c0,7.73-2.51,13.78-7.53,18.13-5.02,4.35-12.06,6.52-21.15,6.52h0ZM1471.37,887.16c5.31,0,9.61-1.57,12.9-4.7,3.29-3.13,4.94-7.25,4.94-12.37v-8.82c0-5.12-1.64-9.24-4.94-12.37-3.29-3.13-7.59-4.7-12.9-4.7-6.2,0-11.08,1.88-14.63,5.66-3.55,3.77-5.32,9.05-5.32,15.82s1.77,12.05,5.32,15.82c3.55,3.77,8.43,5.66,14.63,5.66h0Z" style="fill: #fff;"/>
    <path d="M1525.94,918.04v-7.1h14.29l6.52-15.54-26.18-57.92h9.3l20.91,46.99h.48l19.85-46.99h8.63l-24.45,57.54-6.14,14.39c-1.15,2.62-2.21,4.71-3.16,6.28s-2.84,2.35-5.66,2.35h-14.39Z" style="fill: #fff;"/>
    <path d="M1587.41,910.17v-5.75h3.45c1.66,0,2.94-.43,3.84-1.29.9-.86,1.34-2.16,1.34-3.88v-4.22h-5.18v-11.51h11.51v15.73c0,3.45-.94,6.14-2.83,8.06-1.88,1.92-4.58,2.88-8.1,2.88h-4.03Z" style="fill: #fff;"/>
    <path d="M1661.45,895.02l33.47-77.68h10.65l33.37,77.68h-9.21l-10.55-24.55h-38.17l-10.55,24.55h-9.01ZM1683.99,862.42h32.22l-15.82-37.02h-.48l-15.92,37.02h0Z" style="fill: #fff;"/>
    <path d="M1761.19,895.02v-47.95h-4.79v-9.59h9.97v8.63h4.79c1.53-3.13,3.87-5.53,7-7.19,3.14-1.66,6.88-2.49,11.22-2.49s8.3.93,11.46,2.78c3.16,1.86,5.68,4.73,7.53,8.63h.29c3.9-7.61,10.55-11.41,19.95-11.41,6.9,0,12.29,2,16.16,5.99,3.87,3.99,5.8,9.54,5.8,16.64v35.96h-9.01v-34.81c0-10.61-5.21-15.92-15.63-15.92s-15.54,5.31-15.54,15.92v34.81h-9.01v-34.81c0-10.61-5.21-15.92-15.63-15.92-5.05,0-8.9,1.36-11.56,4.08-2.65,2.72-3.98,6.67-3.98,11.84v34.81h-9.01Z" style="fill: #fff;"/>
    <path d="M1880.1,918.04v-70.97h-4.8v-9.59h9.97v8.63h4.03c1.92-3.2,4.51-5.62,7.77-7.29,3.26-1.66,7.19-2.49,11.8-2.49,5.69,0,10.55,1.2,14.58,3.6,4.03,2.4,7.12,5.84,9.25,10.31,2.14,4.47,3.21,9.82,3.21,16.02s-1.05,11.54-3.16,16.02c-2.11,4.47-5.13,7.91-9.06,10.31-3.93,2.4-8.61,3.6-14.05,3.6-4.67,0-8.74-.94-12.23-2.83-3.48-1.88-6.12-4.59-7.91-8.1h-.38v32.8h-9.01ZM1907.63,888.5c6.08,0,10.81-1.95,14.19-5.85,3.39-3.9,5.08-9.36,5.08-16.4s-1.69-12.5-5.08-16.4c-3.39-3.9-8.12-5.85-14.19-5.85-5.56,0-10.04,1.6-13.43,4.8-3.39,3.2-5.08,7.45-5.08,12.75v9.4c0,5.31,1.7,9.56,5.08,12.75,3.39,3.2,7.86,4.8,13.43,4.8h0Z" style="fill: #fff;"/>
    <polygon points="1961.33 895.02 1961.33 814.47 1970.35 814.47 1970.35 895.02 1961.33 895.02 1961.33 895.02" style="fill: #fff;"/>
    <path d="M1999.69,895.02v-57.54h9.01v57.54h-9.01ZM2004.2,828.85c-1.6,0-2.95-.56-4.08-1.68-1.12-1.12-1.68-2.48-1.68-4.08s.56-2.96,1.68-4.08c1.12-1.12,2.48-1.68,4.08-1.68s2.96.56,4.08,1.68c1.12,1.12,1.68,2.48,1.68,4.08s-.56,2.96-1.68,4.08c-1.12,1.12-2.47,1.68-4.08,1.68h0Z" style="fill: #fff;"/>
    <path d="M2043.04,895.02v-50.64h-12.18v-6.9h12.28v-14.39c0-2.88.82-5.03,2.45-6.47,1.63-1.44,3.82-2.16,6.57-2.16h15.73v6.9h-15.92v16.11h14.77v6.9h-14.67v50.64h-9.01Z" style="fill: #fff;"/>
    <path d="M2086,918.04v-7.1h14.29l6.52-15.54-26.18-57.92h9.3l20.91,46.99h.48l19.85-46.99h8.63l-24.45,57.54-6.14,14.39c-1.15,2.62-2.21,4.71-3.16,6.28s-2.84,2.35-5.66,2.35h-14.39Z" style="fill: #fff;"/>
    <path d="M2160.81,895.02v-57.54h9.01v57.54h-9.01ZM2165.31,828.85c-1.6,0-2.95-.56-4.08-1.68-1.12-1.12-1.68-2.48-1.68-4.08s.56-2.96,1.68-4.08c1.12-1.12,2.48-1.68,4.08-1.68s2.96.56,4.08,1.68c1.12,1.12,1.68,2.48,1.68,4.08s-.56,2.96-1.68,4.08c-1.12,1.12-2.47,1.68-4.08,1.68h0Z" style="fill: #fff;"/>
    <path d="M2200.41,895.02v-47.95h-4.8v-9.59h9.97v8.63h4.03c1.92-3.2,4.62-5.61,8.1-7.24,3.49-1.63,7.47-2.45,11.94-2.45,7.23,0,12.98,2.11,17.26,6.33,4.29,4.22,6.43,9.84,6.43,16.88v35.39h-9.01v-34.04c0-5.43-1.49-9.58-4.46-12.42-2.97-2.84-7.3-4.27-12.99-4.27s-9.94,1.42-12.95,4.27c-3,2.84-4.51,6.99-4.51,12.42v34.04h-9.01Z" style="fill: #fff;"/>
    <path d="M2304.85,919.19c-7.73,0-14.03-1.63-18.89-4.89-4.86-3.26-7.73-7.77-8.63-13.52h9.59c1.79,7.03,7.77,10.55,17.93,10.55,6.33,0,11.19-1.5,14.58-4.51,3.39-3.01,5.08-7.32,5.08-12.95v-9.78h-.48c-1.47,3.45-3.93,6.14-7.38,8.06-3.45,1.92-7.48,2.88-12.08,2.88-5.5,0-10.26-1.2-14.29-3.6-4.03-2.4-7.13-5.79-9.3-10.17-2.17-4.38-3.26-9.58-3.26-15.58,0-9.01,2.43-16.16,7.29-21.43,4.86-5.27,11.45-7.91,19.76-7.91,4.6,0,8.54.83,11.8,2.49,3.26,1.66,5.85,4.09,7.77,7.29h4.03v-8.63h9.97v9.59h-4.8v47.47c0,7.73-2.51,13.78-7.53,18.13-5.02,4.35-12.06,6.52-21.15,6.52h0ZM2306.67,887.16c5.31,0,9.61-1.57,12.9-4.7,3.29-3.13,4.94-7.25,4.94-12.37v-8.82c0-5.12-1.64-9.24-4.94-12.37-3.29-3.13-7.59-4.7-12.9-4.7-6.2,0-11.08,1.88-14.62,5.66-3.55,3.77-5.32,9.05-5.32,15.82s1.77,12.05,5.32,15.82c3.55,3.77,8.42,5.66,14.62,5.66h0Z" style="fill: #fff;"/>
    <path d="M2405.45,895.02v-77.68h36.92c4.48,0,8.36.8,11.65,2.4,3.29,1.6,5.87,3.88,7.72,6.86,1.86,2.97,2.78,6.51,2.78,10.6,0,4.47-1.41,8.14-4.22,10.98-2.81,2.84-6.01,4.62-9.59,5.32v.38c2.56.25,5.2,1.1,7.91,2.54,2.72,1.44,5.02,3.55,6.9,6.33,1.89,2.78,2.83,6.28,2.83,10.5s-1.04,8.25-3.12,11.51c-2.08,3.26-4.94,5.79-8.58,7.58-3.64,1.79-7.83,2.69-12.56,2.69h-38.65ZM2414.66,887.16h27.33c5.31,0,9.49-1.23,12.56-3.69,3.07-2.46,4.6-6.03,4.6-10.69s-1.52-8.28-4.56-10.65c-3.04-2.36-7.21-3.55-12.51-3.55h-27.43v28.58h0ZM2414.66,850.91h26.66c4.35,0,7.77-1.12,10.26-3.36,2.49-2.24,3.74-5.4,3.74-9.49s-1.25-7.34-3.74-9.54c-2.49-2.21-5.91-3.31-10.26-3.31h-26.66v25.7h0Z" style="fill: #fff;"/>
    <path d="M2515.93,896.08c-7.16,0-12.85-2.05-17.07-6.14-4.22-4.09-6.33-9.59-6.33-16.5v-35.96h9.01v34.04c0,5.43,1.44,9.58,4.32,12.42,2.88,2.84,7.03,4.27,12.47,4.27s10.14-1.47,13.33-4.41c3.2-2.94,4.8-7.03,4.8-12.28v-34.04h9.01v47.95h4.8v9.59h-9.97v-8.63h-4.03c-1.98,3.13-4.71,5.53-8.2,7.19-3.48,1.66-7.53,2.49-12.13,2.49h0Z" style="fill: #fff;"/>
    <path d="M2596.77,896.17c-7.8,0-13.97-1.62-18.51-4.84-4.54-3.23-7.03-7.75-7.48-13.57h9.01c.45,3.71,2.08,6.46,4.89,8.25,2.81,1.79,6.94,2.69,12.37,2.69,9.78,0,14.67-3.13,14.67-9.4,0-2.56-.75-4.52-2.25-5.9-1.5-1.38-4.04-2.38-7.62-3.02l-12.56-2.3c-10.42-1.92-15.63-6.9-15.63-14.96,0-5.18,1.95-9.27,5.85-12.28,3.9-3.01,9.24-4.51,16.02-4.51s12.55,1.53,16.74,4.6c4.19,3.07,6.6,7.35,7.24,12.85h-8.82c-.7-3.39-2.3-5.9-4.8-7.53-2.49-1.63-5.98-2.45-10.45-2.45s-7.58.75-9.88,2.25c-2.3,1.5-3.45,3.69-3.45,6.57,0,2.17.75,3.88,2.25,5.13,1.51,1.25,3.95,2.19,7.34,2.83l12.47,2.3c5.5,1.02,9.53,2.81,12.08,5.37,2.56,2.56,3.84,6.01,3.84,10.36,0,5.56-2.01,9.88-6.04,12.95-4.03,3.07-9.78,4.6-17.26,4.6h0Z" style="fill: #fff;"/>
    <path d="M2644.15,895.02v-57.54h9.01v57.54h-9.01ZM2648.66,828.85c-1.6,0-2.95-.56-4.08-1.68-1.12-1.12-1.68-2.48-1.68-4.08s.56-2.96,1.68-4.08c1.12-1.12,2.48-1.68,4.08-1.68s2.96.56,4.08,1.68c1.12,1.12,1.68,2.48,1.68,4.08s-.56,2.96-1.68,4.08c-1.12,1.12-2.47,1.68-4.08,1.68h0Z" style="fill: #fff;"/>
    <path d="M2683.76,895.02v-47.95h-4.8v-9.59h9.97v8.63h4.03c1.92-3.2,4.62-5.61,8.1-7.24,3.49-1.63,7.47-2.45,11.94-2.45,7.23,0,12.98,2.11,17.26,6.33,4.29,4.22,6.43,9.84,6.43,16.88v35.39h-9.01v-34.04c0-5.43-1.49-9.58-4.46-12.42-2.97-2.84-7.3-4.27-12.99-4.27s-9.94,1.42-12.95,4.27c-3,2.84-4.51,6.99-4.51,12.42v34.04h-9.01Z" style="fill: #fff;"/>
    <path d="M2790.01,896.17c-5.88,0-10.99-1.23-15.34-3.69-4.34-2.46-7.7-5.96-10.07-10.5-2.36-4.54-3.55-9.84-3.55-15.92s1.18-11.33,3.55-15.78c2.37-4.45,5.69-7.88,9.97-10.31,4.29-2.43,9.3-3.64,15.06-3.64,5.44,0,10.14,1.1,14.1,3.31,3.97,2.21,7.05,5.32,9.25,9.35,2.21,4.03,3.31,8.79,3.31,14.29v4.03h-46.61c.26,6.58,2.19,11.73,5.8,15.44,3.62,3.71,8.43,5.56,14.43,5.56,4.16,0,7.69-.9,10.6-2.69,2.91-1.79,4.91-4.38,5.99-7.77h9.21c-1.47,5.82-4.46,10.32-8.97,13.52-4.51,3.2-10.08,4.8-16.74,4.8h0ZM2770.16,860.4h37.4c-.45-5.18-2.27-9.21-5.47-12.08-3.19-2.88-7.38-4.32-12.56-4.32s-9.48,1.44-12.9,4.32c-3.42,2.88-5.58,6.9-6.47,12.08h0Z" style="fill: #fff;"/>
    <path d="M2862.42,896.17c-7.8,0-13.97-1.62-18.51-4.84-4.54-3.23-7.03-7.75-7.48-13.57h9.01c.45,3.71,2.08,6.46,4.89,8.25,2.81,1.79,6.94,2.69,12.37,2.69,9.78,0,14.67-3.13,14.67-9.4,0-2.56-.75-4.52-2.25-5.9-1.5-1.38-4.04-2.38-7.62-3.02l-12.56-2.3c-10.42-1.92-15.63-6.9-15.63-14.96,0-5.18,1.95-9.27,5.85-12.28,3.9-3.01,9.24-4.51,16.02-4.51s12.55,1.53,16.74,4.6c4.19,3.07,6.6,7.35,7.24,12.85h-8.82c-.7-3.39-2.3-5.9-4.8-7.53-2.49-1.63-5.97-2.45-10.45-2.45s-7.58.75-9.88,2.25c-2.3,1.5-3.45,3.69-3.45,6.57,0,2.17.75,3.88,2.25,5.13,1.51,1.25,3.95,2.19,7.34,2.83l12.47,2.3c5.5,1.02,9.53,2.81,12.08,5.37,2.56,2.56,3.84,6.01,3.84,10.36,0,5.56-2.01,9.88-6.04,12.95-4.03,3.07-9.78,4.6-17.26,4.6h0Z" style="fill: #fff;"/>
    <path d="M2930.51,896.17c-7.8,0-13.97-1.62-18.51-4.84-4.54-3.23-7.03-7.75-7.48-13.57h9.01c.45,3.71,2.08,6.46,4.89,8.25,2.81,1.79,6.94,2.69,12.37,2.69,9.78,0,14.67-3.13,14.67-9.4,0-2.56-.75-4.52-2.25-5.9-1.5-1.38-4.04-2.38-7.62-3.02l-12.56-2.3c-10.42-1.92-15.63-6.9-15.63-14.96,0-5.18,1.95-9.27,5.85-12.28,3.9-3.01,9.24-4.51,16.02-4.51s12.55,1.53,16.73,4.6c4.19,3.07,6.6,7.35,7.24,12.85h-8.82c-.7-3.39-2.3-5.9-4.79-7.53-2.49-1.63-5.97-2.45-10.45-2.45s-7.58.75-9.88,2.25c-2.3,1.5-3.45,3.69-3.45,6.57,0,2.17.75,3.88,2.25,5.13,1.51,1.25,3.95,2.19,7.34,2.83l12.47,2.3c5.5,1.02,9.53,2.81,12.08,5.37,2.56,2.56,3.84,6.01,3.84,10.36,0,5.56-2.01,9.88-6.04,12.95-4.03,3.07-9.78,4.6-17.26,4.6h0Z" style="fill: #fff;"/>
  </g>
</svg>