<svg width="1000" height="200" viewBox="0 0 1000 200" fill="none" xmlns="http://www.w3.org/2000/svg">
<path d="M308.227 10.292C309.128 10.292 310.062 10.5377 311.027 11.0291C312.057 11.4591 312.83 12.0426 313.345 12.7797L336.809 47.2386L331.981 47.0544L356.025 12.7797C357.248 11.1213 358.825 10.292 360.756 10.292C362.301 10.292 363.685 10.8141 364.909 11.8584C366.132 12.9026 366.743 14.2539 366.743 15.9123V69.2592C366.743 70.8564 366.196 72.2075 365.102 73.3132C364.007 74.3576 362.559 74.8795 360.756 74.8795C358.954 74.8795 357.473 74.3576 356.315 73.3132C355.22 72.2075 354.673 70.8564 354.673 69.2592V25.8631L358.439 26.6923L338.74 55.3466C338.161 56.0223 337.421 56.6058 336.519 57.0972C335.683 57.5886 334.814 57.8036 333.912 57.7422C333.075 57.8036 332.206 57.5886 331.305 57.0972C330.468 56.6058 329.76 56.0223 329.181 55.3466L310.738 27.5215L313.248 22.6383V69.2592C313.248 70.8564 312.733 72.2075 311.703 73.3132C310.673 74.3576 309.321 74.8795 307.648 74.8795C306.038 74.8795 304.719 74.3576 303.689 73.3132C302.659 72.2075 302.144 70.8564 302.144 69.2592V15.9123C302.144 14.3768 302.723 13.0561 303.882 11.9505C305.105 10.8449 306.553 10.292 308.227 10.292ZM422.588 24.6653C424.262 24.6653 425.646 25.1874 426.74 26.2316C427.835 27.2758 428.382 28.6271 428.382 30.2856V69.2592C428.382 70.8564 427.835 72.2075 426.74 73.3132C425.646 74.3576 424.262 74.8795 422.588 74.8795C420.914 74.8795 419.531 74.3576 418.436 73.3132C417.341 72.2075 416.794 70.8564 416.794 69.2592V64.7445L418.919 65.5737C418.919 66.3722 418.468 67.3551 417.567 68.5221C416.665 69.6277 415.443 70.7334 413.898 71.839C412.353 72.9446 410.518 73.8969 408.394 74.6952C406.333 75.4323 404.081 75.8008 401.634 75.8008C397.192 75.8008 393.169 74.7261 389.564 72.5761C385.959 70.3648 383.095 67.3551 380.97 63.5467C378.91 59.677 377.88 55.2545 377.88 50.2791C377.88 45.2424 378.91 40.8198 380.97 37.0115C383.095 33.1418 385.927 30.132 389.468 27.9822C393.008 25.7709 396.935 24.6653 401.248 24.6653C404.016 24.6653 406.559 25.0646 408.876 25.8631C411.194 26.6615 413.189 27.675 414.863 28.9035C416.601 30.132 417.921 31.3912 418.822 32.6811C419.788 33.9096 420.271 34.9538 420.271 35.8138L416.794 37.0115V30.2856C416.794 28.6885 417.341 27.368 418.436 26.3237C419.531 25.2181 420.914 24.6653 422.588 24.6653ZM403.083 65.6659C405.915 65.6659 408.394 64.9902 410.518 63.6389C412.642 62.2876 414.284 60.4448 415.443 58.1107C416.665 55.7766 417.277 53.1661 417.277 50.2791C417.277 47.3308 416.665 44.6896 415.443 42.3554C414.284 40.0213 412.642 38.1786 410.518 36.8273C408.394 35.4759 405.915 34.8003 403.083 34.8003C400.315 34.8003 397.868 35.4759 395.744 36.8273C393.62 38.1786 391.946 40.0213 390.723 42.3554C389.564 44.6896 388.985 47.3308 388.985 50.2791C388.985 53.1661 389.564 55.7766 390.723 58.1107C391.946 60.4448 393.62 62.2876 395.744 63.6389C397.868 64.9902 400.315 65.6659 403.083 65.6659ZM468.545 24.6653C473.308 24.6653 476.914 25.6174 479.359 27.5215C481.87 29.4256 483.576 31.9748 484.477 35.1688C485.443 38.3014 485.926 41.8026 485.926 45.6723V69.2592C485.926 70.8564 485.379 72.2075 484.284 73.3132C483.19 74.3576 481.806 74.8795 480.132 74.8795C478.459 74.8795 477.074 74.3576 475.98 73.3132C474.886 72.2075 474.338 70.8564 474.338 69.2592V45.6723C474.338 43.6453 474.049 41.8333 473.469 40.2363C472.955 38.5778 471.989 37.2572 470.572 36.2744C469.156 35.2917 467.129 34.8003 464.489 34.8003C461.914 34.8003 459.726 35.2917 457.923 36.2744C456.185 37.2572 454.833 38.5778 453.867 40.2363C452.966 41.8333 452.515 43.6453 452.515 45.6723V69.2592C452.515 70.8564 451.968 72.2075 450.874 73.3132C449.78 74.3576 448.396 74.8795 446.722 74.8795C445.048 74.8795 443.664 74.3576 442.57 73.3132C441.476 72.2075 440.928 70.8564 440.928 69.2592V31.2069C440.928 29.6099 441.476 28.2893 442.57 27.2451C443.664 26.1395 445.048 25.5866 446.722 25.5866C448.396 25.5866 449.78 26.1395 450.874 27.2451C451.968 28.2893 452.515 29.6099 452.515 31.2069V35.1688L451.067 34.8924C451.646 33.8482 452.484 32.7425 453.577 31.5755C454.672 30.347 455.96 29.2107 457.44 28.1665C458.921 27.1222 460.595 26.293 462.461 25.6788C464.328 25.0031 466.356 24.6653 468.545 24.6653ZM540.744 6.69873C542.418 6.69873 543.802 7.22083 544.896 8.26504C545.99 9.30928 546.538 10.6606 546.538 12.319V69.2592C546.538 70.8564 545.99 72.2075 544.896 73.3132C543.802 74.3576 542.418 74.8795 540.744 74.8795C539.07 74.8795 537.686 74.3576 536.592 73.3132C535.498 72.2075 534.951 70.8564 534.951 69.2592V64.7445L537.075 65.5737C537.075 66.3722 536.624 67.3551 535.723 68.5221C534.822 69.6277 533.599 70.7334 532.054 71.839C530.509 72.9446 528.674 73.8969 526.55 74.6952C524.49 75.4323 522.236 75.8008 519.79 75.8008C515.349 75.8008 511.325 74.7261 507.72 72.5761C504.115 70.3648 501.251 67.3551 499.126 63.5467C497.066 59.677 496.036 55.2545 496.036 50.2791C496.036 45.2424 497.066 40.8198 499.126 37.0115C501.251 33.1418 504.083 30.132 507.624 27.9822C511.164 25.7709 515.091 24.6653 519.404 24.6653C522.172 24.6653 524.715 25.0646 527.033 25.8631C529.35 26.6615 531.345 27.675 533.019 28.9035C534.757 30.132 536.077 31.3912 536.978 32.6811C537.944 33.9096 538.427 34.9538 538.427 35.8138L534.951 37.0115V12.319C534.951 10.722 535.498 9.40141 536.592 8.35717C537.686 7.25155 539.07 6.69873 540.744 6.69873ZM521.239 65.6659C524.071 65.6659 526.55 64.9902 528.674 63.6389C530.798 62.2876 532.44 60.4448 533.599 58.1107C534.822 55.7766 535.433 53.1661 535.433 50.2791C535.433 47.3308 534.822 44.6896 533.599 42.3554C532.44 40.0213 530.798 38.1786 528.674 36.8273C526.55 35.4759 524.071 34.8003 521.239 34.8003C518.47 34.8003 516.025 35.4759 513.9 36.8273C511.776 38.1786 510.102 40.0213 508.879 42.3554C507.72 44.6896 507.141 47.3308 507.141 50.2791C507.141 53.1661 507.72 55.7766 508.879 58.1107C510.102 60.4448 511.776 62.2876 513.9 63.6389C516.025 64.9902 518.47 65.6659 521.239 65.6659ZM601.378 24.6653C603.051 24.6653 604.436 25.1874 605.53 26.2316C606.624 27.2758 607.172 28.6271 607.172 30.2856V69.2592C607.172 70.8564 606.624 72.2075 605.53 73.3132C604.436 74.3576 603.051 74.8795 601.378 74.8795C599.704 74.8795 598.32 74.3576 597.226 73.3132C596.131 72.2075 595.584 70.8564 595.584 69.2592V64.7445L597.709 65.5737C597.709 66.3722 597.258 67.3551 596.357 68.5221C595.455 69.6277 594.232 70.7334 592.687 71.839C591.142 72.9446 589.308 73.8969 587.183 74.6952C585.123 75.4323 582.87 75.8008 580.424 75.8008C575.982 75.8008 571.958 74.7261 568.354 72.5761C564.749 70.3648 561.884 67.3551 559.76 63.5467C557.7 59.677 556.67 55.2545 556.67 50.2791C556.67 45.2424 557.7 40.8198 559.76 37.0115C561.884 33.1418 564.716 30.132 568.257 27.9822C571.798 25.7709 575.724 24.6653 580.038 24.6653C582.806 24.6653 585.349 25.0646 587.666 25.8631C589.984 26.6615 591.979 27.675 593.653 28.9035C595.391 30.132 596.711 31.3912 597.612 32.6811C598.578 33.9096 599.061 34.9538 599.061 35.8138L595.584 37.0115V30.2856C595.584 28.6885 596.131 27.368 597.226 26.3237C598.32 25.2181 599.704 24.6653 601.378 24.6653ZM581.873 65.6659C584.705 65.6659 587.183 64.9902 589.308 63.6389C591.432 62.2876 593.074 60.4448 594.232 58.1107C595.455 55.7766 596.067 53.1661 596.067 50.2791C596.067 47.3308 595.455 44.6896 594.232 42.3554C593.074 40.0213 591.432 38.1786 589.308 36.8273C587.183 35.4759 584.705 34.8003 581.873 34.8003C579.104 34.8003 576.658 35.4759 574.534 36.8273C572.41 38.1786 570.736 40.0213 569.513 42.3554C568.354 44.6896 567.775 47.3308 567.775 50.2791C567.775 53.1661 568.354 55.7766 569.513 58.1107C570.736 60.4448 572.41 62.2876 574.534 63.6389C576.658 64.9902 579.104 65.6659 581.873 65.6659ZM620.297 26.508H643.182C644.727 26.508 646.015 26.9994 647.045 27.9822C648.074 28.9649 648.59 30.1935 648.59 31.6676C648.59 33.0804 648.074 34.2782 647.045 35.2609C646.015 36.1823 644.727 36.643 643.182 36.643H620.297C618.752 36.643 617.464 36.1516 616.435 35.1688C615.405 34.186 614.89 32.9575 614.89 31.4834C614.89 30.0706 615.405 28.9035 616.435 27.9822C617.464 26.9994 618.752 26.508 620.297 26.508ZM630.629 14.991C632.303 14.991 633.655 15.5438 634.685 16.6494C635.779 17.6937 636.326 19.0142 636.326 20.6113V61.6119C636.326 62.4718 636.487 63.1782 636.809 63.731C637.195 64.2838 637.678 64.6831 638.258 64.9288C638.901 65.1745 639.577 65.2973 640.285 65.2973C641.058 65.2973 641.766 65.1745 642.41 64.9288C643.053 64.6216 643.794 64.4681 644.631 64.4681C645.532 64.4681 646.336 64.8674 647.045 65.6659C647.817 66.4644 648.203 67.57 648.203 68.9828C648.203 70.7024 647.205 72.1154 645.21 73.221C643.279 74.3267 641.187 74.8795 638.934 74.8795C637.582 74.8795 636.069 74.7874 634.395 74.6031C632.786 74.3576 631.241 73.8351 629.76 73.0368C628.344 72.1766 627.153 70.8867 626.187 69.167C625.222 67.4472 624.739 65.0823 624.739 62.0726V20.6113C624.739 19.0142 625.286 17.6937 626.381 16.6494C627.539 15.5438 628.955 14.991 630.629 14.991ZM683.091 75.8008C677.619 75.8008 672.856 74.7261 668.8 72.5761C664.809 70.3648 661.719 67.3857 659.53 63.6389C657.406 59.892 656.344 55.6538 656.344 50.9241C656.344 45.3959 657.502 40.697 659.82 36.8273C662.201 32.8961 665.291 29.8863 669.09 27.7979C672.887 25.7095 676.911 24.6653 681.16 24.6653C684.443 24.6653 687.533 25.3102 690.43 26.6001C693.391 27.89 695.998 29.6714 698.251 31.944C700.504 34.1553 702.274 36.7351 703.562 39.6835C704.914 42.6318 705.59 45.7645 705.59 49.0814C705.525 50.5555 704.914 51.7533 703.755 52.6747C702.597 53.596 701.245 54.0567 699.7 54.0567H662.813L659.916 44.8431H695.354L693.23 46.6858V44.1981C693.101 42.4168 692.425 40.8198 691.202 39.4071C690.044 37.9943 688.563 36.8887 686.76 36.0902C685.022 35.2302 683.155 34.8003 681.16 34.8003C679.229 34.8003 677.426 35.0459 675.752 35.5373C674.078 36.0288 672.63 36.858 671.407 38.025C670.184 39.1921 669.218 40.7584 668.51 42.724C667.802 44.6896 667.448 47.1772 667.448 50.187C667.448 53.5039 668.156 56.3294 669.572 58.6635C671.053 60.9362 672.92 62.6868 675.173 63.9153C677.491 65.0823 679.936 65.6659 682.512 65.6659C684.893 65.6659 686.792 65.4816 688.209 65.1131C689.625 64.7445 690.751 64.3146 691.589 63.8231C692.489 63.2703 693.294 62.8096 694.003 62.4411C695.161 61.8883 696.255 61.6119 697.286 61.6119C698.702 61.6119 699.86 62.0726 700.762 62.9939C701.727 63.9153 702.21 64.9902 702.21 66.2187C702.21 67.8771 701.309 69.3822 699.507 70.7334C697.833 72.0845 695.483 73.2822 692.458 74.3267C689.432 75.3092 686.309 75.8008 683.091 75.8008ZM738.695 24.6653C742.365 24.6653 745.551 25.0338 748.255 25.7709C751.023 26.508 753.147 27.5522 754.628 28.9035C756.173 30.1935 756.945 31.7598 756.945 33.6025C756.945 34.831 756.559 35.998 755.787 37.1037C755.014 38.1479 753.887 38.67 752.407 38.67C751.377 38.67 750.508 38.5471 749.8 38.3014C749.156 37.9943 748.576 37.6257 748.062 37.1958C747.547 36.7659 746.935 36.3666 746.227 35.998C745.583 35.6295 744.586 35.3531 743.234 35.1688C741.946 34.9231 740.98 34.8003 740.337 34.8003C737.054 34.8003 734.254 35.4759 731.936 36.8273C729.683 38.1786 727.945 40.0213 726.722 42.3554C725.498 44.6281 724.887 47.2694 724.887 50.2791C724.887 53.2275 725.498 55.8687 726.722 58.2028C728.009 60.4755 729.747 62.2876 731.936 63.6389C734.189 64.9902 736.764 65.6659 739.661 65.6659C741.27 65.6659 742.654 65.5737 743.813 65.3895C744.972 65.2052 745.937 64.9288 746.71 64.5602C747.611 64.0688 748.416 63.5467 749.124 62.9939C749.832 62.4411 750.894 62.1647 752.31 62.1647C753.984 62.1647 755.271 62.6868 756.173 63.731C757.074 64.7138 757.525 65.9423 757.525 67.4165C757.525 68.9518 756.623 70.3648 754.821 71.6547C753.018 72.8834 750.637 73.8969 747.676 74.6952C744.779 75.4323 741.624 75.8008 738.213 75.8008C733.127 75.8008 728.717 74.6952 724.984 72.4839C721.249 70.2115 718.353 67.14 716.293 63.2703C714.297 59.4006 713.3 55.0702 713.3 50.2791C713.3 45.2424 714.362 40.8198 716.486 37.0115C718.675 33.1418 721.668 30.132 725.466 27.9822C729.329 25.7709 733.738 24.6653 738.695 24.6653ZM793.014 24.6653C797.649 24.6653 801.158 25.6174 803.539 27.5215C805.986 29.4256 807.659 31.9748 808.56 35.1688C809.462 38.3014 809.912 41.8026 809.912 45.6723V69.2592C809.912 70.8564 809.365 72.2075 808.271 73.3132C807.176 74.3576 805.792 74.8795 804.119 74.8795C802.445 74.8795 801.061 74.3576 799.966 73.3132C798.872 72.2075 798.325 70.8564 798.325 69.2592V45.6723C798.325 43.6453 798.068 41.8333 797.552 40.2363C797.037 38.5778 796.104 37.2572 794.752 36.2744C793.4 35.2917 791.469 34.8003 788.958 34.8003C786.512 34.8003 784.42 35.2917 782.682 36.2744C780.944 37.2572 779.624 38.5778 778.723 40.2363C777.886 41.8333 777.467 43.6453 777.467 45.6723V69.2592C777.467 70.8564 776.921 72.2075 775.826 73.3132C774.731 74.3576 773.348 74.8795 771.674 74.8795C770 74.8795 768.616 74.3576 767.522 73.3132C766.427 72.2075 765.88 70.8564 765.88 69.2592V12.319C765.88 10.722 766.427 9.40141 767.522 8.35717C768.616 7.25155 770 6.69873 771.674 6.69873C773.348 6.69873 774.731 7.25155 775.826 8.35717C776.921 9.40141 777.467 10.722 777.467 12.319V35.1688L776.019 34.8924C776.598 33.8482 777.403 32.7425 778.433 31.5755C779.463 30.347 780.718 29.2107 782.199 28.1665C783.68 27.1222 785.321 26.293 787.124 25.6788C788.926 25.0031 790.89 24.6653 793.014 24.6653ZM308.227 128.753C309.128 128.753 310.062 128.998 311.027 129.49C312.057 129.92 312.83 130.503 313.345 131.24L336.809 165.699L331.981 165.515L356.025 131.24C357.248 129.582 358.825 128.753 360.756 128.753C362.301 128.753 363.685 129.275 364.909 130.319C366.132 131.364 366.743 132.715 366.743 134.373V187.72C366.743 189.317 366.196 190.668 365.102 191.774C364.007 192.818 362.559 193.34 360.756 193.34C358.954 193.34 357.473 192.818 356.315 191.774C355.22 190.668 354.673 189.317 354.673 187.72V144.324L358.439 145.153L338.74 173.807C338.161 174.483 337.421 175.066 336.519 175.558C335.683 176.05 334.814 176.264 333.912 176.203C333.075 176.264 332.206 176.05 331.305 175.558C330.468 175.066 329.76 174.483 329.181 173.807L310.738 145.982L313.248 141.099V187.72C313.248 189.317 312.733 190.668 311.703 191.774C310.673 192.818 309.321 193.34 307.648 193.34C306.038 193.34 304.719 192.818 303.689 191.774C302.659 190.668 302.144 189.317 302.144 187.72V134.373C302.144 132.838 302.723 131.517 303.882 130.411C305.105 129.306 306.553 128.753 308.227 128.753ZM422.588 143.126C424.262 143.126 425.646 143.648 426.74 144.692C427.835 145.737 428.382 147.088 428.382 148.746V187.72C428.382 189.317 427.835 190.668 426.74 191.774C425.646 192.818 424.262 193.34 422.588 193.34C420.914 193.34 419.531 192.818 418.436 191.774C417.341 190.668 416.794 189.317 416.794 187.72V183.205L418.919 184.035C418.919 184.833 418.468 185.816 417.567 186.983C416.665 188.089 415.443 189.194 413.898 190.3C412.353 191.405 410.518 192.358 408.394 193.156C406.333 193.893 404.081 194.262 401.634 194.262C397.192 194.262 393.169 193.187 389.564 191.037C385.959 188.826 383.095 185.816 380.97 182.008C378.91 178.138 377.88 173.715 377.88 168.74C377.88 163.703 378.91 159.281 380.97 155.472C383.095 151.603 385.927 148.593 389.468 146.443C393.008 144.232 396.935 143.126 401.248 143.126C404.016 143.126 406.559 143.526 408.876 144.324C411.194 145.122 413.189 146.136 414.863 147.364C416.601 148.593 417.921 149.852 418.822 151.142C419.788 152.371 420.271 153.414 420.271 154.275L416.794 155.472V148.746C416.794 147.149 417.341 145.829 418.436 144.785C419.531 143.679 420.914 143.126 422.588 143.126ZM403.083 184.127C405.915 184.127 408.394 183.451 410.518 182.1C412.642 180.749 414.284 178.906 415.443 176.571C416.665 174.237 417.277 171.627 417.277 168.74C417.277 165.792 416.665 163.151 415.443 160.816C414.284 158.482 412.642 156.639 410.518 155.288C408.394 153.937 405.915 153.261 403.083 153.261C400.315 153.261 397.868 153.937 395.744 155.288C393.62 156.639 391.946 158.482 390.723 160.816C389.564 163.151 388.985 165.792 388.985 168.74C388.985 171.627 389.564 174.237 390.723 176.571C391.946 178.906 393.62 180.749 395.744 182.1C397.868 183.451 400.315 184.127 403.083 184.127ZM441.507 144.969H464.392C465.937 144.969 467.225 145.46 468.255 146.443C469.285 147.426 469.8 148.654 469.8 150.128C469.8 151.541 469.285 152.739 468.255 153.722C467.225 154.643 465.937 155.104 464.392 155.104H441.507C439.962 155.104 438.675 154.612 437.645 153.63C436.615 152.647 436.1 151.418 436.1 149.944C436.1 148.531 436.615 147.364 437.645 146.443C438.675 145.46 439.962 144.969 441.507 144.969ZM451.839 133.452C453.513 133.452 454.865 134.005 455.895 135.11C456.99 136.155 457.537 137.475 457.537 139.072V180.073C457.537 180.933 457.698 181.639 458.019 182.192C458.406 182.745 458.888 183.144 459.468 183.39C460.112 183.635 460.788 183.758 461.496 183.758C462.268 183.758 462.976 183.635 463.62 183.39C464.264 183.082 465.004 182.929 465.841 182.929C466.742 182.929 467.547 183.328 468.255 184.127C469.027 184.925 469.414 186.031 469.414 187.444C469.414 189.163 468.416 190.576 466.42 191.682C464.489 192.787 462.397 193.34 460.144 193.34C458.792 193.34 457.279 193.248 455.605 193.064C453.996 192.818 452.451 192.296 450.97 191.498C449.554 190.637 448.363 189.347 447.398 187.628C446.432 185.908 445.949 183.543 445.949 180.533V139.072C445.949 137.475 446.497 136.155 447.591 135.11C448.749 134.005 450.166 133.452 451.839 133.452ZM522.733 143.126C524.407 143.126 525.791 143.648 526.885 144.692C527.98 145.737 528.526 147.088 528.526 148.746V187.72C528.526 189.317 527.98 190.668 526.885 191.774C525.791 192.818 524.407 193.34 522.733 193.34C521.06 193.34 519.675 192.818 518.581 191.774C517.487 190.668 516.939 189.317 516.939 187.72V183.205L519.063 184.035C519.063 184.833 518.613 185.816 517.712 186.983C516.811 188.089 515.587 189.194 514.042 190.3C512.497 191.405 510.663 192.358 508.538 193.156C506.479 193.893 504.225 194.262 501.779 194.262C497.337 194.262 493.314 193.187 489.709 191.037C486.104 188.826 483.239 185.816 481.115 182.008C479.055 178.138 478.025 173.715 478.025 168.74C478.025 163.703 479.055 159.281 481.115 155.472C483.239 151.603 486.072 148.593 489.612 146.443C493.153 144.232 497.08 143.126 501.393 143.126C504.161 143.126 506.704 143.526 509.021 144.324C511.339 145.122 513.335 146.136 515.008 147.364C516.746 148.593 518.066 149.852 518.967 151.142C519.933 152.371 520.415 153.414 520.415 154.275L516.939 155.472V148.746C516.939 147.149 517.487 145.829 518.581 144.785C519.675 143.679 521.06 143.126 522.733 143.126ZM503.227 184.127C506.06 184.127 508.538 183.451 510.663 182.1C512.787 180.749 514.429 178.906 515.587 176.571C516.811 174.237 517.422 171.627 517.422 168.74C517.422 165.792 516.811 163.151 515.587 160.816C514.429 158.482 512.787 156.639 510.663 155.288C508.538 153.937 506.06 153.261 503.227 153.261C500.46 153.261 498.013 153.937 495.889 155.288C493.764 156.639 492.091 158.482 490.867 160.816C489.709 163.151 489.129 165.792 489.129 168.74C489.129 171.627 489.709 174.237 490.867 176.571C492.091 178.906 493.764 180.749 495.889 182.1C498.013 183.451 500.46 184.127 503.227 184.127ZM546.866 193.34C545.193 193.34 543.809 192.818 542.715 191.774C541.62 190.668 541.073 189.317 541.073 187.72V149.668C541.073 148.07 541.62 146.75 542.715 145.706C543.809 144.6 545.193 144.047 546.866 144.047C548.54 144.047 549.925 144.6 551.019 145.706C552.113 146.75 552.661 148.07 552.661 149.668V158.329L551.985 152.155C552.692 150.681 553.594 149.391 554.688 148.286C555.847 147.119 557.134 146.167 558.551 145.429C559.967 144.631 561.479 144.047 563.089 143.679C564.698 143.31 566.308 143.126 567.917 143.126C569.849 143.126 571.458 143.648 572.745 144.692C574.097 145.737 574.773 146.965 574.773 148.378C574.773 150.405 574.226 151.879 573.132 152.8C572.037 153.661 570.846 154.09 569.559 154.09C568.335 154.09 567.209 153.875 566.179 153.445C565.214 153.016 564.087 152.8 562.8 152.8C561.641 152.8 560.45 153.077 559.227 153.63C558.068 154.121 556.974 154.919 555.944 156.025C554.978 157.131 554.173 158.513 553.53 160.171C552.95 161.768 552.661 163.672 552.661 165.884V187.72C552.661 189.317 552.113 190.668 551.019 191.774C549.925 192.818 548.54 193.34 546.866 193.34ZM624.104 143.126C625.778 143.126 627.161 143.648 628.256 144.692C629.35 145.737 629.897 147.088 629.897 148.746V187.72C629.897 189.317 629.35 190.668 628.256 191.774C627.161 192.818 625.778 193.34 624.104 193.34C622.43 193.34 621.046 192.818 619.952 191.774C618.857 190.668 618.31 189.317 618.31 187.72V183.205L620.434 184.035C620.434 184.833 619.984 185.816 619.083 186.983C618.181 188.089 616.958 189.194 615.413 190.3C613.868 191.405 612.034 192.358 609.909 193.156C607.849 193.893 605.596 194.262 603.15 194.262C598.708 194.262 594.685 193.187 591.08 191.037C587.475 188.826 584.61 185.816 582.486 182.008C580.426 178.138 579.396 173.715 579.396 168.74C579.396 163.703 580.426 159.281 582.486 155.472C584.61 151.603 587.443 148.593 590.983 146.443C594.524 144.232 598.451 143.126 602.764 143.126C605.532 143.126 608.075 143.526 610.392 144.324C612.71 145.122 614.705 146.136 616.379 147.364C618.117 148.593 619.436 149.852 620.338 151.142C621.303 152.371 621.786 153.414 621.786 154.275L618.31 155.472V148.746C618.31 147.149 618.857 145.829 619.952 144.785C621.046 143.679 622.43 143.126 624.104 143.126ZM604.598 184.127C607.431 184.127 609.909 183.451 612.034 182.1C614.158 180.749 615.799 178.906 616.958 176.571C618.181 174.237 618.793 171.627 618.793 168.74C618.793 165.792 618.181 163.151 616.958 160.816C615.799 158.482 614.158 156.639 612.034 155.288C609.909 153.937 607.431 153.261 604.598 153.261C601.83 153.261 599.384 153.937 597.26 155.288C595.135 156.639 593.461 158.482 592.238 160.816C591.08 163.151 590.5 165.792 590.5 168.74C590.5 171.627 591.08 174.237 592.238 176.571C593.461 178.906 595.135 180.749 597.26 182.1C599.384 183.451 601.83 184.127 604.598 184.127ZM669.577 143.126C674.727 143.126 678.525 144.324 680.972 146.719C683.418 149.054 685.027 152.094 685.8 155.841L684.158 155.012L684.931 153.537C685.703 152.124 686.894 150.62 688.503 149.023C690.112 147.364 692.044 145.982 694.297 144.877C696.615 143.71 699.189 143.126 702.022 143.126C706.657 143.126 710.166 144.078 712.547 145.982C714.994 147.886 716.667 150.436 717.568 153.63C718.47 156.762 718.92 160.263 718.92 164.133V187.72C718.92 189.317 718.373 190.668 717.279 191.774C716.184 192.818 714.801 193.34 713.127 193.34C711.453 193.34 710.069 192.818 708.974 191.774C707.88 190.668 707.333 189.317 707.333 187.72V164.133C707.333 162.106 707.076 160.294 706.56 158.697C706.045 157.039 705.112 155.718 703.76 154.735C702.408 153.753 700.477 153.261 697.966 153.261C695.52 153.261 693.428 153.753 691.69 154.735C689.952 155.718 688.632 157.039 687.731 158.697C686.894 160.294 686.476 162.106 686.476 164.133V187.72C686.476 189.317 685.929 190.668 684.834 191.774C683.739 192.818 682.356 193.34 680.682 193.34C679.008 193.34 677.624 192.818 676.53 191.774C675.435 190.668 674.888 189.317 674.888 187.72V164.133C674.888 162.106 674.631 160.294 674.116 158.697C673.6 157.039 672.667 155.718 671.315 154.735C669.964 153.753 668.032 153.261 665.522 153.261C663.075 153.261 660.983 153.753 659.245 154.735C657.507 155.718 656.188 157.039 655.286 158.697C654.45 160.294 654.031 162.106 654.031 164.133V187.72C654.031 189.317 653.484 190.668 652.389 191.774C651.295 192.818 649.911 193.34 648.237 193.34C646.563 193.34 645.18 192.818 644.085 191.774C642.99 190.668 642.444 189.317 642.444 187.72V149.668C642.444 148.07 642.99 146.75 644.085 145.706C645.18 144.6 646.563 144.047 648.237 144.047C649.911 144.047 651.295 144.6 652.389 145.706C653.484 146.75 654.031 148.07 654.031 149.668V153.63L652.582 153.353C653.162 152.309 653.967 151.203 654.997 150.036C656.026 148.808 657.282 147.672 658.762 146.627C660.243 145.583 661.885 144.754 663.687 144.14C665.489 143.464 667.453 143.126 669.577 143.126ZM765.574 128.753C766.475 128.753 767.409 128.998 768.374 129.49C769.404 129.92 770.176 130.503 770.692 131.24L794.156 165.699L789.328 165.515L813.372 131.24C814.595 129.582 816.172 128.753 818.103 128.753C819.648 128.753 821.033 129.275 822.255 130.319C823.478 131.364 824.09 132.715 824.09 134.373V187.72C824.09 189.317 823.543 190.668 822.449 191.774C821.354 192.818 819.906 193.34 818.103 193.34C816.301 193.34 814.82 192.818 813.662 191.774C812.567 190.668 812.02 189.317 812.02 187.72V144.324L815.786 145.153L796.087 173.807C795.508 174.483 794.768 175.066 793.866 175.558C793.03 176.05 792.161 176.264 791.259 176.203C790.423 176.264 789.554 176.05 788.652 175.558C787.815 175.066 787.107 174.483 786.528 173.807L768.085 145.982L770.595 141.099V187.72C770.595 189.317 770.08 190.668 769.05 191.774C768.02 192.818 766.668 193.34 764.995 193.34C763.385 193.34 762.065 192.818 761.036 191.774C760.006 190.668 759.491 189.317 759.491 187.72V134.373C759.491 132.838 760.07 131.517 761.229 130.411C762.452 129.306 763.9 128.753 765.574 128.753ZM875.976 144.047C877.65 144.047 879.034 144.6 880.128 145.706C881.223 146.75 881.77 148.07 881.77 149.668V173.07C881.77 179.581 879.871 184.741 876.073 188.549C872.274 192.358 866.803 194.262 859.657 194.262C852.512 194.262 847.04 192.358 843.242 188.549C839.508 184.741 837.641 179.581 837.641 173.07V149.668C837.641 148.07 838.188 146.75 839.283 145.706C840.377 144.6 841.761 144.047 843.435 144.047C845.109 144.047 846.492 144.6 847.587 145.706C848.682 146.75 849.229 148.07 849.229 149.668V173.07C849.229 176.817 850.098 179.612 851.836 181.455C853.574 183.236 856.181 184.127 859.657 184.127C863.198 184.127 865.837 183.236 867.575 181.455C869.313 179.612 870.182 176.817 870.182 173.07V149.668C870.182 148.07 870.729 146.75 871.824 145.706C872.919 144.6 874.302 144.047 875.976 144.047ZM901.074 193.34C899.4 193.34 898.016 192.818 896.922 191.774C895.827 190.668 895.28 189.317 895.28 187.72V130.78C895.28 129.183 895.827 127.862 896.922 126.818C898.016 125.712 899.4 125.16 901.074 125.16C902.748 125.16 904.131 125.712 905.226 126.818C906.321 127.862 906.867 129.183 906.867 130.78V187.72C906.867 189.317 906.321 190.668 905.226 191.774C904.131 192.818 902.748 193.34 901.074 193.34ZM931.78 144.047C933.261 144.047 934.548 144.631 935.643 145.798C936.737 146.965 937.284 148.101 937.284 149.207C937.284 150.681 936.512 152.063 934.967 153.353L905.902 178.875L905.419 166.16L927.532 145.798C928.755 144.631 930.171 144.047 931.78 144.047ZM933.229 193.248C931.555 193.248 930.139 192.634 928.98 191.405L911.116 173.347L919.903 165.607L937.284 183.666C938.507 184.895 939.119 186.277 939.119 187.812C939.119 189.409 938.443 190.73 937.091 191.774C935.804 192.757 934.517 193.248 933.229 193.248ZM949.87 144.969H972.755C974.3 144.969 975.588 145.46 976.617 146.443C977.647 147.426 978.162 148.654 978.162 150.128C978.162 151.541 977.647 152.739 976.617 153.722C975.588 154.643 974.3 155.104 972.755 155.104H949.87C948.325 155.104 947.037 154.612 946.007 153.63C944.978 152.647 944.462 151.418 944.462 149.944C944.462 148.531 944.978 147.364 946.007 146.443C947.037 145.46 948.325 144.969 949.87 144.969ZM960.202 133.452C961.876 133.452 963.228 134.005 964.258 135.11C965.352 136.155 965.899 137.475 965.899 139.072V180.073C965.899 180.933 966.06 181.639 966.382 182.192C966.768 182.745 967.251 183.144 967.83 183.39C968.474 183.635 969.15 183.758 969.858 183.758C970.63 183.758 971.339 183.635 971.982 183.39C972.626 183.082 973.367 182.929 974.203 182.929C975.105 182.929 975.909 183.328 976.617 184.127C977.39 184.925 977.776 186.031 977.776 187.444C977.776 189.163 976.778 190.576 974.783 191.682C972.851 192.787 970.76 193.34 968.506 193.34C967.154 193.34 965.642 193.248 963.968 193.064C962.359 192.818 960.814 192.296 959.333 191.498C957.917 190.637 956.726 189.347 955.76 187.628C954.794 185.908 954.312 183.543 954.312 180.533V139.072C954.312 137.475 954.859 136.155 955.953 135.11C957.112 134.005 958.528 133.452 960.202 133.452ZM999.711 187.72C999.711 189.317 999.166 190.668 998.069 191.774C996.979 192.818 995.593 193.34 993.917 193.34C992.248 193.34 990.862 192.818 989.767 191.774C988.672 190.668 988.125 189.317 988.125 187.72V149.668C988.125 148.07 988.672 146.75 989.767 145.706C990.862 144.6 992.248 144.047 993.917 144.047C995.593 144.047 996.979 144.6 998.069 145.706C999.166 146.75 999.711 148.07 999.711 149.668V187.72ZM993.82 138.059C991.634 138.059 990.089 137.721 989.188 137.045C988.286 136.369 987.836 135.171 987.836 133.452V131.701C987.836 129.92 988.319 128.722 989.284 128.108C990.314 127.432 991.862 127.094 993.917 127.094C996.172 127.094 997.752 127.432 998.649 128.108C999.552 128.784 1000 129.982 1000 131.701V133.452C1000 135.233 999.518 136.461 998.552 137.137C997.586 137.751 996.014 138.059 993.82 138.059Z" fill="#192B3E"/>
<path fill-rule="evenodd" clip-rule="evenodd" d="M170.528 185.126C169.902 186.011 169.274 186.869 168.643 187.696C178.045 192.522 189.324 195.579 200.005 197.415C210.683 199.253 220.563 199.837 227.016 199.817C274.515 97.6814 220.105 24.583 186.184 0C163.669 2.58301 147.051 7.97988 129.145 20.2804C142.283 29.6912 154.744 41.3083 165.024 54.5252C179.41 73.021 189.613 94.7696 191.272 118.078C192.812 139.751 186.951 162.573 170.528 185.126ZM161.568 60.1455C161.053 59.4576 160.529 58.7738 160.001 58.0942C149.835 45.0239 137.432 33.5577 124.39 24.3544C110.29 34.0395 96.8641 46.2671 86.0575 60.2563C102.819 69.7879 117.043 82.955 123.377 99.1533C129.941 82.8388 144.514 69.6287 161.568 60.1455ZM120.154 111.12C117.33 92.2787 102.531 76.6009 82.9501 65.4494C50.5156 113.179 64.5517 158.601 81.1315 182.147C81.8127 183.083 82.5133 184.019 83.2336 184.955C96.7246 175.231 119.659 150.748 119.659 118.174C119.659 115.774 119.828 113.422 120.154 111.12Z" fill="#007BFF"/>
<path fill-rule="evenodd" clip-rule="evenodd" d="M20.8498 46.0197L23.3681 41.9098C24.3238 40.515 25.386 39.002 26.541 37.4001L26.5477 37.3908L26.5543 37.3815C27.806 35.6173 29.0836 33.8937 30.3828 32.2107L30.3899 32.2016L30.3969 32.1923C38.8388 21.0811 50.1982 7.9643 61.0334 0.0217333C74.6867 -0.385947 92.2546 4.9549 110.038 14.9491C128.164 25.1355 146.178 39.9715 160.035 57.7877C173.892 75.6039 183.502 96.2802 185.061 118.178C186.563 139.29 180.598 161.751 163.359 184.161C149.869 174.436 126.934 149.952 126.934 117.379C126.934 91.6205 107.487 71.4447 83.5431 58.5389L81.0346 57.187L79.4171 59.4644C41.8272 112.389 59.2005 163.274 77.9509 187.879C68.5477 192.704 57.2693 195.761 46.589 197.598C35.9105 199.435 26.0289 200.019 19.5771 200C-11.6588 132.978 -1.18176 81.976 20.8498 46.0197Z" fill="#0B69EE"/>
</svg>
