<svg width="635" height="280" viewBox="0 0 635 280" fill="none" xmlns="http://www.w3.org/2000/svg">
<path fill-rule="evenodd" clip-rule="evenodd" d="M264.07 129.28C267.1 131.76 271 133 275.74 133C278.516 133.069 281.268 132.465 283.76 131.24C285.977 130.131 287.85 128.441 289.18 126.35C290.519 124.234 291.214 121.774 291.18 119.27C291.247 117.096 290.692 114.949 289.58 113.08C288.419 111.309 286.874 109.822 285.06 108.73C282.819 107.368 280.455 106.22 278 105.3C276.152 104.639 274.342 103.875 272.58 103.01C271.327 102.419 270.216 101.567 269.32 100.51C268.583 99.5624 268.195 98.3901 268.22 97.19C268.191 96.0476 268.504 94.9226 269.12 93.96C269.75 93.0223 270.625 92.2752 271.65 91.8C272.801 91.2499 274.065 90.976 275.34 91C277.012 90.9664 278.655 91.433 280.06 92.34C281.555 93.3887 282.776 94.7811 283.62 96.4L289.01 93.08C287.795 90.5477 285.862 88.4295 283.45 86.99C281.026 85.6252 278.281 84.9346 275.5 84.99C272.948 84.9357 270.42 85.4838 268.12 86.59C266.083 87.55 264.353 89.0557 263.12 90.94C261.931 92.8454 261.32 95.0545 261.36 97.3C261.301 99.4075 261.842 101.488 262.92 103.3C264.058 105.053 265.584 106.521 267.38 107.59C269.598 108.925 271.943 110.037 274.38 110.91C276.211 111.596 278 112.388 279.74 113.28C281.05 113.924 282.225 114.814 283.2 115.9C284.046 116.955 284.483 118.279 284.43 119.63C284.446 120.988 284.052 122.319 283.3 123.45C282.557 124.575 281.519 125.474 280.3 126.05C278.932 126.671 277.442 126.979 275.94 126.95C273.349 127.03 270.81 126.206 268.76 124.62C266.707 122.89 265.397 120.438 265.1 117.77L258.51 119.36C259.045 123.25 261.031 126.793 264.07 129.28ZM307.37 130.08C310.797 132.125 314.73 133.165 318.72 133.08C322.736 133.175 326.698 132.147 330.16 130.11C333.464 128.09 336.128 125.174 337.84 121.7C339.749 117.775 340.695 113.453 340.6 109.09C340.7 104.71 339.765 100.369 337.87 96.4198C336.179 92.9385 333.524 90.0161 330.22 87.9998C326.74 85.9506 322.758 84.9117 318.72 84.9998C314.731 84.919 310.798 85.9583 307.37 87.9998C304.078 90.0142 301.428 92.9244 299.73 96.3898C297.835 100.339 296.9 104.68 297 109.06C296.914 113.422 297.86 117.742 299.76 121.67C301.443 125.141 304.083 128.059 307.37 130.08ZM326.593 124.529C324.241 126.007 321.496 126.737 318.72 126.62C315.941 126.689 313.201 125.952 310.83 124.5C308.54 123.022 306.736 120.905 305.64 118.41C303.205 112.394 303.205 105.666 305.64 99.6498C306.736 97.155 308.54 95.0372 310.83 93.5598C312.597 92.4985 314.565 91.8146 316.609 91.5511C318.653 91.2877 320.73 91.4504 322.709 92.0291C324.687 92.6077 326.524 93.5898 328.104 94.9134C329.684 96.237 330.973 97.8735 331.89 99.7198C333.118 102.67 333.75 105.834 333.75 109.03C333.75 112.225 333.118 115.389 331.89 118.34C330.792 120.892 328.945 123.05 326.593 124.529ZM348.72 132.21V85.8501H355.5V126.16H375.93V132.21H348.72ZM384.19 128.62C387.143 131.593 391.413 133.08 397 133.08C402.62 133.08 406.93 131.56 409.91 128.52C412.837 125.48 414.3 121.013 414.3 115.12V85.8501H407.58V114.65C407.637 116.921 407.299 119.185 406.58 121.34C405.97 123.06 404.782 124.516 403.22 125.46C401.314 126.489 399.164 126.984 397 126.89C394.857 126.998 392.726 126.514 390.84 125.49C389.297 124.542 388.134 123.085 387.55 121.37C386.828 119.205 386.489 116.931 386.55 114.65V85.8501H379.77V115.45C379.763 121.257 381.237 125.647 384.19 128.62ZM434.93 132.21V91.9001H419.76V85.8501H456.88V91.9001H441.78V132.21H434.93ZM462.8 85.8501V132.21H469.59V85.8501H462.8ZM499.33 133.08C495.34 133.165 491.407 132.125 487.98 130.08C484.693 128.059 482.053 125.141 480.37 121.67C478.48 117.74 477.545 113.419 477.64 109.06C477.54 104.68 478.475 100.339 480.37 96.3898C482.066 92.9257 484.712 90.0157 488 87.9998C491.428 85.9583 495.361 84.919 499.35 84.9998C503.388 84.9117 507.37 85.9506 510.85 87.9998C514.154 90.0161 516.809 92.9385 518.5 96.4198C520.395 100.369 521.33 104.71 521.23 109.09C521.325 113.453 520.379 117.775 518.47 121.7C516.757 125.174 514.094 128.09 510.79 130.11C507.322 132.15 503.352 133.179 499.33 133.08ZM499.33 126.62C502.106 126.737 504.851 126.007 507.203 124.529C509.555 123.05 511.402 120.892 512.5 118.34C513.728 115.389 514.36 112.225 514.36 109.03C514.36 105.834 513.728 102.67 512.5 99.7198C511.583 97.8735 510.294 96.237 508.714 94.9134C507.134 93.5898 505.297 92.6077 503.319 92.0291C501.34 91.4504 499.263 91.2877 497.219 91.5511C495.175 91.8146 493.207 92.4985 491.44 93.5598C489.15 95.0372 487.346 97.155 486.25 99.6498C483.815 105.666 483.815 112.394 486.25 118.41C487.346 120.905 489.15 123.022 491.44 124.5C493.811 125.952 496.551 126.689 499.33 126.62ZM529.33 85.8501V132.21H536.11V97.1765L557.4 132.21H564.54V85.8501H557.82V120.841L536.33 85.8501H529.33ZM261.17 198.05V151.68H268V192H288.42V198.06L261.17 198.05ZM308.24 151.68L290.24 198.05H297.69L301.43 187.73H320.379L324.1 198.05H331.5L313.5 151.68H308.24ZM318.216 181.73L310.93 161.52L303.605 181.73H318.216ZM337.47 198.05V151.68H352.77C357.25 151.68 360.767 152.7 363.32 154.74C364.588 155.768 365.594 157.081 366.258 158.572C366.922 160.063 367.224 161.69 367.14 163.32C367.184 165.378 366.68 167.411 365.68 169.21C364.723 170.915 363.292 172.305 361.56 173.21C363.991 173.834 366.118 175.306 367.56 177.36C368.965 179.599 369.662 182.209 369.56 184.85C369.56 189.017 368.25 192.264 365.63 194.59C363.01 196.917 359.343 198.084 354.63 198.09L337.47 198.05ZM344.26 171.05H353.57C354.481 171.095 355.392 170.959 356.25 170.65C357.108 170.341 357.897 169.865 358.57 169.25C359.214 168.609 359.716 167.84 360.043 166.992C360.37 166.145 360.516 165.238 360.47 164.33C360.521 163.441 360.367 162.553 360.02 161.733C359.673 160.913 359.143 160.183 358.47 159.6C356.836 158.402 354.833 157.814 352.81 157.94H344.3L344.26 171.05ZM344.26 191.8H354.11C359.91 191.8 362.813 189.36 362.82 184.48C362.885 183.483 362.741 182.482 362.396 181.544C362.052 180.605 361.515 179.749 360.82 179.03C359.251 177.663 357.207 176.97 355.13 177.1H344.26V191.8ZM380.55 195.12C383.59 197.6 387.48 198.84 392.22 198.84C395.019 198.903 397.792 198.285 400.3 197.04C402.514 195.928 404.387 194.238 405.72 192.15C407.056 190.029 407.751 187.567 407.72 185.06C407.788 182.889 407.233 180.745 406.12 178.88C404.965 177.101 403.419 175.61 401.6 174.52C399.357 173.162 396.994 172.014 394.54 171.09C392.69 170.433 390.88 169.669 389.12 168.8C387.865 168.212 386.753 167.359 385.86 166.3C385.126 165.351 384.741 164.179 384.77 162.98C384.744 161.839 385.053 160.716 385.66 159.75C386.29 158.812 387.165 158.065 388.19 157.59C389.536 156.974 391.015 156.707 392.492 156.812C393.968 156.917 395.394 157.39 396.64 158.19C398.139 159.233 399.361 160.627 400.2 162.25L405.59 158.92C404.369 156.392 402.437 154.275 400.03 152.83C397.592 151.456 394.828 150.765 392.03 150.83C389.479 150.78 386.952 151.328 384.65 152.43C382.613 153.394 380.882 154.903 379.65 156.79C378.461 158.692 377.85 160.897 377.89 163.14C377.831 165.247 378.372 167.328 379.45 169.14C380.59 170.891 382.116 172.358 383.91 173.43C386.114 174.761 388.441 175.876 390.86 176.76C392.69 177.443 394.48 178.231 396.22 179.12C397.532 179.765 398.707 180.658 399.68 181.75C400.526 182.8 400.963 184.122 400.91 185.47C400.926 186.831 400.533 188.166 399.78 189.3C399.034 190.42 397.997 191.315 396.78 191.89C395.412 192.512 393.922 192.82 392.42 192.79C389.829 192.87 387.29 192.046 385.24 190.46C383.189 188.729 381.879 186.277 381.58 183.61L374.99 185.21C375.525 189.097 377.511 192.637 380.55 195.12ZM414.77 198.05V190H422.09V198.05H414.77ZM431.4 151.68V198.05H438.19V151.68H431.4ZM448.17 198.05V151.68H461.17C468.79 151.68 474.7 153.73 478.9 157.83C483.1 161.93 485.193 167.73 485.18 175.23C485.18 182.564 483.107 188.207 478.96 192.16C474.813 196.114 468.86 198.077 461.1 198.05H448.17ZM454.95 191.79H460.54C463.828 191.873 467.102 191.333 470.19 190.2C472.781 189.195 474.934 187.307 476.27 184.87C477.67 182.39 478.37 179.087 478.37 174.96C478.514 171.547 477.807 168.151 476.31 165.08C475.007 162.648 472.921 160.728 470.39 159.63C467.457 158.431 464.308 157.852 461.14 157.93H455L454.95 191.79ZM495.37 167.24C496.896 168.097 498.62 168.538 500.37 168.52C502.141 168.552 503.887 168.11 505.43 167.24C506.918 166.406 508.156 165.191 509.02 163.72C509.899 162.128 510.36 160.339 510.36 158.52C510.36 156.701 509.899 154.912 509.02 153.32C508.154 151.849 506.916 150.631 505.43 149.79C503.887 148.95 502.157 148.51 500.4 148.51C498.643 148.51 496.913 148.95 495.37 149.79C493.876 150.628 492.631 151.846 491.76 153.32C490.881 154.912 490.42 156.701 490.42 158.52C490.42 160.339 490.881 162.128 491.76 163.72C492.628 165.194 493.874 166.409 495.37 167.24ZM504.52 165.69C503.253 166.398 501.821 166.76 500.37 166.74C498.925 166.755 497.502 166.393 496.24 165.69C494.996 165.008 493.96 164.003 493.24 162.78C492.494 161.486 492.114 160.014 492.14 158.52C492.11 157.011 492.49 155.521 493.24 154.21C493.964 152.992 495 151.987 496.24 151.3C497.513 150.617 498.935 150.26 500.38 150.26C501.825 150.26 503.247 150.617 504.52 151.3C505.76 151.987 506.795 152.992 507.52 154.21C508.27 155.521 508.65 157.011 508.62 158.52C508.646 160.014 508.266 161.486 507.52 162.78C506.799 164.002 505.763 165.007 504.52 165.69ZM497.31 152.89V164.1L499 164.11V159.34H500.53L503.09 164.11H504.95L502.15 159.11C502.833 158.977 503.454 158.626 503.92 158.11C504.377 157.547 504.605 156.834 504.56 156.11C504.579 155.678 504.508 155.247 504.352 154.844C504.195 154.441 503.956 154.076 503.65 153.77C502.849 153.12 501.828 152.805 500.8 152.89H497.31ZM500.6 157.78H499.05V154.45H500.6C501.157 154.427 501.71 154.544 502.21 154.79C502.431 154.927 502.608 155.124 502.722 155.357C502.835 155.591 502.879 155.852 502.85 156.11C502.881 156.368 502.837 156.63 502.723 156.864C502.61 157.098 502.432 157.294 502.21 157.43C501.711 157.679 501.157 157.8 500.6 157.78Z" fill="#F1F7F6"/>
<path d="M275.74 133L275.749 132.63H275.74V133ZM264.07 129.28L264.304 128.994L264.304 128.994L264.07 129.28ZM283.76 131.24L283.923 131.572L283.926 131.571L283.76 131.24ZM289.18 126.35L289.492 126.549L289.493 126.548L289.18 126.35ZM291.18 119.27L290.81 119.259L290.81 119.267L290.81 119.275L291.18 119.27ZM289.58 113.08L289.898 112.891L289.894 112.884L289.889 112.877L289.58 113.08ZM285.06 108.73L284.868 109.046L284.869 109.047L285.06 108.73ZM278 105.3L278.13 104.953L278.125 104.952L278 105.3ZM272.58 103.01L272.743 102.678L272.738 102.675L272.58 103.01ZM269.32 100.51L269.028 100.737L269.033 100.743L269.038 100.749L269.32 100.51ZM268.22 97.19L268.59 97.1978L268.59 97.1891L268.59 97.1805L268.22 97.19ZM269.12 93.96L268.813 93.7536L268.808 93.7606L269.12 93.96ZM271.65 91.8L271.806 92.1357L271.81 92.1338L271.65 91.8ZM275.34 91L275.333 91.3699L275.34 91.3701L275.347 91.3699L275.34 91ZM280.06 92.34L280.273 92.0371L280.267 92.033L280.261 92.0292L280.06 92.34ZM283.62 96.4L283.292 96.5711L283.476 96.9234L283.814 96.715L283.62 96.4ZM289.01 93.08L289.204 93.395L289.488 93.2203L289.344 92.92L289.01 93.08ZM283.45 86.99L283.64 86.6722L283.632 86.6676L283.45 86.99ZM275.5 84.99L275.492 85.3599L275.5 85.3601L275.507 85.3599L275.5 84.99ZM268.12 86.59L268.278 86.9247L268.28 86.9234L268.12 86.59ZM263.12 90.94L262.81 90.7374L262.806 90.7441L263.12 90.94ZM261.36 97.3L261.73 97.3104L261.73 97.3019L261.73 97.2934L261.36 97.3ZM262.92 103.3L262.602 103.489L262.606 103.495L262.61 103.501L262.92 103.3ZM267.38 107.59L267.571 107.273L267.569 107.272L267.38 107.59ZM274.38 110.91L274.51 110.564L274.505 110.562L274.38 110.91ZM279.74 113.28L279.571 113.609L279.577 113.612L279.74 113.28ZM283.2 115.9L283.489 115.668L283.482 115.66L283.475 115.653L283.2 115.9ZM284.43 119.63L284.06 119.616L284.06 119.625L284.06 119.634L284.43 119.63ZM283.3 123.45L282.992 123.245L282.991 123.246L283.3 123.45ZM280.3 126.05L280.453 126.387L280.458 126.385L280.3 126.05ZM275.94 126.95L275.947 126.58L275.938 126.58L275.929 126.58L275.94 126.95ZM268.76 124.62L268.522 124.903L268.528 124.908L268.534 124.913L268.76 124.62ZM265.1 117.77L265.468 117.729L265.421 117.312L265.013 117.41L265.1 117.77ZM258.51 119.36L258.423 119L258.098 119.079L258.143 119.41L258.51 119.36ZM318.72 133.08L318.729 132.71L318.72 132.71L318.712 132.71L318.72 133.08ZM307.37 130.08L307.176 130.395L307.18 130.398L307.37 130.08ZM330.16 130.11L330.348 130.429L330.353 130.425L330.16 130.11ZM337.84 121.7L338.172 121.863L338.173 121.862L337.84 121.7ZM340.6 109.09L340.23 109.081L340.23 109.09L340.23 109.098L340.6 109.09ZM337.87 96.4198L338.204 96.2598L338.203 96.2581L337.87 96.4198ZM330.22 87.9998L330.413 87.6839L330.408 87.681L330.22 87.9998ZM318.72 84.9998L318.712 85.3697L318.72 85.3699L318.728 85.3697L318.72 84.9998ZM307.37 87.9998L307.181 87.6819L307.177 87.6842L307.37 87.9998ZM299.73 96.3898L299.398 96.227L299.396 96.2298L299.73 96.3898ZM297 109.06L297.37 109.067L297.37 109.059L297.37 109.051L297 109.06ZM299.76 121.67L299.427 121.831L299.427 121.831L299.76 121.67ZM318.72 126.62L318.735 126.25L318.723 126.25L318.711 126.25L318.72 126.62ZM326.593 124.529L326.79 124.842L326.79 124.842L326.593 124.529ZM310.83 124.5L310.629 124.811L310.637 124.815L310.83 124.5ZM305.64 118.41L305.297 118.549L305.301 118.559L305.64 118.41ZM305.64 99.6498L305.301 99.501L305.297 99.511L305.64 99.6498ZM310.83 93.5598L310.639 93.2424L310.629 93.2489L310.83 93.5598ZM322.709 92.0291L322.605 92.3842L322.605 92.3842L322.709 92.0291ZM328.104 94.9134L328.342 94.6298L328.342 94.6298L328.104 94.9134ZM331.89 99.7198L332.232 99.5776L332.227 99.5663L332.221 99.5553L331.89 99.7198ZM331.89 118.34L332.23 118.486L332.232 118.482L331.89 118.34ZM348.72 85.8501V85.4801H348.35V85.8501H348.72ZM348.72 132.21H348.35V132.58H348.72V132.21ZM355.5 85.8501H355.87V85.4801H355.5V85.8501ZM355.5 126.16H355.13V126.53H355.5V126.16ZM375.93 126.16H376.3V125.79H375.93V126.16ZM375.93 132.21V132.58H376.3V132.21H375.93ZM384.19 128.62L384.453 128.359L384.453 128.359L384.19 128.62ZM409.91 128.52L410.174 128.779L410.177 128.777L409.91 128.52ZM414.3 85.8501H414.67V85.4801H414.3V85.8501ZM407.58 85.8501V85.4801H407.21V85.8501H407.58ZM407.58 114.65H407.21L407.21 114.659L407.58 114.65ZM406.58 121.34L406.929 121.464L406.931 121.457L406.58 121.34ZM403.22 125.46L403.396 125.786L403.404 125.781L403.411 125.777L403.22 125.46ZM397 126.89L397.016 126.52L396.999 126.52L396.981 126.521L397 126.89ZM390.84 125.49L390.646 125.805L390.655 125.811L390.664 125.815L390.84 125.49ZM387.55 121.37L387.199 121.487L387.2 121.489L387.55 121.37ZM386.55 114.65L386.92 114.66V114.65H386.55ZM386.55 85.8501H386.92V85.4801H386.55V85.8501ZM379.77 85.8501V85.4801H379.4V85.8501H379.77ZM379.77 115.45L380.14 115.451V115.45H379.77ZM434.93 91.9001H435.3V91.5301H434.93V91.9001ZM434.93 132.21H434.56V132.58H434.93V132.21ZM419.76 91.9001H419.39V92.2701H419.76V91.9001ZM419.76 85.8501V85.4801H419.39V85.8501H419.76ZM456.88 85.8501H457.25V85.4801H456.88V85.8501ZM456.88 91.9001V92.2701H457.25V91.9001H456.88ZM441.78 91.9001V91.5301H441.41V91.9001H441.78ZM441.78 132.21V132.58H442.15V132.21H441.78ZM462.8 132.21H462.43V132.58H462.8V132.21ZM462.8 85.8501V85.4801H462.43V85.8501H462.8ZM469.59 132.21V132.58H469.96V132.21H469.59ZM469.59 85.8501H469.96V85.4801H469.59V85.8501ZM487.98 130.08L487.786 130.395L487.79 130.398L487.98 130.08ZM499.33 133.08L499.339 132.71L499.331 132.71L499.322 132.71L499.33 133.08ZM480.37 121.67L480.036 121.83L480.037 121.831L480.37 121.67ZM477.64 109.06L478.01 109.068L478.01 109.06L478.01 109.051L477.64 109.06ZM480.37 96.3898L480.038 96.2271L480.036 96.2298L480.37 96.3898ZM488 87.9998L487.811 87.6819L487.807 87.6844L488 87.9998ZM499.35 84.9998L499.342 85.3697L499.35 85.3699L499.358 85.3697L499.35 84.9998ZM510.85 87.9998L511.043 87.6839L511.038 87.681L510.85 87.9998ZM518.5 96.4198L518.834 96.2597L518.833 96.2581L518.5 96.4198ZM521.23 109.09L520.86 109.081L520.86 109.09L520.86 109.098L521.23 109.09ZM518.47 121.7L518.802 121.863L518.803 121.862L518.47 121.7ZM510.79 130.11L510.978 130.429L510.983 130.425L510.79 130.11ZM507.203 124.529L507.4 124.842L507.4 124.842L507.203 124.529ZM499.33 126.62L499.345 126.25L499.333 126.25L499.321 126.25L499.33 126.62ZM512.5 118.34L512.84 118.486L512.842 118.482L512.5 118.34ZM512.5 99.7198L512.842 99.5776L512.837 99.5663L512.831 99.5553L512.5 99.7198ZM508.714 94.9134L508.952 94.6298L508.952 94.6298L508.714 94.9134ZM491.44 93.5598L491.249 93.2424L491.239 93.2489L491.44 93.5598ZM486.25 99.6498L485.911 99.501L485.907 99.511L486.25 99.6498ZM486.25 118.41L485.907 118.549L485.911 118.559L486.25 118.41ZM491.44 124.5L491.239 124.811L491.247 124.815L491.44 124.5ZM529.33 132.21H528.96V132.58H529.33V132.21ZM529.33 85.8501V85.4801H528.96V85.8501H529.33ZM536.11 132.21V132.58H536.48V132.21H536.11ZM536.11 97.1765L536.426 96.9843L535.74 95.8551V97.1765H536.11ZM557.4 132.21L557.084 132.402L557.192 132.58H557.4V132.21ZM564.54 132.21V132.58H564.91V132.21H564.54ZM564.54 85.8501H564.91V85.4801H564.54V85.8501ZM557.82 85.8501V85.4801H557.45V85.8501H557.82ZM557.82 120.841L557.505 121.035L558.19 122.151V120.841H557.82ZM536.33 85.8501L536.645 85.6565L536.537 85.4801H536.33V85.8501ZM261.17 151.68V151.31H260.8V151.68H261.17ZM261.17 198.05H260.8V198.42L261.17 198.42L261.17 198.05ZM268 151.68H268.37V151.31H268V151.68ZM268 192H267.63V192.37H268V192ZM288.42 192H288.79V191.63H288.42V192ZM288.42 198.06L288.42 198.43L288.79 198.43V198.06H288.42ZM290.24 198.05L289.895 197.916L289.699 198.42H290.24V198.05ZM308.24 151.68V151.31H307.987L307.895 151.546L308.24 151.68ZM297.69 198.05V198.42H297.949L298.038 198.176L297.69 198.05ZM301.43 187.73V187.36H301.171L301.083 187.604L301.43 187.73ZM320.379 187.73L320.727 187.605L320.639 187.36H320.379V187.73ZM324.1 198.05L323.752 198.176L323.84 198.42H324.1V198.05ZM331.5 198.05V198.42H332.041L331.845 197.916L331.5 198.05ZM313.5 151.68L313.845 151.546L313.753 151.31H313.5V151.68ZM310.93 161.52L311.278 161.395L310.931 160.432L310.582 161.394L310.93 161.52ZM318.216 181.73V182.1H318.743L318.564 181.605L318.216 181.73ZM303.605 181.73L303.257 181.604L303.077 182.1H303.605V181.73ZM337.47 151.68V151.31H337.1V151.68H337.47ZM337.47 198.05H337.1V198.419L337.469 198.42L337.47 198.05ZM363.32 154.74L363.553 154.453L363.551 154.451L363.32 154.74ZM367.14 163.32L366.77 163.301L366.77 163.315L366.77 163.328L367.14 163.32ZM365.68 169.21L366.003 169.391L366.003 169.39L365.68 169.21ZM361.56 173.21L361.389 172.882L360.535 173.329L361.468 173.569L361.56 173.21ZM367.56 177.36L367.873 177.164L367.868 177.155L367.863 177.148L367.56 177.36ZM369.56 184.85L369.19 184.836L369.19 184.843V184.85H369.56ZM354.63 198.09L354.629 198.46L354.63 198.46L354.63 198.09ZM353.57 171.05L353.588 170.681L353.579 170.68H353.57V171.05ZM344.26 171.05L343.89 171.049L343.889 171.42H344.26V171.05ZM358.57 169.25L358.82 169.523L358.825 169.518L358.831 169.512L358.57 169.25ZM360.47 164.33L360.101 164.309L360.099 164.329L360.1 164.349L360.47 164.33ZM358.47 159.6L358.712 159.321L358.701 159.311L358.689 159.302L358.47 159.6ZM352.81 157.94V158.31H352.821L352.833 158.309L352.81 157.94ZM344.3 157.94V157.57H343.931L343.93 157.939L344.3 157.94ZM344.26 191.8H343.89V192.17H344.26V191.8ZM362.82 184.48L362.451 184.456L362.45 184.468L362.45 184.48L362.82 184.48ZM360.82 179.03L361.086 178.773L361.075 178.762L361.063 178.751L360.82 179.03ZM355.13 177.1V177.47H355.142L355.153 177.469L355.13 177.1ZM344.26 177.1V176.73H343.89V177.1H344.26ZM392.22 198.84L392.228 198.47H392.22V198.84ZM380.55 195.12L380.316 195.406L380.316 195.407L380.55 195.12ZM400.3 197.04L400.465 197.371L400.466 197.37L400.3 197.04ZM405.72 192.15L406.032 192.349L406.033 192.347L405.72 192.15ZM407.72 185.06L407.35 185.048L407.35 185.056L407.35 185.064L407.72 185.06ZM406.12 178.88L406.438 178.69L406.43 178.678L406.12 178.88ZM401.6 174.52L401.408 174.836L401.41 174.837L401.6 174.52ZM394.54 171.09L394.67 170.743L394.664 170.741L394.54 171.09ZM389.12 168.8L389.284 168.468L389.277 168.465L389.12 168.8ZM385.86 166.3L385.567 166.526L385.572 166.532L385.577 166.538L385.86 166.3ZM384.77 162.98L385.14 162.989L385.14 162.98L385.14 162.971L384.77 162.98ZM385.66 159.75L385.353 159.543L385.347 159.553L385.66 159.75ZM388.19 157.59L388.036 157.253L388.034 157.254L388.19 157.59ZM392.492 156.812L392.518 156.443L392.518 156.443L392.492 156.812ZM396.64 158.19L396.852 157.886L396.84 157.878L396.64 158.19ZM400.2 162.25L399.871 162.42L400.055 162.774L400.394 162.565L400.2 162.25ZM405.59 158.92L405.784 159.235L406.068 159.059L405.923 158.759L405.59 158.92ZM400.03 152.83L400.221 152.512L400.212 152.507L400.03 152.83ZM392.03 150.83L392.023 151.2L392.031 151.2L392.039 151.2L392.03 150.83ZM384.65 152.43L384.808 152.764L384.81 152.764L384.65 152.43ZM379.65 156.79L379.34 156.587L379.336 156.594L379.65 156.79ZM377.89 163.14L378.26 163.15L378.26 163.142L378.26 163.133L377.89 163.14ZM379.45 169.14L379.132 169.329L379.136 169.335L379.14 169.342L379.45 169.14ZM383.91 173.43L384.101 173.113L384.1 173.112L383.91 173.43ZM390.86 176.76L390.989 176.413L390.987 176.412L390.86 176.76ZM396.22 179.12L396.052 179.449L396.057 179.452L396.22 179.12ZM399.68 181.75L399.968 181.518L399.962 181.511L399.956 181.504L399.68 181.75ZM400.91 185.47L400.54 185.455L400.54 185.465L400.54 185.474L400.91 185.47ZM399.78 189.3L400.088 189.505L400.088 189.504L399.78 189.3ZM396.78 191.89L396.933 192.227L396.938 192.224L396.78 191.89ZM392.42 192.79L392.427 192.42L392.418 192.42L392.409 192.42L392.42 192.79ZM385.24 190.46L385.001 190.743L385.007 190.748L385.014 190.752L385.24 190.46ZM381.58 183.61L381.948 183.569L381.901 183.151L381.493 183.25L381.58 183.61ZM374.99 185.21L374.903 184.85L374.578 184.929L374.623 185.26L374.99 185.21ZM414.77 190V189.63H414.4V190H414.77ZM414.77 198.05H414.4V198.42H414.77V198.05ZM422.09 190H422.46V189.63H422.09V190ZM422.09 198.05V198.42H422.46V198.05H422.09ZM431.4 198.05H431.03V198.42H431.4V198.05ZM431.4 151.68V151.31H431.03V151.68H431.4ZM438.19 198.05V198.42H438.56V198.05H438.19ZM438.19 151.68H438.56V151.31H438.19V151.68ZM448.17 151.68V151.31H447.8V151.68H448.17ZM448.17 198.05H447.8V198.42H448.17V198.05ZM485.18 175.23L484.81 175.23V175.23H485.18ZM461.1 198.05L461.101 197.68H461.1V198.05ZM460.54 191.79L460.549 191.42H460.54V191.79ZM454.95 191.79L454.58 191.79L454.579 192.16H454.95V191.79ZM470.19 190.2L470.318 190.548L470.324 190.545L470.19 190.2ZM476.27 184.87L475.948 184.688L475.946 184.692L476.27 184.87ZM478.37 174.96L478 174.945L478 174.952V174.96H478.37ZM476.31 165.08L476.643 164.918L476.64 164.912L476.636 164.905L476.31 165.08ZM470.39 159.63L470.537 159.291L470.53 159.288L470.39 159.63ZM461.14 157.93V158.3L461.149 158.3L461.14 157.93ZM455 157.93V157.56H454.631L454.63 157.93L455 157.93ZM500.37 168.52L500.377 168.15L500.366 168.15L500.37 168.52ZM495.37 167.24L495.551 166.918L495.55 166.917L495.37 167.24ZM505.43 167.24L505.249 166.917L505.248 166.918L505.43 167.24ZM509.02 163.72L509.339 163.908L509.344 163.899L509.02 163.72ZM509.02 153.32L509.344 153.141L509.339 153.133L509.02 153.32ZM505.43 149.79L505.612 149.468L505.607 149.465L505.43 149.79ZM495.37 149.79L495.193 149.465L495.189 149.467L495.37 149.79ZM491.76 153.32L491.441 153.132L491.436 153.141L491.76 153.32ZM491.76 163.72L491.436 163.899L491.441 163.908L491.76 163.72ZM500.37 166.74L500.375 166.37L500.366 166.37L500.37 166.74ZM504.52 165.69L504.342 165.366L504.34 165.367L504.52 165.69ZM496.24 165.69L496.42 165.367L496.418 165.366L496.24 165.69ZM493.24 162.78L492.919 162.965L492.921 162.968L493.24 162.78ZM492.14 158.52L492.51 158.527L492.51 158.513L492.14 158.52ZM493.24 154.21L492.922 154.021L492.919 154.027L493.24 154.21ZM496.24 151.3L496.065 150.974L496.061 150.977L496.24 151.3ZM504.52 151.3L504.699 150.977L504.695 150.974L504.52 151.3ZM507.52 154.21L507.841 154.026L507.838 154.021L507.52 154.21ZM508.62 158.52L508.25 158.513L508.25 158.527L508.62 158.52ZM507.52 162.78L507.839 162.968L507.841 162.965L507.52 162.78ZM497.31 164.1H496.94V164.468L497.308 164.47L497.31 164.1ZM497.31 152.89V152.52H496.94V152.89H497.31ZM499 164.11L498.998 164.48L499.37 164.482V164.11H499ZM499 159.34V158.97H498.63V159.34H499ZM500.53 159.34L500.856 159.165L500.751 158.97H500.53V159.34ZM503.09 164.11L502.764 164.285L502.869 164.48H503.09V164.11ZM504.95 164.11V164.48H505.581L505.273 163.929L504.95 164.11ZM502.15 159.11L502.079 158.747L501.577 158.845L501.827 159.291L502.15 159.11ZM503.92 158.11L504.195 158.358L504.201 158.351L504.207 158.343L503.92 158.11ZM504.56 156.11L504.19 156.094L504.189 156.113L504.191 156.133L504.56 156.11ZM504.352 154.844L504.696 154.71L504.696 154.71L504.352 154.844ZM503.65 153.77L503.911 153.508L503.898 153.495L503.883 153.483L503.65 153.77ZM500.8 152.89V153.26H500.815L500.83 153.259L500.8 152.89ZM499.05 157.78H498.68V158.15H499.05V157.78ZM500.6 157.78L500.613 157.41H500.6V157.78ZM499.05 154.45V154.08H498.68V154.45H499.05ZM500.6 154.45V154.82H500.608L500.615 154.82L500.6 154.45ZM502.21 154.79L502.405 154.476L502.389 154.466L502.373 154.458L502.21 154.79ZM502.722 155.357L503.054 155.196L503.054 155.196L502.722 155.357ZM502.85 156.11L502.482 156.068L502.477 156.111L502.483 156.154L502.85 156.11ZM502.723 156.864L502.39 156.702L502.39 156.702L502.723 156.864ZM502.21 157.43L502.375 157.761L502.39 157.754L502.403 157.746L502.21 157.43ZM275.74 132.63C271.066 132.63 267.255 131.409 264.304 128.994L263.836 129.566C266.945 132.111 270.934 133.37 275.74 133.37V132.63ZM283.597 130.908C281.158 132.107 278.466 132.698 275.749 132.63L275.731 133.37C278.567 133.44 281.377 132.824 283.923 131.572L283.597 130.908ZM288.868 126.151C287.574 128.186 285.751 129.831 283.595 130.909L283.926 131.571C286.202 130.432 288.126 128.696 289.492 126.549L288.868 126.151ZM290.81 119.275C290.843 121.707 290.168 124.097 288.867 126.152L289.493 126.548C290.87 124.371 291.585 121.841 291.55 119.265L290.81 119.275ZM289.262 113.269C290.338 115.078 290.875 117.155 290.81 119.259L291.55 119.281C291.619 117.037 291.046 114.82 289.898 112.891L289.262 113.269ZM284.869 109.047C286.636 110.11 288.14 111.558 289.271 113.283L289.889 112.877C288.698 111.059 287.113 109.534 285.251 108.413L284.869 109.047ZM277.87 105.646C280.304 106.558 282.647 107.697 284.868 109.046L285.252 108.414C282.991 107.04 280.607 105.882 278.13 104.954L277.87 105.646ZM272.417 103.342C274.192 104.213 276.014 104.983 277.875 105.648L278.125 104.952C276.289 104.296 274.493 103.536 272.743 102.678L272.417 103.342ZM269.038 100.749C269.968 101.846 271.122 102.731 272.422 103.345L272.738 102.675C271.533 102.107 270.464 101.287 269.602 100.271L269.038 100.749ZM267.85 97.1822C267.823 98.4673 268.239 99.7224 269.028 100.737L269.612 100.283C268.927 99.4023 268.567 98.313 268.59 97.1978L267.85 97.1822ZM268.808 93.7606C268.153 94.7854 267.819 95.9832 267.85 97.1995L268.59 97.1805C268.562 96.112 268.856 95.0597 269.432 94.1594L268.808 93.7606ZM271.494 91.4643C270.408 91.968 269.481 92.7598 268.813 93.7537L269.427 94.1664C270.019 93.2848 270.842 92.5825 271.806 92.1357L271.494 91.4643ZM275.347 90.6301C274.014 90.605 272.693 90.8913 271.49 91.4662L271.81 92.1338C272.909 91.6086 274.115 91.347 275.333 91.3699L275.347 90.6301ZM280.261 92.0292C278.794 91.0822 277.078 90.595 275.333 90.6301L275.347 91.3699C276.945 91.3378 278.517 91.7838 279.859 92.6508L280.261 92.0292ZM283.948 96.2289C283.076 94.5575 281.816 93.1199 280.273 92.0371L279.847 92.6429C281.294 93.6576 282.475 95.0048 283.292 96.5711L283.948 96.2289ZM288.816 92.765L283.426 96.085L283.814 96.715L289.204 93.395L288.816 92.765ZM283.26 87.3077C285.609 88.71 287.493 90.7733 288.676 93.24L289.344 92.92C288.098 90.3222 286.114 88.1491 283.64 86.6723L283.26 87.3077ZM275.507 85.3599C278.222 85.3058 280.902 85.98 283.268 87.3124L283.632 86.6676C281.15 85.2703 278.34 84.5633 275.493 84.6201L275.507 85.3599ZM268.28 86.9234C270.528 85.8425 272.999 85.3068 275.492 85.3599L275.508 84.6201C272.898 84.5645 270.312 85.1252 267.96 86.2566L268.28 86.9234ZM263.43 91.1426C264.625 89.3155 266.303 87.8555 268.278 86.9247L267.962 86.2553C265.864 87.2445 264.08 88.796 262.81 90.7375L263.43 91.1426ZM261.73 97.2934C261.691 95.1193 262.283 92.9806 263.434 91.1359L262.806 90.7441C261.579 92.7102 260.948 94.9896 260.99 97.3066L261.73 97.2934ZM263.238 103.111C262.196 101.359 261.673 99.3477 261.73 97.3104L260.99 97.2896C260.929 99.4672 261.488 101.617 262.602 103.489L263.238 103.111ZM267.569 107.272C265.822 106.232 264.337 104.804 263.23 103.099L262.61 103.501C263.778 105.302 265.346 106.81 267.191 107.908L267.569 107.272ZM274.505 110.562C272.091 109.697 269.768 108.595 267.571 107.273L267.189 107.907C269.428 109.254 271.795 110.377 274.255 111.258L274.505 110.562ZM279.909 112.951C278.157 112.052 276.354 111.255 274.51 110.564L274.25 111.256C276.068 111.938 277.844 112.723 279.571 113.609L279.909 112.951ZM283.475 115.653C282.468 114.531 281.256 113.613 279.903 112.948L279.577 113.612C280.844 114.236 281.981 115.096 282.925 116.147L283.475 115.653ZM284.8 119.644C284.856 118.204 284.39 116.793 283.489 115.668L282.911 116.132C283.702 117.117 284.11 118.354 284.06 119.616L284.8 119.644ZM283.608 123.655C284.402 122.462 284.817 121.058 284.8 119.626L284.06 119.634C284.075 120.918 283.703 122.176 282.992 123.245L283.608 123.655ZM280.458 126.385C281.738 125.78 282.828 124.836 283.609 123.654L282.991 123.246C282.286 124.315 281.3 125.169 280.142 125.715L280.458 126.385ZM275.933 127.32C277.49 127.35 279.035 127.031 280.453 126.387L280.147 125.713C278.829 126.312 277.394 126.608 275.947 126.58L275.933 127.32ZM268.534 124.913C270.652 126.552 273.274 127.403 275.951 127.32L275.929 126.58C273.423 126.658 270.969 125.861 268.986 124.327L268.534 124.913ZM264.732 117.811C265.039 120.573 266.396 123.112 268.522 124.903L268.998 124.337C267.018 122.668 265.754 120.303 265.468 117.729L264.732 117.811ZM258.597 119.72L265.187 118.13L265.013 117.41L258.423 119L258.597 119.72ZM264.304 128.994C261.338 126.566 259.399 123.107 258.877 119.31L258.143 119.41C258.692 123.393 260.725 127.02 263.836 129.566L264.304 128.994ZM318.712 132.71C314.792 132.794 310.927 131.772 307.56 129.762L307.18 130.398C310.667 132.479 314.668 133.536 318.728 133.45L318.712 132.71ZM329.972 129.791C326.57 131.793 322.675 132.804 318.729 132.71L318.711 133.45C322.796 133.547 326.826 132.5 330.348 130.429L329.972 129.791ZM337.508 121.536C335.827 124.947 333.212 127.811 329.967 129.794L330.353 130.425C333.717 128.369 336.428 125.4 338.172 121.863L337.508 121.536ZM340.23 109.098C340.324 113.402 339.39 117.667 337.507 121.538L338.173 121.862C340.107 117.884 341.066 113.503 340.97 109.082L340.23 109.098ZM337.536 96.5798C339.406 100.477 340.329 104.76 340.23 109.081L340.97 109.098C341.071 104.661 340.124 100.262 338.204 96.2598L337.536 96.5798ZM330.027 88.3156C333.27 90.295 335.877 93.1639 337.537 96.5815L338.203 96.2581C336.481 92.7131 333.777 89.7371 330.413 87.684L330.027 88.3156ZM318.728 85.3697C322.697 85.2831 326.611 86.3043 330.032 88.3186L330.408 87.681C326.868 85.5968 322.818 84.5403 318.712 84.6299L318.728 85.3697ZM307.559 88.3177C310.928 86.3116 314.792 85.2903 318.712 85.3697L318.727 84.6299C314.669 84.5477 310.669 85.605 307.181 87.6819L307.559 88.3177ZM300.062 96.5526C301.73 93.1503 304.331 90.2931 307.563 88.3154L307.177 87.6842C303.825 89.7353 301.127 92.6985 299.398 96.227L300.062 96.5526ZM297.37 109.051C297.271 104.73 298.194 100.447 300.064 96.5498L299.396 96.2298C297.476 100.232 296.529 104.631 296.63 109.068L297.37 109.051ZM300.093 121.509C298.219 117.634 297.285 113.371 297.37 109.067L296.63 109.053C296.543 113.473 297.502 117.851 299.427 121.831L300.093 121.509ZM307.564 129.765C304.337 127.781 301.745 124.917 300.093 121.508L299.427 121.831C301.141 125.366 303.829 128.338 307.176 130.395L307.564 129.765ZM318.704 126.989C321.555 127.109 324.375 126.36 326.79 124.842L326.396 124.215C324.108 125.654 321.436 126.364 318.735 126.25L318.704 126.989ZM310.637 124.815C313.068 126.305 315.878 127.06 318.729 126.99L318.711 126.25C316.003 126.317 313.333 125.6 311.023 124.184L310.637 124.815ZM305.301 118.559C306.426 121.12 308.279 123.294 310.629 124.811L311.031 124.189C308.802 122.751 307.045 120.689 305.979 118.261L305.301 118.559ZM305.297 99.511C302.826 105.616 302.826 112.443 305.297 118.549L305.983 118.271C303.584 112.344 303.584 105.716 305.983 99.7886L305.297 99.511ZM310.629 93.2489C308.279 94.7657 306.426 96.9398 305.301 99.501L305.979 99.7986C307.045 97.3702 308.802 95.3088 311.031 93.8707L310.629 93.2489ZM316.562 91.1841C314.467 91.4541 312.45 92.155 310.639 93.2426L311.02 93.877C312.744 92.842 314.663 92.175 316.656 91.9181L316.562 91.1841ZM322.812 91.674C320.785 91.0809 318.657 90.9142 316.562 91.1841L316.656 91.9181C318.65 91.6612 320.675 91.8199 322.605 92.3842L322.812 91.674ZM328.342 94.6298C326.723 93.2734 324.84 92.267 322.812 91.674L322.605 92.3842C324.534 92.9485 326.326 93.9063 327.867 95.1971L328.342 94.6298ZM332.221 99.5553C331.282 97.6632 329.961 95.9862 328.342 94.6298L327.867 95.1971C329.408 96.4879 330.665 98.0838 331.559 99.8843L332.221 99.5553ZM334.12 109.03C334.12 105.785 333.478 102.573 332.232 99.5776L331.548 99.862C332.757 102.767 333.38 105.883 333.38 109.03H334.12ZM332.232 118.482C333.478 115.487 334.12 112.274 334.12 109.03H333.38C333.38 112.177 332.757 115.292 331.548 118.198L332.232 118.482ZM326.79 124.842C329.205 123.323 331.102 121.107 332.23 118.486L331.55 118.194C330.482 120.677 328.685 122.777 326.396 124.215L326.79 124.842ZM348.35 85.8501V132.21H349.09V85.8501H348.35ZM355.5 85.4801H348.72V86.2201H355.5V85.4801ZM355.87 126.16V85.8501H355.13V126.16H355.87ZM375.93 125.79H355.5V126.53H375.93V125.79ZM376.3 132.21V126.16H375.56V132.21H376.3ZM348.72 132.58H375.93V131.84H348.72V132.58ZM397 132.71C391.478 132.71 387.316 131.242 384.453 128.359L383.928 128.881C386.971 131.945 391.349 133.45 397 133.45V132.71ZM409.646 128.261C406.756 131.209 402.554 132.71 397 132.71V133.45C402.686 133.45 407.104 131.911 410.174 128.779L409.646 128.261ZM413.93 115.12C413.93 120.956 412.481 125.316 409.644 128.263L410.177 128.777C413.192 125.644 414.67 121.071 414.67 115.12H413.93ZM413.93 85.8501V115.12H414.67V85.8501H413.93ZM407.58 86.2201H414.3V85.4801H407.58V86.2201ZM407.95 114.65V85.8501H407.21V114.65H407.95ZM406.931 121.457C407.663 119.261 408.008 116.955 407.95 114.641L407.21 114.659C407.266 116.888 406.934 119.109 406.229 121.223L406.931 121.457ZM403.411 125.777C405.047 124.789 406.29 123.265 406.929 121.464L406.231 121.216C405.65 122.856 404.518 124.244 403.029 125.143L403.411 125.777ZM396.984 127.26C399.215 127.356 401.431 126.847 403.396 125.786L403.044 125.135C401.197 126.132 399.114 126.611 397.016 126.52L396.984 127.26ZM390.664 125.815C392.609 126.871 394.808 127.371 397.019 127.26L396.981 126.521C394.906 126.625 392.843 126.156 391.017 125.165L390.664 125.815ZM387.2 121.489C387.811 123.285 389.03 124.812 390.646 125.805L391.034 125.175C389.564 124.271 388.456 122.884 387.9 121.251L387.2 121.489ZM386.18 114.64C386.118 116.965 386.463 119.282 387.199 121.487L387.901 121.253C387.192 119.129 386.86 116.898 386.92 114.66L386.18 114.64ZM386.18 85.8501V114.65H386.92V85.8501H386.18ZM379.77 86.2201H386.55V85.4801H379.77V86.2201ZM380.14 115.45V85.8501H379.4V115.45H380.14ZM384.453 128.359C381.591 125.479 380.133 121.198 380.14 115.451L379.4 115.45C379.393 121.316 380.882 125.815 383.928 128.881L384.453 128.359ZM434.56 91.9001V132.21H435.3V91.9001H434.56ZM419.76 92.2701H434.93V91.5301H419.76V92.2701ZM419.39 85.8501V91.9001H420.13V85.8501H419.39ZM456.88 85.4801H419.76V86.2201H456.88V85.4801ZM457.25 91.9001V85.8501H456.51V91.9001H457.25ZM441.78 92.2701H456.88V91.5301H441.78V92.2701ZM442.15 132.21V91.9001H441.41V132.21H442.15ZM434.93 132.58H441.78V131.84H434.93V132.58ZM463.17 132.21V85.8501H462.43V132.21H463.17ZM469.59 131.84H462.8V132.58H469.59V131.84ZM469.22 85.8501V132.21H469.96V85.8501H469.22ZM462.8 86.2201H469.59V85.4801H462.8V86.2201ZM487.79 130.398C491.277 132.479 495.278 133.536 499.338 133.45L499.322 132.71C495.402 132.794 491.537 131.772 488.17 129.762L487.79 130.398ZM480.037 121.831C481.751 125.366 484.439 128.338 487.786 130.395L488.174 129.765C484.947 127.781 482.355 124.917 480.703 121.508L480.037 121.831ZM477.27 109.052C477.174 113.47 478.122 117.848 480.036 121.83L480.703 121.509C478.839 117.632 477.916 113.369 478.01 109.068L477.27 109.052ZM480.036 96.2298C478.116 100.232 477.169 104.631 477.27 109.068L478.01 109.051C477.911 104.73 478.834 100.447 480.704 96.5498L480.036 96.2298ZM487.807 87.6844C484.459 89.737 481.764 92.7 480.038 96.2271L480.702 96.5525C482.367 93.1514 484.965 90.2944 488.193 88.3152L487.807 87.6844ZM499.357 84.6299C495.299 84.5477 491.299 85.605 487.811 87.6819L488.189 88.3177C491.558 86.3116 495.422 85.2903 499.342 85.3697L499.357 84.6299ZM511.038 87.681C507.498 85.5968 503.448 84.5403 499.342 84.6299L499.358 85.3697C503.327 85.2831 507.241 86.3043 510.662 88.3186L511.038 87.681ZM518.833 96.2581C517.111 92.7131 514.407 89.7371 511.043 87.684L510.657 88.3156C513.9 90.295 516.507 93.1639 518.167 96.5815L518.833 96.2581ZM521.6 109.098C521.701 104.661 520.754 100.262 518.834 96.2598L518.166 96.5798C520.036 100.477 520.959 104.76 520.86 109.081L521.6 109.098ZM518.803 121.862C520.737 117.884 521.696 113.503 521.6 109.082L520.86 109.098C520.954 113.402 520.02 117.667 518.137 121.538L518.803 121.862ZM510.983 130.425C514.347 128.369 517.058 125.4 518.802 121.863L518.138 121.536C516.457 124.947 513.842 127.811 510.597 129.794L510.983 130.425ZM499.321 133.45C503.412 133.551 507.45 132.504 510.978 130.429L510.602 129.791C507.194 131.796 503.292 132.807 499.339 132.71L499.321 133.45ZM507.006 124.215C504.718 125.654 502.046 126.364 499.345 126.25L499.314 126.989C502.165 127.109 504.985 126.36 507.4 124.842L507.006 124.215ZM512.16 118.194C511.092 120.677 509.295 122.777 507.006 124.215L507.4 124.842C509.815 123.323 511.712 121.107 512.84 118.486L512.16 118.194ZM513.99 109.03C513.99 112.177 513.367 115.292 512.158 118.198L512.842 118.482C514.088 115.487 514.73 112.274 514.73 109.03H513.99ZM512.158 99.862C513.367 102.767 513.99 105.883 513.99 109.03H514.73C514.73 105.785 514.088 102.573 512.842 99.5776L512.158 99.862ZM508.477 95.1971C510.018 96.4879 511.275 98.0838 512.169 99.8843L512.831 99.5553C511.892 97.6632 510.571 95.9862 508.952 94.6298L508.477 95.1971ZM503.215 92.3842C505.144 92.9485 506.936 93.9063 508.477 95.1971L508.952 94.6298C507.333 93.2734 505.45 92.267 503.422 91.674L503.215 92.3842ZM497.266 91.9181C499.26 91.6612 501.285 91.8199 503.215 92.3842L503.422 91.674C501.395 91.0809 499.267 90.9142 497.172 91.1841L497.266 91.9181ZM491.63 93.877C493.354 92.842 495.273 92.175 497.266 91.9181L497.172 91.1841C495.077 91.4541 493.06 92.155 491.249 93.2426L491.63 93.877ZM486.589 99.7986C487.655 97.3702 489.412 95.3088 491.641 93.8707L491.239 93.2489C488.889 94.7657 487.036 96.9398 485.911 99.501L486.589 99.7986ZM486.593 118.271C484.194 112.344 484.194 105.716 486.593 99.7886L485.907 99.511C483.436 105.616 483.436 112.443 485.907 118.549L486.593 118.271ZM491.641 124.189C489.412 122.751 487.655 120.689 486.589 118.261L485.911 118.559C487.036 121.12 488.889 123.294 491.239 124.811L491.641 124.189ZM499.321 126.25C496.613 126.317 493.943 125.6 491.633 124.184L491.247 124.815C493.678 126.305 496.488 127.06 499.339 126.99L499.321 126.25ZM529.7 132.21V85.8501H528.96V132.21H529.7ZM536.11 131.84H529.33V132.58H536.11V131.84ZM535.74 97.1765V132.21H536.48V97.1765H535.74ZM557.716 132.018L536.426 96.9843L535.794 97.3686L557.084 132.402L557.716 132.018ZM564.54 131.84H557.4V132.58H564.54V131.84ZM564.17 85.8501V132.21H564.91V85.8501H564.17ZM557.82 86.2201H564.54V85.4801H557.82V86.2201ZM558.19 120.841V85.8501H557.45V120.841H558.19ZM536.015 86.0437L557.505 121.035L558.135 120.648L536.645 85.6565L536.015 86.0437ZM529.33 86.2201H536.33V85.4801H529.33V86.2201ZM260.8 151.68V198.05H261.54V151.68H260.8ZM268 151.31H261.17V152.05H268V151.31ZM268.37 192V151.68H267.63V192H268.37ZM288.42 191.63H268V192.37H288.42V191.63ZM288.79 198.06V192H288.05V198.06H288.79ZM261.17 198.42L288.42 198.43L288.42 197.69L261.17 197.68L261.17 198.42ZM290.585 198.184L308.585 151.814L307.895 151.546L289.895 197.916L290.585 198.184ZM297.69 197.68H290.24V198.42H297.69V197.68ZM301.083 187.604L297.342 197.924L298.038 198.176L301.778 187.856L301.083 187.604ZM320.379 187.36H301.43V188.1H320.379V187.36ZM324.448 197.925L320.727 187.605L320.031 187.856L323.752 198.176L324.448 197.925ZM331.5 197.68H324.1V198.42H331.5V197.68ZM313.155 151.814L331.155 198.184L331.845 197.916L313.845 151.546L313.155 151.814ZM308.24 152.05H313.5V151.31H308.24V152.05ZM310.582 161.646L317.868 181.856L318.564 181.605L311.278 161.395L310.582 161.646ZM303.953 181.856L311.278 161.646L310.582 161.394L303.257 181.604L303.953 181.856ZM318.216 181.36H303.605V182.1H318.216V181.36ZM337.1 151.68V198.05H337.84V151.68H337.1ZM352.77 151.31H337.47V152.05H352.77V151.31ZM363.551 154.451C360.911 152.342 357.303 151.31 352.77 151.31V152.05C357.197 152.05 360.622 153.058 363.089 155.029L363.551 154.451ZM366.596 158.422C365.909 156.878 364.866 155.518 363.553 154.453L363.087 155.028C364.309 156.019 365.28 157.285 365.92 158.723L366.596 158.422ZM367.509 163.339C367.597 161.651 367.284 159.966 366.596 158.422L365.92 158.723C366.56 160.161 366.852 161.729 366.77 163.301L367.509 163.339ZM366.003 169.39C367.035 167.533 367.555 165.436 367.51 163.312L366.77 163.328C366.812 165.32 366.324 167.288 365.357 169.03L366.003 169.39ZM361.731 173.538C363.527 172.599 365.011 171.158 366.003 169.391L365.357 169.029C364.436 170.671 363.057 172.01 361.389 172.882L361.731 173.538ZM367.863 177.148C366.371 175.021 364.168 173.498 361.652 172.852L361.468 173.569C363.813 174.171 365.866 175.591 367.257 177.573L367.863 177.148ZM369.93 184.864C370.034 182.149 369.318 179.465 367.873 177.164L367.247 177.557C368.612 179.733 369.289 182.269 369.19 184.836L369.93 184.864ZM365.876 194.867C368.59 192.457 369.93 189.101 369.93 184.85H369.19C369.19 188.933 367.91 192.07 365.384 194.314L365.876 194.867ZM354.63 198.46C359.403 198.453 363.168 197.272 365.876 194.867L365.384 194.314C362.852 196.562 359.284 197.714 354.629 197.72L354.63 198.46ZM337.469 198.42L354.629 198.46L354.631 197.72L337.471 197.68L337.469 198.42ZM353.57 170.68H344.26V171.42H353.57V170.68ZM356.125 170.302C355.312 170.594 354.45 170.723 353.588 170.681L353.552 171.42C354.512 171.467 355.471 171.324 356.375 170.998L356.125 170.302ZM358.32 168.977C357.683 169.559 356.937 170.01 356.125 170.302L356.375 170.998C357.279 170.673 358.11 170.171 358.82 169.523L358.32 168.977ZM359.698 166.859C359.389 167.658 358.916 168.384 358.309 168.988L358.831 169.512C359.512 168.835 360.042 168.022 360.388 167.126L359.698 166.859ZM360.1 164.349C360.144 165.205 360.007 166.06 359.698 166.859L360.388 167.126C360.734 166.23 360.888 165.271 360.839 164.311L360.1 164.349ZM359.679 161.877C360.004 162.645 360.148 163.477 360.101 164.309L360.839 164.351C360.893 163.406 360.729 162.461 360.361 161.589L359.679 161.877ZM358.228 159.88C358.858 160.426 359.354 161.109 359.679 161.877L360.361 161.589C359.992 160.716 359.428 159.941 358.712 159.321L358.228 159.88ZM352.833 158.309C354.769 158.189 356.687 158.751 358.251 159.899L358.689 159.302C356.985 158.052 354.896 157.439 352.787 157.571L352.833 158.309ZM344.3 158.31H352.81V157.57H344.3V158.31ZM344.63 171.051L344.67 157.941L343.93 157.939L343.89 171.049L344.63 171.051ZM354.11 191.43H344.26V192.17H354.11V191.43ZM362.45 184.48C362.447 186.844 361.745 188.556 360.399 189.687C359.042 190.828 356.967 191.43 354.11 191.43V192.17C357.053 192.17 359.33 191.552 360.876 190.253C362.433 188.944 363.187 186.996 363.19 184.481L362.45 184.48ZM362.049 181.671C362.376 182.561 362.512 183.51 362.451 184.456L363.189 184.504C363.258 183.455 363.106 182.403 362.744 181.416L362.049 181.671ZM360.554 179.287C361.213 179.969 361.722 180.781 362.049 181.671L362.744 181.416C362.381 180.429 361.817 179.529 361.086 178.773L360.554 179.287ZM355.153 177.469C357.133 177.345 359.081 178.006 360.577 179.309L361.063 178.751C359.421 177.321 357.281 176.595 355.107 176.731L355.153 177.469ZM344.26 177.47H355.13V176.73H344.26V177.47ZM344.63 191.8V177.1H343.89V191.8H344.63ZM392.22 198.47C387.547 198.47 383.745 197.249 380.784 194.833L380.316 195.407C383.435 197.951 387.413 199.21 392.22 199.21V198.47ZM400.135 196.708C397.681 197.927 394.968 198.531 392.228 198.47L392.212 199.21C395.071 199.274 397.903 198.643 400.465 197.371L400.135 196.708ZM405.408 191.951C404.111 193.983 402.289 195.627 400.134 196.709L400.466 197.37C402.74 196.229 404.663 194.494 406.032 192.349L405.408 191.951ZM407.35 185.064C407.38 187.5 406.705 189.892 405.407 191.953L406.033 192.347C407.407 190.166 408.122 187.633 408.09 185.055L407.35 185.064ZM405.802 179.069C406.879 180.873 407.416 182.948 407.35 185.048L408.09 185.071C408.16 182.83 407.587 180.616 406.438 178.69L405.802 179.069ZM401.41 174.837C403.181 175.898 404.686 177.35 405.81 179.081L406.43 178.678C405.245 176.852 403.658 175.321 401.79 174.202L401.41 174.837ZM394.41 171.436C396.842 172.352 399.185 173.49 401.408 174.836L401.792 174.203C399.529 172.834 397.145 171.676 394.67 170.744L394.41 171.436ZM388.956 169.132C390.729 170.007 392.553 170.777 394.416 171.439L394.664 170.741C392.827 170.09 391.031 169.331 389.284 168.468L388.956 169.132ZM385.577 166.538C386.504 167.639 387.66 168.525 388.963 169.135L389.277 168.465C388.071 167.9 387.001 167.08 386.143 166.061L385.577 166.538ZM384.4 162.971C384.369 164.255 384.781 165.51 385.567 166.526L386.153 166.073C385.471 165.192 385.113 164.103 385.14 162.989L384.4 162.971ZM385.347 159.553C384.701 160.581 384.372 161.775 384.4 162.988L385.14 162.971C385.115 161.903 385.405 160.851 385.973 159.947L385.347 159.553ZM388.034 157.254C386.948 157.758 386.021 158.55 385.353 159.543L385.967 159.956C386.559 159.075 387.382 158.372 388.346 157.925L388.034 157.254ZM392.518 156.443C390.98 156.333 389.439 156.612 388.036 157.253L388.344 157.926C389.634 157.337 391.051 157.08 392.465 157.181L392.518 156.443ZM396.84 157.878C395.542 157.046 394.056 156.552 392.518 156.443L392.465 157.181C393.88 157.281 395.247 157.735 396.44 158.501L396.84 157.878ZM400.529 162.08C399.662 160.404 398.4 158.964 396.851 157.886L396.429 158.493C397.878 159.503 399.06 160.85 399.871 162.42L400.529 162.08ZM405.396 158.605L400.006 161.935L400.394 162.565L405.784 159.235L405.396 158.605ZM399.84 153.147C402.185 154.555 404.068 156.617 405.257 159.081L405.923 158.759C404.671 156.166 402.689 153.995 400.22 152.513L399.84 153.147ZM392.039 151.2C394.77 151.137 397.468 151.811 399.848 153.152L400.212 152.507C397.715 151.101 394.886 150.394 392.021 150.46L392.039 151.2ZM384.81 152.764C387.059 151.687 389.529 151.151 392.023 151.2L392.037 150.46C389.428 150.409 386.844 150.97 384.49 152.096L384.81 152.764ZM379.96 156.992C381.155 155.162 382.833 153.699 384.808 152.764L384.492 152.095C382.393 153.089 380.61 154.643 379.34 156.587L379.96 156.992ZM378.26 163.133C378.221 160.962 378.813 158.827 379.964 156.986L379.336 156.594C378.11 158.556 377.479 160.832 377.52 163.146L378.26 163.133ZM379.768 168.951C378.726 167.199 378.203 165.188 378.26 163.15L377.52 163.129C377.459 165.307 378.018 167.457 379.132 169.329L379.768 168.951ZM384.1 173.112C382.354 172.07 380.87 170.642 379.76 168.938L379.14 169.342C380.311 171.14 381.878 172.647 383.72 173.747L384.1 173.112ZM390.987 176.412C388.591 175.537 386.285 174.432 384.101 173.113L383.719 173.746C385.943 175.09 388.292 176.216 390.733 177.107L390.987 176.412ZM396.388 178.79C394.636 177.895 392.833 177.101 390.989 176.413L390.731 177.106C392.548 177.785 394.324 178.567 396.052 179.449L396.388 178.79ZM399.956 181.504C398.952 180.376 397.738 179.454 396.383 178.788L396.057 179.452C397.326 180.076 398.463 180.94 399.404 181.996L399.956 181.504ZM401.28 185.484C401.336 184.047 400.87 182.638 399.968 181.518L399.392 181.982C400.182 182.963 400.59 184.197 400.54 185.455L401.28 185.484ZM400.088 189.504C400.882 188.308 401.297 186.901 401.28 185.465L400.54 185.474C400.555 186.761 400.183 188.023 399.472 189.095L400.088 189.504ZM396.938 192.224C398.215 191.621 399.304 190.681 400.088 189.505L399.472 189.095C398.763 190.158 397.778 191.009 396.622 191.555L396.938 192.224ZM392.413 193.16C393.97 193.191 395.515 192.872 396.933 192.227L396.627 191.553C395.309 192.152 393.874 192.449 392.427 192.42L392.413 193.16ZM385.014 190.752C387.132 192.391 389.754 193.242 392.431 193.16L392.409 192.42C389.903 192.497 387.449 191.701 385.466 190.167L385.014 190.752ZM381.212 183.651C381.522 186.413 382.878 188.951 385.001 190.743L385.479 190.177C383.5 188.507 382.236 186.142 381.948 183.569L381.212 183.651ZM375.077 185.569L381.667 183.969L381.493 183.25L374.903 184.85L375.077 185.569ZM380.784 194.833C377.818 192.41 375.879 188.954 375.357 185.159L374.623 185.26C375.171 189.24 377.205 192.865 380.316 195.406L380.784 194.833ZM414.4 190V198.05H415.14V190H414.4ZM422.09 189.63H414.77V190.37H422.09V189.63ZM422.46 198.05V190H421.72V198.05H422.46ZM414.77 198.42H422.09V197.68H414.77V198.42ZM431.77 198.05V151.68H431.03V198.05H431.77ZM438.19 197.68H431.4V198.42H438.19V197.68ZM437.82 151.68V198.05H438.56V151.68H437.82ZM431.4 152.05H438.19V151.31H431.4V152.05ZM447.8 151.68V198.05H448.54V151.68H447.8ZM461.17 151.31H448.17V152.05H461.17V151.31ZM479.158 157.565C474.871 153.38 468.857 151.31 461.17 151.31V152.05C468.723 152.05 474.529 154.081 478.642 158.095L479.158 157.565ZM485.55 175.231C485.563 167.66 483.448 161.753 479.158 157.565L478.642 158.095C482.752 162.107 484.823 167.8 484.81 175.23L485.55 175.231ZM479.215 192.428C483.454 188.387 485.55 182.635 485.55 175.23H484.81C484.81 182.492 482.759 188.027 478.705 191.892L479.215 192.428ZM461.099 198.42C468.92 198.447 474.978 196.468 479.215 192.428L478.705 191.892C474.649 195.759 468.8 197.707 461.101 197.68L461.099 198.42ZM448.17 198.42H461.1V197.68H448.17V198.42ZM460.54 191.42H454.95V192.16H460.54V191.42ZM470.063 189.853C467.019 190.97 463.791 191.502 460.549 191.42L460.531 192.16C463.865 192.244 467.186 191.697 470.318 190.548L470.063 189.853ZM475.946 184.692C474.652 187.053 472.566 188.882 470.056 189.855L470.324 190.545C472.996 189.508 475.217 187.562 476.594 185.048L475.946 184.692ZM478 174.96C478 179.05 477.306 182.283 475.948 184.688L476.592 185.052C478.035 182.497 478.74 179.124 478.74 174.96H478ZM475.977 165.242C477.447 168.258 478.142 171.593 478 174.945L478.74 174.976C478.887 171.501 478.166 168.045 476.643 164.918L475.977 165.242ZM470.243 159.97C472.697 161.034 474.721 162.896 475.984 165.255L476.636 164.905C475.294 162.4 473.145 160.421 470.537 159.291L470.243 159.97ZM461.149 158.3C464.266 158.223 467.364 158.793 470.25 159.973L470.53 159.288C467.55 158.069 464.35 157.481 461.131 157.56L461.149 158.3ZM455 158.3H461.14V157.56H455V158.3ZM455.32 191.791L455.37 157.931L454.63 157.93L454.58 191.79L455.32 191.791ZM500.366 168.15C498.681 168.168 497.021 167.743 495.551 166.918L495.189 167.563C496.771 168.451 498.559 168.909 500.374 168.89L500.366 168.15ZM505.248 166.918C503.763 167.755 502.081 168.181 500.377 168.15L500.363 168.89C502.2 168.923 504.012 168.465 505.612 167.562L505.248 166.918ZM508.701 163.533C507.871 164.947 506.679 166.115 505.249 166.917L505.611 167.563C507.156 166.696 508.442 165.435 509.339 163.908L508.701 163.533ZM509.99 158.52C509.99 160.276 509.545 162.004 508.696 163.541L509.344 163.899C510.253 162.252 510.73 160.401 510.73 158.52H509.99ZM508.696 153.499C509.545 155.037 509.99 156.764 509.99 158.52H510.73C510.73 156.639 510.253 154.788 509.344 153.141L508.696 153.499ZM505.248 150.112C506.677 150.921 507.868 152.092 508.701 153.508L509.339 153.133C508.44 151.605 507.155 150.341 505.612 149.468L505.248 150.112ZM500.4 148.88C502.095 148.88 503.764 149.304 505.253 150.115L505.607 149.465C504.009 148.595 502.219 148.14 500.4 148.14V148.88ZM495.547 150.115C497.036 149.304 498.704 148.88 500.4 148.88V148.14C498.581 148.14 496.791 148.595 495.193 149.465L495.547 150.115ZM492.079 153.508C492.916 152.09 494.114 150.918 495.551 150.113L495.189 149.467C493.638 150.337 492.345 151.601 491.441 153.132L492.079 153.508ZM490.79 158.52C490.79 156.764 491.235 155.037 492.084 153.499L491.436 153.141C490.527 154.788 490.05 156.639 490.05 158.52H490.79ZM492.084 163.541C491.235 162.004 490.79 160.276 490.79 158.52H490.05C490.05 160.401 490.527 162.252 491.436 163.899L492.084 163.541ZM495.55 166.917C494.112 166.118 492.914 164.95 492.079 163.532L491.441 163.908C492.343 165.439 493.637 166.701 495.19 167.564L495.55 166.917ZM500.365 167.11C501.881 167.131 503.376 166.753 504.7 166.013L504.34 165.367C503.129 166.043 501.762 166.389 500.375 166.37L500.365 167.11ZM496.06 166.013C497.378 166.747 498.865 167.125 500.374 167.11L500.366 166.37C498.986 166.384 497.626 166.038 496.42 165.367L496.06 166.013ZM492.921 162.968C493.675 164.248 494.76 165.3 496.062 166.015L496.418 165.366C495.233 164.716 494.245 163.757 493.559 162.592L492.921 162.968ZM491.77 158.514C491.743 160.074 492.14 161.613 492.919 162.965L493.561 162.595C492.848 161.359 492.485 159.953 492.51 158.527L491.77 158.514ZM492.919 154.027C492.136 155.395 491.739 156.951 491.77 158.527L492.51 158.513C492.481 157.07 492.845 155.647 493.561 154.394L492.919 154.027ZM496.061 150.977C494.763 151.695 493.68 152.746 492.922 154.021L493.558 154.399C494.249 153.237 495.236 152.279 496.419 151.624L496.061 150.977ZM500.38 149.89C498.874 149.89 497.392 150.263 496.065 150.974L496.415 151.626C497.634 150.972 498.996 150.63 500.38 150.63V149.89ZM504.695 150.974C503.368 150.263 501.886 149.89 500.38 149.89V150.63C501.764 150.63 503.126 150.972 504.345 151.626L504.695 150.974ZM507.838 154.021C507.08 152.746 505.997 151.695 504.699 150.977L504.341 151.624C505.523 152.279 506.511 153.237 507.202 154.399L507.838 154.021ZM508.99 158.527C509.021 156.951 508.624 155.395 507.841 154.027L507.199 154.394C507.915 155.647 508.279 157.07 508.25 158.513L508.99 158.527ZM507.841 162.965C508.62 161.613 509.017 160.074 508.99 158.514L508.25 158.527C508.275 159.953 507.912 161.359 507.199 162.595L507.841 162.965ZM504.698 166.014C505.999 165.299 507.084 164.247 507.839 162.968L507.201 162.592C506.514 163.757 505.527 164.715 504.342 165.366L504.698 166.014ZM497.68 164.1V152.89H496.94V164.1H497.68ZM499.002 163.74L497.312 163.73L497.308 164.47L498.998 164.48L499.002 163.74ZM498.63 159.34V164.11H499.37V159.34H498.63ZM500.53 158.97H499V159.71H500.53V158.97ZM503.416 163.935L500.856 159.165L500.204 159.515L502.764 164.285L503.416 163.935ZM504.95 163.74H503.09V164.48H504.95V163.74ZM501.827 159.291L504.627 164.291L505.273 163.929L502.473 158.929L501.827 159.291ZM503.645 157.862C503.233 158.319 502.683 158.63 502.079 158.747L502.221 159.473C502.982 159.325 503.675 158.934 504.195 158.358L503.645 157.862ZM504.191 156.133C504.23 156.764 504.031 157.386 503.633 157.877L504.207 158.343C504.722 157.708 504.98 156.903 504.929 156.087L504.191 156.133ZM504.007 154.978C504.145 155.333 504.207 155.713 504.19 156.094L504.93 156.127C504.951 155.643 504.872 155.161 504.696 154.71L504.007 154.978ZM503.389 154.032C503.658 154.301 503.869 154.623 504.007 154.978L504.696 154.71C504.521 154.259 504.254 153.85 503.911 153.508L503.389 154.032ZM500.83 153.259C501.763 153.182 502.69 153.468 503.417 154.058L503.883 153.483C503.008 152.773 501.892 152.429 500.769 152.521L500.83 153.259ZM497.31 153.26H500.8V152.52H497.31V153.26ZM499.05 158.15H500.6V157.41H499.05V158.15ZM498.68 154.45V157.78H499.42V154.45H498.68ZM500.6 154.08H499.05V154.82H500.6V154.08ZM502.373 154.458C501.818 154.185 501.203 154.055 500.585 154.081L500.615 154.82C501.11 154.8 501.602 154.904 502.047 155.122L502.373 154.458ZM503.054 155.196C502.911 154.899 502.685 154.649 502.405 154.476L502.015 155.105C502.176 155.205 502.306 155.348 502.389 155.519L503.054 155.196ZM503.218 156.152C503.255 155.824 503.198 155.493 503.054 155.196L502.389 155.519C502.471 155.689 502.504 155.88 502.482 156.068L503.218 156.152ZM503.056 157.025C503.2 156.728 503.256 156.395 503.217 156.067L502.483 156.154C502.505 156.342 502.473 156.532 502.39 156.702L503.056 157.025ZM502.403 157.746C502.685 157.573 502.912 157.323 503.056 157.025L502.39 156.702C502.308 156.873 502.178 157.016 502.017 157.115L502.403 157.746ZM500.587 158.15C501.206 158.172 501.821 158.038 502.375 157.761L502.045 157.099C501.601 157.321 501.109 157.428 500.613 157.41L500.587 158.15Z" fill="#F1F7F6"/>
<path d="M222.78 147.09L209.56 147C206.77 147.005 204.091 145.904 202.112 143.938C200.132 141.971 199.013 139.3 199 136.51V131.16C198.802 129.865 198.149 128.683 197.157 127.827C196.165 126.971 194.9 126.497 193.59 126.49L154.59 126.37H145.81C143.258 126.25 140.79 125.417 138.687 123.966C136.584 122.515 134.929 120.503 133.91 118.16C133.676 117.613 133.476 117.052 133.31 116.48C133.31 116.48 133.31 116.42 133.31 116.39C132.738 114.353 132.646 112.211 133.042 110.132C133.437 108.053 134.309 106.094 135.589 104.409C136.869 102.724 138.522 101.359 140.419 100.42C142.316 99.4816 144.404 98.9956 146.52 99.0001H188.74C191.311 98.9713 193.838 99.673 196.026 101.024C198.214 102.374 199.974 104.319 201.1 106.63C201.708 107.927 202.672 109.024 203.879 109.794C205.087 110.564 206.488 110.975 207.92 110.98H221.68C222.844 110.978 223.991 110.706 225.033 110.185C226.074 109.665 226.98 108.91 227.68 107.98C228.371 107.086 228.846 106.043 229.066 104.934C229.287 103.826 229.247 102.681 228.95 101.59C226.523 92.7985 221.275 85.0474 214.014 79.5281C206.753 74.0087 197.881 71.0267 188.76 71.0401H141.47C136.102 71.0268 130.811 72.3143 126.05 74.7925C121.288 77.2708 117.198 80.8659 114.13 85.2701C107.56 94.7401 104.47 104.59 104.92 114.55V121.82C104.925 123.815 105.721 125.726 107.132 127.135C108.543 128.545 110.455 129.337 112.45 129.34L125.9 129.42C127.286 129.423 128.658 129.699 129.937 130.232C131.216 130.765 132.377 131.546 133.354 132.528C134.331 133.511 135.105 134.677 135.631 135.959C136.157 137.241 136.425 138.614 136.42 140V146.69C136.423 148.68 137.211 150.587 138.614 151.998C140.017 153.408 141.921 154.207 143.91 154.22L189.02 154.36C191.634 154.416 194.177 155.221 196.348 156.677C198.519 158.134 200.227 160.183 201.27 162.58C201.498 163.129 201.695 163.69 201.86 164.26V164.32C202.435 166.356 202.53 168.498 202.138 170.577C201.746 172.656 200.877 174.616 199.6 176.303C198.323 177.99 196.672 179.358 194.778 180.3C192.883 181.241 190.796 181.731 188.68 181.73H137.48C136.231 181.73 135.033 181.234 134.15 180.351C133.266 179.467 132.77 178.269 132.77 177.02V173.02C132.773 171.195 132.11 169.432 130.906 168.061C129.702 166.689 128.04 165.804 126.23 165.57H110.83C108.458 165.579 106.155 164.779 104.3 163.3C104.08 163.12 103.89 162.95 103.7 162.78L103.55 162.64C103.38 162.48 103.23 162.32 103.07 162.15L102.87 161.93C102.74 161.77 102.61 161.62 102.49 161.46L102.26 161.15C102.15 161 102.05 160.85 101.95 160.69L101.72 160.32C101.64 160.17 101.55 160.02 101.47 159.86L101.26 159.43C101.2 159.29 101.13 159.14 101.07 158.98C101.01 158.82 100.95 158.67 100.9 158.51C100.85 158.35 100.78 158.18 100.74 158.05C100.7 157.92 100.65 157.71 100.61 157.53V157.4C100.61 157.3 100.61 157.19 100.54 157.09C100.47 156.99 100.47 156.65 100.44 156.43C100.41 156.21 100.44 156.17 100.44 156.08C100.44 155.74 100.44 155.4 100.44 155.08V141.23C100.437 139.234 99.6432 137.32 98.2316 135.909C96.82 134.497 94.9063 133.703 92.91 133.7H77.91C75.9147 133.703 74.002 134.497 72.592 135.909C71.182 137.321 70.39 139.235 70.39 141.23V156.23C70.39 157.218 70.5845 158.196 70.9624 159.108C71.3404 160.02 71.8943 160.849 72.5926 161.548C73.2909 162.246 74.1199 162.8 75.0322 163.178C75.9446 163.556 76.9225 163.75 77.91 163.75H94.72C96.9934 163.759 99.2034 164.501 101.023 165.864C102.842 167.228 104.173 169.141 104.82 171.32L104.88 171.52V177C104.891 185.659 108.335 193.96 114.458 200.083C120.58 206.205 128.881 209.65 137.54 209.66H187.65C209.76 209.66 228.45 192.91 230.23 171.51L230.3 154.66C230.305 153.67 230.115 152.688 229.739 151.772C229.363 150.855 228.81 150.022 228.111 149.32C227.412 148.619 226.581 148.062 225.666 147.683C224.751 147.303 223.77 147.109 222.78 147.11V147.09Z" fill="#77C045"/>
</svg>
