<svg width="601" height="684" viewBox="0 0 601 684" fill="none" xmlns="http://www.w3.org/2000/svg">
<path d="M5.23033 623.328C6.00522 623.328 6.80774 623.555 7.63795 624.011C8.52349 624.409 9.18766 624.949 9.63046 625.632L29.8046 657.547L25.6535 657.376L46.3258 625.632C47.3774 624.096 48.7334 623.328 50.3939 623.328C51.7222 623.328 52.9122 623.811 53.9638 624.779C55.0154 625.746 55.5412 626.997 55.5412 628.533V677.941C55.5412 679.421 55.0707 680.672 54.1298 681.696C53.1889 682.663 51.9436 683.147 50.3939 683.147C48.8442 683.147 47.5711 682.663 46.5749 681.696C45.634 680.672 45.1635 679.421 45.1635 677.941V637.749L48.4013 638.517L31.465 665.056C30.9669 665.682 30.3304 666.222 29.5555 666.677C28.836 667.133 28.0889 667.331 27.314 667.275C26.5945 667.331 25.8473 667.133 25.0724 666.677C24.3529 666.222 23.7441 665.682 23.2459 665.056L7.38889 639.285L9.54744 634.763V677.941C9.54744 679.421 9.10464 680.672 8.2191 681.696C7.33356 682.663 6.17126 683.147 4.73221 683.147C3.34852 683.147 2.2139 682.663 1.32834 681.696C0.442782 680.672 0 679.421 0 677.941V628.533C0 627.111 0.498127 625.888 1.49438 624.864C2.54598 623.84 3.7913 623.328 5.23033 623.328ZM103.555 636.64C104.995 636.64 106.184 637.123 107.125 638.091C108.066 639.058 108.537 640.309 108.537 641.845V677.941C108.537 679.421 108.066 680.672 107.125 681.696C106.184 682.663 104.995 683.147 103.555 683.147C102.116 683.147 100.926 682.663 99.9854 681.696C99.0443 680.672 98.574 679.421 98.574 677.941V673.76L100.4 674.528C100.4 675.267 100.013 676.178 99.2382 677.259C98.4631 678.283 97.4117 679.307 96.0834 680.331C94.7551 681.355 93.1776 682.237 91.3512 682.976C89.5799 683.659 87.6431 684 85.5397 684C81.7207 684 78.2617 683.005 75.162 681.013C72.0624 678.965 69.5996 676.178 67.7732 672.651C66.0018 669.067 65.1165 664.971 65.1165 660.363C65.1165 655.698 66.0018 651.602 67.7732 648.075C69.5996 644.491 72.0351 641.703 75.079 639.712C78.1229 637.664 81.4995 636.64 85.2076 636.64C87.5874 636.64 89.7738 637.01 91.7663 637.749C93.7588 638.489 95.4744 639.427 96.9136 640.565C98.408 641.703 99.5424 642.869 100.317 644.064C101.148 645.202 101.563 646.169 101.563 646.965L98.574 648.075V641.845C98.574 640.366 99.0443 639.143 99.9854 638.176C100.926 637.152 102.116 636.64 103.555 636.64ZM86.785 674.613C89.2205 674.613 91.3512 673.987 93.1776 672.736C95.0041 671.485 96.4155 669.778 97.4117 667.616C98.4631 665.454 98.9891 663.037 98.9891 660.363C98.9891 657.632 98.4631 655.186 97.4117 653.024C96.4155 650.862 95.0041 649.155 93.1776 647.904C91.3512 646.653 89.2205 646.027 86.785 646.027C84.4053 646.027 82.3019 646.653 80.4754 647.904C78.6489 649.155 77.2097 650.862 76.1583 653.024C75.162 655.186 74.6639 657.632 74.6639 660.363C74.6639 663.037 75.162 665.454 76.1583 667.616C77.2097 669.778 78.6489 671.485 80.4754 672.736C82.3019 673.987 84.4053 674.613 86.785 674.613ZM119.822 638.347H139.498C140.826 638.347 141.933 638.802 142.818 639.712C143.704 640.622 144.147 641.76 144.147 643.125C144.147 644.434 143.704 645.543 142.818 646.453C141.933 647.307 140.826 647.733 139.498 647.733H119.822C118.493 647.733 117.387 647.278 116.501 646.368C115.615 645.458 115.172 644.32 115.172 642.955C115.172 641.646 115.615 640.565 116.501 639.712C117.387 638.802 118.493 638.347 119.822 638.347ZM128.705 627.68C130.144 627.68 131.306 628.192 132.192 629.216C133.133 630.183 133.603 631.406 133.603 632.885V670.859C133.603 671.655 133.742 672.309 134.018 672.821C134.35 673.333 134.765 673.703 135.263 673.931C135.817 674.158 136.398 674.272 137.007 674.272C137.671 674.272 138.28 674.158 138.833 673.931C139.387 673.646 140.024 673.504 140.743 673.504C141.518 673.504 142.21 673.874 142.818 674.613C143.483 675.353 143.815 676.377 143.815 677.685C143.815 679.278 142.957 680.587 141.241 681.611C139.581 682.635 137.782 683.147 135.845 683.147C134.682 683.147 133.382 683.061 131.943 682.891C130.559 682.663 129.231 682.179 127.958 681.44C126.74 680.643 125.716 679.449 124.886 677.856C124.056 676.263 123.641 674.073 123.641 671.285V632.885C123.641 631.406 124.111 630.183 125.052 629.216C126.048 628.192 127.266 627.68 128.705 627.68ZM189.657 636.64C191.096 636.64 192.287 637.123 193.227 638.091C194.168 639.058 194.638 640.309 194.638 641.845V677.941C194.638 679.421 194.168 680.672 193.227 681.696C192.287 682.663 191.096 683.147 189.657 683.147C188.219 683.147 187.028 682.663 186.087 681.696C185.147 680.672 184.676 679.421 184.676 677.941V673.76L186.502 674.528C186.502 675.267 186.115 676.178 185.34 677.259C184.566 678.283 183.514 679.307 182.185 680.331C180.857 681.355 179.28 682.237 177.453 682.976C175.682 683.659 173.745 684 171.642 684C167.823 684 164.364 683.005 161.264 681.013C158.165 678.965 155.702 676.178 153.875 672.651C152.104 669.067 151.218 664.971 151.218 660.363C151.218 655.698 152.104 651.602 153.875 648.075C155.702 644.491 158.137 641.703 161.181 639.712C164.225 637.664 167.601 636.64 171.309 636.64C173.69 636.64 175.876 637.01 177.868 637.749C179.861 638.489 181.577 639.427 183.015 640.565C184.51 641.703 185.645 642.869 186.419 644.064C187.25 645.202 187.665 646.169 187.665 646.965L184.676 648.075V641.845C184.676 640.366 185.147 639.143 186.087 638.176C187.028 637.152 188.219 636.64 189.657 636.64ZM172.887 674.613C175.322 674.613 177.453 673.987 179.28 672.736C181.106 671.485 182.517 669.778 183.514 667.616C184.566 665.454 185.091 663.037 185.091 660.363C185.091 657.632 184.566 655.186 183.514 653.024C182.517 650.862 181.106 649.155 179.28 647.904C177.453 646.653 175.322 646.027 172.887 646.027C170.507 646.027 168.404 646.653 166.577 647.904C164.751 649.155 163.312 650.862 162.26 653.024C161.264 655.186 160.766 657.632 160.766 660.363C160.766 663.037 161.264 665.454 162.26 667.616C163.312 669.778 164.751 671.485 166.577 672.736C168.404 673.987 170.507 674.613 172.887 674.613ZM210.407 683.147C208.968 683.147 207.778 682.663 206.837 681.696C205.896 680.672 205.426 679.421 205.426 677.941V642.699C205.426 641.219 205.896 639.997 206.837 639.029C207.778 638.005 208.968 637.493 210.407 637.493C211.846 637.493 213.036 638.005 213.977 639.029C214.918 639.997 215.388 641.219 215.388 642.699V650.72L214.807 645.003C215.416 643.637 216.191 642.443 217.132 641.419C218.128 640.338 219.235 639.456 220.453 638.773C221.67 638.034 222.971 637.493 224.355 637.152C225.738 636.811 227.122 636.64 228.506 636.64C230.166 636.64 231.55 637.123 232.657 638.091C233.819 639.058 234.4 640.195 234.4 641.504C234.4 643.381 233.929 644.747 232.989 645.6C232.048 646.397 231.024 646.795 229.917 646.795C228.865 646.795 227.897 646.595 227.011 646.197C226.181 645.799 225.212 645.6 224.106 645.6C223.109 645.6 222.085 645.856 221.034 646.368C220.038 646.823 219.096 647.563 218.211 648.587C217.381 649.611 216.689 650.891 216.136 652.427C215.637 653.906 215.388 655.669 215.388 657.717V677.941C215.388 679.421 214.918 680.672 213.977 681.696C213.036 682.663 211.846 683.147 210.407 683.147ZM276.813 636.64C278.253 636.64 279.442 637.123 280.383 638.091C281.324 639.058 281.795 640.309 281.795 641.845V677.941C281.795 679.421 281.324 680.672 280.383 681.696C279.442 682.663 278.253 683.147 276.813 683.147C275.374 683.147 274.185 682.663 273.243 681.696C272.302 680.672 271.832 679.421 271.832 677.941V673.76L273.659 674.528C273.659 675.267 273.271 676.178 272.496 677.259C271.721 678.283 270.67 679.307 269.341 680.331C268.013 681.355 266.436 682.237 264.609 682.976C262.838 683.659 260.901 684 258.798 684C254.979 684 251.52 683.005 248.42 681.013C245.32 678.965 242.858 676.178 241.031 672.651C239.26 669.067 238.375 664.971 238.375 660.363C238.375 655.698 239.26 651.602 241.031 648.075C242.858 644.491 245.293 641.703 248.337 639.712C251.381 637.664 254.758 636.64 258.466 636.64C260.845 636.64 263.032 637.01 265.024 637.749C267.017 638.489 268.732 639.427 270.172 640.565C271.666 641.703 272.801 642.869 273.576 644.064C274.406 645.202 274.821 646.169 274.821 646.965L271.832 648.075V641.845C271.832 640.366 272.302 639.143 273.243 638.176C274.185 637.152 275.374 636.64 276.813 636.64ZM260.043 674.613C262.479 674.613 264.609 673.987 266.436 672.736C268.262 671.485 269.674 669.778 270.67 667.616C271.721 665.454 272.247 663.037 272.247 660.363C272.247 657.632 271.721 655.186 270.67 653.024C269.674 650.862 268.262 649.155 266.436 647.904C264.609 646.653 262.479 646.027 260.043 646.027C257.663 646.027 255.56 646.653 253.734 647.904C251.907 649.155 250.468 650.862 249.416 653.024C248.42 655.186 247.922 657.632 247.922 660.363C247.922 663.037 248.42 665.454 249.416 667.616C250.468 669.778 251.907 671.485 253.734 672.736C255.56 673.987 257.663 674.613 260.043 674.613ZM315.91 636.64C320.338 636.64 323.604 637.749 325.707 639.968C327.81 642.13 329.194 644.946 329.858 648.416L328.447 647.648L329.111 646.283C329.775 644.974 330.799 643.581 332.183 642.101C333.566 640.565 335.227 639.285 337.164 638.261C339.156 637.181 341.37 636.64 343.806 636.64C347.791 636.64 350.807 637.522 352.855 639.285C354.958 641.049 356.397 643.41 357.172 646.368C357.947 649.269 358.334 652.512 358.334 656.096V677.941C358.334 679.421 357.864 680.672 356.923 681.696C355.982 682.663 354.792 683.147 353.353 683.147C351.914 683.147 350.724 682.663 349.783 681.696C348.842 680.672 348.372 679.421 348.372 677.941V656.096C348.372 654.219 348.151 652.541 347.708 651.061C347.265 649.525 346.462 648.302 345.3 647.392C344.138 646.482 342.477 646.027 340.319 646.027C338.215 646.027 336.417 646.482 334.922 647.392C333.428 648.302 332.293 649.525 331.518 651.061C330.799 652.541 330.439 654.219 330.439 656.096V677.941C330.439 679.421 329.969 680.672 329.028 681.696C328.087 682.663 326.897 683.147 325.458 683.147C324.019 683.147 322.829 682.663 321.888 681.696C320.947 680.672 320.477 679.421 320.477 677.941V656.096C320.477 654.219 320.255 652.541 319.812 651.061C319.369 649.525 318.567 648.302 317.405 647.392C316.243 646.482 314.582 646.027 312.424 646.027C310.32 646.027 308.522 646.482 307.027 647.392C305.533 648.302 304.398 649.525 303.623 651.061C302.904 652.541 302.544 654.219 302.544 656.096V677.941C302.544 679.421 302.074 680.672 301.133 681.696C300.192 682.663 299.002 683.147 297.563 683.147C296.124 683.147 294.934 682.663 293.993 681.696C293.052 680.672 292.582 679.421 292.582 677.941V642.699C292.582 641.219 293.052 639.997 293.993 639.029C294.934 638.005 296.124 637.493 297.563 637.493C299.002 637.493 300.192 638.005 301.133 639.029C302.074 639.997 302.544 641.219 302.544 642.699V646.368L301.299 646.112C301.797 645.145 302.489 644.121 303.374 643.04C304.26 641.902 305.339 640.85 306.612 639.883C307.885 638.915 309.297 638.147 310.846 637.579C312.396 636.953 314.084 636.64 315.91 636.64ZM398.446 623.328C399.221 623.328 400.023 623.555 400.854 624.011C401.739 624.409 402.403 624.949 402.846 625.632L423.02 657.547L418.869 657.376L439.541 625.632C440.593 624.096 441.949 623.328 443.609 623.328C444.938 623.328 446.128 623.811 447.179 624.779C448.231 625.746 448.757 626.997 448.757 628.533V677.941C448.757 679.421 448.287 680.672 447.345 681.696C446.404 682.663 445.159 683.147 443.609 683.147C442.06 683.147 440.787 682.663 439.79 681.696C438.849 680.672 438.379 679.421 438.379 677.941V637.749L441.617 638.517L424.681 665.056C424.182 665.682 423.546 666.222 422.771 666.677C422.052 667.133 421.305 667.331 420.53 667.275C419.81 667.331 419.063 667.133 418.288 666.677C417.569 666.222 416.96 665.682 416.462 665.056L400.604 639.285L402.763 634.763V677.941C402.763 679.421 402.32 680.672 401.435 681.696C400.549 682.663 399.387 683.147 397.948 683.147C396.564 683.147 395.429 682.663 394.544 681.696C393.659 680.672 393.216 679.421 393.216 677.941V628.533C393.216 627.111 393.714 625.888 394.71 624.864C395.761 623.84 397.007 623.328 398.446 623.328ZM493.367 637.493C494.806 637.493 495.996 638.005 496.937 639.029C497.878 639.997 498.348 641.219 498.348 642.699V664.373C498.348 670.403 496.716 675.182 493.45 678.709C490.184 682.237 485.48 684 479.336 684C473.193 684 468.489 682.237 465.223 678.709C462.013 675.182 460.408 670.403 460.408 664.373V642.699C460.408 641.219 460.878 639.997 461.819 639.029C462.76 638.005 463.95 637.493 465.389 637.493C466.828 637.493 468.018 638.005 468.959 639.029C469.9 639.997 470.37 641.219 470.37 642.699V664.373C470.37 667.843 471.117 670.432 472.612 672.139C474.106 673.789 476.348 674.613 479.336 674.613C482.38 674.613 484.65 673.789 486.144 672.139C487.639 670.432 488.386 667.843 488.386 664.373V642.699C488.386 641.219 488.856 639.997 489.797 639.029C490.738 638.005 491.928 637.493 493.367 637.493ZM514.945 683.147C513.506 683.147 512.317 682.663 511.376 681.696C510.434 680.672 509.964 679.421 509.964 677.941V625.205C509.964 623.726 510.434 622.503 511.376 621.536C512.317 620.512 513.506 620 514.945 620C516.385 620 517.574 620.512 518.515 621.536C519.456 622.503 519.927 623.726 519.927 625.205V677.941C519.927 679.421 519.456 680.672 518.515 681.696C517.574 682.663 516.385 683.147 514.945 683.147ZM541.346 637.493C542.619 637.493 543.726 638.034 544.667 639.115C545.608 640.195 546.078 641.248 546.078 642.272C546.078 643.637 545.414 644.917 544.086 646.112L519.096 669.749L518.681 657.973L537.693 639.115C538.745 638.034 539.963 637.493 541.346 637.493ZM542.591 683.061C541.152 683.061 539.935 682.493 538.939 681.355L523.58 664.629L531.135 657.461L546.078 674.187C547.13 675.325 547.656 676.605 547.656 678.027C547.656 679.506 547.075 680.729 545.912 681.696C544.805 682.606 543.699 683.061 542.591 683.061ZM556.899 638.347H576.575C577.903 638.347 579.01 638.802 579.896 639.712C580.781 640.622 581.224 641.76 581.224 643.125C581.224 644.434 580.781 645.543 579.896 646.453C579.01 647.307 577.903 647.733 576.575 647.733H556.899C555.571 647.733 554.464 647.278 553.578 646.368C552.693 645.458 552.25 644.32 552.25 642.955C552.25 641.646 552.693 640.565 553.578 639.712C554.464 638.802 555.571 638.347 556.899 638.347ZM565.782 627.68C567.221 627.68 568.384 628.192 569.269 629.216C570.21 630.183 570.68 631.406 570.68 632.885V670.859C570.68 671.655 570.819 672.309 571.096 672.821C571.428 673.333 571.843 673.703 572.341 673.931C572.894 674.158 573.475 674.272 574.084 674.272C574.749 674.272 575.358 674.158 575.911 673.931C576.464 673.646 577.101 673.504 577.82 673.504C578.595 673.504 579.287 673.874 579.896 674.613C580.56 675.353 580.892 676.377 580.892 677.685C580.892 679.278 580.034 680.587 578.318 681.611C576.658 682.635 574.859 683.147 572.922 683.147C571.76 683.147 570.459 683.061 569.02 682.891C567.637 682.663 566.308 682.179 565.035 681.44C563.818 680.643 562.793 679.449 561.963 677.856C561.133 676.263 560.718 674.073 560.718 671.285V632.885C560.718 631.406 561.188 630.183 562.129 629.216C563.126 628.192 564.343 627.68 565.782 627.68ZM599.751 677.941C599.751 679.421 599.282 680.672 598.34 681.696C597.403 682.663 596.211 683.147 594.77 683.147C593.335 683.147 592.143 682.663 591.202 681.696C590.26 680.672 589.79 679.421 589.79 677.941V642.699C589.79 641.219 590.26 639.997 591.202 639.029C592.143 638.005 593.335 637.493 594.77 637.493C596.211 637.493 597.403 638.005 598.34 639.029C599.282 639.997 599.751 641.219 599.751 642.699V677.941ZM594.687 631.947C592.807 631.947 591.479 631.634 590.703 631.008C589.928 630.382 589.541 629.273 589.541 627.68V626.059C589.541 624.409 589.956 623.299 590.786 622.731C591.672 622.105 593.003 621.792 594.77 621.792C596.709 621.792 598.067 622.105 598.838 622.731C599.615 623.357 600 624.466 600 626.059V627.68C600 629.33 599.585 630.467 598.755 631.093C597.924 631.662 596.572 631.947 594.687 631.947Z" fill="#706F6F"/>
<path d="M96.4498 515.775C97.3545 515.775 98.2913 516.036 99.2606 516.56C100.294 517.018 101.07 517.64 101.587 518.426L125.139 555.15L120.293 554.953L144.426 518.426C145.654 516.658 147.237 515.775 149.175 515.775C150.726 515.775 152.115 516.331 153.343 517.444C154.571 518.557 155.185 519.997 155.185 521.764V578.618C155.185 580.32 154.635 581.76 153.537 582.938C152.438 584.051 150.985 584.607 149.175 584.607C147.366 584.607 145.88 584.051 144.717 582.938C143.618 581.76 143.069 580.32 143.069 578.618V532.369L146.849 533.253L127.077 563.791C126.496 564.511 125.753 565.132 124.848 565.656C124.008 566.18 123.136 566.409 122.231 566.344C121.391 566.409 120.519 566.18 119.614 565.656C118.774 565.132 118.063 564.511 117.482 563.791L98.9698 534.136L101.49 528.932V578.618C101.49 580.32 100.973 581.76 99.939 582.938C98.9052 584.051 97.5483 584.607 95.8683 584.607C94.2529 584.607 92.9283 584.051 91.8945 582.938C90.8607 581.76 90.3438 580.32 90.3438 578.618V521.764C90.3438 520.128 90.9253 518.72 92.0883 517.542C93.316 516.364 94.7698 515.775 96.4498 515.775ZM211.238 531.093C212.918 531.093 214.307 531.649 215.406 532.762C216.504 533.875 217.053 535.315 217.053 537.082V578.618C217.053 580.32 216.504 581.76 215.406 582.938C214.307 584.051 212.918 584.607 211.238 584.607C209.558 584.607 208.169 584.051 207.07 582.938C205.972 581.76 205.423 580.32 205.423 578.618V573.806L207.555 574.69C207.555 575.541 207.103 576.588 206.198 577.832C205.293 579.01 204.066 580.189 202.515 581.367C200.964 582.545 199.123 583.56 196.99 584.411C194.923 585.196 192.661 585.589 190.206 585.589C185.747 585.589 181.709 584.444 178.091 582.152C174.472 579.796 171.597 576.588 169.465 572.53C167.397 568.406 166.363 563.692 166.363 558.39C166.363 553.022 167.397 548.309 169.465 544.25C171.597 540.126 174.44 536.919 177.994 534.627C181.547 532.271 185.489 531.093 189.818 531.093C192.596 531.093 195.149 531.518 197.475 532.369C199.801 533.22 201.804 534.3 203.484 535.609C205.229 536.919 206.553 538.261 207.458 539.635C208.427 540.944 208.912 542.057 208.912 542.974L205.423 544.25V537.082C205.423 535.38 205.972 533.973 207.07 532.86C208.169 531.682 209.558 531.093 211.238 531.093ZM191.66 574.788C194.503 574.788 196.99 574.068 199.123 572.628C201.255 571.188 202.903 569.224 204.066 566.736C205.293 564.249 205.907 561.467 205.907 558.39C205.907 555.248 205.293 552.433 204.066 549.945C202.903 547.458 201.255 545.494 199.123 544.054C196.99 542.614 194.503 541.894 191.66 541.894C188.882 541.894 186.426 542.614 184.294 544.054C182.161 545.494 180.481 547.458 179.254 549.945C178.091 552.433 177.509 555.248 177.509 558.39C177.509 561.467 178.091 564.249 179.254 566.736C180.481 569.224 182.161 571.188 184.294 572.628C186.426 574.068 188.882 574.788 191.66 574.788ZM257.366 531.093C262.148 531.093 265.766 532.107 268.221 534.136C270.741 536.166 272.454 538.882 273.358 542.286C274.327 545.625 274.812 549.356 274.812 553.48V578.618C274.812 580.32 274.263 581.76 273.164 582.938C272.066 584.051 270.677 584.607 268.996 584.607C267.317 584.607 265.928 584.051 264.829 582.938C263.731 581.76 263.181 580.32 263.181 578.618V553.48C263.181 551.32 262.89 549.389 262.309 547.687C261.792 545.92 260.823 544.512 259.401 543.465C257.98 542.417 255.945 541.894 253.295 541.894C250.711 541.894 248.514 542.417 246.704 543.465C244.96 544.512 243.603 545.92 242.634 547.687C241.73 549.389 241.277 551.32 241.277 553.48V578.618C241.277 580.32 240.728 581.76 239.629 582.938C238.531 584.051 237.142 584.607 235.461 584.607C233.782 584.607 232.393 584.051 231.294 582.938C230.196 581.76 229.646 580.32 229.646 578.618V538.064C229.646 536.362 230.196 534.955 231.294 533.842C232.393 532.664 233.782 532.074 235.461 532.074C237.142 532.074 238.531 532.664 239.629 533.842C240.728 534.955 241.277 536.362 241.277 538.064V542.286L239.823 541.992C240.405 540.879 241.245 539.701 242.343 538.457C243.442 537.148 244.734 535.937 246.22 534.824C247.706 533.711 249.386 532.827 251.26 532.173C253.134 531.453 255.169 531.093 257.366 531.093ZM329.835 511.945C331.515 511.945 332.904 512.501 334.003 513.614C335.101 514.727 335.65 516.167 335.65 517.935V578.618C335.65 580.32 335.101 581.76 334.003 582.938C332.904 584.051 331.515 584.607 329.835 584.607C328.155 584.607 326.765 584.051 325.667 582.938C324.569 581.76 324.02 580.32 324.02 578.618V573.806L326.152 574.69C326.152 575.541 325.699 576.588 324.795 577.832C323.89 579.01 322.663 580.189 321.112 581.367C319.561 582.545 317.72 583.56 315.588 584.411C313.52 585.196 311.258 585.589 308.803 585.589C304.345 585.589 300.306 584.444 296.688 582.152C293.069 579.796 290.194 576.588 288.062 572.53C285.994 568.406 284.96 563.692 284.96 558.39C284.96 553.022 285.994 548.309 288.062 544.25C290.194 540.126 293.037 536.919 296.591 534.627C300.144 532.271 304.086 531.093 308.415 531.093C311.194 531.093 313.746 531.518 316.072 532.369C318.398 533.22 320.401 534.3 322.081 535.609C323.826 536.919 325.15 538.261 326.055 539.635C327.024 540.944 327.509 542.057 327.509 542.974L324.02 544.25V517.935C324.02 516.233 324.569 514.825 325.667 513.713C326.765 512.534 328.155 511.945 329.835 511.945ZM310.257 574.788C313.099 574.788 315.588 574.068 317.72 572.628C319.852 571.188 321.5 569.224 322.663 566.736C323.89 564.249 324.504 561.467 324.504 558.39C324.504 555.248 323.89 552.433 322.663 549.945C321.5 547.458 319.852 545.494 317.72 544.054C315.588 542.614 313.099 541.894 310.257 541.894C307.478 541.894 305.023 542.614 302.891 544.054C300.758 545.494 299.078 547.458 297.851 549.945C296.688 552.433 296.106 555.248 296.106 558.39C296.106 561.467 296.688 564.249 297.851 566.736C299.078 569.224 300.758 571.188 302.891 572.628C305.023 574.068 307.478 574.788 310.257 574.788ZM390.695 531.093C392.375 531.093 393.764 531.649 394.863 532.762C395.961 533.875 396.51 535.315 396.51 537.082V578.618C396.51 580.32 395.961 581.76 394.863 582.938C393.764 584.051 392.375 584.607 390.695 584.607C389.015 584.607 387.625 584.051 386.527 582.938C385.429 581.76 384.88 580.32 384.88 578.618V573.806L387.012 574.69C387.012 575.541 386.559 576.588 385.655 577.832C384.75 579.01 383.523 580.189 381.972 581.367C380.421 582.545 378.58 583.56 376.448 584.411C374.38 585.196 372.118 585.589 369.663 585.589C365.205 585.589 361.166 584.444 357.548 582.152C353.929 579.796 351.054 576.588 348.922 572.53C346.854 568.406 345.82 563.692 345.82 558.39C345.82 553.022 346.854 548.309 348.922 544.25C351.054 540.126 353.897 536.919 357.451 534.627C361.004 532.271 364.946 531.093 369.275 531.093C372.054 531.093 374.606 531.518 376.932 532.369C379.258 533.22 381.261 534.3 382.941 535.609C384.686 536.919 386.01 538.261 386.915 539.635C387.884 540.944 388.369 542.057 388.369 542.974L384.88 544.25V537.082C384.88 535.38 385.429 533.973 386.527 532.86C387.625 531.682 389.015 531.093 390.695 531.093ZM371.117 574.788C373.959 574.788 376.448 574.068 378.58 572.628C380.712 571.188 382.36 569.224 383.523 566.736C384.75 564.249 385.364 561.467 385.364 558.39C385.364 555.248 384.75 552.433 383.523 549.945C382.36 547.458 380.712 545.494 378.58 544.054C376.448 542.614 373.959 541.894 371.117 541.894C368.338 541.894 365.883 542.614 363.751 544.054C361.618 545.494 359.938 547.458 358.711 549.945C357.548 552.433 356.966 555.248 356.966 558.39C356.966 561.467 357.548 564.249 358.711 566.736C359.938 569.224 361.618 571.188 363.751 572.628C365.883 574.068 368.338 574.788 371.117 574.788ZM409.685 533.056H432.655C434.206 533.056 435.499 533.58 436.532 534.627C437.566 535.675 438.083 536.984 438.083 538.555C438.083 540.061 437.566 541.337 436.532 542.385C435.499 543.367 434.206 543.858 432.655 543.858H409.685C408.134 543.858 406.842 543.334 405.808 542.286C404.774 541.239 404.257 539.93 404.257 538.359C404.257 536.853 404.774 535.609 405.808 534.627C406.842 533.58 408.134 533.056 409.685 533.056ZM420.055 520.782C421.736 520.782 423.093 521.372 424.126 522.55C425.225 523.663 425.774 525.07 425.774 526.772V570.468C425.774 571.384 425.935 572.137 426.259 572.726C426.646 573.315 427.131 573.741 427.712 574.002C428.358 574.264 429.037 574.395 429.748 574.395C430.523 574.395 431.234 574.264 431.88 574.002C432.526 573.675 433.269 573.512 434.109 573.512C435.014 573.512 435.821 573.937 436.532 574.788C437.308 575.639 437.695 576.817 437.695 578.323C437.695 580.156 436.694 581.661 434.691 582.84C432.752 584.018 430.653 584.607 428.391 584.607C427.034 584.607 425.516 584.509 423.835 584.313C422.22 584.051 420.67 583.494 419.183 582.643C417.762 581.727 416.566 580.352 415.597 578.519C414.628 576.686 414.143 574.166 414.143 570.959V526.772C414.143 525.07 414.692 523.663 415.791 522.55C416.954 521.372 418.375 520.782 420.055 520.782ZM472.713 585.589C467.221 585.589 462.439 584.444 458.369 582.152C454.362 579.796 451.261 576.621 449.064 572.628C446.932 568.635 445.866 564.118 445.866 559.077C445.866 553.186 447.029 548.178 449.355 544.054C451.746 539.864 454.847 536.657 458.66 534.431C462.471 532.205 466.51 531.093 470.775 531.093C474.07 531.093 477.172 531.78 480.079 533.155C483.051 534.529 485.668 536.428 487.93 538.85C490.191 541.206 491.968 543.956 493.261 547.098C494.618 550.24 495.296 553.579 495.296 557.113C495.231 558.685 494.618 559.961 493.454 560.943C492.291 561.925 490.935 562.416 489.384 562.416H452.36L449.452 552.597H485.022L482.89 554.56V551.909C482.761 550.011 482.082 548.309 480.855 546.803C479.692 545.298 478.205 544.119 476.396 543.268C474.652 542.352 472.778 541.894 470.775 541.894C468.836 541.894 467.027 542.155 465.347 542.679C463.667 543.203 462.213 544.087 460.986 545.33C459.758 546.574 458.788 548.243 458.078 550.338C457.367 552.433 457.012 555.084 457.012 558.292C457.012 561.827 457.722 564.838 459.144 567.325C460.63 569.747 462.504 571.613 464.766 572.922C467.092 574.166 469.547 574.788 472.132 574.788C474.522 574.788 476.428 574.592 477.85 574.199C479.271 573.806 480.402 573.348 481.242 572.824C482.146 572.235 482.954 571.744 483.665 571.351C484.828 570.762 485.926 570.468 486.961 570.468C488.382 570.468 489.545 570.959 490.45 571.94C491.419 572.922 491.904 574.068 491.904 575.377C491.904 577.145 490.999 578.749 489.19 580.189C487.51 581.629 485.151 582.905 482.115 584.018C479.078 585.065 475.943 585.589 472.713 585.589ZM528.525 531.093C532.208 531.093 535.406 531.485 538.12 532.271C540.898 533.056 543.031 534.169 544.517 535.609C546.068 536.984 546.843 538.653 546.843 540.617C546.843 541.926 546.456 543.17 545.68 544.348C544.905 545.461 543.774 546.018 542.288 546.018C541.254 546.018 540.381 545.887 539.671 545.625C539.024 545.298 538.443 544.905 537.926 544.447C537.409 543.988 536.795 543.563 536.085 543.17C535.438 542.777 534.437 542.483 533.08 542.286C531.788 542.025 530.819 541.894 530.173 541.894C526.877 541.894 524.067 542.614 521.74 544.054C519.479 545.494 517.734 547.458 516.507 549.945C515.279 552.367 514.665 555.182 514.665 558.39C514.665 561.532 515.279 564.347 516.507 566.834C517.799 569.257 519.543 571.188 521.74 572.628C524.002 574.068 526.587 574.788 529.494 574.788C531.109 574.788 532.499 574.69 533.662 574.493C534.825 574.297 535.794 574.002 536.569 573.61C537.474 573.086 538.282 572.53 538.993 571.94C539.703 571.351 540.769 571.057 542.191 571.057C543.87 571.057 545.163 571.613 546.068 572.726C546.972 573.773 547.425 575.083 547.425 576.654C547.425 578.29 546.52 579.796 544.711 581.171C542.901 582.48 540.511 583.56 537.539 584.411C534.631 585.196 531.465 585.589 528.04 585.589C522.935 585.589 518.509 584.411 514.762 582.054C511.014 579.632 508.106 576.359 506.039 572.235C504.036 568.111 503.035 563.496 503.035 558.39C503.035 553.022 504.101 548.309 506.233 544.25C508.43 540.126 511.434 536.919 515.247 534.627C519.124 532.271 523.549 531.093 528.525 531.093ZM583.046 531.093C587.699 531.093 591.22 532.107 593.611 534.136C596.066 536.166 597.746 538.882 598.651 542.286C599.556 545.625 600.008 549.356 600.008 553.48V578.618C600.008 580.32 599.459 581.76 598.36 582.938C597.261 584.051 595.873 584.607 594.192 584.607C592.512 584.607 591.123 584.051 590.025 582.938C588.926 581.76 588.377 580.32 588.377 578.618V553.48C588.377 551.32 588.119 549.389 587.602 547.687C587.084 545.92 586.148 544.512 584.791 543.465C583.434 542.417 581.496 541.894 578.976 541.894C576.52 541.894 574.42 542.417 572.676 543.465C570.931 544.512 569.607 545.92 568.702 547.687C567.862 549.389 567.442 551.32 567.442 553.48V578.618C567.442 580.32 566.893 581.76 565.794 582.938C564.696 584.051 563.307 584.607 561.627 584.607C559.946 584.607 558.558 584.051 557.459 582.938C556.36 581.76 555.811 580.32 555.811 578.618V517.935C555.811 516.233 556.36 514.825 557.459 513.713C558.558 512.534 559.946 511.945 561.627 511.945C563.307 511.945 564.696 512.534 565.794 513.713C566.893 514.825 567.442 516.233 567.442 517.935V542.286L565.988 541.992C566.57 540.879 567.378 539.701 568.411 538.457C569.445 537.148 570.705 535.937 572.191 534.824C573.677 533.711 575.325 532.827 577.134 532.173C578.943 531.453 580.914 531.093 583.046 531.093Z" fill="#192A3D"/>
<path fill-rule="evenodd" clip-rule="evenodd" d="M439.034 416.243C437.689 418.233 436.338 420.162 434.982 422.021C455.19 432.872 479.429 439.745 502.383 443.874C525.332 448.006 546.566 449.319 560.433 449.273C662.516 219.629 545.582 55.2731 472.68 0C424.292 5.80771 388.58 17.9422 350.097 45.599C378.331 66.7586 405.113 92.8787 427.206 122.596C458.122 164.182 480.051 213.082 483.615 265.491C486.926 314.219 474.329 365.533 439.034 416.243ZM419.779 135.233C418.67 133.686 417.546 132.149 416.411 130.621C394.562 101.233 367.907 75.4521 339.877 54.759C309.575 76.5354 280.721 104.028 257.496 135.482C293.518 156.913 324.087 186.518 337.7 222.939C351.808 186.257 383.127 156.555 419.779 135.233ZM330.773 249.845C324.705 207.482 292.9 172.232 250.818 147.158C181.112 254.475 211.277 356.603 246.909 409.544C248.374 411.648 249.879 413.754 251.427 415.858C280.421 393.994 329.711 338.945 329.711 265.705C329.711 260.308 330.074 255.02 330.773 249.845Z" fill="#007BFF"/>
<path fill-rule="evenodd" clip-rule="evenodd" d="M117.336 103.472L122.748 94.2311C124.802 91.0951 127.085 87.6931 129.567 84.0914L129.582 84.0705L129.596 84.0495C132.286 80.0828 135.032 76.2076 137.824 72.4233L137.839 72.4029L137.854 72.3821C155.997 47.3993 180.41 17.9071 203.696 0.0488658C233.039 -0.867775 270.794 11.1407 309.014 33.612C347.967 56.5154 386.682 89.8731 416.463 129.931C446.244 169.99 466.898 216.479 470.247 265.714C473.475 313.183 460.657 363.685 423.607 414.071C394.615 392.207 345.326 337.156 345.326 263.917C345.326 206.002 303.531 160.638 252.072 131.621L246.681 128.581L243.205 133.701C162.419 252.698 199.757 367.109 240.054 422.432C219.845 433.281 195.606 440.154 172.653 444.286C149.704 448.415 128.467 449.727 114.601 449.684C47.471 298.99 69.9876 184.317 117.336 103.472Z" fill="#0B69EE"/>
</svg>
