<?xml version="1.0" encoding="UTF-8"?>
<!DOCTYPE svg PUBLIC "-//W3C//DTD SVG 1.1//EN" "http://www.w3.org/Graphics/SVG/1.1/DTD/svg11.dtd">
<!-- Creator: CorelDRAW -->
<svg xmlns="http://www.w3.org/2000/svg" xml:space="preserve" width="169.333mm" height="42.3332mm" version="1.1" style="shape-rendering:geometricPrecision; text-rendering:geometricPrecision; image-rendering:optimizeQuality; fill-rule:evenodd; clip-rule:evenodd"
viewBox="0 0 16933.32 4233.32"
 xmlns:xlink="http://www.w3.org/1999/xlink"
 xmlns:xodm="http://www.corel.com/coreldraw/odm/2003">
 <defs>
  <style type="text/css">
   <![CDATA[
    .fil0 {fill:#C40000}
   ]]>
  </style>
 </defs>
 <g id="Layer_x0020_1">
  <metadata id="CorelCorpID_0Corel-Layer"/>
  <g id="_2550573270000">
   <path class="fil0" d="M2466.31 2656.33c1.56,-6.7 0.05,-15.01 6.67,-15.01l685.46 0c0,-10.91 5.08,-29.55 7.37,-41l95.62 -484.77c2.81,-14.05 4.69,-26.49 7.77,-40.59 8.35,-38.15 15.99,-55.39 15.99,-97.42 0,-34.3 -19.41,-69.51 -36.6,-86.81 -19.04,-19.15 -55.48,-29.42 -90.15,-33.27 -74.07,-8.23 -160.25,-4.13 -238.5,-8.33 -35.76,-1.92 -73.74,-6.26 -108.4,-15.02 -34.8,-8.8 -61.47,-17.52 -89.36,-34.05 -25.44,-15.09 -47.84,-34.18 -64.75,-58.67 -43.91,-63.57 -45.86,-121.66 -5.67,-185.48 22.5,-35.72 51.52,-71.18 84.72,-97.06l42.02 -29.7c4.33,-2.82 7.03,-3.93 11.94,-6.41 107.76,-54.4 186.16,-45.6 299.62,-45.6 48.69,0 93.66,-1.67 143.43,-1.67l431.96 -1.67c49.6,0 93.71,-1.67 143.43,-1.67l216.82 -0.01c13.85,-0.07 20.83,1.76 35.05,1.65 21.41,-0.17 44.93,2.81 65.99,5.72 39.51,5.46 80.04,13.61 115.72,29.38 37.45,16.55 19.13,13.03 77.46,-9.35 36.03,-13.83 89.64,-25.01 134.38,-27.39 92.95,-4.96 187.07,-3.22 280.2,-3.33 15.78,-0.02 24.8,1.73 40.02,1.67 15.72,-0.06 67.98,0.4 81.02,2.37 11.31,1.71 25.89,1.84 37.25,2.77 72.85,5.95 154.73,33.17 201.46,88.74 13.13,15.63 22.7,30.78 32.18,49.54 20.15,39.88 14.48,98.26 13.32,143.42 -0.75,29.43 -5.27,63.54 -9.27,92.46 -16.45,118.87 -36.36,234.89 -56.23,354.05 -26.08,156.36 -52.44,314.33 -75.52,471.51 -5.85,39.84 -11.04,77.94 -18.37,116.72 -3.81,20.15 -6.92,37.59 -11.36,57.02 -8.25,36.16 -17.92,72.37 -29.56,107.19 -5.21,15.59 -12.67,34.42 -19.81,48.57 -28.13,55.7 -56.53,95.06 -104.85,133.65 -117.63,93.93 -279.49,88.16 -432.19,88.16 -43.6,0 -81.55,-1.67 -125.08,-1.67 0,-37.55 13.48,-79.88 43.65,-99.78 38.56,-25.44 127.03,-12.2 182.23,-34.58 17.96,-7.27 31.92,-14.85 45.59,-26.12 28.32,-23.35 47.19,-49.29 62.06,-83.04 6.26,-14.19 13.17,-37.53 17.39,-54.33 4.87,-19.36 9.68,-38.3 13.37,-58.34 7.64,-41.56 14.44,-82.93 20.47,-124.63l35.52 -254.67c0,-13.89 -37.99,-65.13 -52.96,-82.13 -27.71,-31.44 -73.06,-68.98 -110.56,-91.24 -5.16,-3.06 -10,-5.22 -13.26,-10.09 4.59,-1.22 7.96,-4.76 12.32,-7.69 13.56,-9.12 27.27,-16.26 43.32,-21.72 43.12,-14.66 90.07,-13.6 135.45,-6.57 7.76,1.2 12.36,2.63 20.71,2.63 0,-19.33 18.13,-120.6 21.69,-141.76 8,-47.57 14.94,-94.26 22.38,-142.73 14.79,-96.35 31.04,-188.45 45.27,-284.95 3.6,-24.4 9.08,-49.78 -0.99,-69.28 -9.64,-18.66 -30.06,-27.62 -49.34,-34.04 -18.32,-6.11 -47,-11.28 -70.7,-11.02 -13.95,0.15 -24.79,-3.18 -39.32,-0.98 -12.87,1.96 -26.88,-0.01 -39.76,1.93l-36.49 3.54c-31.37,5.04 -63.58,18.55 -85.83,39.26 -48.77,45.37 -61.46,107.52 -72.58,174.24 -11.94,71.58 -20.51,145.13 -31.95,216.56l-114.82 710.73c-3.5,20.99 -21.23,122.51 -22.87,142.24l-353.57 0c1.83,-22.05 30.72,-191.09 34.31,-212.53 23.84,-142.62 44.43,-282.41 68.38,-425.28 12.08,-72.09 22.71,-142.02 34.55,-213.94 5.72,-34.66 10.36,-70.65 16.9,-106.53 6.5,-35.73 13.96,-67.73 19.8,-103.61 5.9,-36.25 10.12,-72.51 4.27,-111.99 -3.71,-25.07 -14,-45.59 -30.16,-63.24 -23.95,-26.15 -71.04,-42.34 -113.01,-42.1 -123.58,0.72 -246.44,-1.64 -370.27,-1.64l-411.94 0c-62.93,0 -124.55,17.41 -159.89,61.92 -14.07,17.73 -21.9,34.08 -21.9,61.49 0,33.31 26.25,69.34 45.96,84.14 26.73,20.07 55.09,28.69 95.5,34.58 39.6,5.76 80.45,3.15 123.78,3.09 19.28,-0.03 41.89,-3.54 61.63,-3.41 95.54,0.6 200.48,-14.92 282.86,49.06 40.6,31.54 67.39,95.85 67.39,167.77 0,44.89 -3.02,93.87 -10.97,135.79l-14.72 70.34c-2.31,9.02 -3.11,15.59 -4.78,25.23 -11.24,64.69 -23.51,132.31 -34.34,197.49l-34.29 197.53c-3.2,16.9 -5.56,31.52 -8.35,48.36 -2.94,17.71 -5.67,32.28 -8.58,49.79 -5.62,33.76 -9.85,66.99 -17.39,99.35l-887.26 0c-45.83,0.01 -76.63,-5.74 -106.74,-21.68 3.98,17.08 16.73,36.17 23.12,51.94 14.3,35.33 34.3,67.59 52.51,100.93 17.47,31.98 37.74,63.89 57.8,93.96 10.25,15.39 19.97,30.46 31.21,45.5l109.28 137.56c3.55,3.84 6.63,6.12 9.85,10.16 6.67,8.35 11.82,12.26 18.5,19.85 3.61,4.09 4.24,5.9 8.32,10.03l48.4 48.33c55.32,55.36 147.65,129.41 209.73,170.53 7.93,5.25 14.02,10.36 22.81,15.55l107.2 64.58c4.54,2.63 7.29,4.38 12.87,7.14 5.28,2.61 6.88,3.98 11.69,6.66 36.37,20.37 77.09,39.03 116.32,55.46 92.82,38.87 189.11,71.56 289.06,92.86 20.24,4.31 42.6,8.53 63.94,12.78 21.02,4.19 44.23,7.77 66.43,10.29 75.29,8.55 136.1,14.87 215.28,14.87 83.42,0 195.06,-7.69 273.38,-23.49 41.89,-8.44 81.46,-15.64 122.55,-25.87 14.12,-3.52 26.13,-7.22 39.35,-10.69 51.13,-13.4 99.93,-30.4 148.94,-49.52 12.26,-4.79 23.69,-9.08 35.63,-14.41l118.44 -55.01c6.56,-3.27 9.53,-5.66 16.08,-8.93 11.55,-5.77 21.82,-11.08 32.5,-17.53 30.86,-18.63 62.43,-36.07 92.38,-56.06 54.83,-36.57 122.09,-83.6 170.21,-128.33l102.56 -95.9c11.32,-11.28 26.3,-26.15 36.14,-38.9l28.92 -32.8c36.96,-41.59 72.27,-85.51 103.15,-132.01 36.92,-55.61 74.11,-111.15 104.05,-171.12l33.39 -66.69c5.28,-10.72 9.74,-22.57 14.98,-33.38 5.4,-11.13 9.93,-23.67 14.97,-35.07 5.02,-11.36 9.71,-23.48 14.35,-35.68 43.85,-115.3 73.16,-230.58 91.26,-355.7 28.4,-196.32 17.03,-414.31 -31.51,-606.58 -13.14,-52.03 -29.11,-102.31 -45.9,-152.57 -30.43,-91.05 -77.59,-190.27 -126.03,-270.9l-57.23 -91.21c-19.37,-29.25 -41.11,-58.13 -62.67,-85.75l-44.77 -55.3c-14.33,-18.34 -54.57,-61.86 -71.43,-78.67l-36.68 -36.7c-5.11,-5.18 -8.43,-6.86 -13.39,-11.63l-58.42 -53.32c-79.92,-67.62 -165.56,-126.68 -256.26,-179.03 -30.77,-17.76 -64.47,-35.84 -97.36,-51.08 -6.65,-3.08 -10.75,-4.49 -17.23,-7.78 -79.96,-40.63 -226.17,-88.8 -314.52,-107.43 -199.2,-42 -383.96,-52.67 -586.93,-24.05 -84.57,11.93 -168.3,29 -245.53,54.68 -134.4,44.69 -231.35,84.81 -352.83,157.51l-91.16 58.94c-6.32,4.19 -11.69,8.07 -17.59,12.43l-180.29 149.93 -45.03 45.03c-5.91,5.84 -8.45,10.21 -14.15,15.87 -75.06,74.68 -156.32,189.9 -207.15,274.84 -7.57,12.66 -14.33,25.1 -22.1,37.94 -31.54,52.15 -73.39,146.6 -95.91,204.29 -11.48,29.41 -21.47,57.57 -31.57,88.51 -30.73,94.1 -50.77,195.18 -64.72,295.52 -5.16,37.13 -9.31,73.69 -9.22,110.86 0.02,10.85 -1.8,16.08 -1.73,28.29l-0.08 44.95c-2.23,26.5 0.12,15.59 0.09,41.78 -0.01,10.02 0,20.04 -0.04,30.06l5.5 84.56c2.14,16.52 4.15,37.15 6.07,53.97 5.85,51.11 14.94,104.29 26.5,153.62 8.89,37.98 34.54,143.22 52.21,181.28l3.15 5.19z"/>
   <path class="fil0" d="M11358.92 2211.03c16.98,0 292.76,1.76 307.03,0.16 9.43,-1.06 7.52,-10.58 8.91,-19.44l61.92 -385.06c5.28,-32.97 11.43,-64.95 15.83,-97.57l60.45 -388.19c6.7,-46.33 11.38,-95.98 28.31,-138.46 5.73,-14.37 11.82,-25.48 19.55,-37.16 43.48,-65.77 116.6,-65.04 191.8,-65.04 36.09,0 93.33,6.9 110.69,37.74 6.85,12.18 5.93,25.6 3.9,41.83 -14.28,113.97 -37.54,231.07 -54.07,344.53l-27.17 172.97c-7.84,0 -15.85,-1.09 -24.9,-1.78 -116.65,-8.87 -141.06,31.35 -155.22,35.13 2.37,8.86 16.16,14.98 23.34,20.03 25.06,17.6 51.37,37.09 72.98,58.78 15.34,15.39 27.38,29.22 38.7,48.02 18.88,31.38 15.62,26.5 9.6,67.82 -3.5,23.99 -8.44,49.49 -11.33,75.4 -7.05,63.1 -21.79,174.07 -34.89,230.29l1469.32 0 30.03 -171.77c9.5,-57.49 20.21,-115.11 29.79,-172.01 9.71,-57.69 20.36,-115.47 29.76,-172.04 4.97,-29.88 12.26,-54.88 17.17,-84.57 31.59,-191.2 -2.24,-311.89 -223.5,-311.89 -53.42,0 -100.66,5 -153.43,5 -52.89,0 -107.98,0.81 -153.99,-24.46 -24.7,-13.57 -51.15,-49.97 -51.15,-85.61 0,-41.23 36.99,-68.59 65.57,-82.86 33.86,-16.9 79.32,-18.87 129.56,-18.87 99.1,0 196.27,1.66 296.87,1.66 53.94,0 329.03,-2.83 368.3,1.94 139.17,16.93 109.15,146.64 89.36,245.59 -8.21,41.06 -13.95,82.14 -20.94,124.16l-49.8 310.43c-3.44,20.41 -7.2,41.67 -9.92,61.8 -11.2,83.13 -28.36,166.03 -39.83,248.69 -4.73,34.04 -13.1,93.9 -20.3,124.81l311.88 0c0.75,-9.03 3.32,-21.64 4.77,-30.25l14.3 -94.11c6.26,-42.66 11.9,-82.94 17.91,-125.52 23.38,-165.86 46.53,-334.23 74.05,-499.67 6.91,-41.57 14.31,-81.44 22.25,-121.17 4,-19.99 7.48,-39.82 12.15,-59.57 4.54,-19.22 9.07,-40.38 13.14,-60.24 3.92,-19.13 11.03,-35.65 19.32,-52.4 4.28,-8.65 7.89,-14.15 13.2,-21.82 20.17,-29.18 53.83,-48.22 88.63,-54.8 22.38,-4.23 45.81,-2.86 67.09,-4.62 22.53,-1.87 14.56,-0.41 33.39,0.14 35.03,1.02 89.24,4.56 107.82,35.61 10.71,17.89 5.73,39.44 2.6,61.36 -6.05,42.36 -13.96,83.33 -19.82,123.6 -6.12,41.97 -12.48,81.96 -19.55,123.89 -2.92,17.36 -37.5,227.43 -39.31,249.21 -29.05,-2.41 -20.24,-6.67 -70.05,-6.67 -27.89,0 -93.16,13.11 -110.07,38.36 3.74,5.59 72.34,53.77 90.51,71.27 23.55,22.66 47.76,47.99 58.24,80.23 2.02,6.24 0.64,12.94 -0.41,20.19 -1.9,13.27 -4.01,28.12 -6.09,40.61 -16.81,101.17 -31.16,304.74 -73.86,389.78 -20.79,41.4 -54.17,72.78 -100.76,86.03 -26.66,7.58 -53.32,7.3 -82.96,10.44 -33.56,3.55 -60.8,5.14 -81.71,33.36 -2.95,3.99 -6.34,9.98 -8.38,14.97 -4.41,10.78 -7.92,22.26 -10.23,36.47 -4.55,27.89 -8.02,20.57 67.22,20.52 17.29,-0.01 27.97,1.69 45.03,1.67l105.07 -1.67c54.05,0.08 110.82,-7.58 161.78,-21.67 46.21,-12.79 83.2,-34.59 118.66,-63.13 9.95,-8.02 21.41,-21.17 31.03,-30.68 15.95,-15.77 39.43,-50.49 48.55,-73.2 12.53,-31.23 23,-55.22 32.63,-89.12 21.74,-76.54 41.88,-219 54.59,-310.65 9.45,-68.1 23.04,-141.15 34.26,-209.24 5.85,-35.51 11.24,-69.35 17.16,-104.58 11.72,-69.7 22.96,-138.4 34.3,-209.2 9.53,-59.54 39.89,-231.08 14.06,-289.45 -32.03,-72.37 -99.05,-113 -176.29,-125.58 -45.03,-7.34 -94.59,-9.77 -140.6,-9.5 -13.45,0.07 -21.94,-1.71 -36.67,-1.69 -95.86,0.11 -259.21,-7.62 -341.67,21.9 -83.82,30.01 -34.69,28.64 -106.74,4.56 -83.59,-27.95 -179.43,-23.13 -268.74,-23.13 -244.3,0 -483.17,3.34 -727.15,3.34 -89.86,0 -164.07,-1.41 -237.93,35.58 -24.78,12.41 -48.92,26.65 -67.71,45.7 -5.18,5.25 -7.02,6.32 -12.45,10.91 -4.82,4.08 -5.51,6.99 -10.01,11.66 -18.98,19.72 -35.96,41.68 -49.35,65.73 -51.92,93.25 16.96,188.89 105.37,220.91 43.46,15.74 107.59,26.72 156.99,26.46 16.86,-0.08 27.99,1.75 43.37,1.67l133.38 3.38c26.41,1.43 55.05,8.7 73.46,18.26 44.45,23.08 52.65,82.86 44.05,129.16 -2.47,13.28 -5.61,24.81 -8.88,36.16 -3.53,12.26 -5.25,25.13 -7.81,38.89 -9.56,51.36 -20.27,102.96 -30.31,153.14 -10.28,51.4 -20.16,102.5 -30.29,153.16 -5.11,25.56 -9.99,51.6 -15.01,76.72l-15.15 76.58 -842.23 0 108.4 -675.45c9.2,-55.38 18.88,-114.35 23.24,-171.89 3.11,-41.09 7.14,-92.83 -6.34,-130.19 -31.53,-87.34 -124.3,-124.91 -211.87,-133.37 -37.31,-3.6 -72.41,-5.04 -110.25,-4.82 -13.46,0.07 -21.94,-1.71 -36.67,-1.69 -72.85,0.08 -150.33,-2.66 -221.9,3.24 -35.86,2.96 -69.44,3.68 -104.34,12.41 -58.38,14.61 -106.48,44.31 -147.83,85.66 -24.87,24.87 -45.18,52.01 -61.84,83.26l-19 39.37c-28.62,66.96 -42.44,136.57 -54.54,208.96 -11.3,67.59 -21.23,134.6 -32.42,201.09 -22.63,134.47 -41.87,267.42 -64.56,402.41 -4.29,25.57 -30.46,179.41 -32.4,202.76z"/>
   <path class="fil0" d="M4010.68 3875.47c-69.98,0 -146.79,-0.33 -214.67,-8.81 -117.12,-14.63 -206.55,-30.28 -318.42,-63.5 -94.79,-28.15 -184.14,-65.25 -273.57,-106.69 -42.07,-19.49 -99.33,-52.95 -139.7,-77.11 -28.19,-16.88 -56.6,-34.3 -82.92,-53.84l-139.6 -107.23c-49.86,-40.26 -94.95,-86.42 -139.95,-131.9l-51.12 -57.28c-17.88,-23.02 -40.9,-47.78 -61.02,-74.07 -4.11,-5.37 -7.61,-10.6 -12.17,-16.18l-78.2 -111.93c-33.48,-49.88 -62.12,-101.88 -89.18,-155.99 -50.38,-100.77 -90.6,-204.24 -122.5,-312.79 -62.64,-213.14 -79.67,-455.53 -54.54,-685.36 7.08,-64.78 19.1,-126.44 31.81,-186.67 2.86,-13.6 6.92,-28.09 10.59,-42.78 24.38,-97.55 56.17,-192.82 98.51,-283.41 5.96,-12.77 10.39,-24.27 16.66,-36.7 18.15,-36 35.12,-73.06 55.93,-107.52l61.71 -101.74c21.01,-32.77 44.67,-64.76 67.82,-95.62 24.77,-33.02 50.77,-67.57 79.03,-97.75l45.89 -50.85c18.95,-21.52 46.34,-46.66 67.5,-67.59l132.07 -113.09c10.91,-8.51 20.4,-15.65 31.22,-23.81 42.04,-31.73 86.47,-59.01 130.53,-87.95 11.67,-7.68 22.97,-13.68 34.44,-20.6 11.29,-6.81 22.23,-12.4 33.96,-19.4 45.3,-27.04 136.14,-68.85 185.14,-88.39 53.04,-21.15 104.85,-40.78 160.34,-56.47l86.77 -23.29c59.79,-14.95 118.84,-25.21 184.03,-34.45 208.96,-29.63 447.23,-16.22 648.2,34.12 29.38,7.36 57.87,14.04 85.51,22.88 130.42,41.71 189.48,65.72 309.87,125.43l51.74 28.32c52.28,29.24 101.98,61.41 151.29,95.53 50.22,34.75 106.62,78.36 151.49,120.36l49.88 45.18c15.22,12.14 45.93,45.19 61.06,62.37l45.83 49.22c50.75,57.11 119.99,145.83 157.51,209.41 32.68,55.39 60.21,97.13 89.48,155.68 24.5,49.03 47.23,99.96 67.58,150.9 15.43,38.61 28.8,79.85 42.16,119.62 34.35,102.23 52.59,209.03 66.99,316.59 4.16,31.01 5.63,66.78 9.26,99.15l3.58 106.49c-0.08,47.49 -2.93,94.33 -6.57,141.86 -6.36,82.84 -19.46,170.55 -37.44,249.42 -23.11,101.34 -52.5,194.06 -92.05,288.22 -5.85,13.92 -10.76,24.94 -16.41,38.61 -26.13,63.2 -79.14,158.33 -113.03,212.19 -41.84,66.48 -86.94,130.79 -137.59,190.97 -20.48,24.33 -40.19,49.82 -62.61,72.48l-20.12 21.57c-14.3,17.12 -65.47,65.96 -82.49,80.95l-79.94 68.49c-39.67,33.53 -81.99,64.37 -125.27,93.22 -49.44,32.96 -99.58,65.57 -152.68,92.48 -42.35,21.46 -84.84,44.69 -128.79,63 -96.85,40.35 -180.14,70 -285.57,96.36 -85.7,21.42 -193.25,40.32 -282.16,44.72 -34.45,1.7 -70.89,4.97 -105.1,4.97zm-1986.33 -1767.85c0,252.73 44.33,499.46 135.56,726.69 22.87,56.97 47.73,111.88 75.14,166.69 16.52,33.05 33.75,65.94 52.72,97.38 3.88,6.45 6.91,12.16 11.04,18.98 41.09,67.9 84.37,135.61 134.67,197.22l40.8 50.92c4.74,5.44 9.55,10.93 13.71,16.31 2.8,3.63 3.98,4.49 7.07,7.95 11.64,13.07 22.49,27.68 35.03,40.01l135.95 135.91c24.15,24.71 89.22,77.51 114.05,96.09l51.47 38.59c28.88,21.82 59.93,41.56 90.06,61.7 11.66,7.8 24.79,16.06 36.76,23.28 18.75,11.29 37.92,23.94 57.74,33.99 33.13,16.79 64.41,35.55 97.83,52.27l125.49 56.3c89.34,35.62 179.75,65.3 273.24,88.66 32.3,8.08 64.55,15.61 98.43,21.65 225.53,40.2 405.62,44.5 632.76,17.08 34.51,-4.16 68.97,-10.97 103.24,-16.83 87.8,-15.02 203.36,-46.75 285.89,-77.69 50.38,-18.88 100.85,-38.23 149.89,-60.25l102.27 -49.5c7.65,-3.79 12.32,-7.07 19.44,-10.58 87.3,-43.07 217.28,-131.45 291.49,-192.17l33.22 -26.82c5.89,-4.97 11.27,-10.16 16.95,-14.74l94.34 -85.77c13.42,-10.36 27.88,-24.79 38.83,-37.89l71.77 -78.33c3.41,-3.49 4.29,-4.21 7.11,-7.9l41.69 -50.04c2.59,-3.34 4.26,-4.81 6.93,-8.08 29.5,-36.14 58.01,-74.05 83.81,-112.99 8.28,-12.5 16.99,-23.58 24.27,-35.77 3.95,-6.63 7.63,-12.02 11.77,-18.25l34.28 -55.78c70.74,-117.63 128.38,-243.06 171.87,-373.49 20.27,-60.77 38.46,-122.49 53.04,-188.79 79.56,-361.66 63.05,-712.42 -52.62,-1059.54 -4.85,-14.57 -9.7,-29.52 -15.5,-44.54l-33.85 -86.23c-22.54,-57.03 -50.83,-109.64 -77.74,-164.08l-55.21 -96.56c-4.05,-6.77 -7.16,-12.35 -11.27,-18.75l-98.79 -143.04c-25.24,-33.67 -58.57,-77.17 -88.08,-108.71l-50.05 -55.03c-20.38,-20.31 -38.71,-42.48 -60.8,-60.95 -10.7,-8.94 -19.58,-21.25 -30.26,-29.77 -6.81,-5.43 -9.52,-8.32 -15.65,-14.38 -3.65,-3.61 -4.49,-3.85 -8.2,-6.81 -3.1,-2.47 -4.77,-4.43 -7.65,-7.35 -3.58,-3.63 -3.99,-3.78 -8.08,-6.94 -3.77,-2.92 -4.54,-4.2 -7.77,-7.23 -3.61,-3.38 -4.77,-3.51 -8.33,-6.69l-25.05 -21.64c-5.6,-4.99 -11.03,-8.51 -16.63,-13.4l-50.17 -39.88c-57.73,-47.14 -171.04,-121.06 -237.97,-155.63 -46.75,-24.14 -92.26,-50.48 -141.06,-70.74l-62.9 -27.17c-153.33,-61.04 -310.26,-106.52 -476.99,-128.41 -36.67,-4.81 -73.05,-7.96 -109.84,-11.92l-28.05 -1.97c-26.45,-0.18 -57.88,-3.28 -88.44,-3.28 -127.39,0 -174.06,2.45 -301.73,16.82 -112.61,12.67 -280.55,53.03 -388.49,93.5 -13.89,5.2 -30.18,10.66 -43.85,16.19 -28.7,11.63 -57.44,21.29 -85.37,34.71l-62.82 28.91c-6.91,3.46 -13.1,5.84 -20.59,9.43 -86.96,41.74 -202.37,110.41 -281.76,170.2l-101.49 78.64c-5.88,4.76 -10.96,9.69 -17.15,14.54 -4.2,3.28 -4.36,3.52 -8.05,6.96 -12.92,12.01 -27.56,22.41 -40.05,35l-46.67 43.38c-20.14,20.26 -41.8,39.72 -60.12,61.64l-43.26 46.8c-22.6,22.58 -49.39,56.82 -68.71,81.39l-125.37 176.5c-26.89,39.99 -56.06,91.56 -77.37,134.43 -44.81,90.11 -85.19,178 -117.38,274.55 -66.03,198.03 -104.44,394.9 -104.44,621.04z"/>
   <path class="fil0" d="M8885.6 981.87c-284.51,0 -566.81,3.34 -850.57,3.34 -13.86,0 -27.92,-0.24 -41.76,-0.07 -9.26,0.12 -10.62,1.69 -19.88,1.8 -89.81,1.09 -166.7,30.64 -227.3,91.25 -32.23,32.23 -77.97,85.81 -77.97,135.5 0,44.78 16.16,73.6 41.69,106.75 11.51,14.93 28.49,27.37 44.7,37.02 137.35,81.72 395.22,13.72 461.76,80.27 20.11,20.11 30.57,51.63 30.57,81.17 0,24.31 -6.11,50.6 -11.88,69.84 -6.7,22.4 -35.03,175.55 -41.35,207.15 -18.45,92.26 -36.57,185.73 -54.76,277.12 -4.87,24.48 3.56,17.94 -63.79,17.94 -51.77,0 -532.97,-1.71 -538.38,0.31 -7.81,2.92 -27.06,96.75 65.13,116.03 14.94,3.13 28.72,5.4 46.3,5.4l783.86 0c6.5,0 6,-10.8 7.14,-17.86l11.63 -66.76c11.25,-57.47 20.05,-118.28 30.56,-176.25l45.73 -264.48c7.16,-43.76 20.37,-86.67 23.41,-131.69 3.43,-50.87 6.02,-94.67 -11.26,-143.96 -13.08,-37.3 -40.31,-71.92 -77.4,-87.71 -92.61,-39.44 -201.89,-20.23 -299.99,-20.23 -65.27,0 -128.98,1.72 -175.58,-46.24 -33.88,-34.87 -34.68,-93.08 5.44,-123.88 42.98,-32.99 82.05,-41.82 140.11,-41.69 30.02,0.07 60.05,0.01 90.07,0.01 30.48,0 58.1,1.66 90.06,1.66 121.19,0 242.38,0 363.57,0 71.44,0 185.73,-15.35 229.23,42.63 21.94,29.23 22.61,57.34 22.61,95.8 0,41.32 -11.38,82.75 -19.32,122.44 -16.31,81.53 -26.14,162.44 -39.77,243.76 -6.98,41.62 -12.58,80.91 -19.53,122.23 -13.56,80.55 -25.93,163.93 -39.32,244.2 -6.92,41.47 -13.11,80.45 -19.53,122.24 -3.28,21.41 -19.3,104.73 -19.3,124.12l306.87 0c7.11,0 9.02,-32.56 10.48,-41.23 2.38,-14.15 5,-31.58 7.37,-45.99l73.16 -452.19c20.51,-122.33 38.4,-240.52 56.25,-364.03 15.84,-109.6 32.67,-199.15 148.83,-218.08 17.11,-2.79 32.79,-1.17 50.72,-2.65 40.77,-3.38 151.85,-2.78 151.85,58.46 0,23.85 -4.46,45.38 -8.33,68.38l-42.4 266.14c-4.31,28.02 -30.99,181.07 -30.99,200.83 -19.07,0 -43.8,-6.67 -75.05,-6.67 -32.67,0 -61.85,7.03 -87.45,22.62 -7.08,4.3 -14.89,12.01 -22.62,14.07 2.07,7.77 39.93,30.16 46.7,35.02 15.76,11.3 31.81,24.23 45.47,37.92 21.56,21.64 38.35,44.92 53.9,71.19 9.47,16.01 9.28,12.93 6.43,30.05 -19.34,116.36 -35.95,322.26 -76,421.01 -24.5,60.42 -82.34,99.17 -148.2,101.96 -21.79,0.92 -56.27,2.61 -75.76,7.63 -25.67,6.59 -36.45,14.94 -49.04,34.35 -8.84,13.62 -16.98,43.96 -16.98,66.41 137.21,0 342.87,19.26 461.66,-57.02 17.86,-11.47 35.89,-24.23 50.78,-39.29 5.65,-5.72 10.23,-10.12 15.87,-15.81 3.57,-3.61 3.89,-4.57 6.82,-8.19 98.37,-121.87 104.29,-305.88 129.84,-458.88l50.98 -310.93c11.35,-68.06 22.7,-139.53 34.08,-207.75 15.2,-91.14 25.49,-158.23 25.49,-253.03 0,-33.18 -9.86,-59.03 -27.14,-82.93 -25.94,-35.88 -59.87,-63.65 -104.81,-78.65 -29.23,-9.76 -59.53,-14.94 -91.05,-19.02 -60.4,-7.81 -218.67,-5.78 -294.03,-6.21 -27.6,-0.16 -77.44,3.86 -105.04,5.03 -20.83,0.89 -43.92,6.36 -62.41,10.98 -19.91,4.98 -37.68,12.36 -55.54,19.51 -34.9,13.97 -19.52,9.42 -51.96,-2.36 -18.38,-6.67 -36.3,-12.53 -58.16,-16.89 -39.91,-7.96 -86.92,-12.92 -135.52,-12.92z"/>
   <path class="fil0" d="M10670.13 2129.31c-66.14,0 -119.34,-2.8 -177.28,-27.87 -37.12,-16.06 -49.42,-25.26 -76.72,-48.35 -22.84,-19.31 -41.34,-44.01 -55.11,-71.65 -62.49,-125.53 -40.84,-307.74 -18.25,-443 12.01,-71.94 25.65,-140.77 43.15,-210.35 16.84,-66.95 39.83,-122.49 77.41,-176.09 22.49,-32.07 56.79,-61.62 92.9,-77.22 63.67,-27.5 161.65,-17.86 237.31,-17.86 56.71,0 113.41,0 170.12,0l10.24 -64.81c1.03,-5.92 5.76,-16.91 -1.9,-16.91l-318.55 0c-113.78,0 -210.18,23.88 -291.65,56.92 -26.69,10.83 -58.38,30.91 -81.69,48.39 -24.35,18.27 -49.35,39.66 -69.89,61.87 -27.72,29.96 -53.45,66.24 -73.71,101.41 -2.76,4.79 -4.36,9.07 -7.45,14.23 -3.19,5.33 -5.02,8.78 -7.63,14.05 -5.2,10.44 -9.59,18.95 -14.53,30.5 -9.77,22.86 -16.2,34.85 -25.69,61.03 -7.74,21.36 -15.58,42.73 -22.21,66.18 -55.32,195.59 -89.19,480.36 70.35,639.9 27.28,27.29 55.97,51.29 91.04,69.07 8.26,4.19 12.68,7.77 21.82,11.53 8.3,3.43 13.91,5.97 22.08,9.62 83.55,37.25 207.21,51.13 305.77,51.13l268.51 0c100.05,0 172.07,-32.51 228.27,-76.94 61.28,-48.44 98.11,-118.51 108.9,-196.3l20.69 -131.08c3.84,-22.75 6.84,-44.58 10.49,-66.23l30.97 -197.52c14.89,-88.37 26.62,-175.71 41.45,-263.75l30.97 -197.52c3.75,-22.4 6.7,-43.74 10.48,-66.23 14.73,-87.47 26.78,-177.43 41.47,-263.74 14.5,-85.22 9.46,-101.54 60.99,-167.49 32.58,-41.7 99.36,-74.34 155.82,-74.34l113.41 0c0.14,-6.37 2.25,-14.47 3.05,-20.29 1.05,-7.49 2.27,-14.28 3.13,-20.22 2.02,-13.83 5.49,-27.3 5.49,-41.21l-215.14 0c-112.86,0 -214.89,41.46 -283.98,107.96 -100.03,96.29 -152,239.81 -178.69,373.33 -17.67,88.4 -29.08,181.33 -44.09,271.12 -7.5,44.83 -15.05,91.46 -21.44,135.33l-74.83 477.22c-8.33,49.45 -22.67,161.64 -35.12,201.7 -10.58,34.08 -34.66,73.5 -62.28,94.48 -32.61,24.77 -73.89,40 -118.45,40z"/>
   <path class="fil0" d="M11947.65 2971.54l0 -53.37 -171.78 0c-3.85,0 -5.01,1.16 -5.01,5l0 653.77c0,3.84 1.16,5 5.01,5l171.78 0 0 -300.2c0,-101.14 18.33,-189.92 104.84,-215.37 14.42,-4.25 40.78,-7.47 57.43,-5.27 23.04,3.05 28.7,3.01 49.56,13.81 45.48,23.55 68.63,73.47 68.37,125.1l-0.16 370.4c-0.05,6.22 -1.29,11.53 5.15,11.53l166.78 0c8.24,0 5,-20.35 5,-36.69l-0.01 -296.87c-0.13,-25.17 4.71,-55 10,-75.06 14.16,-53.77 48.53,-95.11 103.4,-108.41 25.56,-6.2 48.27,-6.55 73.77,-0.35 28.45,6.91 56.47,27.54 71.69,51.73 26.61,42.27 23.01,76.2 23.01,142.1 0,99.54 1.3,207.66 -0.04,306.91 -0.1,7.7 -2.23,16.64 5.04,16.64l165.11 0c3.84,0 5,-1.16 5,-5l0 -418.61c0,-150.67 -117.42,-260.18 -260.17,-260.18 -89.5,0 -167.63,29.88 -228.09,95.46 -4.36,4.73 -5.08,7.71 -10.4,11.28 -4.16,-2.78 -6.01,-6.34 -9.28,-10.74 -92.23,-124.18 -295.78,-119.11 -388.03,-38l-17.97 15.39z"/>
   <path class="fil0" d="M10281.53 3253.39c0,-51.37 10.21,-93.77 39.29,-132.5 4.16,-5.53 6.95,-7.6 10.74,-12.6 5.1,-6.74 6.16,-6.02 12.07,-11.28 54.38,-48.37 129.55,-56.4 196.65,-28.99 26.51,10.83 48.01,30.25 66.92,49.83 26.54,27.48 46.25,80.03 46.25,118.86 0,40.39 -0.05,61.5 -16.19,98.89 -16.65,38.56 -52.18,73.85 -89.43,92.36 -33.94,16.85 -49.89,18.89 -89.51,18.89 -51.1,0 -82.65,-18.06 -116.5,-45.27 -8.76,-7.04 -14.55,-13.77 -21.71,-23.33 -10.54,-14.08 -18.78,-28.34 -25,-45.04 -8.15,-21.92 -13.58,-50.14 -13.58,-79.82zm371.92 -283.52c-3.62,-2.42 -5.15,-4.28 -9.27,-7.41l-32.09 -21.28c-86.61,-52.26 -219.83,-57.91 -313.34,-10.81 -9.79,4.93 -17.09,9.83 -26.27,15.43l-36.4 26.97c-62.11,55.33 -102.63,113.05 -118.7,199.85 -2.34,12.66 -3.39,23.27 -5.28,36.42 -1.07,7.45 -0.17,13.6 -0.77,20.91 -4.62,56.84 5.55,118.83 27.95,170.69 5.03,11.63 14.11,29.95 20.5,39.54 25.28,37.94 20.52,29.63 45.53,59.55 13.84,16.56 58.33,50.92 76.22,60.53 28.67,15.41 52.47,27.01 86.28,33.8 67.66,13.59 144.9,7.32 207.99,-18.06 50,-20.11 53.32,-31.22 77.65,-44.09 0,8.89 0.01,17.79 0,26.69 -0.01,7.62 -3.03,23.34 5,23.34l166.78 0c3.84,0 5.01,-1.16 5.01,-5l0 -952.3 -171.79 0c-7.26,0 -5.13,8.93 -5.03,16.64 1.43,106.28 0.03,221.99 0.03,328.59z"/>
   <path class="fil0" d="M7998.34 2914.83l65.75 156.07c10.95,26.06 20.97,50.73 31.46,76.94 5.45,13.61 10.81,26.45 15.98,39.06 2.81,6.85 4.73,11.88 7.61,19.08 2.91,7.27 5.89,13.28 7.62,20.73l-255.17 0c1.24,-5.34 5.2,-12.99 7.63,-19.06l119.12 -292.82zm-463.64 667.11l186.79 0c7.68,0 19.49,-36.22 22.63,-44.08 5.69,-14.28 58.41,-137.8 59.09,-146.04l393.6 0c2.95,12.66 60.72,150.83 71.9,179.93 1.51,3.93 2.9,10.19 8.15,10.19l186.79 0c8.81,0 1.37,-10.86 -4.43,-23.92 -4.4,-9.91 -8.1,-18.47 -12.2,-27.83l-72.47 -167.68c-15.9,-38.16 -32.48,-73.6 -48.37,-111.74 -30.63,-73.52 -66.11,-149.98 -96.73,-223.48 -15.9,-38.17 -32.48,-73.6 -48.37,-111.74 -2.66,-6.39 -95.36,-216.36 -96.01,-224.2l-170.12 0 -193.41 447.01c-12.57,28.7 -35.37,84.8 -48.41,111.7l-96.74 223.48c-4.27,8.8 -8.05,18.35 -12.13,27.89l-30.19 69.99c-2.33,4.72 -7.39,10.52 0.63,10.52z"/>
   <path class="fil0" d="M9626.1 3446.85c-39.08,0 -57.86,-0.88 -93.39,-16.68 -16.86,-7.5 -39.02,-24.23 -52.16,-37.9 -31.21,-32.47 -49.58,-82.47 -49.58,-128.87 0,-40.15 0.17,-66.82 16.19,-103.9 9.68,-22.42 22.43,-40.55 38.42,-56.64 32.99,-33.18 87.79,-55.08 135.7,-49.91 17.48,1.89 21.08,-0.33 41.33,5.48 33.95,9.74 63.77,28.83 88.19,53.58 4.08,4.14 7,8.21 10.62,12.73 9.62,12.03 21.41,30.53 26.67,45.05 23.47,64.85 20.02,131.17 -15.3,190.27 -6.57,11 -8.91,12.09 -15.17,19.85 -28.96,35.87 -84.61,66.94 -131.52,66.94zm-366.92 -211.8l0 31.68c0,86.33 39.49,177.25 93.82,231.41 59.68,59.48 105.48,87.52 195.62,101.24 28.03,4.27 57.61,1.44 84.1,-0.8 57.95,-4.91 107.08,-25.28 152.83,-55.65 6.63,-4.41 11.39,-8.71 17.33,-12.69 0,9.45 0.02,18.9 0,28.36 -0.01,7.62 -3.02,23.34 5,23.34l166.78 0c3.85,0 5.01,-1.16 5.01,-5l0 -658.77 -176.79 0 0 51.7c-47.29,-31.67 -53.52,-40.68 -117.68,-59.11 -76.37,-21.93 -166.38,-15.66 -235.89,19.08 -24,11.99 -53.64,31.74 -72.93,50.48 -6.98,6.77 -10.77,8.11 -21.73,19.96l-18.53 21.5c-47.66,60.29 -76.94,133.86 -76.94,213.27z"/>
   <path class="fil0" d="M11460.66 3173.34l-318.55 0c12.6,-54.07 51.37,-91.64 100.3,-109.84 78.93,-29.34 172.8,-2.14 208.75,82.64 3.78,8.91 5.65,19.19 9.5,27.2zm-498.67 60.04c0,61.6 2.52,103.88 24.76,158.7 42.84,105.58 132.43,179.98 247.21,203.08 64.55,12.98 135.88,5.59 196.89,-14.67 52.91,-17.57 98.25,-47.95 135.28,-89.87 16.45,-18.62 54.69,-76.07 56.3,-95.47 -11.11,-0.92 -28.56,-5.75 -38.76,-7.93l-78.39 -16.68c-8.72,-1.87 -34.12,-6.11 -39.62,-8.74 -31.63,59.77 -93.91,88.39 -165.11,88.39 -23.83,0 -47.65,-6.21 -63.95,-14.44 -40.09,-20.27 -56.98,-39.05 -79.41,-77.36 -6.3,-10.76 -18.81,-44.71 -20.08,-59.97l475.31 0c36.05,0 28.36,10.46 28.36,-53.37 0,-81.98 -26.86,-162.12 -75.44,-221.43 -17.91,-21.87 -31.6,-35.41 -53.5,-53.24 -4.39,-3.57 -7.81,-5.92 -12.34,-9.34 -17.36,-13.08 -33.01,-21.56 -53.3,-31.76 -86.44,-43.46 -194.42,-39.1 -283.85,-2.54 -32.72,13.37 -73.94,42.54 -99.88,68.56 -36.41,36.52 -48.41,57.56 -69.34,99.1 -15.85,31.47 -31.14,92.16 -31.14,138.98z"/>
   <path class="fil0" d="M13093.41 3807.09l195.13 0 47.65 -110.78c16,-38.21 32.37,-73.55 48.37,-111.75 44.56,-106.42 97.5,-226.61 144.1,-332.88l120.17 -278.43c4.1,-9.34 22.69,-49.4 23.3,-56.75l-195.13 0 -45.27 104.83c-14.49,35.36 -30.68,69.89 -45.74,106.03 -9.16,21.97 -87.25,205.11 -92.44,211.09 -2.62,-11.24 -156.34,-380.5 -167.74,-407.64 -2.21,-5.26 -3.59,-9.89 -5.71,-14.31l-195.13 0c0.81,9.71 84.48,201.14 93.86,223.02 31.96,74.59 63.13,147.3 95.06,221.81l76.83 180.02c8.11,18.22 9.15,15.32 3.35,27.82l-53.5 124.98c-5.11,11.92 -46.28,102.43 -47.16,112.94z"/>
   <path class="fil0" d="M8493.67 3250.06c0,50.81 9.47,99.03 24.3,135.8 19.55,48.46 51.71,96.14 92.69,129.13 59.65,48.02 98.01,68.25 179.62,82.22 48.63,8.32 100.3,3.65 144.95,-5.67 18.39,-3.84 43.7,-12.38 59.89,-20.16 31.48,-15.14 33.75,-15.9 64.6,-37.13 13.19,-9.07 21.18,-17.73 32.94,-27.11 7.56,-6.03 31.73,-34.59 38.1,-43.61 18.08,-25.6 47.54,-81.75 50.04,-111.74 -17.88,-4.17 -150.01,-40.03 -163.44,-40.03 -3.6,15.43 -14.35,36.39 -21.59,48.47 -10.15,16.95 -17.76,25.04 -31.34,38.7 -20.02,20.14 -62.32,39.58 -102.18,39.58 -55.48,0 -93.76,-4.88 -136.38,-42.06 -46.4,-40.48 -60.41,-90.02 -60.41,-153.07 0,-47.62 15.67,-92.32 46.27,-125.5 18.31,-19.87 32.82,-31.95 59.95,-43.45 9.86,-4.18 22.95,-8.13 34.81,-10.23 61.08,-10.83 131.83,0.29 170.17,51.43 13.35,17.8 32.24,54.55 34.03,76.05l170.11 -48.36c-6.83,-29.3 -22.84,-61.24 -38.68,-86.41 -31.95,-50.72 -69.25,-83.42 -119.66,-113.82 -49.91,-30.1 -112.93,-44.94 -176.88,-44.94 -127.6,0 -217.01,57.27 -281.48,135.47 -3.81,4.62 -5.58,7.68 -9.19,12.5 -39.92,53.33 -61.24,130.18 -61.24,203.94z"/>
   <path class="fil0" d="M6720.82 378.14l0 3478.99c0,3.84 1.16,5 5.01,5l58.37 0 0 -3489 -58.37 0c-3.85,0 -5.01,1.16 -5.01,5.01z"/>
  </g>
 </g>
</svg>
