<?xml version="1.0" encoding="UTF-8"?>
<!DOCTYPE svg PUBLIC "-//W3C//DTD SVG 1.1//EN" "http://www.w3.org/Graphics/SVG/1.1/DTD/svg11.dtd">
<!-- Creator: CorelDRAW -->
<svg xmlns="http://www.w3.org/2000/svg" xml:space="preserve" width="169.333mm" height="254mm" version="1.1" style="shape-rendering:geometricPrecision; text-rendering:geometricPrecision; image-rendering:optimizeQuality; fill-rule:evenodd; clip-rule:evenodd"
viewBox="0 0 16933.32 25400"
 xmlns:xlink="http://www.w3.org/1999/xlink"
 xmlns:xodm="http://www.corel.com/coreldraw/odm/2003">
 <defs>
  <style type="text/css">
   <![CDATA[
    .fil0 {fill:#323232}
    .fil53 {fill:#3CF9B0}
    .fil55 {fill:#3CFAAE}
    .fil54 {fill:#3CFAAF}
    .fil57 {fill:#3CFBAD}
    .fil56 {fill:#3CFBAE}
    .fil59 {fill:#3CFCAC}
    .fil58 {fill:#3CFCAD}
    .fil41 {fill:#3DF4B7}
    .fil44 {fill:#3DF5B5}
    .fil43 {fill:#3DF5B6}
    .fil42 {fill:#3DF5B7}
    .fil46 {fill:#3DF6B4}
    .fil45 {fill:#3DF6B5}
    .fil48 {fill:#3DF7B3}
    .fil47 {fill:#3DF7B4}
    .fil50 {fill:#3DF8B1}
    .fil49 {fill:#3DF8B2}
    .fil52 {fill:#3DF9B0}
    .fil51 {fill:#3DF9B1}
    .fil29 {fill:#3EEFBE}
    .fil32 {fill:#3EF0BC}
    .fil31 {fill:#3EF0BD}
    .fil30 {fill:#3EF0BE}
    .fil34 {fill:#3EF1BB}
    .fil33 {fill:#3EF1BC}
    .fil36 {fill:#3EF2BA}
    .fil35 {fill:#3EF2BB}
    .fil38 {fill:#3EF3B8}
    .fil37 {fill:#3EF3B9}
    .fil40 {fill:#3EF4B7}
    .fil39 {fill:#3EF4B8}
    .fil60 {fill:#3FE9CC}
    .fil18 {fill:#3FEAC5}
    .fil17 {fill:#3FEAC6}
    .fil20 {fill:#3FEBC4}
    .fil19 {fill:#3FEBC5}
    .fil22 {fill:#3FECC2}
    .fil21 {fill:#3FECC3}
    .fil24 {fill:#3FEDC1}
    .fil23 {fill:#3FEDC2}
    .fil27 {fill:#3FEEBF}
    .fil26 {fill:#3FEEC0}
    .fil25 {fill:#3FEEC1}
    .fil28 {fill:#3FEFBF}
    .fil5 {fill:#40E5CC}
    .fil4 {fill:#40E5CD}
    .fil7 {fill:#40E6CB}
    .fil6 {fill:#40E6CC}
    .fil10 {fill:#40E7C9}
    .fil9 {fill:#40E7CA}
    .fil8 {fill:#40E7CB}
    .fil12 {fill:#40E8C8}
    .fil11 {fill:#40E8C9}
    .fil15 {fill:#40E9C6}
    .fil14 {fill:#40E9C7}
    .fil13 {fill:#40E9C8}
    .fil16 {fill:#40EAC6}
    .fil2 {fill:#41E4CD}
    .fil1 {fill:#41E4CE}
    .fil3 {fill:#41E5CD}
   ]]>
  </style>
     <clipPath id="id0">
      <path d="M7592.33 12975.44zm-2015.24 0l2015.24 0zm-2015.24 0zm2015.24 0l-2015.24 0zm2015.24 0c-66.65,-15.53 -162.4,-50.55 -225.27,-73.28l-440.31 -156.8c-74.27,-28.76 -165.77,-48.28 -230.08,-79.13l0 -1247.53 895.66 1556.74zm-2015.24 0c188.48,-356.19 465.46,-792.75 664.74,-1158.57 20.23,-37.12 194.5,-345.6 230.93,-387.51l0 1236.87 -895.67 309.21zm-351.86 191.93c0,37.27 -5.2,81.35 49.65,110.79 34.39,18.46 55.28,16.15 88.96,7.5 173.4,-44.56 1179.48,-429.56 1233.24,-421.76l1225.33 425.93c79.55,13.48 132.45,-57.5 132.45,-101.14 0,-51.93 -48.23,-111.17 -70.99,-152.93l-751.97 -1305.9c-29.11,-48.08 -56.06,-94.63 -82.81,-141.11l-334.7 -582.28c-32.2,-59.92 -61.73,-110.23 -135.01,-110.23 -71.03,0 -91.46,59.64 -117.86,106.05l-1076.9 1865.97c-27.1,47.08 -52.85,91.05 -81.45,142.46 -21.67,38.94 -77.94,111.86 -77.94,156.65z"/>
     </clipPath>
 </defs>
 <g id="Layer_x0020_1">
  <metadata id="CorelCorpID_0Corel-Layer"/>
  <g id="_2540843085680">
   <path class="fil0" d="M8242.75 11141.47l0 1844.63c0,65.94 14.81,141.02 45.18,178.73 59.09,73.38 150.04,94.93 244.44,57.59 82.13,-32.49 113.52,-131.33 115.93,-225.27 10.34,-401.98 -0.38,-941.72 -0.38,-1354.53 23.32,17.08 69.31,81.61 91.41,111.18l360.92 470.76c34.1,43.64 60.58,77.09 92.93,120.32l546.89 711.3c70.35,94.1 112.61,173.38 232.62,183.48 109.64,9.23 210.65,-78.15 210.65,-210.91l0 -1929.93c0,-189.18 -240.65,-252.45 -349.25,-125.33 -42.81,50.11 -45.87,87.75 -45.34,178.57l0.07 1354.23c-28.74,-19.25 -424.11,-539.85 -476.76,-610.83 -54.3,-73.22 -109.4,-139.88 -163.11,-210.08l-397.42 -519.56c-28.69,-38.45 -50.57,-63.55 -79.26,-102 -50.78,-68.06 -101.17,-156.92 -216.27,-156.92 -134.62,0 -213.25,99.1 -213.25,234.57z"/>
   <path class="fil0" d="M4009.69 11973.16l-575.78 0 0 -714.4c171.45,0 597.17,-14.09 738.23,18.82 87.16,20.34 175.69,65.96 216.35,146.18 64.11,126.51 61.89,383.77 -88.49,477.17 -72.67,45.13 -177.38,72.23 -290.31,72.23zm-991.62 -863.67l0 1919.26c0,66.54 18.77,114.83 51.37,151.22 108.44,121.02 364.47,52.44 364.47,-108.57l0 -767.7c624.61,0 485.76,-44.32 906.32,586.44 126.03,189.01 187.55,351.87 351.87,351.87 108.49,0 202.59,-76.83 202.59,-170.61 0,-95.77 -186.5,-334 -255.3,-448.43 -14.49,-24.11 -18.97,-29.5 -34.07,-51.23 -38.67,-55.67 -50.71,-90.3 -108.24,-158.32 -40.77,-48.19 -135.6,-135.5 -210.16,-141.71 25.98,-35.45 -13.4,-5.08 97.46,-41.15 430.08,-139.94 531.27,-583.93 391.68,-927.8 -99.11,-244.13 -390.05,-374.54 -649.08,-374.54l-927.64 0c-103.59,0 -181.27,78.86 -181.27,181.27z"/>
   <path class="fil0" d="M11942.67 12580.92c0,217.97 -201.11,319.88 -383.86,319.88 -271.71,0 -413.96,10.53 -661.71,-137.98 -55.82,-33.46 -126.9,-92.43 -202.12,-91.81 -126.58,1.05 -138.45,116.89 -138.45,208.47 0,165.98 390.59,298.34 541.43,332.9 322.81,73.97 746.71,46.94 1013.91,-153.04 206.26,-154.37 302.08,-425.23 216.34,-682.69 -20.01,-60.08 -35.73,-76.89 -67.57,-124.36 -101.39,-151.14 -327.66,-227.41 -495.09,-283.28 -98.96,-33.01 -212.26,-55.88 -313.36,-81.15 -182.26,-45.56 -454.18,-106.13 -431.49,-335.36 11.18,-112.91 50.61,-185.71 150.49,-244.19 183.25,-107.3 516.16,-84.89 702.14,9.13 52.49,26.53 95.76,50.91 141.83,82.08 66.04,44.68 96.1,72.5 183.41,72.5 107.58,0 127.95,-119.94 127.95,-202.59 0,-150.67 -371.42,-316.92 -537.5,-347.5 -348.73,-64.2 -787.48,-16.31 -1021.86,248.92 -172.96,195.72 -222.53,500.02 -89.1,723.43 192.46,322.28 754.59,347.76 1012.02,448.75 107.22,42.07 252.59,93.62 252.59,237.89z"/>
   <path class="fil0" d="M13584.71 11599.97c0,79.4 21.8,181.14 49.51,238.37 96.54,199.41 291.13,299.93 510.85,363.48 259,74.92 783.12,130.5 783.12,379.1 0,215.13 -198.92,319.88 -383.85,319.88 -283.65,0 -410.07,12.03 -668.42,-141.93 -54.56,-32.52 -128.82,-93.57 -204.96,-89.14 -36.74,2.14 -71.97,24.98 -94.43,52.29 -110.84,134.8 -8.04,253.81 103.97,328.23 59.63,39.62 168.38,93.39 244.05,118.48 232.49,77.09 286.71,51.86 464.42,79.51 104.65,16.28 365.05,-27.33 471.42,-63.37 89.15,-30.21 163.8,-77.16 236.39,-126.14 149.67,-100.98 247.26,-288.48 247.26,-520.46 0,-360.38 -334.28,-482.94 -592.96,-569.26 -269.82,-90.02 -777.56,-109.77 -746.55,-418.13 37.92,-377.14 595.88,-361.59 852.66,-231.78 151.12,76.4 216.39,152.92 326.91,152.92 107.58,0 127.95,-119.94 127.95,-202.59 0,-112.71 -221.41,-231.05 -312.64,-273.81 -277.18,-129.93 -738.8,-139.01 -1019.6,7.83 -226.42,118.41 -395.1,318.28 -395.1,596.52z"/>
   <g>
    <g style="clip-path:url(#id0)">
     <polygon class="fil1" points="5220.03,13303.31 5220.03,13295.62 7954.86,13295.62 7954.86,13303.31 "/>
     <polygon id="_1" class="fil2" points="5220.03,13301.02 5220.03,13284.83 7954.86,13284.83 7954.86,13301.02 "/>
     <polygon id="_2" class="fil3" points="5220.03,13290.22 5220.03,13274.03 7954.86,13274.03 7954.86,13290.22 "/>
     <polygon id="_3" class="fil4" points="5220.03,13279.43 5220.03,13263.24 7954.86,13263.24 7954.86,13279.43 "/>
     <polygon id="_4" class="fil4" points="5220.03,13268.63 5220.03,13252.44 7954.86,13252.44 7954.86,13268.63 "/>
     <polygon id="_5" class="fil4" points="5220.03,13257.84 5220.03,13241.65 7954.86,13241.65 7954.86,13257.84 "/>
     <polygon id="_6" class="fil4" points="5220.03,13247.04 5220.03,13230.85 7954.86,13230.85 7954.86,13247.04 "/>
     <polygon id="_7" class="fil4" points="5220.03,13236.25 5220.03,13220.06 7954.86,13220.06 7954.86,13236.25 "/>
     <polygon id="_8" class="fil4" points="5220.03,13225.46 5220.03,13209.26 7954.86,13209.26 7954.86,13225.46 "/>
     <polygon id="_9" class="fil4" points="5220.03,13214.66 5220.03,13198.47 7954.86,13198.47 7954.86,13214.66 "/>
     <polygon id="_10" class="fil5" points="5220.03,13203.87 5220.03,13187.67 7954.86,13187.67 7954.86,13203.87 "/>
     <polygon id="_11" class="fil5" points="5220.03,13193.07 5220.03,13176.88 7954.86,13176.88 7954.86,13193.07 "/>
     <polygon id="_12" class="fil5" points="5220.03,13182.28 5220.03,13166.09 7954.86,13166.09 7954.86,13182.28 "/>
     <polygon id="_13" class="fil5" points="5220.03,13171.48 5220.03,13155.29 7954.86,13155.29 7954.86,13171.48 "/>
     <polygon id="_14" class="fil5" points="5220.03,13160.69 5220.03,13144.5 7954.86,13144.5 7954.86,13160.69 "/>
     <polygon id="_15" class="fil6" points="5220.03,13149.89 5220.03,13133.7 7954.86,13133.7 7954.86,13149.89 "/>
     <polygon id="_16" class="fil6" points="5220.03,13139.1 5220.03,13122.91 7954.86,13122.91 7954.86,13139.1 "/>
     <polygon id="_17" class="fil6" points="5220.03,13128.3 5220.03,13112.11 7954.86,13112.11 7954.86,13128.3 "/>
     <polygon id="_18" class="fil6" points="5220.03,13117.51 5220.03,13101.32 7954.86,13101.32 7954.86,13117.51 "/>
     <polygon id="_19" class="fil7" points="5220.03,13106.72 5220.03,13090.52 7954.86,13090.52 7954.86,13106.72 "/>
     <polygon id="_20" class="fil7" points="5220.03,13095.92 5220.03,13079.73 7954.86,13079.73 7954.86,13095.92 "/>
     <polygon id="_21" class="fil7" points="5220.03,13085.13 5220.03,13068.93 7954.86,13068.93 7954.86,13085.13 "/>
     <polygon id="_22" class="fil7" points="5220.03,13074.33 5220.03,13058.14 7954.86,13058.14 7954.86,13074.33 "/>
     <polygon id="_23" class="fil7" points="5220.03,13063.54 5220.03,13047.34 7954.86,13047.34 7954.86,13063.54 "/>
     <polygon id="_24" class="fil7" points="5220.03,13052.74 5220.03,13036.55 7954.86,13036.55 7954.86,13052.74 "/>
     <polygon id="_25" class="fil7" points="5220.03,13041.95 5220.03,13025.76 7954.86,13025.76 7954.86,13041.95 "/>
     <polygon id="_26" class="fil7" points="5220.03,13031.15 5220.03,13014.96 7954.86,13014.96 7954.86,13031.15 "/>
     <polygon id="_27" class="fil8" points="5220.03,13020.36 5220.03,13004.17 7954.86,13004.17 7954.86,13020.36 "/>
     <polygon id="_28" class="fil9" points="5220.03,13009.56 5220.03,12993.37 7954.86,12993.37 7954.86,13009.56 "/>
     <polygon id="_29" class="fil9" points="5220.03,12998.77 5220.03,12982.58 7954.86,12982.58 7954.86,12998.77 "/>
     <polygon id="_30" class="fil9" points="5220.03,12987.97 5220.03,12971.78 7954.86,12971.78 7954.86,12987.97 "/>
     <polygon id="_31" class="fil9" points="5220.03,12977.18 5220.03,12960.99 7954.86,12960.99 7954.86,12977.18 "/>
     <polygon id="_32" class="fil9" points="5220.03,12966.39 5220.03,12950.19 7954.86,12950.19 7954.86,12966.39 "/>
     <polygon id="_33" class="fil9" points="5220.03,12955.59 5220.03,12939.4 7954.86,12939.4 7954.86,12955.59 "/>
     <polygon id="_34" class="fil9" points="5220.03,12944.8 5220.03,12928.6 7954.86,12928.6 7954.86,12944.8 "/>
     <polygon id="_35" class="fil9" points="5220.03,12934 5220.03,12917.81 7954.86,12917.81 7954.86,12934 "/>
     <polygon id="_36" class="fil9" points="5220.03,12923.21 5220.03,12907.02 7954.86,12907.02 7954.86,12923.21 "/>
     <polygon id="_37" class="fil10" points="5220.03,12912.41 5220.03,12896.22 7954.86,12896.22 7954.86,12912.41 "/>
     <polygon id="_38" class="fil10" points="5220.03,12901.62 5220.03,12885.43 7954.86,12885.43 7954.86,12901.62 "/>
     <polygon id="_39" class="fil10" points="5220.03,12890.82 5220.03,12874.63 7954.86,12874.63 7954.86,12890.82 "/>
     <polygon id="_40" class="fil11" points="5220.03,12880.03 5220.03,12863.84 7954.86,12863.84 7954.86,12880.03 "/>
     <polygon id="_41" class="fil11" points="5220.03,12869.23 5220.03,12853.04 7954.86,12853.04 7954.86,12869.23 "/>
     <polygon id="_42" class="fil11" points="5220.03,12858.44 5220.03,12842.25 7954.86,12842.25 7954.86,12858.44 "/>
     <polygon id="_43" class="fil11" points="5220.03,12847.65 5220.03,12831.45 7954.86,12831.45 7954.86,12847.65 "/>
     <polygon id="_44" class="fil11" points="5220.03,12836.85 5220.03,12820.66 7954.86,12820.66 7954.86,12836.85 "/>
     <polygon id="_45" class="fil12" points="5220.03,12826.06 5220.03,12809.86 7954.86,12809.86 7954.86,12826.06 "/>
     <polygon id="_46" class="fil12" points="5220.03,12815.26 5220.03,12799.07 7954.86,12799.07 7954.86,12815.26 "/>
     <polygon id="_47" class="fil12" points="5220.03,12804.47 5220.03,12788.28 7954.86,12788.28 7954.86,12804.47 "/>
     <polygon id="_48" class="fil12" points="5220.03,12793.67 5220.03,12777.48 7954.86,12777.48 7954.86,12793.67 "/>
     <polygon id="_49" class="fil12" points="5220.03,12782.88 5220.03,12766.69 7954.86,12766.69 7954.86,12782.88 "/>
     <polygon id="_50" class="fil12" points="5220.03,12772.08 5220.03,12755.89 7954.86,12755.89 7954.86,12772.08 "/>
     <polygon id="_51" class="fil13" points="5220.03,12761.29 5220.03,12745.1 7954.86,12745.1 7954.86,12761.29 "/>
     <polygon id="_52" class="fil13" points="5220.03,12750.49 5220.03,12734.3 7954.86,12734.3 7954.86,12750.49 "/>
     <polygon id="_53" class="fil13" points="5220.03,12739.7 5220.03,12723.51 7954.86,12723.51 7954.86,12739.7 "/>
     <polygon id="_54" class="fil14" points="5220.03,12728.91 5220.03,12712.71 7954.86,12712.71 7954.86,12728.91 "/>
     <polygon id="_55" class="fil14" points="5220.03,12718.11 5220.03,12701.92 7954.86,12701.92 7954.86,12718.11 "/>
     <polygon id="_56" class="fil14" points="5220.03,12707.32 5220.03,12691.12 7954.86,12691.12 7954.86,12707.32 "/>
     <polygon id="_57" class="fil14" points="5220.03,12696.52 5220.03,12680.33 7954.86,12680.33 7954.86,12696.52 "/>
     <polygon id="_58" class="fil14" points="5220.03,12685.73 5220.03,12669.54 7954.86,12669.54 7954.86,12685.73 "/>
     <polygon id="_59" class="fil14" points="5220.03,12674.93 5220.03,12658.74 7954.86,12658.74 7954.86,12674.93 "/>
     <polygon id="_60" class="fil14" points="5220.03,12664.14 5220.03,12647.95 7954.86,12647.95 7954.86,12664.14 "/>
     <polygon id="_61" class="fil14" points="5220.03,12653.34 5220.03,12637.15 7954.86,12637.15 7954.86,12653.34 "/>
     <polygon id="_62" class="fil15" points="5220.03,12642.55 5220.03,12626.36 7954.86,12626.36 7954.86,12642.55 "/>
     <polygon id="_63" class="fil16" points="5220.03,12631.75 5220.03,12615.56 7954.86,12615.56 7954.86,12631.75 "/>
     <polygon id="_64" class="fil16" points="5220.03,12620.96 5220.03,12604.77 7954.86,12604.77 7954.86,12620.96 "/>
     <polygon id="_65" class="fil16" points="5220.03,12610.17 5220.03,12593.97 7954.86,12593.97 7954.86,12610.17 "/>
     <polygon id="_66" class="fil17" points="5220.03,12599.37 5220.03,12583.18 7954.86,12583.18 7954.86,12599.37 "/>
     <polygon id="_67" class="fil17" points="5220.03,12588.58 5220.03,12572.38 7954.86,12572.38 7954.86,12588.58 "/>
     <polygon id="_68" class="fil17" points="5220.03,12577.78 5220.03,12561.59 7954.86,12561.59 7954.86,12577.78 "/>
     <polygon id="_69" class="fil18" points="5220.03,12566.99 5220.03,12550.8 7954.86,12550.8 7954.86,12566.99 "/>
     <polygon id="_70" class="fil18" points="5220.03,12556.19 5220.03,12540 7954.86,12540 7954.86,12556.19 "/>
     <polygon id="_71" class="fil18" points="5220.03,12545.4 5220.03,12529.21 7954.86,12529.21 7954.86,12545.4 "/>
     <polygon id="_72" class="fil18" points="5220.03,12534.6 5220.03,12518.41 7954.86,12518.41 7954.86,12534.6 "/>
     <polygon id="_73" class="fil18" points="5220.03,12523.81 5220.03,12507.62 7954.86,12507.62 7954.86,12523.81 "/>
     <polygon id="_74" class="fil19" points="5220.03,12513.01 5220.03,12496.82 7954.86,12496.82 7954.86,12513.01 "/>
     <polygon id="_75" class="fil19" points="5220.03,12502.22 5220.03,12486.03 7954.86,12486.03 7954.86,12502.22 "/>
     <polygon id="_76" class="fil19" points="5220.03,12491.43 5220.03,12475.23 7954.86,12475.23 7954.86,12491.43 "/>
     <polygon id="_77" class="fil20" points="5220.03,12480.63 5220.03,12464.44 7954.86,12464.44 7954.86,12480.63 "/>
     <polygon id="_78" class="fil20" points="5220.03,12469.84 5220.03,12453.64 7954.86,12453.64 7954.86,12469.84 "/>
     <polygon id="_79" class="fil20" points="5220.03,12459.04 5220.03,12442.85 7954.86,12442.85 7954.86,12459.04 "/>
     <polygon id="_80" class="fil20" points="5220.03,12448.25 5220.03,12432.06 7954.86,12432.06 7954.86,12448.25 "/>
     <polygon id="_81" class="fil20" points="5220.03,12437.45 5220.03,12421.26 7954.86,12421.26 7954.86,12437.45 "/>
     <polygon id="_82" class="fil20" points="5220.03,12426.66 5220.03,12410.47 7954.86,12410.47 7954.86,12426.66 "/>
     <polygon id="_83" class="fil20" points="5220.03,12415.86 5220.03,12399.67 7954.86,12399.67 7954.86,12415.86 "/>
     <polygon id="_84" class="fil20" points="5220.03,12405.07 5220.03,12388.88 7954.86,12388.88 7954.86,12405.07 "/>
     <polygon id="_85" class="fil21" points="5220.03,12394.27 5220.03,12378.08 7954.86,12378.08 7954.86,12394.27 "/>
     <polygon id="_86" class="fil21" points="5220.03,12383.48 5220.03,12367.29 7954.86,12367.29 7954.86,12383.48 "/>
     <polygon id="_87" class="fil21" points="5220.03,12372.68 5220.03,12356.49 7954.86,12356.49 7954.86,12372.68 "/>
     <polygon id="_88" class="fil21" points="5220.03,12361.89 5220.03,12345.7 7954.86,12345.7 7954.86,12361.89 "/>
     <polygon id="_89" class="fil21" points="5220.03,12351.1 5220.03,12334.9 7954.86,12334.9 7954.86,12351.1 "/>
     <polygon id="_90" class="fil21" points="5220.03,12340.3 5220.03,12324.11 7954.86,12324.11 7954.86,12340.3 "/>
     <polygon id="_91" class="fil21" points="5220.03,12329.51 5220.03,12313.31 7954.86,12313.31 7954.86,12329.51 "/>
     <polygon id="_92" class="fil22" points="5220.03,12318.71 5220.03,12302.52 7954.86,12302.52 7954.86,12318.71 "/>
     <polygon id="_93" class="fil22" points="5220.03,12307.92 5220.03,12291.73 7954.86,12291.73 7954.86,12307.92 "/>
     <polygon id="_94" class="fil22" points="5220.03,12297.12 5220.03,12280.93 7954.86,12280.93 7954.86,12297.12 "/>
     <polygon id="_95" class="fil23" points="5220.03,12286.33 5220.03,12270.14 7954.86,12270.14 7954.86,12286.33 "/>
     <polygon id="_96" class="fil23" points="5220.03,12275.53 5220.03,12259.34 7954.86,12259.34 7954.86,12275.53 "/>
     <polygon id="_97" class="fil23" points="5220.03,12264.74 5220.03,12248.55 7954.86,12248.55 7954.86,12264.74 "/>
     <polygon id="_98" class="fil23" points="5220.03,12253.94 5220.03,12237.75 7954.86,12237.75 7954.86,12253.94 "/>
     <polygon id="_99" class="fil24" points="5220.03,12243.15 5220.03,12226.96 7954.86,12226.96 7954.86,12243.15 "/>
     <polygon id="_100" class="fil24" points="5220.03,12232.36 5220.03,12216.16 7954.86,12216.16 7954.86,12232.36 "/>
     <polygon id="_101" class="fil24" points="5220.03,12221.56 5220.03,12205.37 7954.86,12205.37 7954.86,12221.56 "/>
     <polygon id="_102" class="fil24" points="5220.03,12210.77 5220.03,12194.57 7954.86,12194.57 7954.86,12210.77 "/>
     <polygon id="_103" class="fil24" points="5220.03,12199.97 5220.03,12183.78 7954.86,12183.78 7954.86,12199.97 "/>
     <polygon id="_104" class="fil24" points="5220.03,12189.18 5220.03,12172.99 7954.86,12172.99 7954.86,12189.18 "/>
     <polygon id="_105" class="fil25" points="5220.03,12178.38 5220.03,12162.19 7954.86,12162.19 7954.86,12178.38 "/>
     <polygon id="_106" class="fil26" points="5220.03,12167.59 5220.03,12151.4 7954.86,12151.4 7954.86,12167.59 "/>
     <polygon id="_107" class="fil26" points="5220.03,12156.79 5220.03,12140.6 7954.86,12140.6 7954.86,12156.79 "/>
     <polygon id="_108" class="fil26" points="5220.03,12146 5220.03,12129.81 7954.86,12129.81 7954.86,12146 "/>
     <polygon id="_109" class="fil26" points="5220.03,12135.2 5220.03,12119.01 7954.86,12119.01 7954.86,12135.2 "/>
     <polygon id="_110" class="fil26" points="5220.03,12124.41 5220.03,12108.22 7954.86,12108.22 7954.86,12124.41 "/>
     <polygon id="_111" class="fil26" points="5220.03,12113.62 5220.03,12097.42 7954.86,12097.42 7954.86,12113.62 "/>
     <polygon id="_112" class="fil26" points="5220.03,12102.82 5220.03,12086.63 7954.86,12086.63 7954.86,12102.82 "/>
     <polygon id="_113" class="fil27" points="5220.03,12092.03 5220.03,12075.83 7954.86,12075.83 7954.86,12092.03 "/>
     <polygon id="_114" class="fil27" points="5220.03,12081.23 5220.03,12065.04 7954.86,12065.04 7954.86,12081.23 "/>
     <polygon id="_115" class="fil28" points="5220.03,12070.44 5220.03,12054.25 7954.86,12054.25 7954.86,12070.44 "/>
     <polygon id="_116" class="fil28" points="5220.03,12059.64 5220.03,12043.45 7954.86,12043.45 7954.86,12059.64 "/>
     <polygon id="_117" class="fil28" points="5220.03,12048.85 5220.03,12032.66 7954.86,12032.66 7954.86,12048.85 "/>
     <polygon id="_118" class="fil28" points="5220.03,12038.05 5220.03,12021.86 7954.86,12021.86 7954.86,12038.05 "/>
     <polygon id="_119" class="fil28" points="5220.03,12027.26 5220.03,12011.07 7954.86,12011.07 7954.86,12027.26 "/>
     <polygon id="_120" class="fil29" points="5220.03,12016.46 5220.03,12000.27 7954.86,12000.27 7954.86,12016.46 "/>
     <polygon id="_121" class="fil29" points="5220.03,12005.67 5220.03,11989.48 7954.86,11989.48 7954.86,12005.67 "/>
     <polygon id="_122" class="fil29" points="5220.03,11994.88 5220.03,11978.68 7954.86,11978.68 7954.86,11994.88 "/>
     <polygon id="_123" class="fil29" points="5220.03,11984.08 5220.03,11967.89 7954.86,11967.89 7954.86,11984.08 "/>
     <polygon id="_124" class="fil30" points="5220.03,11973.29 5220.03,11957.09 7954.86,11957.09 7954.86,11973.29 "/>
     <polygon id="_125" class="fil30" points="5220.03,11962.49 5220.03,11946.3 7954.86,11946.3 7954.86,11962.49 "/>
     <polygon id="_126" class="fil31" points="5220.03,11951.7 5220.03,11935.51 7954.86,11935.51 7954.86,11951.7 "/>
     <polygon id="_127" class="fil31" points="5220.03,11940.9 5220.03,11924.71 7954.86,11924.71 7954.86,11940.9 "/>
     <polygon id="_128" class="fil31" points="5220.03,11930.11 5220.03,11913.92 7954.86,11913.92 7954.86,11930.11 "/>
     <polygon id="_129" class="fil31" points="5220.03,11919.31 5220.03,11903.12 7954.86,11903.12 7954.86,11919.31 "/>
     <polygon id="_130" class="fil31" points="5220.03,11908.52 5220.03,11892.33 7954.86,11892.33 7954.86,11908.52 "/>
     <polygon id="_131" class="fil31" points="5220.03,11897.72 5220.03,11881.53 7954.86,11881.53 7954.86,11897.72 "/>
     <polygon id="_132" class="fil32" points="5220.03,11886.93 5220.03,11870.74 7954.86,11870.74 7954.86,11886.93 "/>
     <polygon id="_133" class="fil33" points="5220.03,11876.14 5220.03,11859.94 7954.86,11859.94 7954.86,11876.14 "/>
     <polygon id="_134" class="fil33" points="5220.03,11865.34 5220.03,11849.15 7954.86,11849.15 7954.86,11865.34 "/>
     <polygon id="_135" class="fil33" points="5220.03,11854.55 5220.03,11838.35 7954.86,11838.35 7954.86,11854.55 "/>
     <polygon id="_136" class="fil33" points="5220.03,11843.75 5220.03,11827.56 7954.86,11827.56 7954.86,11843.75 "/>
     <polygon id="_137" class="fil33" points="5220.03,11832.96 5220.03,11816.77 7954.86,11816.77 7954.86,11832.96 "/>
     <polygon id="_138" class="fil33" points="5220.03,11822.16 5220.03,11805.97 7954.86,11805.97 7954.86,11822.16 "/>
     <polygon id="_139" class="fil34" points="5220.03,11811.37 5220.03,11795.18 7954.86,11795.18 7954.86,11811.37 "/>
     <polygon id="_140" class="fil34" points="5220.03,11800.57 5220.03,11784.38 7954.86,11784.38 7954.86,11800.57 "/>
     <polygon id="_141" class="fil34" points="5220.03,11789.78 5220.03,11773.59 7954.86,11773.59 7954.86,11789.78 "/>
     <polygon id="_142" class="fil35" points="5220.03,11778.98 5220.03,11762.79 7954.86,11762.79 7954.86,11778.98 "/>
     <polygon id="_143" class="fil35" points="5220.03,11768.19 5220.03,11752 7954.86,11752 7954.86,11768.19 "/>
     <polygon id="_144" class="fil35" points="5220.03,11757.39 5220.03,11741.2 7954.86,11741.2 7954.86,11757.39 "/>
     <polygon id="_145" class="fil36" points="5220.03,11746.6 5220.03,11730.41 7954.86,11730.41 7954.86,11746.6 "/>
     <polygon id="_146" class="fil36" points="5220.03,11735.81 5220.03,11719.61 7954.86,11719.61 7954.86,11735.81 "/>
     <polygon id="_147" class="fil36" points="5220.03,11725.01 5220.03,11708.82 7954.86,11708.82 7954.86,11725.01 "/>
     <polygon id="_148" class="fil36" points="5220.03,11714.22 5220.03,11698.02 7954.86,11698.02 7954.86,11714.22 "/>
     <polygon id="_149" class="fil36" points="5220.03,11703.42 5220.03,11687.23 7954.86,11687.23 7954.86,11703.42 "/>
     <polygon id="_150" class="fil36" points="5220.03,11692.63 5220.03,11676.44 7954.86,11676.44 7954.86,11692.63 "/>
     <polygon id="_151" class="fil37" points="5220.03,11681.83 5220.03,11665.64 7954.86,11665.64 7954.86,11681.83 "/>
     <polygon id="_152" class="fil37" points="5220.03,11671.04 5220.03,11654.85 7954.86,11654.85 7954.86,11671.04 "/>
     <polygon id="_153" class="fil37" points="5220.03,11660.24 5220.03,11644.05 7954.86,11644.05 7954.86,11660.24 "/>
     <polygon id="_154" class="fil37" points="5220.03,11649.45 5220.03,11633.26 7954.86,11633.26 7954.86,11649.45 "/>
     <polygon id="_155" class="fil37" points="5220.03,11638.65 5220.03,11622.46 7954.86,11622.46 7954.86,11638.65 "/>
     <polygon id="_156" class="fil37" points="5220.03,11627.86 5220.03,11611.67 7954.86,11611.67 7954.86,11627.86 "/>
     <polygon id="_157" class="fil38" points="5220.03,11617.07 5220.03,11600.87 7954.86,11600.87 7954.86,11617.07 "/>
     <polygon id="_158" class="fil38" points="5220.03,11606.27 5220.03,11590.08 7954.86,11590.08 7954.86,11606.27 "/>
     <polygon id="_159" class="fil39" points="5220.03,11595.48 5220.03,11579.28 7954.86,11579.28 7954.86,11595.48 "/>
     <polygon id="_160" class="fil39" points="5220.03,11584.68 5220.03,11568.49 7954.86,11568.49 7954.86,11584.68 "/>
     <polygon id="_161" class="fil39" points="5220.03,11573.89 5220.03,11557.7 7954.86,11557.7 7954.86,11573.89 "/>
     <polygon id="_162" class="fil39" points="5220.03,11563.09 5220.03,11546.9 7954.86,11546.9 7954.86,11563.09 "/>
     <polygon id="_163" class="fil40" points="5220.03,11552.3 5220.03,11536.11 7954.86,11536.11 7954.86,11552.3 "/>
     <polygon id="_164" class="fil40" points="5220.03,11541.5 5220.03,11525.31 7954.86,11525.31 7954.86,11541.5 "/>
     <polygon id="_165" class="fil41" points="5220.03,11530.71 5220.03,11514.52 7954.86,11514.52 7954.86,11530.71 "/>
     <polygon id="_166" class="fil41" points="5220.03,11519.91 5220.03,11503.72 7954.86,11503.72 7954.86,11519.91 "/>
     <polygon id="_167" class="fil42" points="5220.03,11509.12 5220.03,11492.93 7954.86,11492.93 7954.86,11509.12 "/>
     <polygon id="_168" class="fil43" points="5220.03,11498.33 5220.03,11482.13 7954.86,11482.13 7954.86,11498.33 "/>
     <polygon id="_169" class="fil43" points="5220.03,11487.53 5220.03,11471.34 7954.86,11471.34 7954.86,11487.53 "/>
     <polygon id="_170" class="fil43" points="5220.03,11476.74 5220.03,11460.54 7954.86,11460.54 7954.86,11476.74 "/>
     <polygon id="_171" class="fil43" points="5220.03,11465.94 5220.03,11449.75 7954.86,11449.75 7954.86,11465.94 "/>
     <polygon id="_172" class="fil43" points="5220.03,11455.15 5220.03,11438.96 7954.86,11438.96 7954.86,11455.15 "/>
     <polygon id="_173" class="fil43" points="5220.03,11444.35 5220.03,11428.16 7954.86,11428.16 7954.86,11444.35 "/>
     <polygon id="_174" class="fil44" points="5220.03,11433.56 5220.03,11417.37 7954.86,11417.37 7954.86,11433.56 "/>
     <polygon id="_175" class="fil45" points="5220.03,11422.76 5220.03,11406.57 7954.86,11406.57 7954.86,11422.76 "/>
     <polygon id="_176" class="fil45" points="5220.03,11411.97 5220.03,11395.78 7954.86,11395.78 7954.86,11411.97 "/>
     <polygon id="_177" class="fil45" points="5220.03,11401.17 5220.03,11384.98 7954.86,11384.98 7954.86,11401.17 "/>
     <polygon id="_178" class="fil45" points="5220.03,11390.38 5220.03,11374.19 7954.86,11374.19 7954.86,11390.38 "/>
     <polygon id="_179" class="fil46" points="5220.03,11379.59 5220.03,11363.39 7954.86,11363.39 7954.86,11379.59 "/>
     <polygon id="_180" class="fil46" points="5220.03,11368.79 5220.03,11352.6 7954.86,11352.6 7954.86,11368.79 "/>
     <polygon id="_181" class="fil46" points="5220.03,11358 5220.03,11341.8 7954.86,11341.8 7954.86,11358 "/>
     <polygon id="_182" class="fil46" points="5220.03,11347.2 5220.03,11331.01 7954.86,11331.01 7954.86,11347.2 "/>
     <polygon id="_183" class="fil47" points="5220.03,11336.41 5220.03,11320.22 7954.86,11320.22 7954.86,11336.41 "/>
     <polygon id="_184" class="fil47" points="5220.03,11325.61 5220.03,11309.42 7954.86,11309.42 7954.86,11325.61 "/>
     <polygon id="_185" class="fil48" points="5220.03,11314.82 5220.03,11298.63 7954.86,11298.63 7954.86,11314.82 "/>
     <polygon id="_186" class="fil48" points="5220.03,11304.02 5220.03,11287.83 7954.86,11287.83 7954.86,11304.02 "/>
     <polygon id="_187" class="fil48" points="5220.03,11293.23 5220.03,11277.04 7954.86,11277.04 7954.86,11293.23 "/>
     <polygon id="_188" class="fil48" points="5220.03,11282.43 5220.03,11266.24 7954.86,11266.24 7954.86,11282.43 "/>
     <polygon id="_189" class="fil48" points="5220.03,11271.64 5220.03,11255.45 7954.86,11255.45 7954.86,11271.64 "/>
     <polygon id="_190" class="fil49" points="5220.03,11260.85 5220.03,11244.65 7954.86,11244.65 7954.86,11260.85 "/>
     <polygon id="_191" class="fil49" points="5220.03,11250.05 5220.03,11233.86 7954.86,11233.86 7954.86,11250.05 "/>
     <polygon id="_192" class="fil49" points="5220.03,11239.26 5220.03,11223.06 7954.86,11223.06 7954.86,11239.26 "/>
     <polygon id="_193" class="fil49" points="5220.03,11228.46 5220.03,11212.27 7954.86,11212.27 7954.86,11228.46 "/>
     <polygon id="_194" class="fil49" points="5220.03,11217.67 5220.03,11201.48 7954.86,11201.48 7954.86,11217.67 "/>
     <polygon id="_195" class="fil50" points="5220.03,11206.87 5220.03,11190.68 7954.86,11190.68 7954.86,11206.87 "/>
     <polygon id="_196" class="fil50" points="5220.03,11196.08 5220.03,11179.89 7954.86,11179.89 7954.86,11196.08 "/>
     <polygon id="_197" class="fil50" points="5220.03,11185.28 5220.03,11169.09 7954.86,11169.09 7954.86,11185.28 "/>
     <polygon id="_198" class="fil51" points="5220.03,11174.49 5220.03,11158.3 7954.86,11158.3 7954.86,11174.49 "/>
     <polygon id="_199" class="fil51" points="5220.03,11163.69 5220.03,11147.5 7954.86,11147.5 7954.86,11163.69 "/>
     <polygon id="_200" class="fil52" points="5220.03,11152.9 5220.03,11136.71 7954.86,11136.71 7954.86,11152.9 "/>
     <polygon id="_201" class="fil52" points="5220.03,11142.11 5220.03,11125.91 7954.86,11125.91 7954.86,11142.11 "/>
     <polygon id="_202" class="fil52" points="5220.03,11131.31 5220.03,11115.12 7954.86,11115.12 7954.86,11131.31 "/>
     <polygon id="_203" class="fil52" points="5220.03,11120.52 5220.03,11104.32 7954.86,11104.32 7954.86,11120.52 "/>
     <polygon id="_204" class="fil53" points="5220.03,11109.72 5220.03,11093.53 7954.86,11093.53 7954.86,11109.72 "/>
     <polygon id="_205" class="fil54" points="5220.03,11098.93 5220.03,11082.73 7954.86,11082.73 7954.86,11098.93 "/>
     <polygon id="_206" class="fil54" points="5220.03,11088.13 5220.03,11071.94 7954.86,11071.94 7954.86,11088.13 "/>
     <polygon id="_207" class="fil54" points="5220.03,11077.34 5220.03,11061.15 7954.86,11061.15 7954.86,11077.34 "/>
     <polygon id="_208" class="fil54" points="5220.03,11066.54 5220.03,11050.35 7954.86,11050.35 7954.86,11066.54 "/>
     <polygon id="_209" class="fil54" points="5220.03,11055.75 5220.03,11039.56 7954.86,11039.56 7954.86,11055.75 "/>
     <polygon id="_210" class="fil55" points="5220.03,11044.95 5220.03,11028.76 7954.86,11028.76 7954.86,11044.95 "/>
     <polygon id="_211" class="fil56" points="5220.03,11034.16 5220.03,11017.97 7954.86,11017.97 7954.86,11034.16 "/>
     <polygon id="_212" class="fil56" points="5220.03,11023.36 5220.03,11007.17 7954.86,11007.17 7954.86,11023.36 "/>
     <polygon id="_213" class="fil56" points="5220.03,11012.57 5220.03,10996.38 7954.86,10996.38 7954.86,11012.57 "/>
     <polygon id="_214" class="fil56" points="5220.03,11001.78 5220.03,10985.58 7954.86,10985.58 7954.86,11001.78 "/>
     <polygon id="_215" class="fil57" points="5220.03,10990.98 5220.03,10974.79 7954.86,10974.79 7954.86,10990.98 "/>
     <polygon id="_216" class="fil57" points="5220.03,10980.19 5220.03,10963.99 7954.86,10963.99 7954.86,10980.19 "/>
     <polygon id="_217" class="fil57" points="5220.03,10969.39 5220.03,10953.2 7954.86,10953.2 7954.86,10969.39 "/>
     <polygon id="_218" class="fil58" points="5220.03,10958.6 5220.03,10942.41 7954.86,10942.41 7954.86,10958.6 "/>
     <polygon id="_219" class="fil59" points="5220.03,10947.8 5220.03,10931.61 7954.86,10931.61 7954.86,10947.8 "/>
     <polygon id="_220" class="fil59" points="5220.03,10937.01 5220.03,10920.82 7954.86,10920.82 7954.86,10937.01 "/>
     <polygon id="_221" class="fil59" points="5220.03,10926.21 5220.03,10896.24 7954.86,10896.24 7954.86,10926.21 "/>
    </g>
   </g>
   <path class="fil0" d="M778.92 11088.16c0,141.11 82.74,191.93 223.92,191.93l565.12 0 0 1759.33c0,105.9 88.02,191.92 159.94,191.92 146.78,0 266.56,-12.08 266.56,-234.57l0 -1716.68 575.78 0c215.4,0 202.59,-124.4 202.59,-223.92 0,-70.97 -84.87,-127.95 -159.94,-127.95l-1663.36 0c-102.17,0 -170.61,76.28 -170.61,159.94z"/>
   <path class="fil0" d="M15727.89 11098.82l0 1961.92c0,155.58 252.8,256.36 375.42,108.86 35.89,-43.18 51.09,-107.63 51.09,-183.5l0 -1833.96c0,-74.83 -13.29,-131.8 -50.26,-173.66 -120.22,-136.13 -376.25,-70.85 -376.25,120.34z"/>
   <path class="fil0" d="M12742.36 11098.82l0 1951.26c0,84.02 65.58,152.98 124.55,174.01 156.28,55.71 301.96,-34.7 301.96,-206l0 -1887.28c0,-308.28 -426.51,-278.36 -426.51,-31.99z"/>
   <path class="fil60" d="M6504.74 13401.94l0 1034.28c0,71.72 170.6,113.69 170.6,-53.32l0 -959.63c0,-130.38 -170.6,-136.22 -170.6,-21.33z"/>
   <path class="fil0" d="M6899.26 13497.91l0 522.46c0,116.6 170.6,108.45 170.6,-10.66l0 -490.48c0,-125.49 -170.6,-98.06 -170.6,-21.32z"/>
   <path class="fil0" d="M6099.56 13529.9l0 458.49c0,157.43 170.61,145.05 170.61,31.98l0 -522.46c0,-83.74 -170.61,-99.46 -170.61,31.99z"/>
  </g>
 </g>
</svg>
