<?xml version="1.0" encoding="UTF-8"?>
<!DOCTYPE svg PUBLIC "-//W3C//DTD SVG 1.1//EN" "http://www.w3.org/Graphics/SVG/1.1/DTD/svg11.dtd">
<!-- Creator: CorelDRAW -->
<svg xmlns="http://www.w3.org/2000/svg" xml:space="preserve" width="169.333mm" height="254mm" version="1.1" style="shape-rendering:geometricPrecision; text-rendering:geometricPrecision; image-rendering:optimizeQuality; fill-rule:evenodd; clip-rule:evenodd"
viewBox="0 0 16933.32 25400"
 xmlns:xlink="http://www.w3.org/1999/xlink"
 xmlns:xodm="http://www.corel.com/coreldraw/odm/2003">
 <defs>
  <style type="text/css">
   <![CDATA[
    .fil0 {fill:#007DFF}
   ]]>
  </style>
 </defs>
 <g id="Layer_x0020_1">
  <metadata id="CorelCorpID_0Corel-Layer"/>
  <g id="_2550575193424">
   <path class="fil0" d="M3918.54 10446.24l359.16 -272.11c17.17,-12.87 104.12,-84.23 122.51,-89.15 25.86,17.32 114.13,130 137.7,154.22 7.46,7.66 9.38,9.21 15.56,17.29 28.16,36.85 62.75,69.28 91.76,105.29l58.77 68.95c11.64,12.52 19.25,22.03 31.04,34.64l91.19 105.86c7.36,7.93 7.76,10.43 14.65,18.17l348.61 403.1c6.23,7.36 9.28,9.08 15.61,17.23l106.41 123.48c58.2,59.78 108.96,130.56 166.04,191.57l107.67 122.21c52.95,56.96 100.2,118.38 153.3,175.11 7.42,7.94 7.64,10.42 14.6,18.24 6.04,6.8 10.33,9.74 16.01,16.83l412.88 470.19c5.83,6.94 10.25,9.81 16.08,16.76 40,47.55 85.3,90.81 123.04,139.69 10.38,13.43 19.59,20.93 30.76,34.91 28.32,35.51 62.24,65.86 91.22,102.18 41.23,51.67 167.47,183.53 216.72,239.4 6.86,7.79 7.29,10.39 14.58,18.27l78.5 85.71c13.1,12.84 18.87,22.55 30.95,34.74 6.12,6.17 10.66,9.95 16.54,16.3l138.59 153.32c6.08,5.98 10.9,10.16 16.41,16.43l78.51 85.69c44.18,43.66 81.44,92.86 125.86,136.88l127.8 134.93c7.78,8.09 7.96,10.11 14.68,18.16l207.89 215.4c12.45,12.39 18,21.95 30.94,34.73l394.16 390.39c11.81,10.92 21.27,21.34 32.79,32.88 51.83,51.92 131.21,119.22 189.81,171.44l54 44.54c13.51,10.54 22.78,18.86 36.48,29.19 47.78,36.04 148.58,118.82 209.58,118.82 73.1,0 138.42,-48.99 191.84,-89.14l145.42 -117.31c24.78,-19.25 44.15,-40.1 68.34,-59.39l266.67 -255.13c12.11,-11.98 21.94,-18.02 34.74,-30.93l244.32 -248.31c6.72,-8.04 6.9,-10.06 14.68,-18.15l207.91 -215.39c6.72,-8.04 6.9,-10.06 14.68,-18.15l783.98 -854.43c11.57,-14.97 20.76,-21.21 31.28,-34.4 39.02,-48.91 86.27,-90.4 123.52,-139.21 17.06,-22.34 42.51,-43.94 60.5,-67.21l122.82 -139.91c5.98,-6.42 10.57,-9.68 16.3,-16.54l30.81 -34.87c43.14,-54.03 131.16,-142.95 167.32,-190.3 6.17,-8.09 8.09,-9.63 15.54,-17.28l426.87 -489.05c6.62,-7.07 9.43,-8.76 15.83,-17.02 7.2,-9.31 7.64,-9.47 15.2,-17.62 7.41,-7.97 7.73,-10.42 14.65,-18.2 6.04,-6.8 10.33,-9.73 16.01,-16.82l76.08 -88.13c22.75,-29.76 51.32,-56.16 74.53,-86.03l121.65 -141.08c6.04,-6.79 10.33,-9.72 16.01,-16.83l243.09 -282.37c11.04,-12.39 19.86,-22.38 30.9,-34.78l74.23 -86.32c38.12,-49.06 82.41,-92.88 121.43,-141.3l229.54 -263.08c20.11,-21.5 38.84,-52.33 62.91,-68.46 18.24,4.88 104.35,75.55 120.41,87.59l361.26 273.67c-19.66,29.36 -45.23,54.11 -67.27,82.34 -54.93,70.35 -112.38,134.29 -167.8,204.39 -77.11,97.52 -160.63,190.09 -237.25,288.22 -110.01,140.93 -227.66,276.23 -340.57,414.77 -11.41,14 -21.07,26.6 -32.87,40.12 -12.66,14.52 -21.89,27.8 -34.59,42.03 -12.28,13.76 -20.65,26.48 -32.84,40.14l-614.19 739.59c-66.04,84.03 -139.32,163 -206.4,246.07 -11.64,14.4 -22.53,27.55 -35.05,41.6l-432.43 509c-8.11,8.51 -9.16,11.79 -16.49,20.01 -11.84,13.3 -24.82,26.71 -35.79,40.82l-646.88 739.76c-29.39,36.84 -96.78,102.19 -126.15,140.23l-214.71 234.11c-8.69,8.65 -9.61,10.8 -16.74,19.75 -28.05,35.17 -63.36,63.6 -91.23,98.53l-145.59 153.62c-6.94,6.94 -11.46,11.25 -18.32,18.18 -8.94,9.04 -10.31,12.99 -18.19,21.93 -23.23,26.39 -54.83,49.9 -75.97,77.29 -42.59,55.14 -105.61,96.82 -147.51,151.72l-382.28 369.41c-6.94,6.43 -11.35,11.51 -18.14,18.34l-62.13 54.65c-7.24,6.73 -10.91,11.8 -18.57,17.92l-142.04 120.69c-13.17,11.5 -26.85,21.66 -40.45,32.53l-131.87 98.01c-88.96,-59.57 -168.13,-130.61 -251.25,-197.58 -47.21,-38.04 -149.9,-128.52 -196.67,-175.53l-211.57 -204.41c-43.26,-41.64 -95.61,-83.11 -132.89,-129.84 -43.45,-54.46 -107.1,-98.8 -149.07,-153.8 -25.59,-33.53 -62.08,-63.68 -90.34,-95.76l-56.5 -56.62c-7.37,-8.36 -8.16,-11.56 -16.38,-20.11l-36.61 -36.37c-8.19,-8.86 -9.46,-13.02 -18.12,-22.01 -13.03,-13.55 -26.19,-24.45 -38.36,-38.27 -7.37,-8.37 -8.16,-11.58 -16.38,-20.12l-591.24 -653.07c-6.38,-7.23 -11.74,-10.91 -18.05,-18.44 -32.88,-39.27 -88.96,-106.73 -122.39,-140.34l-261.3 -300.65c-6.88,-8.55 -11.96,-12.49 -18.78,-21.35l-758.99 -894.01c-10.66,-13.71 -22.12,-25.75 -33.35,-39.64 -56.54,-69.82 -117.35,-136.15 -172.59,-206.91 -86.36,-110.61 -183.68,-219.66 -272.92,-329.16 -44.53,-54.65 -88.2,-111.49 -135.11,-164.1 -47.55,-53.32 -91.74,-110.59 -136.89,-165.99l-711.27 -865.1c-32.34,-38.43 -75.82,-85.55 -103.3,-126.59zm10582.13 -1652.99c-20.18,-13.53 -104.23,-95.17 -128.79,-115.7l-290.85 -263.81c2.89,-10.8 67.21,-76.38 83.02,-92.13l129.54 -136.85c13.91,-13.91 31.81,-29.6 43.42,-44.15l191.78 -205.97c8.75,-10.46 10.48,-13.45 20.27,-23.51l41.89 -49.32c41.39,-46.48 78.9,-96.89 116.15,-146.59 66.04,-88.1 121.17,-171.91 178.3,-266.88 11.8,-19.63 20.67,-35.64 32.41,-55.16 6.39,-10.63 10.08,-16.51 15.87,-27.93 6.12,-12.07 10.25,-17.13 15.84,-27.95l288.25 -598.45c25.11,6.7 110.98,77.6 134.21,99.32l64.33 77.99c172.96,250.24 65.39,561.59 -64.69,795.81 -20.31,36.59 -37.49,66.3 -58.8,101.76 -10.92,18.17 -21.28,32.75 -31.09,49.19 -60.76,101.78 -168.87,235.7 -240.98,328.26l-130.44 154.19c-49.38,50.72 -121.74,140.15 -173.36,191.53l-118.67 125.81c-8.94,9.05 -10.33,12.99 -18.2,21.95l-60.16 63.91c-7.75,7.62 -12.55,11.75 -19.47,20.66 -7.89,10.15 -13.84,15.14 -19.78,24.02zm-13088.99 -1576.39c0,-138.36 47.85,-268.59 130.5,-351.15 10.12,-10.12 12.04,-16.11 21.69,-25.75l77.71 -64.6c13.51,-9.48 42.58,-32.3 58.37,-36.51l352.37 709.49c54.17,90.07 85.13,132.87 139.48,214.46 11.88,17.85 24.86,33.8 37.26,50.34l219.78 265.53c8.03,8.12 14.59,13.41 21.59,22.19l259.45 273.3c16.16,16.08 25.8,29.56 41.96,45.62 16.39,16.29 81.84,82.71 84.84,93.96l-181.61 165.05c-10.07,9.97 -15.48,16.38 -26.39,24.7l-78.73 70.87c-21.82,16.85 -111.76,104.72 -132.91,118.89 -5.74,-8.6 -11.62,-13.32 -18.24,-21.91l-57.47 -62.95c-7.52,-7.47 -12.79,-12.34 -20.14,-19.99l-156.81 -167.95c-7.88,-8.95 -9.25,-12.9 -18.2,-21.94l-78.54 -85.67c-9.41,-9.18 -10.81,-11.76 -18.61,-21.53l-37.92 -42.35c-34.7,-34.9 -174.28,-207.31 -203.41,-245.42l-118.97 -162.01c-52.19,-75.41 -97.03,-144.07 -141.37,-227.18 -18.93,-35.49 -38.75,-68.93 -54.03,-106.53 -36.44,-89.68 -63.92,-141.58 -84.34,-244.06 -8.58,-42.97 -17.31,-93.82 -17.31,-146.9zm-755.35 102.18c0,177.71 5.97,302.42 46.67,475.13 71.72,304.29 185.35,512.85 374.11,746.15l627.32 697.26c46.38,46.88 177.96,156.63 177.96,230.73 0,21.46 -61.27,127.37 -76.58,156.95 -8.5,16.41 -19.91,35.37 -29.05,51.23 -39.13,67.86 -74.73,134.31 -110.87,206.59 -17.99,35.98 -33.51,69.51 -48.84,108.07 -110.17,277.25 -200.12,559.55 -249.2,856.46 -29.1,176.14 -55.16,372.19 -54.7,576.56 0.07,29.98 -3.79,46.02 -3.74,72.91 0.06,31.02 3.95,47.88 3.79,76.66 -0.31,54.6 0.82,101.6 3.59,153.32 4.16,78.18 18.83,216.1 28.99,288.46 25.94,184.82 61.89,359.67 109.25,522.03 47.65,163.35 101.86,310.63 165.11,466.18 51.98,127.85 119.71,248.9 184.41,370.23 58.38,109.48 128.34,211.04 197.57,313.29 73.08,107.91 154.01,212.93 240.65,310.36 7.85,8.83 11.94,11.61 19.13,21.01l37.35 42.93c39.88,43.11 120.55,132.14 156.58,160.87l205.34 188.75 174.65 139.17c16.27,12.22 30.98,22.22 46.41,33.88l434.93 272.97c81.58,49.66 283.94,138.71 378.27,176.37 75.49,30.15 152.89,56.98 233.59,83.88 77.37,25.78 159.2,49.25 243.48,70.33 256.08,64.06 572.33,111.65 840.75,111.65 290.43,0 471.86,-6.18 756.38,-53.7 107.69,-17.98 212.72,-38.96 317.89,-65.25 35.05,-8.76 64.18,-16.08 99.26,-24.8l99.52 -28.2c30.9,-10.34 61.44,-22.45 92.72,-35l273.72 -105.77c45.68,-17.84 138.81,-59.66 185.02,-70.42 3.5,13.16 34.91,43.18 46.54,55.62l259.11 302.83c4.99,5.6 7.64,7.38 12.34,13.22 5.2,6.45 4.9,7.29 11.33,14.21 9.65,10.38 14.34,17.83 23.67,27.41 33.97,34.89 60.78,75.07 94.93,109.41 10.41,10.46 13.28,16.94 23.69,27.4 34.2,34.4 63.99,72.35 95.05,109.28 16.41,19.52 32.1,33.83 47.9,54.29 8.69,11.24 16.27,16.17 24.55,26.54l315.95 348.15 360.68 354.54c37.69,29.15 72.72,64.1 110.98,93.37 19.58,14.99 38.56,27.67 59.41,42.75l63.68 38.5c19.04,9.17 55.84,24.53 81.29,24.53 66.67,0 152.43,-66.63 202.29,-104.22 162.3,-122.38 362.3,-331.06 495.53,-475.1 8.63,-9.33 16.44,-16.42 25.61,-25.48l242.67 -268.19c15.41,-17.45 34.83,-35.73 48.87,-53.31 15.67,-19.64 31.02,-35.55 47.76,-54.41 31.8,-35.78 60.81,-75.16 94.9,-109.44 40.48,-40.73 139.55,-162.68 189.71,-218.99l176.85 -206.29c15.29,-18.07 104.12,-116.15 106.91,-126.62 43.78,10.19 139.23,52.2 182.42,69.37 31.04,12.34 60.1,22.77 92.35,35.36 107.29,41.88 211.25,88.13 322.13,119.4 18.74,5.28 31.95,9.73 51.12,14.56 173.81,43.7 349.2,86.02 527.6,107.34 276.29,33.02 375.26,37.11 648.89,37.11 337.82,0 756.86,-72.83 1081.48,-181.07 80.57,-26.85 154.75,-52.01 231.14,-82.68 163.44,-65.61 326.48,-141.09 477.49,-230.42l244.58 -153.16c16.81,-11.19 29.6,-21.08 45.25,-31.38l91.23 -65.68c82.45,-61.97 160.96,-128.51 239.75,-194.48 8.18,-6.85 12.21,-12.89 20.4,-19.74 9.52,-7.97 12.51,-9.04 21.77,-18.35l40.17 -36.47c7.65,-7.37 12.48,-12.63 19.99,-20.14l176.93 -180.68c7.03,-7.59 12.86,-12.55 20.2,-19.96 63.06,-63.7 194.68,-233.67 247.4,-303.59l289.8 -458.25c134.66,-260.1 228.22,-480.87 308.94,-760.22 47.76,-165.32 83.94,-336.65 110.1,-521.17 6.8,-47.89 9.94,-90.65 16.27,-140.63 11.66,-92.02 17.41,-203.11 17.2,-296.62 -0.07,-31.19 3.77,-47.57 3.72,-76.6 -0.07,-30.88 -3.9,-46.56 -3.74,-76.64 1.69,-326.67 -56.66,-658.45 -139.39,-962.6 -32.43,-119.26 -71.85,-241.76 -117.08,-357.29 -37.91,-96.85 -74.33,-184.69 -119.36,-274.74l-85.14 -155.68c-18.72,-36.9 -108.25,-190.39 -108.25,-209.22 0,-76.45 123.26,-180.34 174.27,-230.77l171.51 -186.1c8.11,-9.23 16.59,-16.73 25.52,-25.57 11.2,-11.1 13.95,-15.35 23.87,-27.21 33.21,-39.73 92.81,-92.88 122.99,-132.44l192.48 -216.21c61.61,-66.28 126.86,-152.51 180.76,-224.28 75.79,-100.95 135.64,-208.68 186.12,-324.74 63.34,-145.63 113.47,-315.48 133.3,-479.73 13.42,-111.24 15.25,-193.73 15.25,-305.87 0,-212.84 -57.88,-442.4 -142.21,-635.03 -29.29,-66.91 -60.02,-129.67 -96.52,-191.76 -48.04,-81.73 -136.5,-218.46 -201.89,-287.07 -9.59,-10.07 -12.54,-16.02 -21.85,-25.58l-45.63 -49.26c-38.06,-43.2 -81.49,-81.28 -122.21,-122.26 -10.13,-10.18 -15.7,-12.65 -25.6,-21.85 -108.22,-100.61 -244.49,-189.44 -376.71,-254.57 -10.74,-5.29 -22.21,-9.17 -32.93,-14.49 -173.02,-86.06 -427.03,-139.79 -602.77,-29.95l-51.37 39.85c-29.5,28.07 -59.79,67.64 -78.1,104.34 -57.64,115.54 -33.29,216.5 -14.24,340.29 33.62,218.32 27.16,368.6 -57.28,566.14 -55.12,128.96 -129.48,236.5 -212.17,342.47l-373.76 410.78c-19.42,24.34 -81.78,83.84 -109.15,113.44l-142.08 160.78c-55.09,65.12 -118.83,128.63 -179.06,189.5l-156.17 175.89c-125.47,159.76 -265.06,374.35 -125.63,571.31 31.13,43.96 70.72,80.42 113.63,112.6l212.25 167.24c69.35,58.38 180.7,151.38 242.45,213.69 47.24,47.66 155.46,148.1 188.55,190.95l90.63 99.11c8.31,8.54 9,11.69 16.44,20.05l236.49 299.91c86.16,119.12 160.78,244.82 232.61,373.14l146.9 309.22c46.41,110.5 85.07,223.12 117.51,338.61 105.75,376.4 137.62,754.62 92.34,1148.96 -28.21,245.48 -93.3,495.28 -187.96,720.65 -110.08,262.06 -276.91,550.74 -464.68,761.39 -115.68,129.76 -157.23,169.81 -293.66,297.48 -90.39,84.6 -209.76,169.06 -310.72,236.63l-169.88 103.8c-179.05,103.25 -369.49,182.72 -568.05,249.32 -93.02,31.21 -186.41,54.42 -287.43,77.48 -101.94,23.26 -200.73,38.84 -311.27,53.62 -22.6,3.02 -57.84,7.74 -81.67,9.55 -28.76,2.22 -57.65,6.29 -83.65,7.59 -308.21,15.34 -465.12,8.59 -773.29,-25.85 -45.13,-5.05 -85.46,-14.61 -128.02,-25.25 -172.07,-43.01 -309.61,-56.35 -459.77,-156.91 30.48,-57.61 79.24,-107.13 119.88,-157.43 5.17,-6.41 8.6,-8.72 14.04,-15.16l38.44 -45.48c36.91,-36.88 68.73,-79.91 105.88,-116.71l83.55 -87.95c42.03,-52.7 37.94,-55.28 94.33,-55.28 51.55,0 102.6,8.25 149.41,14.79l440.17 63.41c55.39,8 238.51,-12.03 308.08,-19.81 96.7,-10.83 198.58,-27.29 287.55,-48.17 164.33,-38.56 352.3,-89.74 504.28,-163.47 45.94,-22.29 93.12,-42.01 137.49,-66.85 10.53,-5.89 18.23,-9.13 29.2,-14.61 120.1,-60 243.76,-150.58 349.89,-233.95 17.19,-13.48 29.45,-24.82 45.92,-38.01 55.91,-44.79 122.4,-111.5 170.07,-165.63l78.05 -86.15c89.47,-110.12 170.18,-222.4 239.04,-348.45 59.98,-109.78 116.11,-223.45 158.59,-341.32 45.76,-126.95 86.63,-252.98 115.43,-388.15 10.2,-47.84 19.01,-89.86 28,-139.84 5.15,-28.65 9.09,-41.47 9.31,-74.63l3.74 -80.18c0,-131.39 -1.86,-259.31 -14.26,-387.13 -20.43,-210.64 -63.69,-423.55 -134.89,-620.46 -53.82,-148.87 -117.69,-293.86 -198.65,-428.97l-100.26 -155.17c-32.84,-49.1 -70.47,-97.69 -109.42,-142.37l-43.62 -51.25c-6.4,-6.59 -10.53,-9.71 -16.12,-16.72 -40.33,-50.52 -132.26,-139.82 -189.74,-186.11 -6.41,-5.15 -8.73,-8.59 -15.16,-14.03 -68.97,-58.36 -140.04,-113.17 -215.81,-163.69l-57.47 -37.41c-13.25,-8.5 -25.21,-15.11 -38.75,-23.28 -14.2,-8.57 -27.55,-16.97 -41.01,-24.67 -142.01,-81.25 -384.38,-208.17 -550.81,-208.17 -134.82,0 -227.85,50.03 -314.71,126.82 -62.86,55.58 -119.61,119.6 -175.15,182.46l-187.97 209.75c-6.9,7.82 -13.14,12.32 -20.02,20.13l-109.46 124.09c-31.76,34.28 -64,66.66 -93.46,103.58 -6.5,8.16 -12.32,12.65 -19.78,20.36 -8.7,9.02 -9.88,13.16 -18.13,22.01l-93.11 103.93c-6.89,7.82 -13.13,12.31 -20.02,20.12l-467.05 521.83c-7.08,7.63 -13.2,12.11 -19.96,20.19l-337.65 377.56c-7.65,8.22 -12.16,11.17 -19.49,20.64 -8.05,10.44 -9.76,12.35 -18.88,21.26l-280.99 313.81c-38.31,43.46 -119.81,127.3 -151.03,166.42 -7.8,9.76 -9.21,12.35 -18.6,21.54 -14.46,14.13 -21.89,25.62 -36.55,40.07 -9.39,9.27 -10.37,12.23 -18.36,21.79l-57.86 62.56c-12.15,15.23 -23.76,30.08 -39.59,40.68 -25.76,-17.25 -51.79,-34.96 -73.91,-57.46 -10.44,-10.59 -15.11,-12.79 -25.5,-21.93 -31.18,-27.46 -237.39,-234.62 -267.03,-273.02l-257 -279.41c-7.05,-8.84 -13.8,-13.83 -21.57,-22.22 -9.19,-9.93 -11.48,-15.46 -21.8,-25.63l-43.88 -47.35c-28.67,-30.95 -53.7,-65.26 -83.86,-94.94l-188.12 -213.28c-8.79,-10.45 -13.11,-13.14 -22.36,-25.08l-63.25 -71.75c-65.28,-69.75 -118.59,-151.95 -200.07,-204.97 -98.5,-64.12 -252.93,-79.48 -363.83,-32.41 -49.32,20.93 -71.44,37.73 -110.53,68.28 -43.71,34.15 -227.78,256.86 -274.31,309.52 -7.93,8.97 -13.41,12.42 -21.24,22.55 -41.01,53.08 -130.71,142.19 -169.94,191.31l-254 282.41c-7.09,8.06 -14.12,14.19 -21.9,21.89l-110.89 118.99c-33.81,42.38 -238.8,247.55 -266.7,273.36 -31.3,28.94 -65.71,57.31 -101.31,81.14 -26.07,-17.46 -54.12,-56.63 -75.74,-81.17 -48.76,-55.32 -101.99,-107.74 -149.43,-164.39l-93.28 -103.76c-8.69,-9 -9.91,-13.15 -18.13,-22.01l-131.33 -145.99c-7.8,-7.83 -12.44,-11.45 -19.51,-20.63l-113.71 -127.13c-14.66,-14.46 -22.09,-25.94 -36.55,-40.07l-299.04 -332.24c-7.99,-9.54 -8.98,-12.52 -18.36,-21.78 -8.56,-8.43 -12.3,-11.89 -19.2,-20.93l-57.52 -62.9c-8.22,-8.87 -9.43,-13.02 -18.13,-22.01 -6.71,-6.95 -11.96,-10.94 -18.16,-18.34l-188.15 -209.59c-32.19,-33.31 -59.69,-71.5 -93,-104.05 -43.82,-42.83 -87.03,-101.31 -131.42,-145.91l-111.85 -125.34c-17.57,-22.73 -39.48,-40.58 -57.39,-63.02l-469.1 -519.78c-30.14,-36.06 -65.88,-68.28 -102.4,-98.3 -224.88,-184.75 -445.26,-109.04 -679.57,8.15 -164.24,82.15 -321.63,175.24 -464.56,290.78 -84.93,68.63 -190.38,162.47 -259.01,244.55 -40.41,48.32 -76.95,85.69 -116.74,138.71 -18.1,24.1 -36.39,46.48 -53,71.05l-75.78 113.97c-73.73,120.38 -136.07,245.66 -188.69,376.91 -113.07,282.05 -185.04,641.02 -185.04,953.44 0,211.8 -2.7,234.8 40.43,441.22 36.84,176.32 93.92,341.15 162.34,505.44 5.17,12.42 7.43,17.29 12.55,27.59l40.05 87.66c66.64,135.41 146.66,265.93 239.34,384.64 36.85,47.18 72.23,95.08 113.68,138.1 7.28,7.56 13.3,12.29 20.12,20.03 7.87,8.94 9.25,12.89 18.2,21.93l107.74 103.9c108.03,109.91 313.79,248 438.72,312.98 92.25,47.98 186.87,95.33 285.09,130.89 21.02,7.62 39.55,15.67 61.12,22.81 197.62,65.41 399.31,115.23 610.54,141.15 46.05,5.66 107.09,14.26 152.52,15.35 29.39,0.69 49.15,2.55 80.47,3.45 26.29,0.76 46.55,6.93 78.63,2.24l440.04 -63.53c59.88,-8.48 125.79,-15.22 189.12,-15.22 14.02,0 46.36,42.36 55.82,53.66 30,35.91 80.11,77.68 109.93,116.3 18.4,23.84 87.23,93.4 116.77,131.36 5.89,7.59 8.06,8.74 13.91,15.29l51.08 62.04c25.23,30.7 53.49,64.14 72.13,99.36 -75.7,50.7 -122.43,67.55 -210.27,96.26l-310.48 76.31c-128.72,24.64 -369.68,42.73 -497.32,42.73 -95.6,0 -198.12,1.41 -291.94,-3.63l-210.09 -19.81c-303.28,-41.32 -587.46,-110.18 -865.34,-229.35 -22.28,-9.56 -39.17,-17 -60.6,-26.98l-62.38 -28.85c-45.01,-18.58 -79.32,-40.38 -121.31,-61.14 -142.24,-70.32 -323.06,-194.44 -440.24,-289.56l-171.23 -146.22c-8.69,-7.65 -15.38,-15.33 -23.76,-23.7l-111.34 -111.24c-35.68,-35.5 -117.86,-133.06 -148.65,-172.47 -26.7,-34.19 -53.28,-66.64 -78.81,-103.63 -13.15,-19.05 -25.76,-34.84 -37.97,-53.26l-106.96 -166.72c-52.04,-86.99 -95.3,-176.61 -139.9,-268.79l-41.3 -93.71c-18.34,-41.53 -34.69,-89.21 -50.65,-131.79 -16.58,-44.19 -30.68,-91.74 -44.78,-137.67 -158.33,-515.36 -147.97,-1084.51 -3.19,-1602.38 62.73,-224.4 153.49,-443.24 263.92,-648.33 5.35,-9.93 8.58,-13.63 13.45,-23.05l40.28 -72.84c8.93,-15.61 19.54,-32.35 28.8,-47.83 84.26,-140.8 179.84,-276.54 281.66,-404.35l138.18 -164.68c20.78,-27.2 49.69,-51.14 71.9,-77.71 7.33,-8.75 8.03,-11.38 16.51,-19.98l231.72 -228.06c8.54,-8.22 11.75,-9 20.12,-16.37 7.15,-6.31 11.21,-11.77 18.23,-18.26l104.03 -89.37c71.14,-66.14 171.48,-140.63 251.66,-200.81l42.27 -34.36c73.13,-61.86 133.92,-147.03 133.92,-249.23 0,-170.39 -102.34,-306.91 -205.48,-429.45l-132.99 -147.98c-16.73,-19 -36.63,-36.34 -54.79,-54.68l-197.34 -218.65c-5,-6.27 -8.46,-9.11 -14.28,-14.92 -10.8,-10.78 -14.26,-18.18 -25.43,-29.29l-54.79 -58.33c-12.35,-12.31 -16.39,-17.53 -27.54,-30.86 -17.1,-20.47 -39.11,-36.42 -56.22,-56.88l-293.95 -315.44c-7.33,-7.52 -7.26,-8.81 -13.11,-16.08l-112.61 -139.17c-116.85,-155.58 -245.53,-378.79 -245.53,-648.49 0,-104.94 19.51,-190.84 33.96,-290.79 17.39,-120.24 10.56,-207.13 -60.5,-303 -19.87,-26.81 -41.54,-49.85 -67.49,-71.17 -26.9,-22.11 -53.3,-38.44 -86.82,-51.84 -248.38,-99.31 -560.61,47.07 -760.6,180.4 -115.4,76.95 -218.08,166.22 -316.58,263.61 -36.65,36.23 -103.13,116.04 -135.41,156.5 -58.08,72.8 -108.6,150.56 -156.72,230.08 -12.97,21.43 -22.02,41.72 -35.05,63.48 -47.62,79.54 -88.88,182.99 -118.41,272.02 -16.08,48.45 -33.01,100.4 -43.37,150.05 -22.44,107.62 -44.67,217 -44.67,345.76z"/>
   <path class="fil0" d="M11209.27 19576.06c-98.52,0 -153.14,1.71 -249.64,-20.39 -13.13,-3.01 -38.64,-6.76 -38.64,-19.74l0 -879.42c282.59,0 643.99,-37.68 776.04,245.68 55.14,118.32 55.34,301.98 0,420.9 -39.74,85.41 -102.48,143.21 -182.4,186.14l-89.26 34.81c-62.64,17.28 -134.62,32.02 -216.1,32.02zm-29.2 -1072.81l-259.08 0 0 -842.91c44.25,0 88.47,-21.9 200.7,-21.9 266.15,0 514.51,119.09 514.51,401.39 0,108.18 -0.89,182.9 -52.16,276.26 -75.22,136.96 -250.84,187.16 -403.97,187.16zm-963.34 -897.66c98.72,0 192.13,7.54 230.52,101.56 30.8,75.42 35.86,149.4 35.86,256.05l0 1685.85c0,12.27 -0.02,24.43 -0.21,36.7 -0.25,15.49 -3.61,28.98 11.15,28.98l671.42 0c329.15,0 766.71,-38.76 951.41,-285.62 133.89,-178.94 131.45,-558.23 -66.22,-712.69 -69.58,-54.37 -91.3,-63.66 -173.62,-96.4 -46.09,-18.33 -163.55,-47.43 -226.24,-47.43 3.82,-2.66 -1.31,-0.16 7.03,-3.91 4.79,-2.16 4.2,-1.97 10.63,-3.97 56.98,-17.74 87.45,-26.15 145.38,-55.32l71.03 -42.08c22.11,-15.42 77.29,-59.14 93.27,-78.25 62.46,-74.76 128.78,-164.81 128.78,-276.25 0,-135.38 -13.99,-244.11 -87,-343.57 -53.88,-73.4 -122.76,-121.75 -214.77,-157.43 -171.02,-66.33 -400.32,-108.38 -636.02,-108.38l-952.4 0 0 102.16z"/>
   <path class="fil0" d="M13650.45 19269.55c0,70.51 0.17,118.97 -36.6,182.33 -21.09,36.34 -49.06,64.74 -83.8,87.71 -108.57,71.8 -199.21,76.61 -335.72,76.61 -163.21,0 -349.03,-65.43 -445.74,-185.54 -47.34,-58.81 -84.91,-122.96 -112.99,-200.82 -18.06,-50.08 -61.6,-197.99 -61.6,-255.86l-94.88 0 0 412.34c0,141.85 153.8,234.61 262.67,288.32 249.99,123.33 739.42,127.59 981.68,7.28 42.88,-21.28 75.8,-36.83 116.72,-65.73 123.04,-86.86 210.82,-218.53 229.26,-372.82 3.06,-25.51 9.46,-87.41 5.88,-110.32 -4.61,-29.42 -0.03,-56.76 -12.46,-108.07 -36.36,-149.99 -97.22,-201.86 -190.75,-290.92 -68.29,-65.05 -201.8,-143.44 -287.15,-194.52l-378.16 -223.93c-26.51,-15.57 -48.83,-30.82 -74.35,-46.06 -49.38,-29.49 -144.96,-100.35 -182.11,-146.3 -6,-7.43 -9.54,-9.91 -15.16,-17.68 -15.97,-22.13 -30.91,-50.6 -40.6,-79.82 -27.51,-82.89 -22.52,-177.27 15.08,-252.34 88.51,-176.75 323.73,-199.4 500.9,-165.12 23.96,4.65 42.33,9.34 61.89,14.74 54.91,15.16 113.34,44.75 158.76,78.44 43.34,32.14 85.45,76.33 115.57,121.59 11.67,17.53 19.93,31.86 30.72,49.58 19.43,31.96 35.73,72.59 50.21,110.33 20.28,52.83 63.56,201.01 63.56,253.91l98.53 0 0 -383.15c0,-67.57 -19.81,-116.4 -55.22,-163.73 -133.89,-178.93 -479.72,-248.61 -703.78,-248.61 -307.52,0 -651.25,108.36 -734.19,437.14 -41.91,166.1 -3.7,366.84 106.02,501.21 36.47,44.65 74.67,81.02 119.82,117.37 66,53.14 101.17,74.79 173.8,118.11 50.03,29.85 95.88,58.09 145.49,88.05 131.55,79.4 413.43,234.19 522.01,357.4 46.6,52.88 86.69,126.35 86.69,208.88z"/>
   <path class="fil0" d="M8932.28 18083.62c12.79,9.37 41.37,89.35 47.93,105.34l274.73 652.11c8.14,19.42 15.21,34.06 22.96,53.66 7.21,18.24 18.88,39.97 22.93,57.35l-751.7 0c46.35,-96.58 95.7,-223.94 143.54,-323.54 8.88,-18.49 15.1,-34.37 23.27,-53.35l169.96 -381.05c8.08,-18.77 45.47,-99.61 46.38,-110.52zm-894.01 1631.11c182.52,0 158.29,13.35 178.86,-32.78 5.24,-11.73 10.75,-25.02 16.93,-37.82l104.65 -231.06c12.54,-26.11 21.8,-49.2 34.04,-75.42 12.6,-26.95 23.52,-51.06 35.12,-78l68.29 -154.3 890.35 0 71.4 173.08c8.6,21.65 16.93,37.5 25.59,58.34 41.34,99.61 127.44,217.23 218.24,278.02 95.29,63.8 262.37,110.89 389.03,110.89l131.08 -3.95c21.11,-1.65 42.63,-9.02 62.32,-10.65l0 -87.58c-70.33,0 -152.64,-50.85 -201.7,-97.52 -11.06,-10.53 -14.27,-16.5 -23.73,-27.36 -73.98,-84.89 -116.84,-191.09 -158.27,-294.2 -83.7,-208.24 -183.37,-428.38 -266.38,-634.93l-385.68 -920.66c-10,-24.87 -19.9,-46.7 -30.23,-71.94 -5.74,-13.99 -27.53,-59.29 -28.71,-73.46l-156.91 0c-5.94,25.48 -164.33,370.41 -183.5,414.94 -66.27,153.89 -153.72,333.5 -216.35,484.26 -10.65,25.65 -21.3,45.87 -31.79,70.38l-61.49 139.2c-32.42,79.94 -90.63,195.17 -124.07,277.32 -42.41,104.23 -108.63,235.74 -154.29,345.63l-62.02 138.67c-35.18,84.65 -88.85,192.52 -124.07,277.32 -16.16,38.9 -36.9,63.58 -16.71,63.58z"/>
   <path class="fil0" d="M2860.32 17485.18c0,93.15 -7.79,44.66 75.17,78.1 163.78,66.03 233.02,277.35 298.06,428.09l61.57 146.42c19.44,48.39 42.16,97.59 61.47,146.52 45.21,114.55 106.61,246.86 153.82,364.35l462.87 1098.91 135.02 0 119.16 -278.58c21.13,-47.5 40.53,-93.02 60.15,-140.54 94.84,-229.79 207.12,-472.2 301.83,-701.65l422.24 -982.63c10.54,-25.17 19.2,-44.1 29.74,-68.78 5.37,-12.56 10.49,-24.13 15.52,-35.58 4.34,-9.91 12.35,-26.37 14.69,-36.38l-171.5 0c-8.2,15.48 -15.27,33.25 -22.42,50.57 -73.81,178.83 -164.17,381.42 -241.32,561.44l-396.83 924.12c-7.38,16.83 -15.14,33.12 -22.32,50.66 -3.66,8.94 -6.75,15.22 -10.92,25.57l-9.42 19.78c-4.39,6.79 -1.51,2.61 -4.69,6.26l-51.18 -123.96c-8.77,-19.96 -17.34,-40.72 -25.96,-61.61l-209.01 -495.26c-9.3,-22.12 -17.04,-38.76 -26.07,-61.51l-131.38 -310.14c-36.1,-86.2 -93.69,-228.41 -134.14,-303.75 -35.73,-66.57 -54.77,-82.37 -92.13,-130.46 -22.14,-28.51 -24.77,-24.89 -44.41,-43.17 -110.29,-102.6 -306.93,-141.38 -464.34,-141.38l-120.54 3.52c-16.24,-0.3 -32.73,-4.29 -32.73,11.07z"/>
   <path class="fil0" d="M6144.44 17605.59c98.03,0 195.28,5.57 233.07,106.29 30.29,80.74 33.3,149.1 33.3,258.61l0 1678.56c0,33.97 -6.58,65.68 10.95,65.68l1580.02 0 0 -153.26 -1153.08 0 0 -1649.35c0,-216.01 -30.23,-408.69 -277.33,-408.69l-426.93 0 0 102.16z"/>
   <path class="fil0" d="M5341.66 19327.93c0,98.45 11.47,220.86 64.13,297.12 51.71,74.89 147.52,89.68 271.57,89.68l357.61 0c19.28,0 10.95,-41.33 10.95,-94.88 0,-24.25 -50.16,-0.11 -119.76,-18.9 -37.58,-10.15 -65.7,-26.27 -89.19,-53.12 -18.63,-21.26 -35.61,-67.74 -42.6,-99.71 -8.49,-38.84 -14.83,-80.68 -14.83,-127.49l0 -1817.2 -437.88 0 0 1824.5z"/>
  </g>
 </g>
</svg>
