<?xml version="1.0" encoding="UTF-8"?>
<!DOCTYPE svg PUBLIC "-//W3C//DTD SVG 1.1//EN" "http://www.w3.org/Graphics/SVG/1.1/DTD/svg11.dtd">
<!-- Creator: CorelDRAW -->
<svg xmlns="http://www.w3.org/2000/svg" xml:space="preserve" width="169.333mm" height="42.3332mm" version="1.1" style="shape-rendering:geometricPrecision; text-rendering:geometricPrecision; image-rendering:optimizeQuality; fill-rule:evenodd; clip-rule:evenodd"
viewBox="0 0 16933.32 4233.32"
 xmlns:xlink="http://www.w3.org/1999/xlink"
 xmlns:xodm="http://www.corel.com/coreldraw/odm/2003">
 <defs>
  <style type="text/css">
   <![CDATA[
    .fil0 {fill:#FF7C00}
   ]]>
  </style>
 </defs>
 <g id="Layer_x0020_1">
  <metadata id="CorelCorpID_0Corel-Layer"/>
  <g id="_2536387350560">
   <path class="fil0" d="M11143.03 2388.33c0,169.04 38.29,323.59 86.7,443.83 12.68,31.51 26.6,60.47 41.71,90.26l23.84 42.14c8.73,14.58 15.89,27.12 25.11,40.88 13.24,19.73 40.62,59.67 55.59,76.38 24.95,27.86 35.13,43.09 63.33,71.29 120.45,120.43 248.13,193.84 413.39,249.1 68.14,22.78 147.26,37.76 219.89,46.69 213.3,26.2 460.32,-0.37 652.35,-85.72 112.35,-49.93 157.21,-81.52 251.37,-155.1 21.91,-17.12 66.46,-62.03 86.29,-82.63 35.44,-36.83 91.23,-115.6 115.58,-156.29l58.29 -113.27c73.25,-179 97.28,-314.1 97.28,-517.71l0 -1549.33 -493.57 0 0 1591.57c0,51.03 -4.58,98.67 -12.07,143.66 -8.09,48.6 -17.25,82.52 -31.15,124.56 -13.26,40.11 -29.34,73.23 -48.35,107.39 -105,188.73 -303.32,273.68 -515.5,273.68 -140.76,0 -248.94,-35.13 -352.64,-103.97 -14.56,-9.67 -30.79,-21.95 -42.6,-33.95 -17.45,-17.75 -12.14,-6.77 -38.4,-38.14 -6.45,-7.7 -11.54,-11.23 -17.72,-19.23 -5.45,-7.05 -10.61,-13.07 -16.23,-20.73 -32.98,-44.9 -59.87,-96.08 -80.3,-149.32 -27.33,-71.22 -48.62,-176.68 -48.62,-257.56l0 -1617.96 -493.57 0 0 1599.48z"/>
   <path class="fil0" d="M2575.48 3428.26l446.06 0c2.62,-5.46 5.36,-13.54 7.51,-18.87l125.59 -309.92c44.67,-111.72 89.16,-220.34 133.48,-331.06 176.12,-439.95 357.06,-879.8 533.16,-1319.71 44.08,-110.1 88.37,-218.34 132.73,-329.17 22.49,-56.18 44.14,-108.91 66.72,-165.55l50.17 -124.03c5.76,-14.41 10.8,-28.27 16.96,-41.1l-419.34 0.32c-69.99,7.4 -121.18,59.73 -143.64,117.66l-131.21 341.25c-5,12.58 -9.62,24.74 -14.7,38.09 -51.07,134.28 -107.54,286.83 -160.22,417.81l-204.74 531.66c-31.95,86.47 -72.05,181.75 -101.68,265.2 -52.97,149.23 -59.5,170.01 -96.14,326.16 -2.83,12.06 -8.17,32.01 -8.44,44.35l-24.87 -83.35c-43.84,-154.31 -75.39,-247.3 -134.24,-393.65 -10.52,-26.15 -18.79,-49.81 -29.43,-76.14l-205.48 -533.56c-49.52,-123.15 -96.73,-255.6 -146.33,-378.92 -10.29,-25.59 -20.34,-51.74 -29.38,-76.2 -26.09,-70.65 -161.83,-424.73 -178.08,-455.37 -23.84,-44.92 -72.25,-79.29 -126.17,-84.99l-421.98 -0.32 65.23 164.4c22.47,56.14 44.49,109.94 66.74,165.52 43.93,109.75 88.86,218.15 133.1,328.8 44.48,111.23 88.31,218.21 132.72,329.18 176.12,440.02 357.05,879.68 533.17,1319.71 22.54,56.33 44.52,110.01 66.74,165.52 7.9,19.73 62.04,149.34 65.99,166.28z"/>
   <path class="fil0" d="M13742.86 1514.69c0,45.68 2.68,92.13 9.39,138.42 17.4,120.14 57.88,219.78 128.61,314.81 135.21,181.68 372.42,244.86 576.26,313.22 133.28,44.69 308.31,74.7 413.43,180.44 13.81,13.89 23.09,22.91 35.7,38.2 73.29,88.91 62.22,251.57 19.04,347.78 -43.52,96.97 -131.22,161.18 -235.4,186.91 -44.9,11.09 -90.78,17.49 -139.45,18.91 -19.31,0.57 -27.99,4.72 -51.18,1.2 -16.59,-2.51 -33.89,0.22 -50.57,-2.22 -48.71,-7.13 -85.65,-10.07 -134.03,-24.33 -27.2,-8.02 -52.07,-19.81 -75.97,-29.61 -72.37,-29.67 -137.08,-71.78 -201.8,-114.93 -87.24,-58.16 -139.22,-108.36 -239.04,-28.42 -21.8,17.46 -114.81,180.84 -133.68,212.09l-26.89 44.37c14.73,9.87 23.41,24.52 38.07,35.84 14.41,11.13 24.89,22.69 39.59,34.31 14.77,11.68 26.73,21.34 41.5,32.41 14.94,11.21 27.29,19.71 43.43,30.47 125.95,83.97 264.14,144.07 412.25,178.98 245.92,57.96 532.8,47.45 760.71,-66.54 56.11,-28.06 113.38,-61.76 160.32,-103.62l29.72 -25.71c10.09,-7.71 17.69,-16.38 27.05,-25.74 5,-4.99 8.35,-8.05 13.25,-13.14 5.95,-6.18 6.51,-8.53 11.85,-14.54l47.77 -57.81c31.07,-41.14 55.9,-86.1 79.6,-134.2 47.83,-97.1 79.14,-236.01 79.14,-345.8 0,-109.34 -4.17,-216.39 -48.39,-307.93 -8.69,-17.99 -13.37,-31.32 -23.38,-47.89 -22.14,-36.64 -43.86,-72.44 -71.53,-105.3 -49.08,-58.28 -111.33,-106.15 -177.18,-144.83 -189.92,-111.57 -415.65,-156.57 -619.91,-237.91 -18.23,-7.25 -33.02,-14.51 -49.43,-21.83 -116.31,-51.89 -226.95,-134.08 -226.95,-274.54 0,-147.78 71.86,-247.06 200.18,-298.67 43.5,-17.5 101.01,-29.66 151,-33.76 10.12,-0.83 21.37,0.42 31.55,-0.12 11.96,-0.65 14.74,-3.24 29.01,-2.83 13,0.37 13.22,2.51 26.32,2.9 10.17,0.3 21.57,-0.77 31.62,0.05 70.45,5.78 136.65,22.68 199.83,50.91 56.22,25.12 109.55,54.02 162.43,85.68l39.53 23.81c61.05,36.36 132.83,24.31 170.04,-37.54 8.16,-13.56 12.74,-25.75 21.06,-39.65 8.09,-13.51 14.17,-27.6 21.35,-42l42.26 -81.78c8.18,-14.62 14.6,-26.66 21.97,-41.39 4.39,-8.79 19.16,-34.92 21.11,-42.23 -18.98,-28.35 -112.57,-92.76 -139.86,-110.88 -24.98,-16.59 -52.51,-31.49 -80.97,-45.72 -156.75,-78.38 -327.84,-123.18 -510.29,-123.18 -155.85,0 -270.74,10.31 -401.57,62.97 -46.13,18.56 -92.25,40.21 -133.15,64.81 -148.7,89.43 -252,212.89 -317.07,374.45 -20.83,51.71 -32.7,103.3 -40.8,159.79 -3.62,25.25 -7.45,64.28 -7.45,92.86z"/>
   <path class="fil0" d="M5278.24 1498.85c0,135.15 11.17,219.71 61.08,342.75 34.78,85.77 102.88,167.52 173.44,225.12l42.61 31.29c8.03,5.7 12.29,9.29 21.97,14.98 63.79,37.53 126.45,66.54 195.98,94.35 106.28,42.51 218.43,75.47 328.99,106.52 69.8,19.6 146.74,44.08 209.06,81.28l65.63 42.58c67.94,50.48 115.37,124.72 115.37,211.92 0,119.22 -12.95,188.36 -82.19,274.13 -48.1,59.58 -122.2,96.17 -199.67,114.42 -28.57,6.73 -55.58,9.39 -88.75,14.18 -16.7,2.41 -34.01,-0.31 -50.58,2.21 -22.64,3.44 -29.67,-0.64 -48.54,-1.2 -133.6,-3.96 -214.35,-34.88 -325.65,-91.37 -66.5,-33.76 -128.13,-83.29 -191.21,-122.88 -38.36,-24.08 -91.06,-35.11 -134.34,-11.83 -51.24,27.56 -65.66,64.66 -95.32,110.55l-77.56 128.32c-8.78,14.57 -16.83,29.19 -25.9,42.73 2.56,3.81 4.89,6.91 8.14,10.34l47.93 44.45c60.05,53.36 127.37,95.26 196.2,136.36 31.76,18.96 65.63,32.93 98.78,49.03 34.07,16.56 69.53,28.89 106.57,41.24 119.81,39.95 239.83,66.98 376.44,66.98 92.95,0 177.82,-3.04 264.6,-20.46 111.23,-22.32 219.07,-60.94 310.82,-122.04 59.43,-39.58 132.08,-93.73 175.29,-149.36 41.28,-53.14 51.6,-62.38 89.75,-126.68 109.05,-183.82 148.1,-486.83 68.3,-690.81 -33.77,-86.31 -79.82,-150.6 -143.99,-214.98l-37.78 -33.49c-7.1,-5.52 -12.24,-9.74 -18.99,-15.31 -7.22,-5.95 -13.85,-10.05 -21.35,-15.61 -42.29,-31.38 -89.52,-57.36 -137.61,-78.81l-74.69 -33.53c-78.58,-31.13 -156.33,-58.83 -238.44,-86.21 -72.2,-24.07 -147.77,-45.41 -215.18,-72.52 -126.64,-50.94 -287.31,-130.6 -287.31,-290.72l0 -34.31c0,-103.2 54.07,-187.49 130.91,-238.62 27.88,-18.55 48.97,-29.08 82.48,-41.57 52.54,-19.57 153.66,-37.45 212.28,-29.35 36.84,5.1 64.41,1.1 113.46,10.59 96.28,18.63 176.93,63.65 260.61,108.91 26.67,14.42 50.25,31.74 78.28,45.78 62.69,31.4 128.26,16.7 164.47,-45.87 3.63,-6.28 6.05,-12.06 9.72,-19.31l32.57 -62.44c6.69,-13.49 14.16,-25.61 21.14,-39.58 13.64,-27.31 58.26,-102.24 63.34,-124.05l-141.99 -108.75c-72.49,-48.65 -174.68,-93.43 -257.67,-117.13 -34.71,-9.91 -63.97,-18.09 -101.17,-25.52 -254.02,-50.75 -538.56,-34.9 -763.6,100.8 -120.99,72.96 -220.89,170.35 -285.79,300.17 -5.77,11.55 -10.28,20.03 -15.87,31.64 -17.14,35.6 -28.41,69.98 -39.26,108.54 -13.32,47.34 -25.81,110.95 -25.81,172.15z"/>
   <polygon class="fil0" points="4312.21,3428.26 4805.79,3428.26 4805.79,788.85 4312.21,788.85 "/>
   <path class="fil0" d="M7643.16 1374.8c0,19.23 8.95,34.06 19.05,44.3 26.81,27.18 65.8,28.07 92.56,1.32 13.26,-13.27 17.11,-27.26 27.17,-44.1l124.38 -194.98 55.39 -68.66c4.1,-4.88 3.78,-5.49 8.12,-10.36l50.11 -55.47c24.35,-24.22 46.51,-47.54 71.21,-71.32 7.19,-6.92 11.38,-8.56 18.58,-15.73 67.29,-66.97 185.43,-147.72 267.32,-194.58 45.56,-26.07 93.02,-51.85 142.03,-71.76 72.56,-29.49 129.22,-52.79 207.38,-75.04 78.99,-22.48 154.76,-35.46 237.88,-47.17 136.48,-19.24 322.89,-10.97 450.98,13.25 36.22,6.84 69.75,13.51 102.37,21.69 34.98,8.77 64.67,18.41 98.64,28.04 46.69,13.25 90.75,31.73 134.61,50.15 43.25,18.17 86.36,37.22 126.28,61.12 52.41,31.37 105.92,58.36 155.36,95.39 47.18,35.35 96.11,68.56 138.44,109.67l66.03 60.66c73.48,73.49 133.62,156.01 200.44,235.06 43.89,51.92 24.12,48.46 -44.71,117.3 -25.28,25.28 -48.63,48.62 -73.91,73.9 -61.6,61.61 -122.31,124.4 -186.11,183.41 -51.03,47.2 -98.75,98.53 -147.77,147.84l-78.73 69.08c-14.57,11.27 -25.4,30.56 -45.99,30.56 -25.24,0 -37.27,-56.12 -54.51,-90.65 -8.58,-17.17 -17.32,-30.8 -26.4,-47.51 -41.28,-75.95 -103.91,-142.21 -170.66,-196.22 -54.79,-44.33 -115.14,-78.83 -185.81,-107.16 -175.06,-70.18 -400.09,-66.17 -568.2,16.63l-57.63 29.47c-69.66,42.27 -70.4,50.04 -126.05,93.02 -54.57,42.15 -118.66,138.34 -152.41,198.64 -16.87,30.14 -28.69,58.71 -39.75,92.21 -29.58,89.58 -41.22,162.21 -41.22,262.31 0,101.97 33.21,217.26 67.74,285.94 38.93,77.45 86.62,146.79 148.03,208.3 91.88,92.02 214.88,160.57 342.26,188.26 156.55,34.04 310.48,21.31 448.49,-40.22 93.73,-41.78 116.78,-63.15 187.61,-118.56 28.77,-22.51 33.86,-25.63 64.21,4.83l42.19 42.27c16.61,16.69 40.29,27.6 40.29,54.73 0,10.84 -25.2,28.47 -33.48,35.14 -66.05,53.25 -133.6,96.88 -207.55,138.21 -46.04,25.73 -95.11,46.47 -145.32,63.2 -75.45,25.13 -152.64,38.8 -233.9,43.24 -49.89,2.72 -139.52,-8.68 -189.83,-18.71 -37.84,-7.54 -74.94,-17.2 -108.77,-28.48 -33.37,-11.12 -70.65,-25.11 -99.97,-39.92 -60.41,-30.49 -119.36,-63.23 -171.92,-105.22 -64.23,-51.31 -122.83,-107.69 -171.52,-174.25 -34.02,-46.5 -115.81,-24.78 -115.81,39.28 0,23.62 14.36,39.53 25.23,53.94 12.16,16.11 23.97,29.92 37.47,44.35 66.43,70.99 135.55,138.95 219.84,189.28l104.57 59.07c98.11,49.33 201.64,79.37 311.54,97.57 92.64,15.35 198.23,15.48 289.15,-2.77 119.28,-23.94 230.94,-72.11 333.4,-133.77 33.45,-20.13 64.07,-38.61 95.67,-60.06l175.81 -135.64c15.56,-12.11 26.3,-23.58 40.48,-36.07 15.17,-13.37 34.95,-25.48 34.95,-49.51 0,-21.9 -12.16,-30.59 -25.28,-40.7 -19.26,-14.87 -35.18,-33.4 -54.3,-48.65l-124.43 -113.11c-36.21,-30.27 -78.35,-86.72 -112.81,-43.09 -7.43,9.42 -13.27,16.46 -21.64,25.86 -47.5,53.33 -96.45,94.72 -158.23,132.11 -90.77,54.93 -197.98,84.94 -329.45,84.94 -127.78,0 -250.65,-48.25 -349.93,-119.88 -23.14,-16.7 -42.71,-33.89 -62.48,-53.66 -62.16,-62.17 -110.09,-124.04 -144.89,-208.8 -33.8,-82.31 -60.23,-199.31 -46.03,-297.53 15.25,-105.51 30.46,-169.68 87.79,-265.89 56.45,-94.72 145.72,-177.84 243.65,-228.82 50.18,-26.12 111.07,-48.9 174.95,-59.95 187.49,-32.43 333.07,11.23 466.47,99.57 52.2,34.57 97.51,78.74 136.1,127.84l37.27 52.48c14.73,24.86 29.49,47.71 40.79,75.33 11.59,28.31 22.7,54.03 31.87,86.91 13.18,47.21 23.68,102.48 23.15,153.7 -0.3,28.17 4.14,39.55 29.06,39.55 8.62,0 96.3,-92.33 103.6,-99.64l611.03 -608.38c33.82,-33.82 79.84,-63.63 79.84,-128.67 0,-45.37 -25.01,-69.58 -44.85,-95.04l-32.04 -39.23c-86.53,-108.61 -147.93,-183.76 -249.77,-278.11 -36.65,-33.95 -75.64,-67.68 -116,-97.79 -58.04,-43.3 -128.23,-94.22 -192.55,-126.82 -46.64,-23.64 -91.91,-50.92 -140.4,-70.76 -188.78,-77.24 -297.07,-109.98 -502.64,-136.09 -154.44,-19.62 -351.68,-9.22 -502.7,21 -157.61,31.53 -303.47,83.44 -443.2,153.3 -96.6,48.3 -188.88,108.34 -273.1,175.6 -54.97,43.9 -107.51,91.08 -157.35,140.91 -6.62,6.63 -12.24,11.67 -18.51,18.45l-34.93 38.96c-6.4,8.38 -12.45,12.7 -18.87,20.72 -93.4,116.6 -138.05,176.74 -212.56,310.05 -7.45,13.34 -21.96,35.74 -21.96,54.59z"/>
   <path class="fil0" d="M7775.13 2108.56c0,418.79 188.58,754.72 399.21,965.36 42.65,42.64 88.15,80.47 134.56,118.83 47.31,39.09 100.32,71.39 152.99,103.04 71.51,42.98 153.31,81.47 232.75,107.73 153.23,50.66 292.15,77.53 466.19,77.53 155.93,0 314.77,-28.86 449.82,-80.7 43.01,-16.5 84.06,-31.66 124.7,-52.14 41,-20.67 76.72,-38.98 114.86,-61.98 63.39,-38.21 124.05,-80.82 179.57,-129.24l91.13 -85.71c31.12,-31.33 36.71,-17.85 65.54,4.42 21.28,16.44 39.55,38.65 58.52,57.61 27.18,27.17 34.29,33.17 5.28,62.03l-48.83 48.83c-4.33,4.36 -7.31,7.84 -12,11.75l-52.6 45.07c-5.83,5.09 -8.21,6.97 -14.41,11.97 -92.64,74.69 -192.43,138.5 -299.09,191.85 -84.12,42.07 -186.45,80.27 -287.13,106.14 -61.56,15.82 -137.28,29.85 -204.57,38.26 -15.97,2 -31.26,2.34 -44.25,5.9 -65.92,18.05 -56.12,113.87 9.06,125.91 45.53,8.42 252.86,-40.19 294.62,-51.86 222.32,-62.16 431.21,-168.04 610.08,-313.72l60.95 -52.54c6.57,-6.57 9.34,-7.43 15.86,-13.18 28.32,-24.93 96.85,-94.3 115.1,-117.16 12.95,-16.22 32.07,-29.9 32.07,-55.04 0,-41.6 -34.02,-64.37 -56.09,-86.44l-142.53 -142.53c-40.29,-40.29 -85.19,-97.83 -144.11,-24.02l-43.29 46.46c-15.59,15.59 -29.35,29.22 -44.84,44.89l-47.54 42.2c-5.37,4.99 -6.38,4.92 -11.72,9.4 -134.65,113.18 -292.37,191.12 -461.77,240.31 -23.58,6.84 -48.79,12.46 -72.4,17.35 -169.17,35.02 -371.92,35.42 -537.21,-6.13 -143.99,-36.2 -279.47,-92.33 -403.29,-174.74 -38.52,-25.63 -74.64,-53.61 -110.19,-82.49 -29.37,-23.86 -96.06,-85.03 -118.77,-113.5 -34.18,-42.84 -72.49,-83.44 -103.1,-129.17 -20.96,-31.31 -40.5,-60.06 -59.34,-93.74 -151.67,-271.24 -198.88,-558.75 -136.97,-871.74 7.75,-39.18 18.75,-80.75 30.23,-114.95 23.69,-70.63 52.61,-138.52 85.66,-204.67 38.93,-77.92 92,-148.16 145.44,-216.16 39.41,-50.13 111.86,-122.73 164.01,-163.28 34.56,-26.86 67.91,-53.03 104.62,-77.5 91.27,-60.84 184.92,-107.67 292.11,-143.39 36.32,-12.1 75.4,-17.37 84.62,-60.68 8.62,-40.48 -20.23,-78.88 -63.17,-78.88 -17.14,0 -41.55,9.48 -56.73,14.54l-129.56 49.92c-74.79,31.05 -145.07,73.87 -210.15,117.14 -88.27,58.69 -159.45,123.98 -233.77,199.09l-33.4 37.87c-26.03,33.51 -54.59,65.3 -79.59,99.88l-43.32 64.9c-19.05,28.62 -38.27,60.31 -53.7,91.47 -8.67,17.5 -15.9,31.82 -24.63,49.28 -8.3,16.6 -15.25,31.24 -22.76,48.5 -38.8,89.22 -67.32,180.19 -86.58,277.66 -15.53,78.58 -26.15,170.1 -26.15,264.19z"/>
   <path class="fil0" d="M9110.68 870.67c153.33,0 210.12,3.97 356.88,41.67 64.17,16.48 173.27,57.63 235.29,89.36 85.2,43.59 170.01,100.05 242.7,161.13l85.68 77.96c8.32,8.41 34.92,36.03 34.92,46.91 0,15.76 -42.78,52.01 -60.05,69.28l-49.65 48.01c-28.62,22.69 -30,13.5 -61.2,-17.66 -69.87,-69.77 -104.46,-98.24 -191.74,-156.66 -28.45,-19.04 -98.77,-57.36 -135.45,-73.07 -246.83,-105.71 -533.07,-123.54 -784.7,-23.02 -19.44,7.77 -39.1,15.4 -58,23.82 -71.53,31.86 -212.49,117.83 -269.95,176.11l-22.44 19.8c-26.83,24.82 -38.77,41 -57.98,60.79l-19.85 22.38c-47.79,51.41 -97.62,130.8 -132.15,192.5 -23.18,41.41 -57.63,122.24 -71.54,171.29 -28.35,100.02 -28.23,98.91 -42.66,202.8l-6.47 112.47c3.76,107.49 19.36,217.73 52.55,317 3.48,10.42 6.03,19.09 10.12,29.47 9.3,23.58 20.47,59.93 66.76,59.93 36.97,0 65.99,-29.02 65.99,-65.98 0,-11.83 -25.1,-76.94 -32.24,-105.01 -40.25,-158.08 -45.58,-327.73 0.87,-485.92 10.2,-34.72 21.83,-71.42 35.9,-103.98 46.68,-107.99 109.76,-207.25 192.76,-290.25 79.93,-79.93 159.95,-139.49 263.74,-187.61 273.32,-126.73 593.04,-114.83 847.97,37.97 29.55,17.71 56.85,34.98 84.24,55.65l77.59 64.94c12.44,12.6 23.09,23.13 35.62,35.64 6.29,6.29 11.45,10.62 16.89,17.43 30.76,38.55 45.33,50.73 78.78,100.69l327.95 -326.63 -29.01 -35.65c-6.08,-6.82 -8.06,-10.33 -14.54,-17.14 -33.61,-35.28 -69.24,-79.3 -109.55,-114.79l-50.79 -44.24c-6.62,-5.12 -9.92,-8.55 -17.33,-14.34 -53.01,-41.42 -92.09,-70.28 -150.07,-105.95 -121.8,-74.94 -272.99,-135.73 -412.61,-165.42 -58.42,-12.42 -162.25,-29.22 -224.93,-31.1 -19.5,-0.58 -44.13,1.99 -62.73,-0.65 -18.37,-2.61 -35.01,0.79 -58.77,0.74 -34.73,-0.09 -82.07,-2.02 -103.07,26.26 -32.8,44.17 -8.59,105.8 52.89,105.87 14.09,0.01 18.62,-1.79 29.2,-2.66 10.27,-0.85 23.59,-0.14 34.18,-0.14z"/>
   <path class="fil0" d="M7466.32 2108.56c0,264.29 58.81,488.08 139.82,673.12 61.71,140.97 135.86,260.33 229.35,377.71l94.71 108.53c84.06,83.58 114.57,115.11 214.07,189.76 78.01,58.52 160.47,110.01 251.13,155.34 164.25,82.13 355.59,142.59 543.72,163.65 38.35,4.29 60.47,7.92 102.93,7.92 29.75,0 55.43,-32.66 55.43,-50.15 0,-30.13 -1.03,-63.64 -45.48,-75.94l-88.36 -9.29c-66.92,-8.38 -100.11,-15.19 -164.2,-28.48 -50.47,-10.47 -103.29,-26.77 -150.33,-42.35 -47,-15.57 -96.07,-35.48 -140.19,-55.13l-95.07 -47.46c-79.36,-39.15 -226.03,-141.51 -287.04,-198.61 -45.72,-42.79 -66.16,-57.47 -110.85,-108.22 -3.99,-4.53 -7.47,-7.55 -11.87,-11.88l-87.94 -104.74 -79.22 -113.46c-13.79,-21.03 -23.94,-38.8 -36.92,-60.74 -176.55,-298.46 -240.41,-678.72 -183.27,-1020.36 6.52,-38.96 14.74,-77.98 23.23,-114.02l22.22 -80.71c7.08,-25.19 7.37,-13.52 7.37,-42.79 0,-54.42 -86.99,-85 -120.4,-25.38 -15.42,27.51 -46.64,170.67 -53.16,202.87 -18.52,91.59 -29.68,202.55 -29.68,310.81z"/>
  </g>
 </g>
</svg>
