<?xml version="1.0" encoding="UTF-8"?>
<svg id="Layer_1" xmlns="http://www.w3.org/2000/svg" version="1.1" viewBox="0 0 1080 1080">
  <!-- Generator: Adobe Illustrator 29.5.1, SVG Export Plug-In . SVG Version: 2.1.0 Build 141)  -->
  <defs>
    <style>
      .st0 {
        fill: #bc202e;
        fill-rule: evenodd;
      }

      .st1, .st2 {
        isolation: isolate;
      }

      .st2 {
        fill: #1f5488;
        font-family: ArialMT, Arial;
        font-size: 152.6px;
      }
    </style>
  </defs>
  <path class="st0" d="M1007.6,551v13.9s7.1.1,7.1.1v-14.1c24.2-3.3,28.6,3.6,27.6-36.8h-7.3c-.5,26.8,4.8,29.1-23.7,29-28.1,0-23.4-1.9-23.7-29h-5.9c-.6,1.1-.3-.4-.9,2.7-1.1,6.1-.5,22,1.9,26.4,4.9,8.8,13.7,6,25,7.8h0s0,0,0,0Z"/>
  <polygon class="st0" points="910.5 521.1 960.8 521.3 964.1 521.3 966.2 521.3 972.7 521.2 972.8 514.3 910.5 514.1 910.5 521.1"/>
  <path class="st0" d="M896.5,564.8l7.2.2c.1-9.6,1.2-44-.6-51l-6.7.2v50.6h0Z"/>
  <polygon class="st0" points="938 564.9 945.4 565 945.5 528.6 937.9 528.9 938 564.9 938 564.9"/>
  <path class="st0" d="M409.9,495.8c-.4,15.3,0,30.9,0,46.2,0,32.3-3.6,39.7,29.8,62.7,32.5,22.3,23.4,22.2,56.5-.8,32.2-22.3,29.1-28.6,29.1-63,0-14.8.3-30,0-44.8-9.3-2.8-53.4-18.6-57.9-18.5-4.6,0-46.8,16-57.3,18.3h0ZM466,503.2v24.3c.1,0,55.9.1,55.9.1v14.4s-46.3,0-46.3,0c-3.9-10.8-16-7.9-16.5,1-.5,9.7,12.5,13.1,16.5,2.2h46.2v13.3s-32.3.1-32.3.1l-.2,16.5c-10.3,4.3-8.3,15.8.8,16.3,8.7.5,14.5-10.8,2.4-16.8v-12.7s29.1-.2,29.1-.2c1.9,16.7-11.2,27.2-19.6,33.7-7.2,5.6-24.3,18.3-33.1,21.6v-42.3c.9-3.4,6.8-2.8,6.7-9.9,0-10.6-15.5-11.5-16.5-1-.8,8.2,4.3,6.3,6.8,10.9v42.7c-8.1-3.3-26.5-16.7-33-21.8-9.9-7.7-20.3-15.9-20.3-34.2v-63.1c8.7-2.7,49.9-17.6,54.5-17.7,5.9-.1,44.1,14.9,54.7,17.4v9.3h-20.8c-4.5-1.5-2.8-6-9.1-6.8-10.9-1.5-13,15.9-1.7,16.8,8.1.6,6.1-6.7,13-6.7h18.7s0,13.7,0,13.7h-53c0-4.5-1-17.1.6-20.4,1.8-3.4,9.4-5.4,5.1-13.6-6.8-13-26.6,6.9-8.8,12.7h0ZM462.8,498.1c-1.5-10.7,7.3-9.4,9.1-5.9,3.2,6.2-2.8,9.6-9.1,5.9ZM489.2,504.5c6.9-3,9.8,7,3.6,9.5-2.7,1-5.7-.3-6.6-3.1-1.5-4.4.8-5.4,3-6.3h0ZM463.4,539.4c5-3,12.6,2.6,7.8,7.8-4,4.3-10.9,1.3-7.8-7.8ZM465.7,570.3c-1.8-1.6-4-3-3.5-6,.4-2.6,2.8-4.8,5.8-4.5,5,.6,8.2,9.7-2.3,10.5ZM495.6,585.8c-3.1,5.2-12.4,2.2-9.2-4.9,3-6.5,12.6-.8,9.2,4.9Z"/>
  <path class="st0" d="M550.5,550.5c1.4,19.1,16.6,14.5,43.9,14.5,10,0,16.9-1.5,18.2-11.5,1.3-10-2.5-15.7-10.3-17.3-11.8-2.4-37.5,1.6-42-1.9-2.8-2.1-2.8-8-.7-10.7,3.3-4.1,20.7-2.3,27.1-2.4,11.3,0,14.4-1.4,17.9,3.8,2.2,3.3-2,3.8,8.2,3.4-.7-16.9-11.7-14.4-27.2-14.4-12.6,0-29.7-2.9-33.8,7.2-2.2,5.4-1.7,12.5,1.3,16.9,8.2,11.8,47.2-1.1,51.6,8.8,6.7,14.8-21.1,10.5-27.9,10.5s-14.4,1.5-17.4-2.5l-2.3-4.5h-6.6,0Z"/>
  <path class="st0" d="M827.4,564.5l7,.5c.6-44.6-5.6-43.7,26.5-43.8,8.9,0,18.9-1.8,20.8,7.7,3.6,18.2-18.1,14.2-39.4,14.2v7.4c31.3.2,39.7-4.1,39.8,14.2l7.3.3c.2-9.9-.4-12.8-5-18.3,6.3-6.7,12.5-32.5-14.7-32.6-46.3,0-43-3-42.3,50.4h0Z"/>
  <path class="st0" d="M744.7,546.9c-6.2,11.2,3.1,10.5-28.5,10.6-18.3,0-19.6-.2-19.6-18.8,0-17.7,3.8-17.4,20.7-17.4,28.3,0,21.6-.5,27.4,10.8h6.7c-.1-21.3-16.3-17.9-35.2-17.9-24.3,0-26.6,2.5-26.7,26.8,0,24.1,6.1,24.2,28.9,24.1,16.3,0,35.9,1.5,32.6-18.2l-6.2.2h0Z"/>
  <path class="st0" d="M682.1,557.5c-12.4-.1-24.9,0-37.3,0-17.2,0-17.3-2.1-17.3-18.8,0-22.9,7.9-17,54.9-17.4v-7.1c-14.2-.3-30-.5-44.1,0-17.2.5-17.7,9.4-17.7,25.7,0,30.6,8.8,25.8,61.9,25.2l-.3-7.4h0Z"/>
  <path class="st0" d="M758.5,514.2c-.1,7.7-.9,35.8,1.1,41.3,4.4,11.7,17.8,9.5,31.1,9.5,14.1,0,26,1.3,29.1-11.5,1.2-5.1,1.3-34.4,0-39.5l-6.3.2c-1.8,8.5.2,23.8-.5,33.3-1,13.2-12.1,10-24.4,10-27.8,0-22.5,0-23-36.4l-1.2-7h-5.9c0,0,0,0,0,0Z"/>
  <polygon class="st0" points="634.8 543.2 682.4 543.3 682.2 535.7 635.2 535.6 634.8 543.2"/>
  <g class="st1">
    <text class="st2" transform="translate(37.5 574.1)"><tspan x="0" y="0">widya</tspan></text>
  </g>
</svg>