<?xml version="1.0" encoding="UTF-8"?>
<svg id="Layer_1" xmlns="http://www.w3.org/2000/svg" version="1.1" xmlns:xlink="http://www.w3.org/1999/xlink" viewBox="0 0 1080 1080">
  <!-- Generator: Adobe Illustrator 29.4.0, SVG Export Plug-In . SVG Version: 2.1.0 Build 152)  -->
  <defs>
    <style>
      .st0 {
        font-size: 144.07px;
      }

      .st0, .st1, .st2 {
        fill: #1f5488;
      }

      .st0, .st2 {
        font-family: FoxontheRun, 'Fox on the Run';
      }

      .st3 {
        fill: url(#linear-gradient);
      }

      .st2 {
        font-size: 144.11px;
      }
    </style>
    <linearGradient id="linear-gradient" x1="418.74" y1="517.7" x2="641.99" y2="517.7" gradientUnits="userSpaceOnUse">
      <stop offset="0" stop-color="#26a7df"/>
      <stop offset=".19" stop-color="#25a1d9"/>
      <stop offset=".43" stop-color="#2492c9"/>
      <stop offset=".69" stop-color="#2279af"/>
      <stop offset=".97" stop-color="#1f578b"/>
      <stop offset="1" stop-color="#1f5488"/>
    </linearGradient>
  </defs>
  <g>
    <path class="st1" d="M592.8,663.6v-42.87h-164.49c-19.35,0-35.09-15.74-35.09-35.09v-134.14c0-19.35,15.74-35.09,35.09-35.09h178.31c19.35,0,35.09,15.74,35.09,35.09v134.14c0,1.55-.1,3.1-.31,4.62-3.08,44.36-38.86,67.24-40.39,68.19l-8.22,5.15ZM428.3,427.15c-13.42,0-24.35,10.92-24.35,24.35v134.14c0,13.42,10.92,24.34,24.35,24.34h175.24v32.86c2.61-2.36,5.62-5.35,8.64-8.95,11.19-13.33,17.42-28.31,18.51-44.55l.04-.39c.15-1.09.23-2.21.23-3.32v-134.14c0-13.43-10.92-24.35-24.35-24.35h-178.31Z"/>
    <path class="st3" d="M482.56,583.34s-.09,0-.13,0c-2.53-.06-4.71-1.79-5.34-4.23l-17.68-68.17-2.37,7.25c-.76,2.33-2.93,3.9-5.38,3.9h-27.26c-3.12,0-5.65-2.53-5.65-5.65s2.53-5.65,5.65-5.65h23.16l7.09-21.73c.78-2.39,3.02-3.98,5.55-3.9,2.51.08,4.67,1.8,5.3,4.23l17.54,67.62,31.2-100.95c.74-2.39,2.98-4.01,5.47-3.98,2.51.03,4.69,1.71,5.37,4.12l28.42,100.83,16.33-56.85c.7-2.42,2.91-4.09,5.44-4.09h61.07c3.12,0,5.65,2.53,5.65,5.65s-2.53,5.65-5.65,5.65h-56.81l-20.64,71.86c-.7,2.42-2.91,4.09-5.44,4.09h-.01c-2.53,0-4.74-1.69-5.43-4.12l-28.62-101.54-31.43,101.68c-.73,2.37-2.93,3.98-5.4,3.98Z"/>
  </g>
  <text class="st2" transform="translate(40 554.41)"><tspan x="0" y="0">widya</tspan></text>
  <text class="st0" transform="translate(658.35 553.01)"><tspan x="0" y="0">wicara</tspan></text>
</svg>