<?xml version="1.0" encoding="UTF-8"?>
<svg id="Layer_1" xmlns="http://www.w3.org/2000/svg" version="1.1" viewBox="0 0 1080 1080">
  <!-- Generator: Adobe Illustrator 29.5.1, SVG Export Plug-In . SVG Version: 2.1.0 Build 141)  -->
  <defs>
    <style>
      .st0, .st1 {
        fill: #1a5689;
      }

      .st1 {
        fill-rule: evenodd;
      }
    </style>
  </defs>
  <path class="st1" d="M325.5,525.4c0,4.2,3.4,3.2,10.4,3.1,5.7,0,17.5,1.8,22.7,3,3.1.7,7.4,2,9.9,3.2,3.8,1.9,8.6,4.4,11.7,7.5,3.5,3.5,2.2,1.7,6.3,6.6,1,1.2,1.9,2.6,2.7,3.9,1.5,2.4,3.4,6.1,4.1,9.1,2.5,10.8-3.3,41.1,24.7,52.8,12.1,5,23.3,6.1,36.5,3.9,13.5-2.3,1.1-7.8,8.6-15.9.6-.7,1.3-1.2,1.9-1.9,2.3-3,.6-4.6.3-6,1.9-2.9,1.3-1.5,1.3-5,2.6-.2,3.1-2.1,3.1-4.1s-.9-2.4-1.3-3.1c3.5,0,8.2-.3,10.7-1.2,4-1.4,5.3-4.3,5.3-8.2s-1.5-2.6-1.9-3.1c-.7-1.1-1.2-2-2-3.1l-10.1-15.6c-.8-1.2-1.4-2.1-2.1-3.3,2.9-.2,5.6-2.5,5.6-6.3s-1.4,2.8-8.2,1.3c.6-2.2,5.3-6.1,5.3-23.2s-.7-10.8-1.6-15.4c-1.7-8.3-5.7-17-10.9-23.3l-3.9-4.5c-3-3.4-2-1.9-4.4-4.4-10.5-10.7-33.6-19.5-49.2-19.5s-23.8,1.4-34.4,6.7c-2,1-3.9,1.8-5.8,3-8.4,5.1-13,9.1-19.5,16.3-9.8,11-15.9,31.5-15.9,46.8h0ZM462.2,540.2h-26.3c-1,.2-1.9,1.1-1.9,2.2,0,1.6,7.7,6.5,9.3,7.6l7.5,5.3c.8.6,2.2,1.2,2.2,2.2v16.3c0,4.5-6.3,6.3-10.4,7.8-8.5,3.1-8.9,6.1-10.9,7.6-2.6-1.4-4.1-2.7-5.9-5.1-1-1.4-3.5-5.5-3.5-7.4,3.8-1,7.1-8.7,2.3-13.6-5.4-5.6-15.5-2.3-15.5,6s7.4,8.5,8.1,8.8c.9.4.7.5,1.1,1.7,2.4,6.2,6.2,10.9,12.1,14-.7,3.1-.3,16.3-.3,20.4-4.3,0-13.2-4.3-16.8-6.7-11.5-7.6-13.8-19.4-14.9-32.8-.8-9.1.9-10.7-3.6-20.3-2.3-5.1-7.3-11.4-11.5-14.8-2.1-1.7-2-2-5.1-4-8.3-5.5-15.5-7.7-26.2-9.5-4.7-.8-11.2-1.5-16.3-1.5-1.9,0-3.3-.3-5.6-.3,0-13.5,4.8-28,12.1-39,3.4-5.1,7.6-9,12.3-12.8,18.7-15.3,45.9-18.9,68.8-10.6,7.9,2.9,15.3,7,21.7,12.2,4.6,3.7,4.2,4,7.5,7.2,4.5,4.5,8.6,12.2,10.9,18.3.9,2.3,1.4,5.4,1.9,7.9.4,2.5,1,6,1,8.7s.2,2.9.3,4.4c.2,2.4-.9,10.5-1.5,13.2-.9,3.6-2.6,5.7-2.8,6.9h0s0,0,0,0ZM443.7,544.5h15.1c1.3,2.5,1.4,3.8-.9,5.7-3.9,3.4-4.5,1.2-9-1.8-1.1-.8-4.6-3.1-5.2-3.9h0ZM417.7,564.6c6.6,0,6,8.8.3,8.8s-4.1-2.1-4.3-4.2c-.2-2.3,1.8-4.6,4-4.6h0ZM463.2,581.9c0,2,.5,2.2,1.6,3.8-.6.3-1.7.8-2.3,1.2-2.2,1.8-.7,3.7-.6,4.8-2.6,0-5,.6-8.5.6-6,0-14.8.5-19.8-2.2,1.3-4.8,12.2-7.6,17-10,4.7-2.4,4.1-5.5,4.1-9.4v-13.8c2.9-.7,8.5-3.9,8.8-6.9,1.3.3,2.1,2.5,3.4,4.5l12.8,19.8c.9,4.1-9.4,3.7-12,4-1.9.3-4.5,1.4-4.5,3.7h0ZM456.3,613.6c-2.5,1.2-11.8,1.6-15.7,1.6s-5.6-.6-8.5-.6v-20.1c1.2,0,.7.1,1.7.5,6.4,2.1,17.2,2.5,24,1.7,1.1-.1,2.8-.9,3.4.6.5,1.2-1,2-1.7,2.7-5.4,5.7-3.2,9.9-3.2,13.7h0Z"/>
  <path class="st1" d="M40,587.2c0,9.9,9.3,18.8,20.1,18.8s12.5.6,18.5-1.6c1.2-.4,2.2-1,3.3-1.7,1.1-.7,2-1.6,3-2.3,4.5,3,6.9,5.7,14.8,5.7s16.1,1.1,24-5.5c3.1-2.6,6.1-8,6.1-13.6v-38.6h-11.3v36.4c0,12-10.4,10-19.1,10s-8.8-3.8-8.8-8.5v-37.9h-11.3v38.6c0,4.3-4.2,7.8-8.8,7.8-7,0-16,1.4-18.5-5.3-.7-1.9-.4-32.1-.3-38.3,0-3.7,1.3-2.8-11.6-2.8,0,0,0,38.9,0,38.9Z"/>
  <path class="st1" d="M246.4,549.2v35.1c0,6,1.3,11.3,5.4,15.3,3.9,3.8,8.6,6.4,14.7,6.4h18.2c3.3,0,6.9-.8,9.1-1.9,0,4.4.3,6.5-2.4,9.2,0,0-.1.1-.1.2-1.6,1.6-3.3,2.5-5.9,2.5h-30.8v11.3h31.1c10.1,0,19.5-8.7,19.5-18.2v-60.8h-11.3v38.6c0,4.3-4.2,7.8-8.8,7.8h-18.2c-4.5,0-8.8-3.6-8.8-7.5v-38.9h-10.6c-.7,0-.9.2-.9.9h0Z"/>
  <path class="st1" d="M219.4,549.9c-1.9-.2-4-1.6-7.5-1.6h-20.4c-2.5,0-5.7,1-7.6,1.8-3.2,1.3-5.9,3.8-7.9,6.5-2.2,2.9-3.6,6.8-3.6,10.9v19.8c0,10,9.4,18.8,20.1,18.8h18.5c10.8,0,20.1-8.7,20.1-19.5v-58c0-.7-.2-.9-.9-.9-12.7,0-10.7-1.1-10.6,4.7v17.6h0ZM184,587.5v-20.7c0-3.6,4.2-7.2,7.9-7.2h19.8c3.3,0,7.9,3.6,7.9,6.6v21.7c0,1.7-1.8,4-3,4.9-1.7,1.3-3.4,2-6.1,2h-17.2c-4.7,0-9.1-3.2-9.1-7.2h0Z"/>
  <path class="st1" d="M320.5,567.1v20.4c0,9.9,9.4,18.5,20.1,18.5h18.5v-11.3h-18.5c-2.6,0-4.8-1.2-6.2-2.6-1.7-1.7-2.6-3.2-2.6-6.5v-17.6c0-4.8,4.5-8.5,8.2-8.5h19.1c4.2,0,8.5,3.5,8.5,7.5v38.9h10.6c.7,0,1-.2,1-1v-36.4c0-8.7-4.2-14.8-11.6-18.5-2.1-1-5-1.9-8.2-1.9h-19.8c-9.5,0-19.1,8.4-19.1,18.8Z"/>
  <path class="st1" d="M660.5,519.5v69.7c0,5.4,2.9,10,5.7,12.8,3.1,3,7.7,5.1,13.7,5.1h32.3c7.6,0,14.2-3.2,17.8-9.8.9-1.8,2-4.9,2-7.4v-25.1c0-9.1-8.4-17.3-19.2-17.3h-45.2v-27.9c0-5.1-7.2-5.6-7.2,0h0ZM713.8,599.8h-34.8c-6.2,0-11.3-4.8-11.3-10.3v-34.8h46.1c6.5,0,11.3,4.8,11.3,11.3v22.6c0,4.7-2.4,8.4-6.6,10.3-1.2.6-3,.9-4.7.9h0Z"/>
  <path class="st1" d="M968.2,563.4c0,10.5,8.5,16.5,17.9,17.2,4,.3,28.8,0,33.9,0,4.2,0,6.4.6,8.9,2.4,5.2,3.8,5.4,9.6.1,14.1-1.9,1.6-4.6,2.6-8,2.6h-48c-6.5,0-5.6,7.2-.3,7.2h46.7c16.8,0,24.9-14.2,18.3-24.9-1.1-1.8-2.3-2.9-3.9-4.2-5.6-4.6-12.1-4.5-19.7-4.5h-16c-4.7,0-11.8.6-15.4-.6-12-4.1-8.1-17.1,2.3-18.2,2.8-.3,40.7,0,48,0,9,0,6.2-7.2,2.5-7.2h-49.2c-4.8,0-8.8,2.1-12.2,4.7-2.7,2.1-5.7,6.5-5.7,11.3h0Z"/>
  <path class="st1" d="M572.4,564.6v25.1c0,2.5,1,5.5,1.9,7.2,3.5,6.8,10.2,10.1,17.9,10.1h40.2c5.1,0,9-1.4,12.6-4.3.5-.4.9-.6,1.4-1.1l2.1-2.6c.8-1.1,1.3-1.9,1.8-3.2.8-2.4,1.5-4.9,1.5-8.2v-21c0-5.7-2-10.4-4.9-13.2-3.3-3.3-7.4-5.9-12.6-5.9h-43.9c-2.8,0-5.3.7-7.2,1.6-1,.4-2,1-2.8,1.5-4.4,3.2-7.8,8.4-7.8,14.1h0ZM633.2,599.8h-43c-5.3,0-10.7-4.7-10.7-10v-25.7c0-4.3,4.9-9.4,10-9.4h45.2c4.5,0,9.7,5,9.7,10.7v23.2c0,6.5-4.8,11.3-11.3,11.3h0Z"/>
  <path class="st1" d="M743.7,564.3v25.4c0,5.3,2.7,9.2,6,12.5,3.1,3,7.7,4.8,13.7,4.8h40.2c5.2,0,9.2-1.4,12.8-4.5l2.5-2.5c.5-.5.7-.8,1.1-1.4,2.3-3.6,3.1-7.3,3.1-12v-18.5c0-6.5-1.5-11-4.6-14.5-2.5-2.9-7.6-6.2-12.9-6.2h-44.5c-8.7,0-17.2,8.2-17.2,16.9h0ZM750.5,587.5v-20.7c0-3.6,1-6.6,2.7-8.5,1.6-1.8,4.4-3.7,7.6-3.7h45.2c4.7,0,9.7,5.1,9.7,11.3v22.3c0,3.4-1.4,6.4-3.1,8.2-1.9,2.1-5.1,3.4-8.2,3.4h-42.7c-6.9,0-11.3-5.2-11.3-12.2h0Z"/>
  <path class="st1" d="M891.1,565.6v23.5c0,9.7,8.3,17.9,19.4,17.9h46.1c4.6,0,5.6-4.9,2.8-6.6-1.1-.7-2.3-.6-4.1-.6-7.3,0-45,.4-47.8-.2-5.3-1-9.3-5.3-9.3-10.2v-24.5c0-5,4.3-9.3,8.6-10.2,2.2-.5,40.3-.1,47.2-.1,3.6,0,6.9.3,6.9-4.1s-1.7-3.1-3.8-3.1h-48.6c-9.2,0-17.6,8.4-17.6,18.2h0Z"/>
  <path class="st1" d="M831.8,518.5v71.8c0,2.4,1.2,5.3,2.1,7,1.3,2.3,2.3,3.2,4.1,5,5.5,5.5,14.6,4.6,22.7,4.6s2.6-.3,3.3-.7c1.7-1.1,2.3-5.1-.8-6.2-2-.8-11.1.3-15.3-.4-5.3-1-9.3-5.4-9.3-11.5v-33.9h23.2c4.5,0,4.5-6.9.3-6.9h-23.5v-28.5c0-2.4-2.9-4.6-5.7-2.6-.7.5-1.2,1.2-1.2,2.3h0Z"/>
  <path class="st1" d="M499.9,563.4v40.5c0,2.5,3,3.8,5.2,2.4,2.1-1.4,1.7-4.2,1.7-7.4,0-4.8-.3-34.1.1-36.3.5-2.5,1.9-4.3,3.4-5.7,1.3-1.2,4.1-2.6,6.5-2.6h31.7c6,0,9.6,4.7,10.3,10.4.7,5.8,6.6,3.9,6.6.6,0-10.4-8-17.9-16.9-17.9h-31.7c-4.7,0-9,2.5-11.5,4.8-2.8,2.6-5.4,7.4-5.4,11.2h0Z"/>
  <path class="st1" d="M348.1,499.1c0,8.6,4.6,13.8,11.2,17,3.4,1.7,5.7,2.7,10,3.5,13.8,2.5,22.5,0,31.4,9,5,5,9.1,8.1,18.9,8.1s8.9-.9,11.9-1.9c25.1-9,21.9-39.5,3-53.8-17.7-13.4-48.9-15.2-67.6-5.8-8.1,4-18.8,13.8-18.8,23.8h0ZM351.2,501c0-5.8,2.1-9.3,5.4-13.8,4.9-6.5,13.9-11.1,21.9-13,9.5-2.2,16.5-1.9,26.1-1.2,13.7,1.1,28.2,7.5,36.2,19,7.1,10.3,8.2,27.1-2,35.3-7.3,5.9-21.5,8.5-30.1,3.9-3.3-1.8-4.2-3.7-6.8-5.7-2.4-1.9-3.8-3.7-7.4-5.1-10.8-4.1-28.9-.7-39.2-10.9-1.9-1.9-4-4.9-4-8.5h0Z"/>
  <rect class="st0" x="145.4" y="548.3" width="11.3" height="57.7"/>
  <path class="st1" d="M375,484.9c0,2.7,1.8,3.8,4.4,3.8.3,1.2,1.4,3.2,1.9,4.4,2.3,5.2-.4,4.1,14.1,4.1v3.1c-15.3,0-10.9-1-15.3,2.9-1.3,1.1-2.3,1.6-3.2,3.1-6-1.4-6.5,3.7-4.6,5.6,2.4,2.4,8,.5,5.6-4.6,8.9-6-1.1-5.3,17.9-5.3.1,4.6,5.6,9.3,11,9.7v7.2c1.3.3,3.5,1.6,4.7,2.2,1.6.8,3.1,1.8,5,2.2,0,7,6.9,4.9,6.9,1.6s-2.7-4.9-5.1-3.5c-1.3.7-.5,1-4.3-.9-1-.5-1.9-.9-2.9-1.5-3.3-1.6-2.7-.3-2.7-7.3,5.8-.1,11.6-5.4,11.6-11.3h6.3c.3,1,4.3,6.5,5,7.5-3.7,7,6.3,7.9,6.3,2.5s-.7-2.2-1.4-2.7c-1-.8-2-.7-3.6-.7-.4-.9-5.2-8.5-6.3-8.5h-6.3c0-3.1-1.1-3.5-1.6-5.6l3.2-3.4c.3,0,1.4.6,1.8.6,5.3,0,4.6-7.2.3-7.2s-2.6,1-3.1,1.9c-.9,1.6-.4,2.1,0,3.8-.8.5-1,.9-1.6,1.5-.6.6-1.1.9-1.8,1.3-2.6-1.7-4.4-4.1-9.4-4.1s-8,2.2-10,5.1c-.7,1-1.5,2-1.6,3.4h-11.9c-.2-.9-1.1-3-1.6-3.8-.7-1.4-1.2-2.9-1.9-3.8.8-1.2,1.9-2,1.3-3.8-1.3-4.3-7-3.1-7,.7h0ZM376.6,484.9c1-1.9,1-1.8,3.5-1.3.5,2.2.7,3.1-1.9,3.1s-1.2-1.1-1.6-1.9h0ZM421.8,486.5c0-.9.1-.9.3-1.6,4.9-1.1,3.9,3.1,1.6,3.1s-.9-.2-1.6-.3c-.2-.8-.3-.6-.3-1.2h0ZM399.8,499.4c0-2.3,1-4.4,2.3-5.5,8-7.2,18.2,4.1,11.1,11.1-2.8,2.8-7.8,3-11.1,0-1.2-1.1-2.3-3.2-2.3-5.6h0ZM374.7,511.3c-2,0-2.3-3.8.3-3.8s2.8,3.8-.3,3.8ZM435.3,511.9c-1.8.4-.6.5-2.8,0-1.1-4.6,2.4-3.8,3.2-2.2.3.8,0,1.4-.4,2.2ZM418,524.5c0-1.1.4-1.6,1.2-1.9.8-.3,1.4,0,2.2.4,1.1,4.7-3.5,3.3-3.5,1.6h0Z"/>
  <path class="st1" d="M873.2,550.8v52.1c0,5.6,7.2,4.8,7.2.3v-51.8c0-5.6-7.2-5.1-7.2-.6h0Z"/>
  <rect class="st0" x="145.4" y="527.3" width="11.3" height="11.6"/>
  <path class="st1" d="M873.2,536.1v3.8c0,5.2,7.2,5.3,7.2-.3s.4-6.9-3.5-6.9-3.8,1.4-3.8,3.5h0Z"/>
</svg>