<?xml version="1.0" encoding="UTF-8"?>
<svg id="Layer_1_copy" data-name="Layer 1 copy" xmlns="http://www.w3.org/2000/svg" viewBox="0 0 390.15 240">
  <g>
    <g>
      <path d="M100.07,13.02h-45.02v104.69h29.01v-29.9h14.51c25.88,0,44.87-13.01,44.87-37.84v-.3c0-23.19-17.05-36.65-43.38-36.65ZM114.58,51.32c0,8.38-6.43,13.76-16.6,13.76h-13.91v-27.67h13.76c10.32,0,16.75,4.65,16.75,13.62v.3Z" style="fill: #e2c665; fill-rule: evenodd;"/>
      <polygon points="235.43 92.29 235.43 117.72 155.71 117.72 155.71 13.02 184.72 13.02 184.72 92.29 235.43 92.29" style="fill: #e2c665; fill-rule: evenodd;"/>
    </g>
    <rect x="326.98" y="14.21" width="29.02" height="104.69" style="fill: #e2c665;"/>
    <path d="M313.2,106.15l-7.4-12.82-43.51-75.35c-1.6-2.77-4.57-4.48-7.77-4.48s-6.17,1.7-7.77,4.48l-7.36,12.75-30.55,52.9h25.19l17.95-31.08,2.53,4.39,2.09,3.61,18.92,32.77.04.06h-25.27v26.21h55.11c3.21,0,6.18-1.7,7.78-4.49,1.6-2.77,1.6-6.19,0-8.97Z" style="fill: #e2c665; fill-rule: evenodd;"/>
  </g>
  <g>
    <polygon points="150.09 130.07 178.14 130.07 201.23 167.33 224.32 130.07 252.36 130.07 252.25 226.77 226.97 226.77 227.09 170.58 201.23 207.37 175.36 170.58 175.48 226.77 150.21 226.77 150.09 130.07" style="fill: #e2c665; fill-rule: evenodd;"/>
    <path d="M136.07,183.95c-3.21-4.06-8.18-6.96-14.95-8.63,4.46-1.59,7.84-3.75,10.17-6.5,3.47-4.12,5.19-9.04,5.19-14.79,0-6.82-2.43-12.56-7.3-17.21-4.85-4.62-11.82-6.96-20.9-6.96h-52.99v35.41c8.67-2.05,17.25-3.43,25.67-3.63v-10.37l17.83.27c4.4.07,7.5.79,9.31,2.39,3.52,3.15,3.71,8.52,0,11.88-1.79,1.62-4.96,2.49-9.5,2.42-12.59-.19-25.84-.68-38.34,1.94-17.29,3.63-35.83,14.08-20.25,34.09,3.29-8.21,7.87-13.84,15.28-13.81v36.52h48.73c2.16,0,6.5-.46,13.06-1.33,4.93-.67,8.62-1.73,11.05-3.17,3.96-2.35,7.05-5.52,9.32-9.54,2.27-4.02,3.41-8.55,3.41-13.59,0-6.17-1.6-11.31-4.78-15.4ZM113.36,200.08l-.11.19-.05.11-.11.19-.07.1-.05.1-.07.1-.05.1-.07.1-.14.19-.07.08h0s-.08.1-.08.1l-.07.1-.08.1-.07.08c-.34.39-.71.77-1.13,1.14-2.04,1.82-5.57,2.69-10.59,2.73l-19.59.19v-18.31l19.5-.18h1.4s.23.01.23.01h.22s.22.01.22.01h0s.22.01.22.01h.22s.22.03.22.03h.2s.22.04.22.04h.2s.2.04.2.04h.2s.2.04.2.04h.19s.19.04.19.04l.2.03.19.03.19.03.18.04.19.03.18.03.18.04.18.03.18.04.18.04.18.04.16.04.16.04.16.04.16.05.16.04.15.04.16.05.15.05.15.05.15.04c.29.11.57.23.84.35l.14.05.12.07.14.05.12.07.12.07.12.07.12.07.11.07.12.08.11.07.11.07.11.08.11.07.1.08.11.08.48.41.08.08h.01l.08.07h0s.08.08.08.08l.1.08.41.41.07.07.08.08.07.08.08.08.07.08.07.08.14.16.05.08.07.08c.87,1.16,1.32,2.43,1.32,4.32,0,1.64-.3,2.96-.88,4.1Z" style="fill: #e2c665; fill-rule: evenodd;"/>
    <path d="M303.49,129.91h-39.39v97.02h39.39c70.73,0,69.29-97.02,0-97.02ZM299.94,202.62h-8.52v-48.48h8.69c37.87,0,38.56,48.48-.16,48.48Z" style="fill: #e2c665; fill-rule: evenodd;"/>
  </g>
</svg>