<?xml version="1.0" encoding="UTF-8"?>
<svg id="Layer_1" data-name="Layer 1" xmlns="http://www.w3.org/2000/svg" viewBox="0 0 900 240">
  <g>
    <g>
      <path d="M77.36,59.76H22.02v128.71h35.67v-36.76h17.83c31.81,0,55.17-15.99,55.17-46.52v-.36c0-28.51-20.96-45.06-53.33-45.06ZM95.2,106.84c0,10.3-7.9,16.91-20.4,16.91h-17.1v-34.02h16.91c12.69,0,20.59,5.71,20.59,16.74v.36Z" style="fill: #e2c665; fill-rule: evenodd;"/>
      <polygon points="243.77 157.21 243.77 188.47 145.76 188.47 145.76 59.76 181.43 59.76 181.43 157.21 243.77 157.21" style="fill: #e2c665; fill-rule: evenodd;"/>
    </g>
    <rect x="354.11" y="59.77" width="35.67" height="128.71" style="fill: #e2c665;"/>
    <path d="M337.17,172.79l-9.09-15.76-53.48-92.63c-1.97-3.41-5.62-5.51-9.55-5.51s-7.58,2.09-9.55,5.51l-9.04,15.68-37.56,65.04h30.97l22.07-38.21,3.11,5.39,2.57,4.44,23.26,40.28.05.08h-31.07v32.22h67.75c3.95,0,7.6-2.09,9.57-5.52,1.97-3.41,1.97-7.62,0-11.03Z" style="fill: #e2c665; fill-rule: evenodd;"/>
  </g>
  <g>
    <polygon points="605.38 60.04 642.51 60.04 673.08 109.37 703.65 60.04 740.78 60.04 740.63 188.06 707.17 188.06 707.32 113.66 673.08 162.38 638.84 113.66 639 188.06 605.54 188.06 605.38 60.04" style="fill: #e2c665; fill-rule: evenodd;"/>
    <path d="M586.82,131.36c-4.25-5.38-10.83-9.21-19.79-11.43,5.9-2.11,10.38-4.97,13.46-8.6,4.59-5.45,6.87-11.97,6.87-19.58,0-9.03-3.22-16.63-9.66-22.78-6.42-6.12-15.65-9.21-27.67-9.21h-70.16v46.87c11.48-2.72,22.83-4.53,33.99-4.8v-13.73l23.61.36c5.83.09,9.93,1.04,12.33,3.17,4.66,4.17,4.91,11.28,0,15.73-2.38,2.14-6.57,3.29-12.58,3.2-16.66-.25-34.2-.9-50.76,2.57-22.89,4.8-47.43,18.64-26.81,45.13,4.35-10.87,10.42-18.32,20.22-18.28v48.35h64.51c2.86,0,8.6-.61,17.29-1.76,6.53-.88,11.41-2.29,14.63-4.19,5.24-3.11,9.34-7.31,12.34-12.63,3-5.33,4.52-11.32,4.52-17.99,0-8.17-2.12-14.97-6.33-20.39ZM556.76,152.72l-.14.25-.07.14-.14.25-.09.13-.07.13-.09.13-.07.13-.09.13-.18.25-.09.11v.02l-.11.11-.09.13-.11.13-.09.11c-.45.52-.94,1.03-1.49,1.51-2.7,2.41-7.38,3.56-14.02,3.62l-25.93.25v-24.24l25.82-.23h1.55l.31.02h.31l.29.02h.29v.02h.29l.29.02.29.02.27.02.29.04.27.02.27.04.27.02.27.04.25.02.25.04.27.04.25.04.25.04.23.05.25.04.23.04.23.05.23.04.23.05.23.05.23.05.22.05.22.05.22.05.22.07.22.05.2.05.22.07.2.07.2.07.2.05c.38.14.76.31,1.12.47l.18.07.16.09.18.07.16.09.16.09.16.09.16.09.14.09.16.11.14.09.14.09.14.11.14.09.13.11.14.11.63.54.11.11h.02l.11.09v.02l.11.09.13.11.54.54.09.09.11.11.09.11.11.11.09.11.09.11.18.22.07.11.09.11c1.15,1.53,1.75,3.22,1.75,5.72,0,2.18-.4,3.92-1.17,5.43Z" style="fill: #e2c665; fill-rule: evenodd;"/>
    <path d="M808.46,59.82h-52.14v128.43h52.14c93.64,0,91.73-128.43,0-128.43ZM803.77,156.09h-11.28v-64.18h11.5c50.13,0,51.05,64.18-.22,64.18Z" style="fill: #e2c665; fill-rule: evenodd;"/>
  </g>
</svg>