<?xml version="1.0" encoding="UTF-8"?>
<svg id="Layer_4" data-name="Layer 4" xmlns="http://www.w3.org/2000/svg" viewBox="0 0 500 400">
  <g>
    <path d="M306.86,167c13.7-2.51,26.91-10.36,37.45-23.55-10.54-13.19-23.75-21.04-37.45-23.55-8.93,12.93-23.12,21.51-40.38,23.55-5.23.62-10.74.64-16.48,0,4.51,3.6,8.39,7.51,11.65,11.65,10.76,13.66,14.73,29.75,11.9,45.21,11.47,7.92,26.35,11.7,43.14,9.83,1.87-16.78-1.91-31.67-9.83-43.14Z" style="fill: #e2c665; fill-rule: evenodd; stroke: #e2c665; stroke-miterlimit: 22.93; stroke-width: 3.12px;"/>
    <path d="M193.14,167c8.93-12.93,23.12-21.51,40.38-23.55,5.23-.62,10.74-.64,16.48,0-4.51-3.6-8.39-7.51-11.65-11.65-10.76-13.65-14.73-29.75-11.9-45.21-11.46-7.92-26.35-11.7-43.14-9.83-1.87,16.78,1.91,31.67,9.83,43.14-13.7,2.51-26.91,10.36-37.45,23.55,10.54,13.19,23.74,21.05,37.45,23.55Z" style="fill: #e2c665; fill-rule: evenodd; stroke: #e2c665; stroke-miterlimit: 22.93; stroke-width: 3.12px;"/>
    <path d="M250,237.76c13.19-10.54,21.05-23.75,23.55-37.45-12.93-8.93-21.5-23.12-23.55-40.38-.62-5.23-.64-10.74,0-16.48-3.6,4.51-7.51,8.39-11.65,11.65-13.66,10.77-29.75,14.73-45.21,11.9-7.92,11.47-11.7,26.35-9.83,43.14,16.79,1.87,31.67-1.91,43.14-9.83,2.51,13.7,10.36,26.91,23.55,37.45Z" style="fill: #e2c665; fill-rule: evenodd; stroke: #e2c665; stroke-miterlimit: 22.93; stroke-width: 3.12px;"/>
    <path d="M273.55,86.59c-2.51-13.7-10.36-26.91-23.55-37.45-13.19,10.54-21.04,23.75-23.55,37.45,12.93,8.93,21.5,23.12,23.55,40.38.62,5.23.64,10.74,0,16.48,3.6-4.51,7.51-8.39,11.65-11.65,13.65-10.76,29.75-14.73,45.21-11.9,7.92-11.46,11.7-26.35,9.83-43.14-16.78-1.87-31.67,1.91-43.14,9.83Z" style="fill: none; fill-rule: evenodd; stroke: #e2c665; stroke-miterlimit: 22.93; stroke-width: 3.12px;"/>
  </g>
  <g>
    <g>
      <path d="M70.08,284.46h-26.72v62.14h17.22v-17.75h8.61c15.36,0,26.64-7.72,26.64-22.46v-.18c0-13.77-10.12-21.76-25.75-21.76ZM78.69,307.19c0,4.97-3.81,8.17-9.85,8.17h-8.26v-16.42h8.17c6.13,0,9.94,2.76,9.94,8.08v.18Z" style="fill: #e2c665; fill-rule: evenodd;"/>
      <polygon points="150.42 331.51 150.42 346.6 103.1 346.6 103.1 284.46 120.33 284.46 120.33 331.51 150.42 331.51" style="fill: #e2c665; fill-rule: evenodd;"/>
    </g>
    <rect x="203.7" y="284.46" width="17.22" height="62.14" style="fill: #e2c665;"/>
    <path d="M195.52,339.03l-4.39-7.61-25.82-44.72c-.95-1.65-2.71-2.66-4.61-2.66s-3.66,1.01-4.61,2.66l-4.37,7.57-18.13,31.4h14.95l10.66-18.45,1.5,2.6,1.24,2.14,11.23,19.45.02.04h-15v15.56h32.71c1.91,0,3.67-1.01,4.62-2.67.95-1.65.95-3.68,0-5.32Z" style="fill: #e2c665; fill-rule: evenodd;"/>
    <g>
      <polygon points="325.02 284.59 342.95 284.59 357.71 308.41 372.47 284.59 390.4 284.59 390.32 346.4 374.17 346.4 374.24 310.49 357.71 334.01 341.18 310.49 341.25 346.4 325.1 346.4 325.02 284.59" style="fill: #e2c665; fill-rule: evenodd;"/>
      <path d="M316.06,319.03c-2.05-2.6-5.23-4.45-9.56-5.52,2.85-1.02,5.01-2.4,6.5-4.15,2.22-2.63,3.32-5.78,3.32-9.45,0-4.36-1.56-8.03-4.67-11-3.1-2.95-7.56-4.45-13.36-4.45h-33.87v22.63c5.54-1.31,11.02-2.19,16.41-2.32v-6.63l11.4.17c2.81.04,4.8.5,5.95,1.53,2.25,2.02,2.37,5.45,0,7.59-1.15,1.03-3.17,1.59-6.07,1.55-8.04-.12-16.52-.43-24.51,1.24-11.05,2.32-22.9,9-12.94,21.79,2.1-5.25,5.03-8.84,9.76-8.83v23.34h31.15c1.38,0,4.15-.3,8.35-.85,3.15-.43,5.51-1.1,7.06-2.02,2.53-1.5,4.51-3.53,5.96-6.1,1.45-2.57,2.18-5.46,2.18-8.69,0-3.94-1.03-7.23-3.06-9.84ZM301.54,329.34l-.07.12-.03.07-.07.12-.04.06-.03.06-.04.06-.03.06-.04.06-.09.12-.04.05h0s-.05.06-.05.06l-.04.06-.05.06-.04.05c-.22.25-.45.5-.72.73-1.3,1.16-3.56,1.72-6.77,1.75l-12.52.12v-11.7l12.47-.11h.89s.15,0,.15,0h.14s.14,0,.14,0h0s.14,0,.14,0h.14s.14.02.14.02h.13s.14.03.14.03h.13s.13.03.13.03h.13s.13.03.13.03h.12s.12.03.12.03l.13.02.12.02.12.02.11.03.12.02.11.02.11.03.11.02.11.03.11.03.11.03.1.03.1.03.1.03.1.03.1.03.1.03.1.03.1.03.1.03.1.03c.18.07.36.15.54.23l.09.03.08.04.09.03.08.04.08.04.08.04.08.04.07.04.08.05.07.04.07.04.07.05.07.04.06.05.07.05.3.26.05.05h0l.05.04h0s.05.05.05.05l.06.05.26.26.04.04.05.05.04.05.05.05.04.05.04.05.09.1.03.05.04.05c.56.74.84,1.56.84,2.76,0,1.05-.19,1.89-.56,2.62Z" style="fill: #e2c665; fill-rule: evenodd;"/>
      <path d="M423.08,284.49h-25.18v62.01h25.18c45.21,0,44.29-62.01,0-62.01ZM420.81,330.97h-5.45v-30.99h5.55c24.2,0,24.65,30.99-.1,30.99Z" style="fill: #e2c665; fill-rule: evenodd;"/>
    </g>
  </g>
</svg>