<?xml version="1.0" encoding="UTF-8"?>
<svg id="Layer_1" data-name="Layer 1" xmlns="http://www.w3.org/2000/svg" viewBox="0 0 900 240">
  <g>
    <path d="M197.69,143.55c13.7-2.51,26.91-10.36,37.45-23.55-10.54-13.19-23.75-21.04-37.45-23.55-8.93,12.93-23.12,21.51-40.38,23.55-5.23.62-10.74.64-16.48,0,4.51,3.6,8.39,7.51,11.65,11.65,10.76,13.66,14.73,29.75,11.9,45.21,11.47,7.92,26.35,11.7,43.14,9.83,1.87-16.78-1.91-31.67-9.83-43.14Z" style="fill: #e2c665; fill-rule: evenodd; stroke: #e2c665; stroke-miterlimit: 22.93; stroke-width: 3.12px;"/>
    <path d="M83.97,143.55c8.93-12.93,23.12-21.51,40.38-23.55,5.23-.62,10.74-.64,16.48,0-4.51-3.6-8.39-7.51-11.65-11.65-10.76-13.65-14.73-29.75-11.9-45.21-11.46-7.92-26.35-11.7-43.14-9.83-1.87,16.78,1.91,31.67,9.83,43.14-13.7,2.51-26.91,10.36-37.45,23.55,10.54,13.19,23.74,21.05,37.45,23.55Z" style="fill: #e2c665; fill-rule: evenodd; stroke: #e2c665; stroke-miterlimit: 22.93; stroke-width: 3.12px;"/>
    <path d="M140.83,214.31c13.19-10.54,21.05-23.75,23.55-37.45-12.93-8.93-21.5-23.12-23.55-40.38-.62-5.23-.64-10.74,0-16.48-3.6,4.51-7.51,8.39-11.65,11.65-13.66,10.77-29.75,14.73-45.21,11.9-7.92,11.47-11.7,26.35-9.83,43.14,16.79,1.87,31.67-1.91,43.14-9.83,2.51,13.7,10.36,26.91,23.55,37.45Z" style="fill: #e2c665; fill-rule: evenodd; stroke: #e2c665; stroke-miterlimit: 22.93; stroke-width: 3.12px;"/>
    <path d="M164.38,63.14c-2.51-13.7-10.36-26.91-23.55-37.45-13.19,10.54-21.04,23.75-23.55,37.45,12.93,8.93,21.5,23.12,23.55,40.38.62,5.23.64,10.74,0,16.48,3.6-4.51,7.51-8.39,11.65-11.65,13.65-10.76,29.75-14.73,45.21-11.9,7.92-11.46,11.7-26.35,9.83-43.14-16.78-1.87-31.67,1.91-43.14,9.83Z" style="fill: none; fill-rule: evenodd; stroke: #e2c665; stroke-miterlimit: 22.93; stroke-width: 3.12px;"/>
  </g>
  <g>
    <g>
      <path d="M305.36,82.01h-34.88v81.12h22.48v-23.17h11.24c20.05,0,34.77-10.08,34.77-29.32v-.23c0-17.97-13.21-28.4-33.61-28.4ZM316.6,111.68c0,6.49-4.98,10.66-12.86,10.66h-10.78v-21.44h10.66c8,0,12.98,3.6,12.98,10.55v.23Z" style="fill: #e2c665; fill-rule: evenodd;"/>
      <polygon points="410.24 143.43 410.24 163.13 348.47 163.13 348.47 82.01 370.95 82.01 370.95 143.43 410.24 143.43" style="fill: #e2c665; fill-rule: evenodd;"/>
    </g>
    <rect x="479.79" y="82.01" width="22.48" height="81.12" style="fill: #e2c665;"/>
    <path d="M469.11,153.25l-5.73-9.93-33.71-58.38c-1.24-2.15-3.54-3.47-6.02-3.47s-4.78,1.32-6.02,3.47l-5.7,9.88-23.67,40.99h19.52l13.91-24.08,1.96,3.4,1.62,2.8,14.66,25.39.03.05h-19.58v20.31h42.7c2.49,0,4.79-1.32,6.03-3.48,1.24-2.15,1.24-4.8,0-6.95Z" style="fill: #e2c665; fill-rule: evenodd;"/>
    <g>
      <polygon points="638.16 82.18 661.56 82.18 680.83 113.27 700.09 82.18 723.49 82.18 723.4 162.87 702.31 162.87 702.41 115.98 680.83 146.69 659.24 115.98 659.34 162.87 638.26 162.87 638.16 82.18" style="fill: #e2c665; fill-rule: evenodd;"/>
      <path d="M626.46,127.14c-2.68-3.39-6.83-5.81-12.47-7.2,3.72-1.33,6.54-3.13,8.48-5.42,2.89-3.44,4.33-7.54,4.33-12.34,0-5.69-2.03-10.48-6.09-14.36-4.05-3.86-9.87-5.81-17.44-5.81h-44.22v29.54c7.24-1.71,14.39-2.86,21.42-3.03v-8.65l14.88.23c3.67.06,6.26.66,7.77,2,2.94,2.63,3.1,7.11,0,9.91-1.5,1.35-4.14,2.08-7.93,2.02-10.5-.16-21.56-.57-31.99,1.62-14.43,3.03-29.89,11.75-16.9,28.44,2.74-6.85,6.57-11.54,12.75-11.52v30.47h40.66c1.8,0,5.42-.39,10.9-1.11,4.12-.56,7.19-1.44,9.22-2.64,3.3-1.96,5.89-4.6,7.78-7.96,1.89-3.36,2.85-7.13,2.85-11.34,0-5.15-1.34-9.44-3.99-12.85ZM607.51,140.6l-.09.16-.05.09-.09.16-.06.08-.05.08-.06.08-.05.08-.06.08-.11.16-.06.07h0s-.07.08-.07.08l-.06.08-.07.08-.06.07c-.28.33-.59.65-.94.95-1.7,1.52-4.65,2.25-8.83,2.28l-16.34.16v-15.28l16.27-.15h1.17s.19.01.19.01h.18s.18.01.18.01h0s.18.01.18.01h.18s.18.02.18.02h.17s.18.03.18.03h.17s.17.03.17.03h.17s.17.03.17.03h.16s.16.03.16.03l.17.02.16.02.16.02.15.03.16.02.15.02.15.03.15.02.15.03.15.03.15.03.14.03.14.03.14.03.14.05.14.03.12.03.14.05.12.05.12.05.12.03c.24.09.48.19.7.29l.11.05.1.06.11.05.1.06.1.06.1.06.1.06.09.06.1.07.09.06.09.06.09.07.09.06.08.07.09.07.4.34.07.07h.01l.07.06h0s.07.07.07.07l.08.07.34.34.06.06.07.07.06.07.07.07.06.07.06.07.11.14.05.07.06.07c.73.96,1.1,2.03,1.1,3.61,0,1.37-.25,2.47-.74,3.42Z" style="fill: #e2c665; fill-rule: evenodd;"/>
      <path d="M766.15,82.05h-32.86v80.95h32.86c59.02,0,57.81-80.95,0-80.95ZM763.19,142.72h-7.11v-40.45h7.25c31.59,0,32.17,40.45-.14,40.45Z" style="fill: #e2c665; fill-rule: evenodd;"/>
    </g>
  </g>
</svg>