<?xml version="1.0" encoding="UTF-8"?>
<svg id="Layer_1_copy" data-name="Layer 1 copy" xmlns="http://www.w3.org/2000/svg" viewBox="0 0 600 240">
  <g>
    <path d="M238.16,143.31c13.7-2.51,26.91-10.36,37.45-23.55-10.54-13.19-23.75-21.04-37.45-23.55-8.93,12.93-23.12,21.51-40.38,23.55-5.23.62-10.74.64-16.48,0,4.51,3.6,8.39,7.51,11.65,11.65,10.76,13.66,14.73,29.75,11.9,45.21,11.47,7.92,26.35,11.7,43.14,9.83,1.87-16.78-1.91-31.67-9.83-43.14Z" style="fill: #e2c665; fill-rule: evenodd; stroke: #e2c665; stroke-miterlimit: 22.93; stroke-width: 3.12px;"/>
    <path d="M124.44,143.31c8.93-12.93,23.12-21.51,40.38-23.55,5.23-.62,10.74-.64,16.48,0-4.51-3.6-8.39-7.51-11.65-11.65-10.76-13.65-14.73-29.75-11.9-45.21-11.46-7.92-26.35-11.7-43.14-9.83-1.87,16.78,1.91,31.67,9.83,43.14-13.7,2.51-26.91,10.36-37.45,23.55,10.54,13.19,23.74,21.05,37.45,23.55Z" style="fill: #e2c665; fill-rule: evenodd; stroke: #e2c665; stroke-miterlimit: 22.93; stroke-width: 3.12px;"/>
    <path d="M181.3,214.07c13.19-10.54,21.05-23.75,23.55-37.45-12.93-8.93-21.5-23.12-23.55-40.38-.62-5.23-.64-10.74,0-16.48-3.6,4.51-7.51,8.39-11.65,11.65-13.66,10.77-29.75,14.73-45.21,11.9-7.92,11.47-11.7,26.35-9.83,43.14,16.79,1.87,31.67-1.91,43.14-9.83,2.51,13.7,10.36,26.91,23.55,37.45Z" style="fill: #e2c665; fill-rule: evenodd; stroke: #e2c665; stroke-miterlimit: 22.93; stroke-width: 3.12px;"/>
    <path d="M204.85,62.9c-2.51-13.7-10.36-26.91-23.55-37.45-13.19,10.54-21.04,23.75-23.55,37.45,12.93,8.93,21.5,23.12,23.55,40.38.62,5.23.64,10.74,0,16.48,3.6-4.51,7.51-8.39,11.65-11.65,13.65-10.76,29.75-14.73,45.21-11.9,7.92-11.46,11.7-26.35,9.83-43.14-16.78-1.87-31.67,1.91-43.14,9.83Z" style="fill: none; fill-rule: evenodd; stroke: #e2c665; stroke-miterlimit: 22.93; stroke-width: 3.12px;"/>
  </g>
  <g>
    <g>
      <g>
        <path d="M341.2,49.29h-29.65v68.97h19.11v-19.7h9.56c17.05,0,29.56-8.57,29.56-24.93v-.2c0-15.28-11.23-24.14-28.57-24.14ZM350.75,74.52c0,5.52-4.23,9.06-10.93,9.06h-9.16v-18.23h9.06c6.8,0,11.04,3.06,11.04,8.97v.2Z" style="fill: #e2c665; fill-rule: evenodd;"/>
        <polygon points="430.36 101.51 430.36 118.26 377.85 118.26 377.85 49.29 396.96 49.29 396.96 101.51 430.36 101.51" style="fill: #e2c665; fill-rule: evenodd;"/>
      </g>
      <rect x="490.67" y="50.07" width="19.11" height="68.97" style="fill: #e2c665;"/>
      <path d="M481.6,110.64l-4.87-8.44-28.66-49.63c-1.05-1.83-3.01-2.95-5.12-2.95s-4.06,1.12-5.12,2.95l-4.85,8.4-20.12,34.85h16.6l11.83-20.47,1.67,2.89,1.38,2.38,12.46,21.59.03.04h-16.65v17.27h36.3c2.12,0,4.07-1.12,5.13-2.96,1.05-1.83,1.05-4.08,0-5.91Z" style="fill: #e2c665; fill-rule: evenodd;"/>
    </g>
    <g>
      <polygon points="374.14 126.4 392.62 126.4 407.83 150.94 423.04 126.4 441.52 126.4 441.44 190.1 424.79 190.1 424.87 153.08 407.83 177.32 390.79 153.08 390.87 190.1 374.22 190.1 374.14 126.4" style="fill: #e2c665; fill-rule: evenodd;"/>
      <path d="M364.91,161.89c-2.11-2.68-5.39-4.58-9.85-5.69,2.94-1.05,5.17-2.47,6.7-4.28,2.28-2.71,3.42-5.95,3.42-9.74,0-4.49-1.6-8.27-4.81-11.33-3.2-3.04-7.79-4.58-13.77-4.58h-34.91v23.32c5.71-1.35,11.36-2.26,16.91-2.39v-6.83l11.75.18c2.9.04,4.94.52,6.13,1.58,2.32,2.08,2.44,5.61,0,7.83-1.18,1.07-3.27,1.64-6.26,1.59-8.29-.13-17.02-.45-25.26,1.28-11.39,2.39-23.6,9.28-13.34,22.45,2.17-5.41,5.18-9.11,10.06-9.1v24.06h32.1c1.42,0,4.28-.3,8.6-.88,3.25-.44,5.68-1.14,7.28-2.09,2.61-1.55,4.65-3.64,6.14-6.29,1.5-2.65,2.25-5.63,2.25-8.95,0-4.06-1.06-7.45-3.15-10.14ZM349.95,172.51l-.07.13-.04.07-.07.13-.04.06-.04.06-.04.06-.04.06-.04.06-.09.13-.04.05h0s-.05.06-.05.06l-.04.06-.05.06-.04.05c-.22.26-.47.51-.74.75-1.34,1.2-3.67,1.77-6.97,1.8l-12.9.13v-12.06l12.85-.12h.92s.15,0,.15,0h.14s.14,0,.14,0h0s.14,0,.14,0h.14s.14.02.14.02h.13s.14.03.14.03h.13s.13.03.13.03h.13s.13.03.13.03h.13s.13.03.13.03l.13.02.13.02.13.02.12.03.13.02.12.02.12.03.12.02.12.03.12.03.12.03.11.03.11.03.11.03.11.04.11.03.1.03.11.04.1.04.1.04.1.03c.19.07.38.15.56.23l.09.04.08.04.09.04.08.04.08.04.08.04.08.04.07.04.08.05.07.04.07.04.07.05.07.04.06.05.07.05.31.27.05.05h0l.05.04h0s.05.05.05.05l.06.05.27.27.04.04.05.05.04.05.05.05.04.05.04.05.09.11.04.05.04.05c.57.76.87,1.6.87,2.85,0,1.08-.2,1.95-.58,2.7Z" style="fill: #e2c665; fill-rule: evenodd;"/>
      <path d="M475.2,126.29h-25.95v63.91h25.95c46.59,0,45.64-63.91,0-63.91ZM472.86,174.19h-5.61v-31.94h5.72c24.94,0,25.4,31.94-.11,31.94Z" style="fill: #e2c665; fill-rule: evenodd;"/>
    </g>
  </g>
</svg>