<?xml version="1.0" encoding="UTF-8"?>
<!DOCTYPE svg PUBLIC "-//W3C//DTD SVG 1.1//EN" "http://www.w3.org/Graphics/SVG/1.1/DTD/svg11.dtd">
<!-- Creator: CorelDRAW -->
<svg xmlns="http://www.w3.org/2000/svg" xml:space="preserve" width="635mm" height="127mm" version="1.1" style="shape-rendering:geometricPrecision; text-rendering:geometricPrecision; image-rendering:optimizeQuality; fill-rule:evenodd; clip-rule:evenodd"
viewBox="0 0 63500 12700"
 xmlns:xlink="http://www.w3.org/1999/xlink"
 xmlns:xodm="http://www.corel.com/coreldraw/odm/2003">
 <defs>
  <style type="text/css">
   <![CDATA[
    .str0 {stroke:#E1C964;stroke-width:84.67;stroke-miterlimit:22.9256}
    .fil1 {fill:none}
    .fil0 {fill:#E1C964}
    .fil2 {fill:#E1C964;fill-rule:nonzero}
    .fil3 {fill:#E2C665;fill-rule:nonzero}
   ]]>
  </style>
 </defs>
 <g id="Layer_x0020_1">
  <metadata id="CorelCorpID_0Corel-Layer"/>
  <g id="ICON">
   <path class="fil0 str0" d="M9836.56 7592.34c718.66,-131.39 1410.94,-543.1 1963.93,-1235.05 -552.99,-691.87 -1245.27,-1103.58 -1963.93,-1235.05 -468.33,678.03 -1212.3,1127.82 -2117.73,1235.05 -274.22,32.48 -563.29,33.55 -864.05,0 236.39,188.83 439.98,393.99 611.01,610.93 564.28,716.1 772.4,1560.29 624.03,2370.77 601.29,415.26 1381.93,613.65 2262.14,515.4 98.17,-880.21 -100.14,-1660.77 -515.4,-2262.05z"/>
   <path class="fil0 str0" d="M3873.08 7592.34c468.33,-678.03 1212.38,-1127.82 2117.72,-1235.05 274.31,-32.48 563.29,-33.46 863.98,0 -236.31,-188.92 -439.98,-394.07 -610.85,-610.93 -564.36,-716.02 -772.48,-1560.21 -624.12,-2370.77 -601.2,-415.17 -1381.84,-613.65 -2262.13,-515.4 -98.09,880.21 100.22,1660.85 515.4,2262.05 -718.66,131.47 -1410.95,543.18 -1963.85,1235.05 552.9,691.95 1245.19,1103.66 1963.85,1235.05z"/>
   <path class="fil0 str0" d="M6854.78 11303c691.95,-552.99 1103.66,-1245.27 1235.04,-1964.01 -678.02,-468.25 -1127.73,-1212.3 -1235.04,-2117.73 -32.4,-274.22 -33.47,-563.29 0,-863.97 -188.84,236.39 -393.99,440.06 -610.85,610.93 -716.1,564.52 -1560.29,772.48 -2370.85,624.12 -415.18,601.28 -613.49,1381.84 -515.4,2262.05 880.29,98.25 1660.93,-100.14 2262.13,-515.4 131.39,718.66 543.1,1411.02 1234.97,1964.01z"/>
   <path class="fil1 str0" d="M8089.82 3375.59c-131.38,-718.66 -543.09,-1411.02 -1235.04,-1964.01 -691.87,552.99 -1103.58,1245.35 -1234.97,1964.01 677.86,468.33 1127.73,1212.3 1234.97,2117.73 32.55,274.14 33.54,563.29 0,863.97 188.91,-236.31 394.07,-439.9 611.01,-610.93 716.02,-564.28 1560.21,-772.4 2370.77,-624.12 415.26,-601.2 613.57,-1381.84 515.4,-2262.05 -880.21,-98.25 -1660.85,100.23 -2262.14,515.4z"/>
  </g>
  <g id="_1725324684032">
   <g>
    <polygon class="fil2" points="30774.2,8558.38 31412.51,8558.38 31412.51,10399.87 32577.27,10399.87 32577.27,10959.85 30774.2,10959.85 "/>
    <polygon class="fil2" points="25153.87,8561.04 25849.78,8561.04 26422.73,9485.56 26995.68,8561.04 27691.59,8561.04 27688.68,10960.4 27061.59,10960.4 27064.51,9566.13 26422.73,10479.14 25780.95,9566.13 25783.87,10960.4 25156.78,10960.4 "/>
    <polygon class="fil2" points="23076.08,8554.57 23729.71,8554.57 23729.71,10963.54 23076.08,10963.54 "/>
    <path class="fil2" d="M20422.85 8553.74l977.42 0c1719.09,0 1754.91,2407.32 0,2407.32l-977.42 0 0 -2407.32zm677.89 601.49l0 1202.92 211.6 0c960.61,0 943.49,-1202.92 3.75,-1202.92l-215.35 0z"/>
    <path class="fil2" d="M19301.12 8548.4l716.12 0 0 1436.99c0,142.53 -21.63,276.62 -64.32,403.44 -42.7,126.25 -109.71,237.36 -201.05,332.17 -91.34,94.83 -187,161.06 -287.52,199.76 -139.44,53.31 -306.44,80.25 -502.09,80.25 -112.96,0 -236.18,-7.87 -369.68,-24.69 -133.49,-16.27 -244.83,-48.82 -334.54,-97.64 -89.71,-48.81 -171.87,-118.39 -246.45,-208.17 -74.58,-89.78 -125.39,-182.36 -152.96,-277.76 -44.31,-153.17 -66.48,-288.95 -66.48,-407.36l0 -1436.99 716.12 0 0 1471.23c0,131.86 35.13,234.54 104.84,308.05 70.26,74.07 167.55,111.1 292.4,111.1 123.23,0 220.5,-36.47 290.76,-109.41 69.72,-72.4 104.85,-176.21 104.85,-309.74l0 -1471.23z"/>
    <path class="fil2" d="M15356.09 8553.76l1314.68 0c225.38,0 398.38,57.91 518.79,172.78 120.71,115.13 181.27,257.48 181.27,426.91 0,142.49 -42.98,264.77 -129,366.87 -57.7,67.89 -141.54,121.75 -252.07,161.01 167.67,41.52 291.26,113.34 370.74,214.32 78.93,101.52 118.66,228.88 118.66,382.02 0,125.09 -28.31,237.31 -84.37,337.14 -56.61,99.88 -133.37,178.39 -231.36,236.73 -60.42,35.93 -151.9,62.17 -274.36,78.53 -162.78,21.77 -270.57,33.12 -323.91,33.12l-1209.07 0c0,-302.02 0,-604.07 0,-906.07 -183.83,-0.76 -297.44,138.98 -379.14,342.63 -386.36,-496.49 73.55,-755.77 502.55,-845.81 310.09,-65.07 638.86,-52.96 951.19,-48.18 112.63,1.71 191.34,-19.93 235.7,-60.04 92.06,-83.16 87.5,-216.63 0,-294.65 -44.63,-39.77 -121.46,-57.79 -230.8,-59.46l-442.44 -6.74c0,85.79 0,171.59 0,257.4 -209.2,4.92 -422.08,39.17 -637.06,89.86l0 -878.37zm637.42 1882.75l0.05 0 0 0.02 485.67 -4.58c124.62,-1.13 212.17,-22.7 262.79,-67.8 10.38,-9.3 19.64,-18.71 27.93,-28.38l0 -0.02 1.91 -2.2 0 -0.02 1.84 -2.23 0 -0.02 1.87 -2.2 0 -0.02 1.75 -2.27 0 -0.03 1.76 -2.27 0 -0.02 1.68 -2.29 0 -0.02 1.69 -2.27 0 -0.02 1.61 -2.34 0 -0.02 1.6 -2.32 0 -0.02 1.55 -2.34 0 -0.02 1.55 -2.34 1.44 -2.42 1.46 -2.41 1.39 -2.45 0.02 0 1.37 -2.42 0.03 0 1.28 -2.5 0.02 0 1.3 -2.45 0.03 -0.02c14.51,-28.36 21.79,-60.85 21.79,-101.88 0,-46.65 -10.9,-78.58 -32.65,-107.16l-1.55 -2 -0.04 -0.02 -1.53 -2 -0.05 -0.03 -1.61 -2 -0.05 -0.02 -1.62 -1.98 -0.04 -0.02 -1.69 -2 -0.04 -0.02 -1.66 -1.93 -0.05 -0.03 -1.77 -2 -0.05 -0.02 -1.77 -1.93 -0.05 -0.02 -1.84 -2 -0.05 -0.03 -1.84 -1.93 -0.04 -0.02 -1.91 -2 -0.05 -0.02 -1.93 -1.94 -0.05 -0.02 -1.97 -1.93 -0.05 -0.02 -1.98 -1.94 -0.04 -0.02 -2.09 -2 -0.05 -0.02 -2.06 -1.93 -0.05 -0.03 -2.13 -1.97 -0.05 -0.02 -2.13 -1.94 -0.05 -0.02 -2.22 -2 -0.05 -0.02 -2.2 -1.96 -0.04 -0.02 -2.3 -2 -0.04 -0.02 -2.27 -1.96 -0.05 -0.02 -2.38 -2.02 -0.04 -0.02 -2.41 -1.98 -0.04 -0.02 -2.5 -1.94 -0.04 -0.02 -2.49 -1.89 -0.05 -0.02 -2.61 -1.89 -0.04 -0.02 -2.61 -1.84 -0.04 -0.02 -2.7 -1.8 -0.04 -0.02 -2.72 -1.76 -0.05 -0.02 -2.83 -1.77 -0.04 -0.03 -2.84 -1.73 -0.04 -0.02 -2.92 -1.68 -0.05 -0.03 -2.94 -1.64 -0.04 -0.02 -3.04 -1.64 -0.04 -0.02 -3.06 -1.6 -0.07 -0.02 -3.12 -1.55 -0.07 -0.02 -3.12 -1.51 -0.07 -0.02 -3.26 -1.53 -0.06 -0.02c-6.63,-3.01 -13.58,-5.87 -20.88,-8.5l-3.59 -1.28 -0.05 0 -3.71 -1.3 -0.04 0 -3.73 -1.26 -0.05 0 -3.82 -1.21 -0.04 0 -3.82 -1.15 -0.05 0 -3.93 -1.14 -0.02 0 -3.98 -1.13 -0.02 0 -4.05 -1.08 -0.02 0 -4.07 -1.01 -0.02 0 -4.2 -1.03 -0.02 0 -4.2 -0.99 -0.03 0 -4.27 -0.97 -0.02 0 -4.31 -0.92 -0.03 0 -4.4 -0.9 -0.02 0 -4.41 -0.85 -0.02 0 -4.52 -0.81 -4.53 -0.76 -4.66 -0.77 -4.67 -0.72 -4.74 -0.69 -4.76 -0.65 -4.88 -0.63 -4.88 -0.59 -0.02 0 -4.94 -0.54 -0.02 0 -4.97 -0.49 -0.02 0 -5.08 -0.5 -0.02 0 -5.1 -0.44 -0.03 0 -5.19 -0.43 -0.02 0 -5.19 -0.38 -0.02 0 -5.28 -0.36 -0.03 0 -5.32 -0.32 -0.02 0 -5.4 -0.27 -0.02 -0.02 -5.42 -0.18 -0.02 -0.02 -5.53 -0.2 -0.02 -0.03 -5.53 -0.15 -0.02 -0.03 -5.62 -0.13 -0.02 -0.02 -5.64 -0.05 -0.02 -0.02 -5.75 -0.07 -0.03 -0.02 -5.75 0 -11.77 0.04 -483.92 4.54 0 0.09 -0.05 0 0 454.04z"/>
    <polygon class="fil2" points="32913.77,8554.57 33552.09,8554.57 33552.09,10963.54 32913.77,10963.54 "/>
    <path class="fil2" d="M29625.24 8545.89l716.12 0 0 1436.99c0,142.53 -21.63,276.63 -64.31,403.44 -42.71,126.26 -109.71,237.36 -201.05,332.17 -91.34,94.83 -187.01,161.06 -287.53,199.76 -139.44,53.31 -306.44,80.25 -502.09,80.25 -112.96,0 -236.18,-7.86 -369.68,-24.68 -133.49,-16.28 -244.82,-48.83 -334.54,-97.65 -89.71,-48.8 -171.87,-118.39 -246.45,-208.17 -74.58,-89.78 -125.38,-182.36 -152.96,-277.75 -44.31,-153.17 -66.48,-288.96 -66.48,-407.37l0 -1436.99 716.12 0 0 1471.23c0,131.86 35.13,234.54 104.85,308.05 70.26,74.07 167.55,111.1 292.39,111.1 123.23,0 220.5,-36.47 290.76,-109.41 69.72,-72.4 104.85,-176.21 104.85,-309.74l0 -1471.23z"/>
    <path class="fil2" d="M35155.31 10508.96l-453.22 0 -159.45 448.33 -709.49 1.78 1008.23 -2388.33 313.93 0 313.93 0 1008.23 2388.33 -709.49 -1.78 -159.45 -448.33 -453.22 0zm0 -1258.5l-280.1 769.59 280.1 0 280.1 0 -280.1 -769.59z"/>
    <path class="fil2" d="M43956.91 10508.96l-453.22 0 -159.45 448.33 -709.49 1.78 1008.23 -2388.33 313.93 0 313.93 0c173.8,411.71 340.6,806.82 514.4,1218.52 -177.5,69.42 -395.12,96.72 -600.46,82.03l-227.87 -620.83 -280.1 769.59 667.33 2.42c99.39,0.34 194.91,-5.62 293.75,-18.58 310.12,-40.65 429.14,-174.43 530.18,-382.69 174.75,258.46 173.7,508 -140.72,741.59l251.72 596.28 -709.49 -1.78 -159.45 -448.33 -453.22 0z"/>
    <path class="fil2" d="M41851.57 8554.05l716.12 0 0 1436.99c0,142.53 -21.62,276.63 -64.31,403.44 -42.71,126.26 -109.71,237.36 -201.05,332.17 -91.34,94.83 -187,161.06 -287.53,199.76 -139.43,53.31 -306.44,80.25 -502.08,80.25 -112.97,0 -236.18,-7.87 -369.69,-24.68 -133.48,-16.28 -244.82,-48.83 -334.54,-97.65 -89.71,-48.81 -171.87,-118.39 -246.45,-208.17 -74.58,-89.78 -125.38,-182.36 -152.95,-277.76 -44.32,-153.17 -66.48,-288.95 -66.48,-407.36l0 -1436.99 716.11 0 0 1471.23c0,131.86 35.13,234.54 104.85,308.05 70.26,74.07 167.55,111.1 292.39,111.1 123.24,0 220.51,-36.47 290.77,-109.41 69.71,-72.4 104.84,-176.21 104.84,-309.74l0 -1471.23z"/>
    <path class="fil2" d="M37718.73 8553.82l977.57 0c1719.21,0 1754.95,2407.2 0,2407.2l-977.57 0 0 -2407.2zm678.03 601.29l0 1202.94 211.52 0c960.65,0 943.49,-1202.94 3.93,-1202.94l-215.45 0z"/>
   </g>
   <path id="AI" class="fil3" d="M14835.56 7635.98l689.61 0 169.85 -428.02 920.59 0 169.84 428.02 706.59 0 -1012.31 -2394.89 -635.25 0 -1008.92 2394.89zm1053.09 -940.96l268.36 -672.61 264.97 672.61 -533.33 0zm1834.39 940.96l659.01 0 0 -720.17 292.15 0 478.98 720.17 757.53 0 -567.31 -828.86c298.95,-125.7 489.17,-366.88 489.17,-733.76l0 -6.8c0,-227.59 -71.34,-414.42 -210.6,-553.7 -159.67,-159.67 -407.64,-254.78 -774.52,-254.78l-1124.41 0 0 2377.9zm659.01 -1236.5l0 -574.09 434.83 0c217.4,0 356.68,95.11 356.68,285.33l0 6.8c0,173.25 -132.48,281.96 -353.29,281.96l-438.22 0zm2364.32 1236.5l659.01 0 0 -1800.4 713.38 0 0 -577.5 -2082.37 0 0 577.5 709.98 0 0 1800.4zm1678.12 0l659.03 0 0 -2377.9 -659.03 0 0 2377.9zm1093.85 0l659.01 0 0 -849.24 1124.41 0 0 -546.93 -1124.41 0 0 -404.23 1243.31 0 0 -577.5 -1902.32 0 0 2377.9zm2221.63 0l659.03 0 0 -2377.9 -659.03 0 0 2377.9zm2242.03 47.57c523.14,0 822.09,-227.61 1049.68,-536.74l-495.97 -353.29c-146.07,173.25 -288.74,288.76 -536.72,288.76 -332.91,0 -567.31,-278.57 -567.31,-635.26l0 -6.78c0,-346.49 234.4,-631.84 567.31,-631.84 231.01,0 383.85,112.1 519.75,278.54l495.95 -383.84c-207.21,-288.76 -526.53,-492.59 -1008.9,-492.59 -720.17,0 -1250.1,543.54 -1250.1,1236.51l0 6.8c0,709.99 546.92,1229.73 1226.31,1229.73zm1352 -47.57l659.03 0 0 -2377.9 -659.03 0 0 2377.9zm907 0l689.61 0 169.85 -428.02 920.59 0 169.84 428.02 706.59 0 -1012.31 -2394.89 -635.25 0 -1008.92 2394.89zm1053.09 -940.96l268.36 -672.61 264.97 672.61 -533.33 0zm1834.39 940.96l1810.6 0 0 -577.5 -1151.59 0 0 -1800.4 -659.01 0 0 2377.9zm3132.03 0l659.02 0 0 -2377.9 -659.02 0 0 2377.9zm1093.85 0l652.23 0 0 -1304.45 1019.08 1304.45 574.11 0 0 -2377.9 -652.23 0 0 1256.89 -978.34 -1256.89 -614.85 0 0 2377.9zm3247.53 0l659.01 0 0 -1800.4 713.38 0 0 -577.5 -2082.37 0 0 577.5 709.98 0 0 1800.4zm1661.15 0l1929.5 0 0 -560.5 -1277.28 0 0 -377.07 1141.38 0 0 -519.75 -1141.38 0 0 -363.46 1260.28 0 0 -557.12 -1912.5 0 0 2377.9zm2269.19 0l1810.6 0 0 -577.5 -1151.59 0 0 -1800.4 -659.01 0 0 2377.9zm2095.95 0l1810.59 0 0 -577.5 -1151.59 0 0 -1800.4 -659 0 0 2377.9zm2112.91 0l659.03 0 0 -2377.9 -659.03 0 0 2377.9zm2306.59 47.57c438.2,0 777.91,-156.28 1032.69,-370.29l0 -1066.65 -1090.44 0 0 482.37 465.37 0 0 288.74c-95.1,64.56 -217.4,98.52 -380.45,98.52 -377.07,0 -645.43,-275.16 -645.43,-662.42l0 -6.8c0,-363.47 268.36,-648.82 608.07,-648.82 241.18,0 400.84,78.14 574.09,224.21l387.26 -468.79c-254.78,-217.4 -543.54,-343.11 -964.76,-343.11 -733.75,0 -1277.27,543.54 -1277.27,1236.51l0 6.8c0,723.57 546.93,1229.73 1290.87,1229.73zm1399.57 -47.57l1929.5 0 0 -560.5 -1277.28 0 0 -377.07 1141.38 0 0 -519.75 -1141.38 0 0 -363.46 1260.28 0 0 -557.12 -1912.5 0 0 2377.9zm2269.19 0l652.23 0 0 -1304.45 1019.08 1304.45 574.11 0 0 -2377.9 -652.22 0 0 1256.89 -978.34 -1256.89 -614.86 0 0 2377.9zm3814.83 47.57c523.13,0 822.08,-227.61 1049.67,-536.74l-495.97 -353.29c-146.06,173.25 -288.74,288.76 -536.71,288.76 -332.92,0 -567.31,-278.57 -567.31,-635.26l0 -6.78c0,-346.49 234.39,-631.84 567.31,-631.84 231,0 383.85,112.1 519.74,278.54l495.95 -383.84c-207.21,-288.76 -526.52,-492.59 -1008.89,-492.59 -720.18,0 -1250.11,543.54 -1250.11,1236.51l0 6.8c0,709.99 546.93,1229.73 1226.32,1229.73zm1335.02 -47.57l1929.5 0 0 -560.5 -1277.27 0 0 -377.07 1141.38 0 0 -519.75 -1141.38 0 0 -363.46 1260.28 0 0 -557.12 -1912.51 0 0 2377.9z"/>
   <path class="fil2" d="M14831.75 4263.48l694.37 0 0 -715.84 347.18 0c619.21,0 1073.76,-311.4 1073.76,-905.55l0 -7.16c0,-554.78 -408.02,-876.9 -1037.97,-876.9l-1077.34 0 0 2505.45zm694.37 -1259.89l0 -662.15 329.28 0c246.97,0 400.87,110.95 400.87,325.7l0 7.16c0,200.45 -153.9,329.29 -397.29,329.29l-332.86 0zm2977.9 1310c773.11,0 1352.94,-583.42 1352.94,-1302.84l0 -7.16c0,-715.84 -572.67,-1295.68 -1345.78,-1295.68 -773.11,0 -1352.94,583.42 -1352.94,1302.84l0 7.16c0,715.84 572.68,1295.68 1345.78,1295.68zm7.16 -626.37c-382.97,0 -644.26,-318.55 -644.26,-676.47l0 -7.16c0,-361.5 254.13,-669.31 637.1,-669.31 382.98,0 640.69,311.39 640.69,676.47l0 7.16c0,361.5 -254.13,669.31 -633.53,669.31zm1703.71 576.26l1907.72 0 0 -608.47 -1213.35 0 0 -1896.98 -694.37 0 0 2505.45zm2226.27 0l694.37 0 0 -2505.45 -694.37 0 0 2505.45zm1764.55 0l694.37 0 0 -1896.99 751.63 0 0 -608.46 -2194.05 0 0 608.46 748.05 0 0 1896.99zm1750.23 0l2033 0 0 -590.57 -1345.79 0 0 -397.29 1202.62 0 0 -547.62 -1202.62 0 0 -382.98 1327.9 0 0 -586.99 -2015.11 0 0 2505.45zm2390.92 0l694.37 0 0 -651.42 254.12 -279.18 633.53 930.6 830.37 0 -980.71 -1431.69 948.5 -1073.76 -823.22 0 -862.59 1016.49 0 -1016.49 -694.37 0 0 2505.45zm2612.82 0l687.21 0 0 -1374.42 1073.76 1374.42 604.89 0 0 -2505.45 -687.2 0 0 1324.31 -1030.82 -1324.31 -647.84 0 0 2505.45zm2827.58 0l694.37 0 0 -2505.45 -694.37 0 0 2505.45zm1152.51 0l694.37 0 0 -651.42 254.12 -279.18 633.52 930.6 830.38 0 -980.71 -1431.69 948.49 -1073.76 -823.22 0 -862.58 1016.49 0 -1016.49 -694.37 0 0 2505.45z"/>
  </g>
 </g>
</svg>
